<svg xmlns="http://www.w3.org/2000/svg" viewBox="0 0 283.46 283.46"><defs><style>.cls-1{fill:#1d1d1b;}.cls-2,.cls-3{fill:none;stroke:#fff;stroke-miterlimit:10;}.cls-2{stroke-width:0.4px;}.cls-3{stroke-width:1.2px;}</style></defs><g id="tła"><rect class="cls-1" x="-0.18" width="283.46" height="283.46"/></g><g id="logo"><path class="cls-2" d="M241.14,157.56h2.46v-1.65A29.31,29.31,0,0,1,241.14,157.56Z"/><path class="cls-2" d="M243.6,109.93h-.86l.86.62Z"/><path class="cls-2" d="M102.72,109.93h-.85v.62C102.15,110.34,102.43,110.13,102.72,109.93Z"/><path class="cls-2" d="M241.14,157.56a28.55,28.55,0,0,1-8.65,3.4H243.6v-3.4Z"/><path class="cls-2" d="M56.51,110.55v-.62h-.85C56,110.13,56.23,110.34,56.51,110.55Z"/><path class="cls-2" d="M30,147.35a17,17,0,0,0,19,0"/><path class="cls-2" d="M35.33,116.74a17.06,17.06,0,0,0-6.69,3.4"/><path class="cls-2" d="M50.36,120.14a17,17,0,0,0-6.68-3.4"/><path class="cls-2" d="M43.68,116.74a17,17,0,0,0-8.35,0"/><path class="cls-2" d="M53.48,123.54a16.8,16.8,0,0,0-3.12-3.4"/><path class="cls-2" d="M28.64,120.14a17,17,0,0,0-3.11,3.4"/><path class="cls-2" d="M52.71,144a17.13,17.13,0,0,0,2.15-3.4"/><path class="cls-2" d="M24.15,140.55A17.13,17.13,0,0,0,26.3,144"/><path class="cls-2" d="M56.05,137.15a17.39,17.39,0,0,0,.45-3.41"/><path class="cls-2" d="M22.51,133.74a16.67,16.67,0,0,0,.44,3.41"/><path class="cls-2" d="M54.86,140.55a17.34,17.34,0,0,0,1.19-3.4"/><path class="cls-2" d="M23,137.15a16.74,16.74,0,0,0,1.2,3.4"/><path class="cls-2" d="M49,147.35a17.17,17.17,0,0,0,3.72-3.4"/><path class="cls-2" d="M26.3,144a17.17,17.17,0,0,0,3.72,3.4"/><path class="cls-2" d="M56.26,130.34a17,17,0,0,0-.95-3.4"/><path class="cls-2" d="M23.7,126.94a17.66,17.66,0,0,0-1,3.4"/><path class="cls-2" d="M56.5,133.74c0-.15,0-.3,0-.46v-.11a16.55,16.55,0,0,0-.25-2.83"/><path class="cls-2" d="M22.74,130.34a17.16,17.16,0,0,0-.25,2.89c0,.17,0,.34,0,.51"/><path class="cls-2" d="M55.31,126.94a16.85,16.85,0,0,0-1.83-3.4"/><path class="cls-2" d="M25.53,123.54a16.85,16.85,0,0,0-1.83,3.4"/><path class="cls-2" d="M217.11,147.35a17,17,0,0,0,19,0"/><path class="cls-2" d="M209.83,130.34a17.16,17.16,0,0,0-.25,2.89c0,.17,0,.34,0,.51"/><path class="cls-2" d="M243.59,133.74c0-.17,0-.34,0-.51a17.16,17.16,0,0,0-.25-2.89"/><path class="cls-2" d="M215.73,120.14a17.4,17.4,0,0,0-3.12,3.4"/><path class="cls-2" d="M240.57,123.54a17.1,17.1,0,0,0-3.12-3.4"/><path class="cls-2" d="M209.6,133.74a16.67,16.67,0,0,0,.44,3.41"/><path class="cls-2" d="M243.14,137.15a17.39,17.39,0,0,0,.45-3.41"/><path class="cls-2" d="M222.42,116.74a16.93,16.93,0,0,0-6.69,3.4"/><path class="cls-2" d="M237.45,120.14a16.93,16.93,0,0,0-6.69-3.4"/><path class="cls-2" d="M213.39,144a16.94,16.94,0,0,0,3.72,3.4"/><path class="cls-2" d="M236.07,147.35a16.94,16.94,0,0,0,3.72-3.4"/><path class="cls-2" d="M230.76,116.74a17,17,0,0,0-8.34,0"/><path class="cls-2" d="M211.24,140.55a16.69,16.69,0,0,0,2.15,3.4"/><path class="cls-2" d="M239.79,144a17.18,17.18,0,0,0,2.16-3.4"/><path class="cls-2" d="M210,137.15a16.74,16.74,0,0,0,1.2,3.4"/><path class="cls-2" d="M242,140.55a17.34,17.34,0,0,0,1.19-3.4"/><path class="cls-2" d="M210.79,126.94a17,17,0,0,0-1,3.4"/><path class="cls-2" d="M243.35,130.34a16.34,16.34,0,0,0-1-3.4"/><path class="cls-2" d="M212.61,123.54a16.81,16.81,0,0,0-1.82,3.4"/><path class="cls-2" d="M242.39,126.94a16.81,16.81,0,0,0-1.82-3.4"/><path class="cls-2" d="M67.85,123.54H53.48a16.85,16.85,0,0,1,1.83,3.4H67.85Z"/><path class="cls-2" d="M67.85,130.34H56.26a16.55,16.55,0,0,1,.25,2.83v.11c0,.16,0,.31,0,.46H67.85Z"/><path class="cls-2" d="M67.85,126.94H55.31a17,17,0,0,1,.95,3.4H67.85Z"/><path class="cls-2" d="M54.86,140.55a17.13,17.13,0,0,1-2.15,3.4H67.85v-3.4Z"/><path class="cls-2" d="M67.85,133.74H56.5a17.39,17.39,0,0,1-.45,3.41h11.8Z"/><path class="cls-2" d="M67.85,137.15H56.05a17.34,17.34,0,0,1-1.19,3.4h13Z"/><rect class="cls-2" x="56.51" y="160.96" width="11.34" height="0.62"/><rect class="cls-2" x="56.51" y="104.88" width="11.34" height="1.65"/><path class="cls-2" d="M67.85,120.14H50.36a16.8,16.8,0,0,1,3.12,3.4H67.85Z"/><path class="cls-2" d="M39.5,104.88A28.5,28.5,0,0,0,30,106.53H49A28.41,28.41,0,0,0,39.5,104.88Z"/><path class="cls-2" d="M39.5,161.57a28.76,28.76,0,0,0,5.91-.61H33.61A28.57,28.57,0,0,0,39.5,161.57Z"/><path class="cls-2" d="M25.53,123.54H12.86a27.68,27.68,0,0,0-1,3.4H23.7A16.85,16.85,0,0,1,25.53,123.54Z"/><path class="cls-2" d="M26.3,144h-13a27.47,27.47,0,0,0,1.67,3.4H30A17.17,17.17,0,0,1,26.3,144Z"/><path class="cls-2" d="M67.85,147.35H49a17,17,0,0,1-19,0H14.93a29.37,29.37,0,0,0,2.3,3.4H67.85Z"/><path class="cls-2" d="M67.85,150.75H17.23a27.49,27.49,0,0,0,3.16,3.4H67.85Z"/><path class="cls-2" d="M56.51,155.91v1.65H67.85v-3.41H20.39A29.28,29.28,0,0,0,25,157.56h29.1A29.31,29.31,0,0,0,56.51,155.91Z"/><path class="cls-2" d="M22.51,133.74H11.17a29.41,29.41,0,0,0,.26,3.41H23A16.67,16.67,0,0,1,22.51,133.74Z"/><path class="cls-2" d="M22.49,133.23a17.16,17.16,0,0,1,.25-2.89H11.3c-.09.95-.14,1.91-.14,2.89,0,.17,0,.34,0,.51H22.51C22.5,133.57,22.49,133.4,22.49,133.23Z"/><path class="cls-2" d="M25,157.56a28.35,28.35,0,0,0,8.66,3.4h11.8a28.39,28.39,0,0,0,8.64-3.4Z"/><path class="cls-2" d="M23.7,126.94H11.87a27.41,27.41,0,0,0-.57,3.4H22.74A17.66,17.66,0,0,1,23.7,126.94Z"/><path class="cls-2" d="M24.15,140.55h-12a28.26,28.26,0,0,0,1.14,3.4h13A17.13,17.13,0,0,1,24.15,140.55Z"/><path class="cls-2" d="M23,137.15H11.43a27.67,27.67,0,0,0,.69,3.4h12A16.74,16.74,0,0,1,23,137.15Z"/><path class="cls-2" d="M49,106.53H30a28.83,28.83,0,0,0-6.6,3.4h32.3A28.37,28.37,0,0,0,49,106.53Z"/><path class="cls-2" d="M67.85,109.93H56.51v.62c-.28-.21-.56-.42-.85-.62H23.36a28,28,0,0,0-4,3.41H67.85Z"/><path class="cls-2" d="M35.33,116.74H16.46a27.49,27.49,0,0,0-2.1,3.4H28.64A17.06,17.06,0,0,1,35.33,116.74Z"/><rect class="cls-2" x="56.51" y="106.53" width="11.34" height="3.4"/><path class="cls-2" d="M39.5,116.22a17,17,0,0,1,4.18.52H67.85v-3.4H19.32a27.38,27.38,0,0,0-2.86,3.4H35.33A16.89,16.89,0,0,1,39.5,116.22Z"/><path class="cls-2" d="M67.85,120.14v-3.4H43.68a17,17,0,0,1,6.68,3.4Z"/><rect class="cls-2" x="56.51" y="157.56" width="11.34" height="3.4"/><path class="cls-2" d="M28.64,120.14H14.36a28.73,28.73,0,0,0-1.5,3.4H25.53A17,17,0,0,1,28.64,120.14Z"/><path class="cls-2" d="M52.71,144a17.17,17.17,0,0,1-3.72,3.4H67.85V144Z"/><rect class="cls-2" x="243.6" y="160.96" width="11.34" height="0.62"/><path class="cls-2" d="M226.59,104.88a28.41,28.41,0,0,0-9.54,1.65h19.08A28.41,28.41,0,0,0,226.59,104.88Z"/><path class="cls-2" d="M212.61,123.54a17.4,17.4,0,0,1,3.12-3.4H201.45a28.79,28.79,0,0,0-1.51,3.4Z"/><path class="cls-2" d="M226.59,161.57a28.59,28.59,0,0,0,5.9-.61H220.7A28.57,28.57,0,0,0,226.59,161.57Z"/><rect class="cls-2" x="243.6" y="104.88" width="11.34" height="1.65"/><path class="cls-2" d="M199,126.94h11.84a16.81,16.81,0,0,1,1.82-3.4H199.94A29.55,29.55,0,0,0,199,126.94Z"/><path class="cls-2" d="M198.39,130.34h11.44a17,17,0,0,1,1-3.4H199A29.39,29.39,0,0,0,198.39,130.34Z"/><path class="cls-2" d="M200.35,144h13a16.69,16.69,0,0,1-2.15-3.4h-12A28.31,28.31,0,0,0,200.35,144Z"/><path class="cls-2" d="M198.24,133.23c0,.17,0,.34,0,.51H209.6c0-.17,0-.34,0-.51a17.16,17.16,0,0,1,.25-2.89H198.39A27.54,27.54,0,0,0,198.24,133.23Z"/><path class="cls-2" d="M213.39,144h-13a27.47,27.47,0,0,0,1.67,3.4h15.09A16.94,16.94,0,0,1,213.39,144Z"/><path class="cls-2" d="M199.2,140.55h12a16.74,16.74,0,0,1-1.2-3.4H198.52A29.64,29.64,0,0,0,199.2,140.55Z"/><path class="cls-2" d="M198.52,137.15H210a16.67,16.67,0,0,1-.44-3.41H198.26A29.41,29.41,0,0,0,198.52,137.15Z"/><path class="cls-2" d="M243.14,137.15h11.8v-3.41H243.59A17.39,17.39,0,0,1,243.14,137.15Z"/><path class="cls-2" d="M243.6,133.23c0,.17,0,.34,0,.51h11.35v-3.4H243.35A17.16,17.16,0,0,1,243.6,133.23Z"/><path class="cls-2" d="M243.35,130.34h11.59v-3.4H242.39A16.34,16.34,0,0,1,243.35,130.34Z"/><path class="cls-2" d="M242.39,126.94h12.55v-3.4H240.57A16.81,16.81,0,0,1,242.39,126.94Z"/><path class="cls-2" d="M236.07,147.35h18.87V144H239.79A16.94,16.94,0,0,1,236.07,147.35Z"/><path class="cls-2" d="M240.57,123.54h14.37v-3.4H237.45A17.1,17.1,0,0,1,240.57,123.54Z"/><path class="cls-2" d="M239.79,144h15.15v-3.4H242A17.18,17.18,0,0,1,239.79,144Z"/><path class="cls-2" d="M242,140.55h13v-3.4h-11.8A17.34,17.34,0,0,1,242,140.55Z"/><path class="cls-2" d="M226.59,150.24a17,17,0,0,1-9.48-2.89H202a27,27,0,0,0,2.3,3.4h50.62v-3.4H236.07A17,17,0,0,1,226.59,150.24Z"/><path class="cls-2" d="M242.74,109.93a28.5,28.5,0,0,0-6.61-3.4H217.05a28.62,28.62,0,0,0-6.6,3.4Z"/><rect class="cls-2" x="243.6" y="106.53" width="11.34" height="3.4"/><path class="cls-2" d="M212,157.56a28.25,28.25,0,0,0,8.66,3.4h11.79a28.55,28.55,0,0,0,8.65-3.4Z"/><path class="cls-2" d="M215.73,120.14a16.93,16.93,0,0,1,6.69-3.4H203.54a28.67,28.67,0,0,0-2.09,3.4Z"/><path class="cls-2" d="M237.45,120.14h17.49v-3.4H230.76A16.93,16.93,0,0,1,237.45,120.14Z"/><path class="cls-2" d="M203.54,116.74h18.88a17,17,0,0,1,8.34,0h24.18v-3.4H206.4A28.27,28.27,0,0,0,203.54,116.74Z"/><path class="cls-2" d="M206.4,113.34h48.54v-3.41H243.6v.62l-.86-.62H210.45A28.13,28.13,0,0,0,206.4,113.34Z"/><path class="cls-2" d="M207.47,154.15a28.9,28.9,0,0,0,4.57,3.41h29.1a29.31,29.31,0,0,0,2.46-1.65v1.65h11.34v-3.41Z"/><rect class="cls-2" x="243.6" y="157.56" width="11.34" height="3.4"/><path class="cls-2" d="M207.47,154.15h47.47v-3.4H204.32A28.2,28.2,0,0,0,207.47,154.15Z"/><rect class="cls-2" x="73.52" y="167.76" width="11.34" height="3.4"/><rect class="cls-2" x="73.52" y="164.36" width="11.34" height="3.4"/><rect class="cls-2" x="73.52" y="160.96" width="11.34" height="3.4"/><rect class="cls-2" x="73.52" y="171.16" width="11.34" height="3.4"/><rect class="cls-2" x="73.52" y="174.56" width="11.34" height="3.4"/><rect class="cls-2" x="73.52" y="154.15" width="11.34" height="3.4"/><rect class="cls-2" x="73.52" y="109.93" width="11.34" height="3.4"/><rect class="cls-2" x="73.52" y="116.74" width="11.34" height="3.4"/><rect class="cls-2" x="73.52" y="133.74" width="11.34" height="3.4"/><rect class="cls-2" x="73.52" y="104.88" width="11.34" height="1.65"/><rect class="cls-2" x="73.52" y="126.94" width="11.34" height="3.4"/><rect class="cls-2" x="73.52" y="177.97" width="11.34" height="3.4"/><rect class="cls-2" x="73.52" y="140.55" width="11.34" height="3.4"/><rect class="cls-2" x="73.52" y="120.14" width="11.34" height="3.4"/><rect class="cls-2" x="73.52" y="130.34" width="11.34" height="3.4"/><rect class="cls-2" x="73.52" y="143.95" width="11.34" height="3.4"/><rect class="cls-2" x="73.52" y="150.75" width="11.34" height="3.4"/><rect class="cls-2" x="73.52" y="157.56" width="11.34" height="3.4"/><rect class="cls-2" x="73.52" y="137.15" width="11.34" height="3.4"/><rect class="cls-2" x="73.52" y="123.54" width="11.34" height="3.4"/><rect class="cls-2" x="73.52" y="106.53" width="11.34" height="3.4"/><rect class="cls-2" x="73.52" y="194.97" width="11.34" height="0.62"/><rect class="cls-2" x="73.52" y="191.57" width="11.34" height="3.4"/><rect class="cls-2" x="73.52" y="188.17" width="11.34" height="3.4"/><rect class="cls-2" x="73.52" y="184.77" width="11.34" height="3.4"/><rect class="cls-2" x="73.52" y="147.35" width="11.34" height="3.4"/><rect class="cls-2" x="73.52" y="113.34" width="11.34" height="3.4"/><rect class="cls-2" x="73.52" y="181.37" width="11.34" height="3.4"/><rect class="cls-2" x="260.61" y="123.54" width="11.34" height="3.4"/><rect class="cls-2" x="260.61" y="120.14" width="11.34" height="3.4"/><rect class="cls-2" x="260.61" y="137.15" width="11.34" height="3.4"/><rect class="cls-2" x="260.61" y="116.74" width="11.34" height="3.4"/><rect class="cls-2" x="260.61" y="140.55" width="11.34" height="3.4"/><rect class="cls-2" x="260.61" y="143.95" width="11.34" height="3.4"/><rect class="cls-2" x="260.61" y="157.56" width="11.34" height="3.4"/><rect class="cls-2" x="260.61" y="133.74" width="11.34" height="3.4"/><rect class="cls-2" x="260.61" y="126.94" width="11.34" height="3.4"/><rect class="cls-2" x="260.61" y="154.15" width="11.34" height="3.4"/><rect class="cls-2" x="260.61" y="150.75" width="11.34" height="3.4"/><rect class="cls-2" x="260.61" y="147.35" width="11.34" height="3.4"/><rect class="cls-2" x="260.61" y="113.34" width="11.34" height="3.4"/><rect class="cls-2" x="260.61" y="92.93" width="11.34" height="3.4"/><rect class="cls-2" x="260.61" y="160.96" width="11.34" height="0.62"/><rect class="cls-2" x="260.61" y="130.34" width="11.34" height="3.4"/><rect class="cls-2" x="260.61" y="89.52" width="11.34" height="3.4"/><rect class="cls-2" x="260.61" y="87.87" width="11.34" height="1.65"/><rect class="cls-2" x="260.61" y="96.33" width="11.34" height="3.4"/><rect class="cls-2" x="260.61" y="103.13" width="11.34" height="3.4"/><rect class="cls-2" x="260.61" y="99.73" width="11.34" height="3.4"/><rect class="cls-2" x="260.61" y="109.93" width="11.34" height="3.4"/><rect class="cls-2" x="260.61" y="106.53" width="11.34" height="3.4"/><path class="cls-2" d="M192.43,130.34a29.39,29.39,0,0,0-.56-3.4H180a17,17,0,0,1,1,3.4Z"/><path class="cls-2" d="M181.24,133.23h0v.51h11.34v-.51h0a27.54,27.54,0,0,0-.15-2.89H181A17.16,17.16,0,0,1,181.24,133.23Z"/><rect class="cls-2" x="181.24" y="133.74" width="11.34" height="3.4"/><rect class="cls-2" x="181.24" y="160.96" width="11.34" height="0.62"/><rect class="cls-2" x="135.88" y="160.96" width="11.34" height="0.62"/><path class="cls-2" d="M164.23,104.88a28.41,28.41,0,0,0-9.54,1.65h19.08A28.41,28.41,0,0,0,164.23,104.88Z"/><rect class="cls-2" x="90.53" y="160.96" width="11.34" height="0.62"/><rect class="cls-2" x="135.88" y="137.15" width="11.34" height="3.4"/><path class="cls-2" d="M147.22,133.23h0a17.16,17.16,0,0,1,.25-2.89H135.63a17.16,17.16,0,0,1,.25,2.89v.51h11.34Z"/><rect class="cls-2" x="90.53" y="104.88" width="11.34" height="1.65"/><path class="cls-2" d="M118.87,104.88a28.4,28.4,0,0,0-9.53,1.65h19.08A28.47,28.47,0,0,0,118.87,104.88Z"/><rect class="cls-2" x="135.88" y="133.74" width="11.34" height="3.4"/><rect class="cls-2" x="181.24" y="157.56" width="11.34" height="3.4"/><path class="cls-2" d="M139.06,113.34a27.51,27.51,0,0,0-4-3.41h-32.3c-.29.2-.57.41-.85.62v-.62H90.53v3.41Z"/><rect class="cls-2" x="135.88" y="154.15" width="11.34" height="3.4"/><rect class="cls-2" x="90.53" y="143.95" width="11.34" height="3.4"/><path class="cls-2" d="M144,113.34h40.38a28.13,28.13,0,0,0-4-3.41H148.08A28.6,28.6,0,0,0,144,113.34Z"/><rect class="cls-2" x="181.24" y="143.95" width="11.34" height="3.4"/><rect class="cls-2" x="181.24" y="147.35" width="11.34" height="3.4"/><rect class="cls-2" x="135.88" y="143.95" width="11.34" height="3.4"/><rect class="cls-2" x="181.24" y="140.55" width="11.34" height="3.4"/><rect class="cls-2" x="181.24" y="154.15" width="11.34" height="3.4"/><rect class="cls-2" x="90.53" y="154.15" width="11.34" height="3.4"/><rect class="cls-2" x="135.88" y="150.75" width="11.34" height="3.4"/><rect class="cls-2" x="90.53" y="150.75" width="11.34" height="3.4"/><path class="cls-2" d="M178.2,123.54h12.68a28.79,28.79,0,0,0-1.51-3.4H175.09A17,17,0,0,1,178.2,123.54Z"/><rect class="cls-2" x="90.53" y="147.35" width="11.34" height="3.4"/><rect class="cls-2" x="181.24" y="150.75" width="11.34" height="3.4"/><path class="cls-2" d="M189.37,120.14a28.67,28.67,0,0,0-2.09-3.4H168.39a16.9,16.9,0,0,1,6.7,3.4Z"/><path class="cls-2" d="M153.37,120.14a16.93,16.93,0,0,1,6.69-3.4H123a16.86,16.86,0,0,1,6.69,3.4Z"/><rect class="cls-2" x="135.88" y="147.35" width="11.34" height="3.4"/><path class="cls-2" d="M108,120.14a16.86,16.86,0,0,1,6.69-3.4H90.53v3.4Z"/><rect class="cls-2" x="90.53" y="106.53" width="11.34" height="3.4"/><rect class="cls-2" x="135.88" y="157.56" width="11.34" height="3.4"/><rect class="cls-2" x="90.53" y="157.56" width="11.34" height="3.4"/><path class="cls-2" d="M191.87,126.94a29.55,29.55,0,0,0-1-3.4H178.2a16.36,16.36,0,0,1,1.83,3.4Z"/><rect class="cls-2" x="181.24" y="137.15" width="11.34" height="3.4"/><path class="cls-2" d="M135.63,130.34h11.84a16.34,16.34,0,0,1,1-3.4H134.68A17,17,0,0,1,135.63,130.34Z"/><path class="cls-2" d="M102.12,130.34H90.53v2.88h0v.51h11.34v-.52A17.13,17.13,0,0,1,102.12,130.34Z"/><path class="cls-2" d="M148.43,126.94a16.81,16.81,0,0,1,1.82-3.4h-17.4a16.85,16.85,0,0,1,1.83,3.4Z"/><path class="cls-2" d="M132.85,123.54h17.4a17.1,17.1,0,0,1,3.12-3.4H129.73A16.8,16.8,0,0,1,132.85,123.54Z"/><rect class="cls-2" x="135.88" y="140.55" width="11.34" height="3.4"/><path class="cls-2" d="M114.71,116.74a16.94,16.94,0,0,1,8.33,0h37a16.94,16.94,0,0,1,8.33,0h18.89a28.27,28.27,0,0,0-2.86-3.4H144a28.58,28.58,0,0,0-2.49,2.88,27.36,27.36,0,0,0-2.49-2.88H90.53v3.4Z"/><rect class="cls-2" x="90.53" y="133.74" width="11.34" height="3.4"/><rect class="cls-2" x="90.53" y="140.55" width="11.34" height="3.4"/><path class="cls-2" d="M180.37,109.93a28.62,28.62,0,0,0-6.6-3.4H154.69a28.49,28.49,0,0,0-6.61,3.4Z"/><rect class="cls-2" x="90.53" y="137.15" width="11.34" height="3.4"/><path class="cls-2" d="M104.9,123.54H90.53v3.4h12.54A16.85,16.85,0,0,1,104.9,123.54Z"/><path class="cls-2" d="M135,109.93a28.62,28.62,0,0,0-6.6-3.4H109.34a28.37,28.37,0,0,0-6.62,3.4Z"/><path class="cls-2" d="M102.12,130.34a17,17,0,0,1,.95-3.4H90.53v3.4Z"/><path class="cls-2" d="M108,120.14H90.53v3.4H104.9A16.8,16.8,0,0,1,108,120.14Z"/><rect class="cls-2" x="73.52" y="96.33" width="11.34" height="2.89"/><rect class="cls-2" x="73.52" y="87.87" width="11.34" height="1.65"/><rect class="cls-2" x="73.52" y="92.93" width="11.34" height="3.4"/><rect class="cls-2" x="73.52" y="89.52" width="11.34" height="3.4"/><path class="cls-3" d="M56.51,104.88v5.67a28.34,28.34,0,1,0,0,45.36v5.66H67.85V104.88Zm-17,45.36a17,17,0,1,1,17-17.07v.11A17,17,0,0,1,39.5,150.24Z"/><path class="cls-3" d="M243.6,104.88v5.67a28.34,28.34,0,1,0,0,45.36v5.66h11.34V104.88Zm-17,45.36a17,17,0,1,1,17-17A17,17,0,0,1,226.59,150.24Z"/><rect class="cls-3" x="73.52" y="104.88" width="11.34" height="90.71"/><rect class="cls-3" x="260.61" y="87.87" width="11.34" height="73.7"/><path class="cls-3" d="M164.23,104.88a28.32,28.32,0,0,0-22.68,11.34,28.34,28.34,0,0,0-39.68-5.67v-5.67H90.53v28.34h0v28.34h11.34V133.22a17,17,0,1,1,34,0v28.34h11.34V133.23h0a17,17,0,0,1,34,0h0v28.34h11.34V133.23h0A28.35,28.35,0,0,0,164.23,104.88Z"/><rect class="cls-3" x="73.52" y="87.87" width="11.34" height="11.34"/></g></svg>