<svg xmlns="http://www.w3.org/2000/svg" viewBox="0 0 283.46 283.46"><defs><style>.cls-1{fill:#1d1d1b;}.cls-2{fill:#fff;}</style></defs><g id="tła"><rect class="cls-1" x="0.01" width="283.46" height="283.46"/></g><g id="logo"><path class="cls-2" d="M56.7,104.88v5.67a28.34,28.34,0,1,0,0,45.36v5.66H68V104.88Zm-17,45.36a17,17,0,1,1,17-17.07v.11A17,17,0,0,1,39.7,150.24Z"/><path class="cls-2" d="M243.79,104.88v5.67a28.34,28.34,0,1,0,0,45.36v5.66h11.34V104.88Zm-17,45.36a17,17,0,1,1,17-17A17,17,0,0,1,226.78,150.24Z"/><rect class="cls-2" x="73.71" y="104.88" width="11.34" height="90.71"/><rect class="cls-2" x="260.8" y="87.87" width="11.34" height="73.7"/><path class="cls-2" d="M164.42,104.88a28.34,28.34,0,0,0-22.68,11.34,28.34,28.34,0,0,0-39.68-5.67v-5.67H90.72v28.34h0v28.34h11.34V133.22a17,17,0,1,1,34,0v28.34h11.34V133.23h0a17,17,0,0,1,34,0h0v28.34h11.34V133.23h0A28.35,28.35,0,0,0,164.42,104.88Z"/><rect class="cls-2" x="73.71" y="87.87" width="11.34" height="11.34"/></g></svg>