<svg xmlns="http://www.w3.org/2000/svg" viewBox="0 0 283.46 283.46"><defs><style>.cls-1{fill:#fff;}.cls-2,.cls-3{fill:none;stroke:#1d1d1b;stroke-miterlimit:10;}.cls-2{stroke-width:0.5px;}.cls-3{stroke-width:0.13px;}.cls-4{fill:#1d1d1b;}</style></defs><g id="tła"><rect class="cls-1" width="283.46" height="283.46"/></g><g id="logo"><path class="cls-2" d="M199.39,161.54,196.17,138a3.8,3.8,0,0,1,.33-.39,3.27,3.27,0,0,1,2.1-.91,3.33,3.33,0,0,1-2.1-.91,3.23,3.23,0,0,1-.85-1.62l-.06-.48-1.64-12a3.78,3.78,0,0,1,1.9-3.53L194.7,117H173.61l-1.15,1.15a3.78,3.78,0,0,1,1.9,3.53l-1.64,12-.06.48a3.4,3.4,0,0,1-.85,1.62,3.35,3.35,0,0,1-2.1.91,3.29,3.29,0,0,1,2.1.91,3.66,3.66,0,0,1,.32.39l-3.21,23.54a2.44,2.44,0,0,1-2.34,2.35v2.34h14.06v-2.34s-2.16,0-1.92-1.76l.8-5.89L189.3,160l.29,2.16c.24,1.74-1.92,1.76-1.92,1.76v2.34h14.06v-2.34A2.44,2.44,0,0,1,199.39,161.54Zm-18.5-15.36,3.26-23.89,3.62,26.5Z"/><path class="cls-2" d="M78.12,161.54,74.9,138a3.8,3.8,0,0,1,.33-.39,3.27,3.27,0,0,1,2.1-.91,3.33,3.33,0,0,1-2.1-.91,3.23,3.23,0,0,1-.85-1.62l-.07-.48-1.63-12a3.78,3.78,0,0,1,1.9-3.53L73.43,117H52.34l-1.15,1.15a3.78,3.78,0,0,1,1.9,3.53l-1.64,12-.07.48a3.28,3.28,0,0,1-.84,1.62,3.35,3.35,0,0,1-2.1.91,3.29,3.29,0,0,1,2.1.91,3.66,3.66,0,0,1,.32.39l-3.21,23.54a2.44,2.44,0,0,1-2.34,2.35v2.34H59.37v-2.34s-2.16,0-1.92-1.76l.8-5.89L68,160l.3,2.16c.24,1.74-1.92,1.76-1.92,1.76v2.34H80.46v-2.34A2.44,2.44,0,0,1,78.12,161.54Zm-18.5-15.36,3.26-23.89,3.62,26.5Z"/><path class="cls-2" d="M160.86,161.54V139.7a3.11,3.11,0,0,1,3-3,3.35,3.35,0,0,1-2.1-.91,3.3,3.3,0,0,1-.91-2.09V122.29c0-1.76,2.9-4.12,2.9-4.12L162.62,117H148.55l-1.15,1.15s2.91,2.36,2.91,4.12l-8.2,15.1-8.21-15.1c0-1.76,2.91-4.12,2.91-4.12L135.66,117H121.6l-1.15,1.15s2.91,2.36,2.91,4.12v11.46a3.12,3.12,0,0,1-3,2.95,3.29,3.29,0,0,1,2.1.91,3.33,3.33,0,0,1,.91,2v21.9a2.09,2.09,0,0,1-2.34,2.35v2.34h15.81v-2.34a2.09,2.09,0,0,1-2.34-2.35V143.69l7.62,14,7.62-14v17.85a2.1,2.1,0,0,1-2.35,2.35v2.34H163.2v-2.34A2.09,2.09,0,0,1,160.86,161.54Z"/><path class="cls-2" d="M237,152.78s-2.37,2.91-4.12,2.91H218V139.55a3.27,3.27,0,0,1,.9-1.94,3.32,3.32,0,0,1,2.09-.91,3.11,3.11,0,0,1-3-2.85V122.29c0-1.76,2.9-4.12,2.9-4.12L219.75,117H205.69l-1.15,1.15s2.91,2.36,2.91,4.12V133.7a3.42,3.42,0,0,1-.91,2.09,3.35,3.35,0,0,1-2.1.91,3.29,3.29,0,0,1,2.1.91,3.42,3.42,0,0,1,.91,2.09v21.84a2.09,2.09,0,0,1-2.34,2.35v2.34h33v-12.3Z"/><path class="cls-2" d="M115.54,135.79a3.33,3.33,0,0,1-.91-2.1v-11.4c0-1.76,2.91-4.12,2.91-4.12L116.39,117H102.33l-1.15,1.15s2.9,2.36,2.9,4.12v11.47a3.1,3.1,0,0,1-3,2.94,3.29,3.29,0,0,1,2.1.91,3.32,3.32,0,0,1,.9,2v5.52c0,1.2.28,9.72-6.1,9.72-6.17,0-5.58-7.32-5.58-7.32.21-2.43,2.91-4.12,2.91-4.12l-1.15-1.15H80.11L79,143.44s2.91,2.36,2.91,4.12v2.51a16.38,16.38,0,0,0,32.76,0V139.71a3.33,3.33,0,0,1,.91-2.1,3.29,3.29,0,0,1,2.1-.91A3.35,3.35,0,0,1,115.54,135.79Z"/><path class="cls-3" d="M189.58,164.81a2.79,2.79,0,0,0,.8-.64,2.72,2.72,0,0,0,.61-2.23l-.29-2.16a1.4,1.4,0,0,0-.9-1.13L180,154.91a1.52,1.52,0,0,0-.51-.09,1.42,1.42,0,0,0-.72.2,1.4,1.4,0,0,0-.68,1l-.81,5.89a2.72,2.72,0,0,0,.62,2.23,2.66,2.66,0,0,0,.8.64H168.36a3.91,3.91,0,0,0,2-3.07l3.22-23.55a1.42,1.42,0,0,0-.24-1,5,5,0,0,0-.4-.49,4.71,4.71,0,0,0,1.14-2.24s0-.06,0-.1l1.7-12.47a4.67,4.67,0,0,0-.93-3.46h18.64a4.63,4.63,0,0,0-.92,3.46l1.7,12.47s0,.07,0,.11a4.76,4.76,0,0,0,1.15,2.23,5,5,0,0,0-.4.49,1.42,1.42,0,0,0-.24,1L198,161.74a3.91,3.91,0,0,0,2,3.07Zm-5.43-44.94a1.41,1.41,0,0,0-1.4,1.23L179.49,146a1.42,1.42,0,0,0,.9,1.52l6.88,2.61a1.43,1.43,0,0,0,.5.09,1.42,1.42,0,0,0,1.4-1.61l-3.61-27.5A1.43,1.43,0,0,0,184.15,119.87Z"/><path class="cls-3" d="M68.31,164.81a2.79,2.79,0,0,0,.8-.64,2.72,2.72,0,0,0,.61-2.23l-.29-2.16a1.42,1.42,0,0,0-.9-1.13l-9.77-3.74a1.52,1.52,0,0,0-.51-.09,1.42,1.42,0,0,0-.72.2,1.37,1.37,0,0,0-.68,1L56,161.94a2.69,2.69,0,0,0,.62,2.23,2.75,2.75,0,0,0,.79.64H47.09a3.91,3.91,0,0,0,2-3.07l3.22-23.55a1.43,1.43,0,0,0-.25-1,3.81,3.81,0,0,0-.39-.49,4.71,4.71,0,0,0,1.14-2.24s0-.06,0-.1l1.7-12.47a4.67,4.67,0,0,0-.93-3.46H72.2a4.67,4.67,0,0,0-.93,3.46L73,134.36a.43.43,0,0,1,0,.11,4.76,4.76,0,0,0,1.15,2.23,3.88,3.88,0,0,0-.4.49,1.42,1.42,0,0,0-.24,1l3.21,23.55a3.89,3.89,0,0,0,2,3.07Zm-5.43-44.94a1.41,1.41,0,0,0-1.4,1.23L58.22,146a1.42,1.42,0,0,0,.9,1.52L66,150.12a1.41,1.41,0,0,0,1.38-.22,1.41,1.41,0,0,0,.52-1.3l-3.61-27.5A1.43,1.43,0,0,0,62.88,119.87Z"/><path class="cls-3" d="M149.48,164.81a3.56,3.56,0,0,0,1.67-3.27V143.69a1.41,1.41,0,0,0-1.07-1.37,1.45,1.45,0,0,0-.35,0,1.41,1.41,0,0,0-1.25.74l-6.37,11.73L135.73,143a1.43,1.43,0,0,0-1.59-.7,1.41,1.41,0,0,0-1.07,1.37v17.85a3.58,3.58,0,0,0,1.48,3.16l.18.11H123.11a3.56,3.56,0,0,0,1.67-3.27v-21.9s0-.07,0-.1a4.79,4.79,0,0,0-1.23-2.84,4.83,4.83,0,0,0,1.23-2.85s0-.06,0-.1V122.29a6.45,6.45,0,0,0-2-3.86h11.67a6.4,6.4,0,0,0-2,3.86,1.46,1.46,0,0,0,.17.68l8.2,15.09a1.42,1.42,0,0,0,1.25.74,1.39,1.39,0,0,0,1.24-.74L151.56,123a1.46,1.46,0,0,0,.17-.68,6.4,6.4,0,0,0-2-3.86h11.67a6.4,6.4,0,0,0-2,3.86v11.47a4.79,4.79,0,0,0,1.24,2.94,4.79,4.79,0,0,0-1.24,2.94v21.9a3.56,3.56,0,0,0,1.67,3.27Z"/><path class="cls-3" d="M207.2,164.81a3.56,3.56,0,0,0,1.67-3.27v-21.9a4.86,4.86,0,0,0-1.24-2.94,4.86,4.86,0,0,0,1.24-2.94V122.29a6.45,6.45,0,0,0-2-3.86h11.67a6.4,6.4,0,0,0-2,3.86v11.56a.86.86,0,0,0,0,.16,4.64,4.64,0,0,0,1.22,2.69,4.61,4.61,0,0,0-1.22,2.69.86.86,0,0,0,0,.16v16.14A1.41,1.41,0,0,0,218,157.1h14.89a6.38,6.38,0,0,0,3.85-2v9.69Z"/><path class="cls-3" d="M98.24,165a15,15,0,0,1-15-15v-2.5a6.35,6.35,0,0,0-2-3.86H92.82A6.32,6.32,0,0,0,91,147.44c0,.18-.32,4.26,2,6.84a6.45,6.45,0,0,0,4.94,2,6.51,6.51,0,0,0,4.78-1.89c1.84-1.86,2.76-4.92,2.73-9.1v-5.78a4.75,4.75,0,0,0-1.23-2.83,4.78,4.78,0,0,0,1.23-2.83V122.29a6.4,6.4,0,0,0-2-3.86h11.67a6.4,6.4,0,0,0-2,3.86v11.4a4.85,4.85,0,0,0,1.24,3,4.83,4.83,0,0,0-1.24,3v10.38A15,15,0,0,1,98.24,165Z"/><polygon class="cls-4" points="62.88 151.98 63.21 152.58 63.8 152.91 63.21 153.23 62.88 153.83 62.55 153.23 61.96 152.91 62.55 152.58 62.88 151.98"/><polygon class="cls-4" points="184.15 151.98 184.48 152.58 185.08 152.91 184.48 153.23 184.15 153.83 183.83 153.23 183.23 152.91 183.83 152.58 184.15 151.98"/><path class="cls-4" d="M109.15,149.63l-.08-2.64-.06-2.64c0-.88-.07-1.76,0-2.64s.07-1.76.18-2.64h0c.1.88.14,1.76.17,2.64s0,1.76,0,2.64l-.06,2.64-.07,2.64Z"/><path class="cls-4" d="M109.19,125.55l.07,2.64.06,2.64c0,.88.07,1.76,0,2.64s-.07,1.76-.17,2.64h0c-.11-.88-.15-1.76-.18-2.64s0-1.76,0-2.64l.06-2.64.08-2.64Z"/><polygon class="cls-4" points="108.24 137.59 108.84 137.26 109.17 136.67 109.49 137.26 110.09 137.59 109.49 137.92 109.17 138.51 108.84 137.92 108.24 137.59"/><path class="cls-4" d="M156.19,149.63l-.08-2.64-.06-2.64c0-.88-.06-1.76,0-2.64s.07-1.76.18-2.64h0c.1.88.15,1.76.17,2.64s0,1.76,0,2.64l-.05,2.64-.08,2.64Z"/><path class="cls-4" d="M156.23,125.55l.08,2.64.05,2.64c0,.88.07,1.76,0,2.64s-.07,1.76-.17,2.64h0c-.11-.88-.15-1.76-.18-2.64s0-1.76,0-2.64l.06-2.64.08-2.64Z"/><polygon class="cls-4" points="155.28 137.59 155.88 137.26 156.21 136.67 156.53 137.26 157.13 137.59 156.53 137.92 156.21 138.51 155.88 137.92 155.28 137.59"/><path class="cls-4" d="M213,149.63l-.08-2.64-.06-2.64c0-.88-.06-1.76,0-2.64s.07-1.76.18-2.64h0c.1.88.15,1.76.17,2.64s0,1.76,0,2.64l-.06,2.64-.07,2.64Z"/><path class="cls-4" d="M213.05,125.55l.07,2.64.06,2.64c0,.88.07,1.76,0,2.64s-.07,1.76-.17,2.64h0c-.11-.88-.15-1.76-.18-2.64s0-1.76,0-2.64l.06-2.64.08-2.64Z"/><polygon class="cls-4" points="212.1 137.59 212.7 137.26 213.03 136.67 213.35 137.26 213.95 137.59 213.35 137.92 213.03 138.51 212.7 137.92 212.1 137.59"/><line class="cls-4" x1="71.56" y1="149.52" x2="70.14" y2="139.06"/><path class="cls-4" d="M71.58,149.52l-.28-2.63L71,144.27c-.1-.88-.18-1.76-.32-2.62s-.31-1.74-.53-2.6h0c0,.88.09,1.76.18,2.64s.26,1.74.39,2.61l.42,2.61.43,2.6Z"/><line class="cls-4" x1="68.32" y1="125.66" x2="69.74" y2="136.13"/><path class="cls-4" d="M68.3,125.66l.28,2.63.3,2.63c.1.87.17,1.75.31,2.62s.31,1.73.53,2.59h0c0-.88-.09-1.76-.18-2.64s-.25-1.74-.39-2.61l-.41-2.6-.44-2.61Z"/><polygon class="cls-4" points="70.86 137.47 70.22 137.22 69.82 136.68 69.57 137.31 69.03 137.72 69.66 137.96 70.07 138.51 70.31 137.87 70.86 137.47"/><line class="cls-4" x1="193.45" y1="149.52" x2="192.03" y2="139.06"/><path class="cls-4" d="M193.47,149.52l-.28-2.63-.29-2.62c-.1-.88-.18-1.76-.32-2.62a26,26,0,0,0-.53-2.6h0c0,.88.09,1.76.18,2.64s.26,1.74.4,2.61l.41,2.61.43,2.6Z"/><line class="cls-4" x1="190.22" y1="125.66" x2="191.64" y2="136.13"/><path class="cls-4" d="M190.2,125.66l.27,2.63.3,2.63c.1.87.17,1.75.32,2.62a25.85,25.85,0,0,0,.53,2.59h0a26,26,0,0,0-.18-2.64c-.09-.87-.25-1.74-.39-2.61l-.41-2.6-.43-2.61Z"/><polygon class="cls-4" points="192.75 137.47 192.11 137.22 191.71 136.68 191.47 137.31 190.92 137.72 191.55 137.96 191.96 138.51 192.2 137.87 192.75 137.47"/></g></svg>