<svg xmlns="http://www.w3.org/2000/svg" viewBox="0 0 958.94 498.67"><defs><style>.cls-1{fill:#dadada;}.cls-2,.cls-3,.cls-4{fill:#dedc00;}.cls-2,.cls-3,.cls-4,.cls-6{stroke:#1d1d1b;stroke-miterlimit:10;}.cls-2{stroke-width:8px;}.cls-3{stroke-width:8.47px;}.cls-4{stroke-width:2px;}.cls-5{fill:#1d1d1b;}.cls-6{fill:none;stroke-width:1.58px;}</style></defs><g id="Warstwa_2" data-name="Warstwa 2"><rect class="cls-1" width="958.94" height="498.67"/></g><g id="Warstwa_3" data-name="Warstwa 3"><path class="cls-2" d="M419.65,192.11c-.15-.24-.31-.48-.48-.71a15,15,0,1,0-23.38,18.88s0,0,0,0a15.27,15.27,0,0,0,3.27,2.71l.07,0a39.08,39.08,0,0,0,23.36,7.69c10.95,0,19.95-1.43,27.1-8.65C436.82,211.6,426.49,202,419.65,192.11Z"/><path class="cls-3" d="M424.44,249.35a8.66,8.66,0,0,1-.89.07,17.51,17.51,0,0,1-13.78-6.06c-6.19-7-6.17-17.07,0-22.6a14.14,14.14,0,0,1,10.44-3.45h0a16.45,16.45,0,0,1,4.46.94l.08,0A47.42,47.42,0,0,1,448,232.72c8.15,9.16,13.79,17.65,13.71,28.43C451.79,250.77,436.9,248.52,424.44,249.35Z"/><path class="cls-2" d="M528.59,190.29c.12-.25.26-.5.41-.75a15.05,15.05,0,1,1,25,16.61l0,0a15.5,15.5,0,0,1-3,3l-.07.05a39.15,39.15,0,0,1-22.54,9.85c-10.9,1-20,.45-27.79-6.07C513.32,211.31,522.7,200.76,528.59,190.29Z"/><path class="cls-2" d="M522.89,250.83c.31,0,.62,0,.93,0a19.49,19.49,0,0,0,13.88-8.19c6-8.12,5.29-18.75-1.49-23.72a13.93,13.93,0,0,0-11-2.26s0,0,0,0a18.55,18.55,0,0,0-4.56,1.57l-.08.05a53.83,53.83,0,0,0-23,18.22c-7.85,10.7-13.14,20.36-12.37,31.67C494.66,255.94,509.93,251.6,522.89,250.83Z"/><path class="cls-4" d="M519.42,214.51c0,2.88-.12,5.74-.35,8.56q-.29,3.44-.79,6.81a99.74,99.74,0,0,1-2,9.82q-1,3.86-2.22,7.59A98.13,98.13,0,0,1,510,257.66c-1.32,2.89-2.79,5.7-4.37,8.43-1,1.78-2.12,3.53-3.25,5.24s-2.39,3.5-3.67,5.18a98.76,98.76,0,0,1-7.43,8.8,101.82,101.82,0,0,1-10.16,9.42c-1.77,1.43-3.6,2.81-5.47,4.13-1.19-.28-2.36-.58-3.52-.92a63.6,63.6,0,0,1-25.37-14.39c-1.43-1.31-2.8-2.7-4.11-4.15a62.52,62.52,0,0,1-4.42-5.47c-.46-.65-.91-1.3-1.35-2a64.14,64.14,0,0,1-8-17.11,63.69,63.69,0,0,1-2.59-16.59c0-.51,0-1,0-1.53a61.87,61.87,0,0,1,.42-7.24c.22-2,.54-4,.95-5.95a62.34,62.34,0,0,1,2.18-7.82c.67-1.91,1.42-3.78,2.27-5.6.33-.73.68-1.46,1-2.18.84-1.66,1.63-3.36,2.34-5.08A72.9,72.9,0,0,0,439,192.2a63.62,63.62,0,0,1,19.17-31.92,26.68,26.68,0,0,1,32.71-2.38,64,64,0,0,1,17.94,17.93,63.11,63.11,0,0,1,9.41,22.87.18.18,0,0,1,0,.1c0,.12,0,.23,0,.35.42,2.79.73,5.63.91,8.49q.16,2.52.21,5.07h0c0,.4,0,.8,0,1.2C519.42,214.11,519.42,214.31,519.42,214.51Z"/><circle class="cls-5" cx="444.29" cy="135.72" r="3.55"/><path class="cls-6" d="M466.84,155.05s9.89-7.82-2.38-19.29c-10.28-9.62-20.17,0-20.17,0"/><circle class="cls-5" cx="511.14" cy="142.58" r="3.55"/><path class="cls-6" d="M484.17,155s-7.38-10.22,7.55-17.92c12.51-6.45,19.42,5.46,19.42,5.46"/><path class="cls-5" d="M518.28,199.15a99,99,0,0,1-82.84,3.72c-.71,1.72-1.5,3.42-2.34,5.08-.36.72-.71,1.45-1,2.18a107,107,0,0,0,87.13-2.49C519,204.78,518.7,201.94,518.28,199.15Z"/><path class="cls-5" d="M519.41,213.92a99,99,0,0,1-89.62,1.81,62.34,62.34,0,0,0-2.18,7.82,107.06,107.06,0,0,0,91.46-.48c.23-2.82.35-5.68.35-8.56C519.42,214.31,519.42,214.11,519.41,213.92Z"/><path class="cls-5" d="M472.83,240.93a98.44,98.44,0,0,1-46.17-11.43,61.87,61.87,0,0,0-.42,7.24c0,.51,0,1,0,1.53a107.06,107.06,0,0,0,90.06,1.43,99.74,99.74,0,0,0,2-9.82A98.49,98.49,0,0,1,472.83,240.93Z"/><path class="cls-5" d="M472.83,256.3a98.39,98.39,0,0,1-46.07-11.38,63.76,63.76,0,0,0,2.09,9.94,107.2,107.2,0,0,0,81.13,2.8,98.13,98.13,0,0,0,4.12-10.37A98.54,98.54,0,0,1,472.83,256.3Z"/><path class="cls-5" d="M472.83,271.67a98.6,98.6,0,0,1-41-8.9,62.71,62.71,0,0,0,5.07,9.2c.44.66.89,1.31,1.35,2a107.32,107.32,0,0,0,60.48,2.58q1.92-2.52,3.67-5.18c1.13-1.71,2.22-3.46,3.25-5.24A98.36,98.36,0,0,1,472.83,271.67Z"/><path class="cls-5" d="M472.83,287a98.48,98.48,0,0,1-26.09-3.49,63.53,63.53,0,0,0,16.5,11.06q4.74.43,9.59.43c2.78,0,5.54-.11,8.27-.31a101.82,101.82,0,0,0,10.16-9.42A98.18,98.18,0,0,1,472.83,287Z"/><path class="cls-5" d="M470.94,160.9a5.28,5.28,0,0,0-.79-.28c-3.63-.9-7.52,2.15-8.69,6.83s.82,9.2,4.45,10.11a5.59,5.59,0,0,0,3.47-.28,9.37,9.37,0,0,0,5.22-6.55C475.68,166.41,474.06,162.23,470.94,160.9Z"/><path class="cls-5" d="M485.48,163.21a6.87,6.87,0,0,0-.78-.08c-3.51,0-6.51,3.35-6.71,7.57s2.47,7.7,6,7.74a5.56,5.56,0,0,0,3.14-.93,8.34,8.34,0,0,0,3.57-6.64C490.86,167,488.59,163.72,485.48,163.21Z"/><path class="cls-5" d="M483,188.46a17,17,0,0,1-2.08.1,13.1,13.1,0,0,1-4.3-.72c8.47,9.51,11.69,12.08,13.54,9.75,1.32-1.64,1.95-5.74,3.28-11.58.28-1.23.59-2.54.95-3.92C490.43,186.52,486.29,188.07,483,188.46Z"/><path class="cls-5" d="M381.24,339.67a21.35,21.35,0,0,1-5.32,15.24,36.24,36.24,0,0,1-14.6,9.91A30.05,30.05,0,0,1,350,367.19a23.43,23.43,0,0,1-9.52-2.32,13.17,13.17,0,0,1-6.4-7.28,43,43,0,0,1-2.83-12.25,118.8,118.8,0,0,1-.51-14.48q.16-7.44.56-14a87.09,87.09,0,0,0,.14-13.91,6.9,6.9,0,0,1,1-4.84,7.11,7.11,0,0,1,4-3h0a7,7,0,0,1,5.64.81,6.76,6.76,0,0,1,3.15,4.76.47.47,0,0,1,.05.24.49.49,0,0,1,.05.2q2.49-8.49,7.47-12.31l.05,0,.64-.44h0l.05-.05v-.05h.05a0,0,0,0,0,0-.05h.1a12.14,12.14,0,0,1,8-1.93,13.39,13.39,0,0,1,10.93,8.91q2,6.06-1.05,12.87t-12,11.69a29.64,29.64,0,0,1,14.84,7.33Q380.6,332.74,381.24,339.67Zm-21.1,19.93a21,21,0,0,0,5.77-7.82,27.21,27.21,0,0,0,2.1-11.32,27.58,27.58,0,0,0-.66-5.89,18.33,18.33,0,0,0-2.93-6.66,14.94,14.94,0,0,0-6.72-5.13c-1-.36-2-.65-2.88-.88h-.1a.14.14,0,0,0-.09,0,4.81,4.81,0,0,1-.54-.14l-.73-.15a1.44,1.44,0,0,1-1.05-.83,1.65,1.65,0,0,1,0-1.27,1.49,1.49,0,0,1,1-.88l.73-.24a12.74,12.74,0,0,0,6.33-5.18,18.87,18.87,0,0,0,2.75-7.64,16.55,16.55,0,0,0-.44-7.2,11.55,11.55,0,0,0-2.83-4.84,4.64,4.64,0,0,0-4.12-1.44c-1.52.25-3,1.56-4.52,3.93q-4,7-4.44,19.53c0,1.57-.07,4.3-.3,8.21s-.4,8.18-.53,12.94a116.09,116.09,0,0,0,.34,13.28q.54,6.15,2.34,9.13a6.77,6.77,0,0,0,4.59,3.51C355,362.87,357.28,361.87,360.14,359.6Z"/><path class="cls-5" d="M435.12,338.16a1.37,1.37,0,0,1,.83.59,1.45,1.45,0,0,1,.25,1c0,.13-.36,1.29-1.05,3.47a53.72,53.72,0,0,1-3.2,7.54,27.63,27.63,0,0,1-5.5,7.5,11.79,11.79,0,0,1-7.93,3.42,9,9,0,0,1-7.86-5.72,29.89,29.89,0,0,1-2.1-11.91Q403,357.3,397,360.87a6.06,6.06,0,0,1-2.84.78,3.4,3.4,0,0,1-1-.15q-5.52-1-7.47-4.49a15,15,0,0,1-1.86-7.72,33.5,33.5,0,0,1,.49-5.29c.29-1.65.57-3,.83-4,.07-.33.13-.6.2-.83a38.86,38.86,0,0,1,4.83-12.36q2.3-3.27,7.42-4.42a13.15,13.15,0,0,1,8.94.76h.05a3.2,3.2,0,0,1,.53.34,13.66,13.66,0,0,1,3.47,3.32,17.74,17.74,0,0,1,2.93-6.64,5.45,5.45,0,0,1,5-2.44,6.55,6.55,0,0,1,4.37,2.52,6.65,6.65,0,0,1,1.34,4.81c-.32,2.93-.67,6.34-1,10.25s-.61,7.49-.74,10.74a22.7,22.7,0,0,0,.3,6.4c.71,1.56,1.59,2,2.63,1.41a10,10,0,0,0,3.15-3.63,46.1,46.1,0,0,0,2.83-5.72,29.74,29.74,0,0,0,1.64-4.81,2.07,2.07,0,0,1,.71-1.29A1.35,1.35,0,0,1,435.12,338.16Zm-25.83-6c.07-.55.13-1.09.2-1.61-.17-.23-.39-.55-.66-1s-.56-.83-.83-1.22a6.81,6.81,0,0,0-.61-.79c-1.44-1.43-2.81-1.57-4.13-.41a15.08,15.08,0,0,0-3.59,5.74,48.61,48.61,0,0,0-2.54,8.74,31.3,31.3,0,0,0-.58,5.95,16.65,16.65,0,0,0,.83,6c.55,1.4,1.32,1.61,2.29.64a44.16,44.16,0,0,0,5.3-8.87,61.77,61.77,0,0,0,4.27-13.21Z"/><path class="cls-5" d="M498.35,338.6a2,2,0,0,1,1.1.76,1.53,1.53,0,0,1,.27,1.29q-4.29,22.86-14.65,22.85a.34.34,0,0,1-.19-.05h-.25a5.64,5.64,0,0,1-3.12-1,11,11,0,0,1-4-6.06,29.44,29.44,0,0,1-1.17-9.13,36.81,36.81,0,0,1,1.37-9.42c.1-.29.21-.65.34-1.08.36-1.2.77-2.61,1.22-4.22s.84-3.15,1.15-4.61a11.45,11.45,0,0,0,.34-3.3c-.08-.73-.48-.84-1.2-.32-.29.3-.58.62-.87,1a63.29,63.29,0,0,0-8.43,16.48,86.06,86.06,0,0,0-4.61,17.16,7,7,0,0,1-1.05,3.1,2.17,2.17,0,0,1-1.54,1,2.51,2.51,0,0,1-1.42-.3h0v-.05l-.3-.19a10.9,10.9,0,0,1-4.05-6.06,28.86,28.86,0,0,1-1.17-9.13,35.54,35.54,0,0,1,1.41-9.42q.11-.44.3-1.08c.35-1.2.77-2.61,1.24-4.22s.86-3.15,1.15-4.61a12,12,0,0,0,.32-3.3c-.08-.73-.48-.84-1.2-.32-.26.33-.54.66-.83,1a40.8,40.8,0,0,0-6.4,12.11q-2.1,6-3.56,10.74-1.71,5.56-4.39,13a11.22,11.22,0,0,1-1.3,2.88,1.32,1.32,0,0,1-1.63.68c-2.32-1-4.11-3.13-5.38-6.37a44.15,44.15,0,0,1-2.53-12,46.59,46.59,0,0,1,0-8.4,65.92,65.92,0,0,1,1.42-9.47,28.37,28.37,0,0,1,2.8-7.74q1.77-3.11,4.2-3.2a4.86,4.86,0,0,1,2.47,1,8.18,8.18,0,0,1,2.56,2.89,7.6,7.6,0,0,1,.83,4.58l.1,0q-.58,8.59-.73,15.91c.55-1.72,1.19-3.58,1.9-5.56a44.61,44.61,0,0,1,6.84-13q3.81-4.67,7.62-4.67h.05a10.19,10.19,0,0,1,1.07.15,8.26,8.26,0,0,1,1.22.39,9.92,9.92,0,0,1,4.69,3.78,14.12,14.12,0,0,1,2.05,5.84q5.46-10.15,11.18-10.16h.05a7.81,7.81,0,0,1,1,.15h.05a8.92,8.92,0,0,1,1.17.39,9.87,9.87,0,0,1,5.57,5.27,18.24,18.24,0,0,1,1.34,8.21,37.48,37.48,0,0,1-1.63,9.22c-.33,1.14-.73,2.71-1.2,4.72s-.87,4-1.19,6a20.72,20.72,0,0,0-.37,4.61c.08,1.09.5,1.3,1.24.61q4.26-4.63,6.74-17.67a1.68,1.68,0,0,1,.74-1.13A1.87,1.87,0,0,1,498.35,338.6Z"/><path class="cls-5" d="M556.68,339.67a21.31,21.31,0,0,1-5.32,15.24,36.18,36.18,0,0,1-14.6,9.91,30,30,0,0,1-11.33,2.37,23.47,23.47,0,0,1-9.52-2.32,13.24,13.24,0,0,1-6.4-7.28,43.37,43.37,0,0,1-2.83-12.25,123,123,0,0,1-.51-14.48q.16-7.44.56-14a88.65,88.65,0,0,0,.15-13.91,6.9,6.9,0,0,1,1-4.84,7.14,7.14,0,0,1,4-3h.05a7,7,0,0,1,5.64.81,6.76,6.76,0,0,1,3.15,4.76.6.6,0,0,1,.05.24.48.48,0,0,1,0,.2q2.49-8.49,7.48-12.31l0,0,.64-.44H529l0-.05v-.05h0s0,0,0-.05h.1a12.15,12.15,0,0,1,8-1.93,13.39,13.39,0,0,1,10.94,8.91q2,6.06-1.05,12.87t-12,11.69a29.6,29.6,0,0,1,14.84,7.33Q556.06,332.74,556.68,339.67ZM535.59,359.6a20.89,20.89,0,0,0,5.76-7.82,27.21,27.21,0,0,0,2.1-11.32,27.58,27.58,0,0,0-.66-5.89,18.16,18.16,0,0,0-2.93-6.66,15,15,0,0,0-6.71-5.13c-1-.36-2-.65-2.88-.88h-.1a.16.16,0,0,0-.1,0,5.44,5.44,0,0,1-.54-.14l-.73-.15a1.44,1.44,0,0,1-1-.83,1.6,1.6,0,0,1,0-1.27,1.48,1.48,0,0,1,1-.88l.74-.24a12.72,12.72,0,0,0,6.32-5.18,19,19,0,0,0,2.76-7.64,16.7,16.7,0,0,0-.44-7.2,11.66,11.66,0,0,0-2.83-4.84,4.67,4.67,0,0,0-4.13-1.44q-2.26.38-4.52,3.93-3.95,7-4.44,19.53c0,1.57-.06,4.3-.29,8.21s-.41,8.18-.54,12.94a116.09,116.09,0,0,0,.34,13.28q.54,6.15,2.35,9.13a6.75,6.75,0,0,0,4.59,3.51C530.4,362.87,532.72,361.87,535.59,359.6Z"/><path class="cls-5" d="M594.57,338.6a1.63,1.63,0,0,1,.93.81,1.49,1.49,0,0,1,.1,1.19,55.45,55.45,0,0,1-4.71,10.16,31.09,31.09,0,0,1-7.06,8.49h-.05a15,15,0,0,1-2.15,1.42q-5.85,3.27-10.44,2.17a12.66,12.66,0,0,1-7.52-5.17,23.15,23.15,0,0,1-3.91-9.77,29.94,29.94,0,0,1,.34-11.64,28.6,28.6,0,0,1,6-12,25.74,25.74,0,0,1,9.11-7,16.9,16.9,0,0,1,9.15-1.59.46.46,0,0,0,.2.05h0a.11.11,0,0,1,.1.05h.15a6.64,6.64,0,0,1,4,2.54q2.25,3.08-.14,8.15a22.25,22.25,0,0,1-5.69,7,26.06,26.06,0,0,1-9.06,4.9,6.88,6.88,0,0,0-.15.79,37.07,37.07,0,0,0-.61,11.08c.38,3.35,1.35,5.66,2.91,6.91s3.74.74,6.54-1.54a30.66,30.66,0,0,0,5.52-7.15,50.26,50.26,0,0,0,4-8.72,2,2,0,0,1,1-1.07A2,2,0,0,1,594.57,338.6Zm-9-13.57q1.08-3-.66-2.52c-1.15.34-2.68,1.56-4.56,3.66a30.62,30.62,0,0,0-5,8.08,22.31,22.31,0,0,0,6.52-4.32A18.13,18.13,0,0,0,585.54,325Z"/><path class="cls-5" d="M627.14,338.6a1.63,1.63,0,0,1,.93.81,1.49,1.49,0,0,1,.1,1.19,55.45,55.45,0,0,1-4.71,10.16,31.09,31.09,0,0,1-7.06,8.49h0a15.62,15.62,0,0,1-2.15,1.42q-5.85,3.27-10.45,2.17a12.69,12.69,0,0,1-7.52-5.17,23.27,23.27,0,0,1-3.9-9.77,29.94,29.94,0,0,1,.34-11.64,28.48,28.48,0,0,1,6-12,25.71,25.71,0,0,1,9.1-7,17,17,0,0,1,9.16-1.59.45.45,0,0,0,.19.05h0a.11.11,0,0,1,.1.05h.15a6.64,6.64,0,0,1,4,2.54q2.25,3.08-.15,8.15a22.07,22.07,0,0,1-5.68,7,26.06,26.06,0,0,1-9.06,4.9,5.24,5.24,0,0,0-.15.79,37.07,37.07,0,0,0-.61,11.08c.38,3.35,1.34,5.66,2.91,6.91s3.74.74,6.54-1.54a30.66,30.66,0,0,0,5.52-7.15,50.26,50.26,0,0,0,4-8.72,2,2,0,0,1,1-1.07A2,2,0,0,1,627.14,338.6Zm-9-13.57q1.08-3-.66-2.52t-4.57,3.66a30.86,30.86,0,0,0-5,8.08,22.13,22.13,0,0,0,6.51-4.32A18,18,0,0,0,618.11,325Z"/></g></svg>