<svg id="Layer_1" data-name="Layer 1" xmlns="http://www.w3.org/2000/svg" viewBox="0 0 733.77 1133.95"><defs><style>.cls-1,.cls-6{fill:#ddc08f;}.cls-1{stroke:#193540;stroke-width:10px;}.cls-1,.cls-10,.cls-12,.cls-13,.cls-2,.cls-4,.cls-5,.cls-6,.cls-7,.cls-8{stroke-miterlimit:10;}.cls-2{fill:#b17f4a;}.cls-10,.cls-12,.cls-13,.cls-2,.cls-4,.cls-5,.cls-6,.cls-7,.cls-8{stroke:#1d1d1b;}.cls-2,.cls-4,.cls-5,.cls-6{stroke-width:1.03px;}.cls-3{fill:#193540;}.cls-4{fill:#9e7745;}.cls-5{fill:#ae8a4f;}.cls-11,.cls-7{fill:#dbdbd2;}.cls-12,.cls-13,.cls-8{fill:none;}.cls-8{stroke-width:0.46px;}.cls-9{fill:#1d1d1b;}.cls-10{fill:#fff;stroke-width:0.92px;}.cls-12{stroke-width:0.23px;}.cls-13{stroke-width:0.51px;}</style></defs><rect class="cls-1" x="5" y="5" width="723.77" height="1123.95"/><circle class="cls-2" cx="366.88" cy="569.93" r="312.03"/><rect class="cls-3" x="73.65" y="74.21" width="586.47" height="996.56"/><circle class="cls-2" cx="366.88" cy="569.93" r="312.03"/><path class="cls-4" d="M372.25,715.38c85.52,18.33,148.24,54.62,215.35,75.1A311.21,311.21,0,0,0,673,630.36c-139.78-25.8-324-54.9-330.79-53-9.16,2.62-212.54,37.23-282.1,50A310.21,310.21,0,0,0,102,734.88a149,149,0,0,0,16.77-1.5C250.75,713.88,246.26,688.39,372.25,715.38Z"/><path class="cls-5" d="M657.37,684.08a310.94,310.94,0,0,0,21.49-109.85c-30.42-5.15-59.44-11.18-84.86-16.44-87-18-174-48-174-48s-225,36-351,45c-4.68.33-9.26.71-13.77,1.13-.2,4.64-.33,9.31-.33,14A312.36,312.36,0,0,0,63,640.81a745.72,745.72,0,0,0,156-5c195-27,189-6,321,15C583.59,657.73,623.25,670.23,657.37,684.08Z"/><path class="cls-6" d="M375,464.78c-90.82,1.08-54,18-183,12-38.5-1.79-77.54-12.4-113.36-26.41A310.82,310.82,0,0,0,54.88,567.9c49.93,3.34,101.24,2.19,140.08-4.11,111-18,219-36,330,21,40.34,20.72,95.74,30.73,149.93,35.09A314.3,314.3,0,0,0,670,495.61C571.3,471.79,534.42,462.89,375,464.78Z"/><path class="cls-6" d="M609.19,373.35a312,312,0,0,0-487.74,3.88c6.27-1.42,12.56-5,19.81-5.33,61.9-3,52.5-48,153-30s77.41,26,184.49,27C533.89,369.44,576.15,373.21,609.19,373.35Z"/><path class="cls-7" d="M266.57,759.76s15.48-16.56,38.94-15.49S352.12,759,352.12,759s71.45,16.71,73.29,20.39,65.08,36.41,64.16,38.87-10.19,21.38-11.27,21.84-179.69-22.53-180.61-23.61-28.82-33.88-28.82-33.88Z"/><path class="cls-7" d="M601.09,784.06s-55.31,52.21-71.52,38.29-37-34.15-24.15-42,22.65-16.32,34.49-23.92S601.09,784.06,601.09,784.06Z"/><path class="cls-7" d="M701.82,515.33l-41.4-52.43s-42.31,48.3-41.85,49.67,11.5,41.4,11.5,41.4S706,560.41,701.82,515.33Z"/><polyline class="cls-8" points="691.24 510.96 659.73 470.72 625.47 508.44"/><polyline class="cls-8" points="691.24 516.48 659.73 476.24 625.47 513.96"/><polyline class="cls-8" points="691.24 522 659.73 481.76 625.47 519.48"/><polyline class="cls-8" points="691.24 527.52 659.73 487.28 625.47 524.99"/><polyline class="cls-8" points="691.24 533.04 659.73 492.8 625.47 530.51"/><polyline class="cls-8" points="691.24 537.64 659.73 497.4 625.47 535.11"/><polyline class="cls-8" points="691.24 542.24 659.73 502 625.47 539.71"/><polyline class="cls-8" points="691.24 546.84 659.73 506.6 625.47 544.31"/><polyline class="cls-8" points="691.24 550.52 659.73 510.27 625.47 547.99"/><polyline class="cls-8" points="691.24 554.2 659.73 513.96 625.47 551.67"/><polyline class="cls-8" points="691.24 556.96 659.73 516.72 625.47 554.43"/><polyline class="cls-8" points="691.24 559.72 659.73 519.48 625.47 557.19"/><polyline class="cls-8" points="691.24 562.48 659.73 522.23 625.47 559.95"/><polyline class="cls-8" points="691.24 565.24 659.73 524.99 625.47 562.71"/><polyline class="cls-8" points="691.24 567.08 659.73 526.83 625.47 564.55"/><polyline class="cls-8" points="691.24 568.92 659.73 528.67 625.47 566.39"/><polyline class="cls-8" points="691.24 570.76 659.73 530.51 625.47 568.23"/><polyline class="cls-8" points="691.24 572.6 659.73 532.35 625.47 570.07"/><polyline class="cls-8" points="691.24 574.44 659.73 534.19 625.47 571.91"/><path class="cls-7" d="M655.13,723s-37.25,67.85-69.91,67.16-56.34-20.7-54.05-27.6c6.44-5.52,15.64-10.81,39.1-42.77S655.13,723,655.13,723Z"/><path class="cls-8" d="M571.73,808.08a80,80,0,0,1-26.55-10"/><path class="cls-8" d="M568.62,810.19a79.09,79.09,0,0,1-23.44-9.37"/><path class="cls-8" d="M565.52,812.18a78.25,78.25,0,0,1-20.34-8.6"/><path class="cls-8" d="M562.74,814.14a77.29,77.29,0,0,1-17.56-7.8"/><path class="cls-8" d="M559.78,815.93a75.63,75.63,0,0,1-14.6-6.83"/><path class="cls-8" d="M557,817.66a75.72,75.72,0,0,1-11.79-5.8"/><path class="cls-8" d="M554,819.19a73.26,73.26,0,0,1-8.82-4.57"/><path class="cls-8" d="M551.12,820.62c-2.12-1-4.11-2.12-5.94-3.24"/><path class="cls-8" d="M548.36,822q-1.65-.9-3.18-1.83"/><path class="cls-7" d="M680.43,667.23s-11,65.2-51.74,75.32-65.62-15.48-62.33-18.78c0,0,25.41-34.92,27.48-57.46C600.63,667.69,657.09,683.56,680.43,667.23Z"/><path class="cls-8" d="M647.94,734.91a45.39,45.39,0,0,1-19.37,10.29c-21,5.2-37.71,1-48.6-4.83"/><path class="cls-8" d="M645.1,739.43A47.79,47.79,0,0,1,627.65,748c-21,5.2-37.71,1-48.6-4.83"/><path class="cls-8" d="M642.27,743.65a50.38,50.38,0,0,1-15.54,7.07c-21,5.2-37.71,1-48.6-4.83"/><path class="cls-8" d="M639.28,747.79a48.17,48.17,0,0,1-13.47,5.69c-21,5.2-37.71,1-48.6-4.83"/><path class="cls-8" d="M636.23,751.68a44.59,44.59,0,0,1-11.34,4.56c-21,5.2-37.71,1-48.6-4.83"/><path class="cls-8" d="M632.61,756.29a47,47,0,0,1-7.72,2.71c-21,5.2-37.71,1-48.6-4.84"/><path class="cls-8" d="M629.54,760.43c-1.39.5-3.18,1-4.65,1.32-21,5.21-37.71,1-48.6-4.83"/><path class="cls-8" d="M626.32,763.88c-21,5.2-39.14,1.6-50-4.2"/><path class="cls-8" d="M622.82,767.76c-20,4.43-36,.29-46.53-5.32"/><path class="cls-8" d="M619.61,771.21c-18.39,3.25-33.4-.73-43.32-6"/><path class="cls-8" d="M616.52,774.42c-17.07,2.39-30.83-1.46-40.23-6.46"/><path class="cls-8" d="M612.71,777.59c-15.18,1.29-27.79-2.27-36.42-6.87"/><path class="cls-8" d="M609,780.63a65.35,65.35,0,0,1-32.75-7.15"/><path class="cls-8" d="M605.07,783.45a66.34,66.34,0,0,1-28.78-7.21"/><path class="cls-8" d="M601,785.92A67.05,67.05,0,0,1,576.29,779"/><path class="cls-7" d="M608.74,589.27s86.85,9,96.36-19.49c-8.9,49.68-9,97-34.1,107.15s-66.85-4-78.19-9.5C596.79,658.54,607.41,604.79,608.74,589.27Z"/><path class="cls-8" d="M671,679.69c-25.14,10.12-66.33-3.72-77.67-9.24"/><path class="cls-8" d="M666.57,683.68c-25.35,7.63-63.1-5-73.93-10.29"/><path class="cls-8" d="M664.31,686.82c-25.34,6.8-61.83-5.53-72.48-10.7"/><path class="cls-8" d="M661.26,690.1c-25.25,5.58-60-6.19-70.35-11.22"/><path class="cls-8" d="M657.69,693.38c-25,4.22-57.79-6.85-67.78-11.71"/><path class="cls-8" d="M653.83,696.56c-24.65,2.92-55.38-7.55-65-12.22"/><path class="cls-8" d="M648.89,699.67c-23.94,1.43-52-8.35-61.14-12.77"/><path class="cls-8" d="M643.44,702.57c-22.89.07-48.55-8.92-57.07-13.07"/><path class="cls-7" d="M607.93,587.19c3.9-36.06,3.51-69.78-2.51-121.29,19.28,11.72,34.82,70.49,54.24,70,27.09-.72,52.59-72.95,52.59-72.95s3.58,47.3-6.29,108.54c0,0-2.08,30.93-97.17,18.28C608.79,589.75,607.7,589.32,607.93,587.19Z"/><path class="cls-8" d="M693.38,587.94c-12.3,6.24-36.6,10.95-84.59,4.57"/><path class="cls-8" d="M691.66,591.09c-12.54,6-36.82,10.43-83.79,4.18"/><path class="cls-8" d="M689.12,595c-13.19,5.42-37.27,8.89-81.25,3"/><path class="cls-8" d="M686.74,598.32c-13.47,5.08-37.38,8.11-79.79,2.47"/><path class="cls-8" d="M684.58,601.85c-13.82,4.6-37.41,7-77.63,1.7"/><path class="cls-8" d="M682.71,604.91c-13.94,4.41-37.36,6.63-76.68,1.4"/><path class="cls-8" d="M681,608.18c-14.12,4.06-37.22,5.92-75,.89"/><path class="cls-8" d="M678.22,611.46c-14.26,3.69-37,5.18-73.11.37"/><path class="cls-8" d="M675.66,614.84c-14.38,3.22-36.5,4.28-70.55-.25"/><path class="cls-8" d="M672.66,618c-14.4,2.88-36,3.63-68.47-.68"/><path class="cls-9" d="M710.71,498.32a127.64,127.64,0,0,1-7.48,18.92,101.26,101.26,0,0,1-10.63,17.34,55.85,55.85,0,0,1-14.91,13.76,36.54,36.54,0,0,1-9.34,4,33.5,33.5,0,0,1-10.11,1.13c-.86,0-1.7-.1-2.55-.19s-1.68-.31-2.51-.52A24.8,24.8,0,0,1,648.4,551a36.67,36.67,0,0,1-8.3-5.89,76.93,76.93,0,0,1-12.66-15.91c-7.14-11.57-12.48-24.14-17.15-36.87,4.7,12.72,10.08,25.27,17.25,36.82A77.23,77.23,0,0,0,640.21,545a36.43,36.43,0,0,0,8.28,5.83,23.94,23.94,0,0,0,4.74,1.76c.82.21,1.66.37,2.48.51s1.69.15,2.54.19a33.77,33.77,0,0,0,10-1.11,36.64,36.64,0,0,0,9.3-4,55.5,55.5,0,0,0,14.9-13.68,99.51,99.51,0,0,0,10.67-17.3A127.14,127.14,0,0,0,710.71,498.32Z"/><path class="cls-9" d="M710.25,477.62c-3.43,14-8.49,27.65-16,40a65.77,65.77,0,0,1-13.82,16.59,37.61,37.61,0,0,1-9.26,5.68,29.94,29.94,0,0,1-10.61,2.32c-.91,0-1.82,0-2.73-.05-.45,0-.91-.07-1.36-.12a8.52,8.52,0,0,1-1.37-.27,22.17,22.17,0,0,1-5-2.1,42,42,0,0,1-8.6-6.62,89.38,89.38,0,0,1-13.18-17.14c-7.53-12.33-13.17-25.68-18-39.23,2.52,6.74,5.26,13.41,8.3,19.93a174.33,174.33,0,0,0,10.1,19.06,88.71,88.71,0,0,0,13.19,17,40.76,40.76,0,0,0,8.51,6.48,21.18,21.18,0,0,0,4.91,2,8.62,8.62,0,0,0,1.27.25c.44,0,.89.08,1.33.1.89,0,1.78.07,2.67,0A29.05,29.05,0,0,0,671,539.32a36.86,36.86,0,0,0,9.13-5.53,65.24,65.24,0,0,0,13.8-16.38,127,127,0,0,0,9.58-19.3A160.12,160.12,0,0,0,710.25,477.62Z"/><path class="cls-9" d="M710.1,489.42A135.7,135.7,0,0,1,703.36,509a105.4,105.4,0,0,1-10,18.13A56.42,56.42,0,0,1,679,541.89a35.48,35.48,0,0,1-9.33,4.52,31.64,31.64,0,0,1-10.28,1.39,23.15,23.15,0,0,1-10-2.51,38,38,0,0,1-8.51-5.91,77.48,77.48,0,0,1-13.05-16c-7.38-11.69-12.82-24.47-17.5-37.43,2.4,6.46,5,12.85,7.94,19.09a154.56,154.56,0,0,0,9.82,18.18,76.6,76.6,0,0,0,13,15.92,37.29,37.29,0,0,0,8.45,5.82,22.73,22.73,0,0,0,9.87,2.44A31.66,31.66,0,0,0,669.55,546a35,35,0,0,0,9.24-4.43,56.32,56.32,0,0,0,14.37-14.63,105.18,105.18,0,0,0,10-18.05A134.24,134.24,0,0,0,710.1,489.42Z"/><path class="cls-10" d="M396.66,837.49c-28.17,28.39-55.46,37.19-75.09,37.94-34.64,1.34-70.67-34.28-86.72-84.78-13.43-42.28-84.62-5.87-107.32,8.59C56,844.78,24.5,775.32,19,731.16c35,76.66,56.5,56.68,73.29,43.55,36.53-28.58,117.11-100,189.78-.39,3.56,4.88,12.9,16.49,18.31,20.66,4.42,3.42,11.37,5.13,19,5.44"/><path class="cls-7" d="M396.66,837.49c-28.17,28.39-55.46,37.19-75.09,37.94-34.64,1.34-70.67-34.28-86.72-84.78-13.43-42.28-84.62-5.87-107.32,8.59C56,844.78,24.5,775.32,19,731.16c35,76.66,56.5,56.68,73.29,43.55,36.53-28.58,117.11-100,189.78-.39,3.56,4.88,12.9,16.49,18.31,20.66,4.42,3.42,11.37,5.13,19,5.44"/><path class="cls-7" d="M132.17,784.06s55.31,52.21,71.52,38.29,37-34.15,24.15-42-22.65-16.32-34.49-23.92S132.17,784.06,132.17,784.06Z"/><path class="cls-7" d="M31.44,515.33l41.4-52.43s42.31,48.3,41.85,49.67-11.5,41.4-11.5,41.4S27.3,560.41,31.44,515.33Z"/><polyline class="cls-8" points="42.02 510.96 73.53 470.72 107.8 508.44"/><polyline class="cls-8" points="42.02 516.48 73.53 476.24 107.8 513.96"/><polyline class="cls-8" points="42.02 522 73.53 481.76 107.8 519.48"/><polyline class="cls-8" points="42.02 527.52 73.53 487.28 107.8 524.99"/><polyline class="cls-8" points="42.02 533.04 73.53 492.8 107.8 530.51"/><polyline class="cls-8" points="42.02 537.64 73.53 497.4 107.8 535.11"/><polyline class="cls-8" points="42.02 542.24 73.53 502 107.8 539.71"/><polyline class="cls-8" points="42.02 546.84 73.53 506.6 107.8 544.31"/><polyline class="cls-8" points="42.02 550.52 73.53 510.27 107.8 547.99"/><polyline class="cls-8" points="42.02 554.2 73.53 513.96 107.8 551.67"/><polyline class="cls-8" points="42.02 556.96 73.53 516.72 107.8 554.43"/><polyline class="cls-8" points="42.02 559.72 73.53 519.48 107.8 557.19"/><polyline class="cls-8" points="42.02 562.48 73.53 522.23 107.8 559.95"/><polyline class="cls-8" points="42.02 565.24 73.53 524.99 107.8 562.71"/><polyline class="cls-8" points="42.02 567.08 73.53 526.83 107.8 564.55"/><polyline class="cls-8" points="42.02 568.92 73.53 528.67 107.8 566.39"/><polyline class="cls-8" points="42.02 570.76 73.53 530.51 107.8 568.23"/><polyline class="cls-8" points="42.02 572.6 73.53 532.35 107.8 570.07"/><polyline class="cls-8" points="42.02 574.44 73.53 534.19 107.8 571.91"/><path class="cls-7" d="M78.13,723s37.25,67.85,69.91,67.16,56.34-20.7,54-27.6c-6.43-5.52-15.63-10.81-39.09-42.77S78.13,723,78.13,723Z"/><path class="cls-8" d="M141.3,792.14a26.44,26.44,0,0,0,6.74.78,81.52,81.52,0,0,0,40-11.41"/><path class="cls-8" d="M145.5,795.7c.65,0,1.89,0,2.54,0a81.52,81.52,0,0,0,40-11.41"/><path class="cls-8" d="M149.06,798.41a81.33,81.33,0,0,0,39-11.38"/><path class="cls-8" d="M152.17,801a81.23,81.23,0,0,0,35.91-11.22"/><path class="cls-8" d="M155.33,803.46a81.55,81.55,0,0,0,32.75-10.92"/><path class="cls-8" d="M188.08,795.31a80.44,80.44,0,0,1-29.48,10.5"/><path class="cls-8" d="M161.53,808.08a80,80,0,0,0,26.55-10"/><path class="cls-8" d="M164.64,810.19a79.09,79.09,0,0,0,23.44-9.37"/><path class="cls-8" d="M167.74,812.18a78.25,78.25,0,0,0,20.34-8.6"/><path class="cls-8" d="M170.52,814.14a77.29,77.29,0,0,0,17.56-7.8"/><path class="cls-8" d="M173.48,815.93a75.63,75.63,0,0,0,14.6-6.83"/><path class="cls-8" d="M176.29,817.66a75.72,75.72,0,0,0,11.79-5.8"/><path class="cls-8" d="M179.26,819.19a73.26,73.26,0,0,0,8.82-4.57"/><path class="cls-8" d="M182.14,820.62c2.12-1,4.11-2.12,5.94-3.24"/><path class="cls-8" d="M184.9,822q1.65-.9,3.18-1.83"/><path class="cls-7" d="M52.83,667.23s11,65.2,51.74,75.32,65.63-15.48,62.33-18.78c0,0-25.41-34.92-27.48-57.46C132.63,667.69,76.17,683.56,52.83,667.23Z"/><path class="cls-8" d="M85.32,734.91a45.39,45.39,0,0,0,19.37,10.29c21,5.2,37.71,1,48.6-4.83"/><path class="cls-8" d="M88.16,739.43A47.79,47.79,0,0,0,105.61,748c21,5.2,37.71,1,48.6-4.83"/><path class="cls-8" d="M91,743.65a50.38,50.38,0,0,0,15.54,7.07c21,5.2,37.71,1,48.6-4.83"/><path class="cls-8" d="M94,747.79a48.17,48.17,0,0,0,13.47,5.69c21,5.2,37.71,1,48.6-4.83"/><path class="cls-8" d="M97,751.68a44.59,44.59,0,0,0,11.34,4.56c21,5.2,37.71,1,48.6-4.83"/><path class="cls-8" d="M100.65,756.29a47,47,0,0,0,7.72,2.71c21,5.2,37.71,1,48.6-4.84"/><path class="cls-8" d="M103.72,760.43c1.39.5,3.18,1,4.65,1.32,21,5.21,37.71,1,48.6-4.83"/><path class="cls-8" d="M106.94,763.88c21,5.2,39.14,1.6,50-4.2"/><path class="cls-8" d="M110.44,767.76c20,4.43,36,.29,46.53-5.32"/><path class="cls-8" d="M113.65,771.21c18.39,3.25,33.4-.73,43.32-6"/><path class="cls-8" d="M116.75,774.42C133.81,776.81,147.57,773,157,768"/><path class="cls-8" d="M120.55,777.59c15.18,1.29,27.79-2.27,36.42-6.87"/><path class="cls-8" d="M124.23,780.63A65.34,65.34,0,0,0,157,773.48"/><path class="cls-8" d="M128.19,783.45A66.34,66.34,0,0,0,157,776.24"/><path class="cls-8" d="M132.22,785.92A67.05,67.05,0,0,0,157,779"/><path class="cls-8" d="M137.57,788.13a61.15,61.15,0,0,0,19.4-6.37"/><path class="cls-8" d="M143.36,789.72a60.48,60.48,0,0,0,13.61-5.2"/><path class="cls-7" d="M124.53,589.27s-86.86,9-96.37-19.49c8.9,49.68,9,97,34.1,107.15s66.85-4,78.19-9.5C136.46,658.54,125.85,604.79,124.53,589.27Z"/><path class="cls-8" d="M62.26,679.69c25.14,10.12,66.33-3.72,77.67-9.24"/><path class="cls-8" d="M66.7,683.68c25.34,7.63,63.09-5,73.92-10.29"/><path class="cls-8" d="M69,686.82c25.34,6.8,61.84-5.53,72.48-10.7"/><path class="cls-8" d="M72,690.1c25.25,5.58,60-6.19,70.35-11.22"/><path class="cls-8" d="M75.57,693.38c25,4.22,57.79-6.85,67.78-11.71"/><path class="cls-8" d="M79.43,696.56c24.65,2.92,55.38-7.55,65-12.22"/><path class="cls-8" d="M84.38,699.67c23.93,1.43,52-8.35,61.13-12.77"/><path class="cls-8" d="M89.82,702.57c22.89.07,48.55-8.92,57.07-13.07"/><path class="cls-7" d="M125.33,587.19c-3.9-36.06-3.51-69.78,2.51-121.29-19.28,11.72-34.82,70.49-54.24,70C46.51,535.16,21,462.93,21,462.93s-3.58,47.3,6.29,108.54c0,0,2.08,30.93,97.17,18.28C124.47,589.75,125.56,589.32,125.33,587.19Z"/><path class="cls-8" d="M39.88,587.94c12.3,6.24,36.6,10.95,84.59,4.57"/><path class="cls-8" d="M41.6,591.09c12.54,6,36.82,10.43,83.79,4.18"/><path class="cls-8" d="M44.14,595c13.19,5.42,37.27,8.89,81.25,3"/><path class="cls-8" d="M46.52,598.32c13.47,5.08,37.38,8.11,79.79,2.47"/><path class="cls-8" d="M48.68,601.85c13.82,4.6,37.41,7,77.63,1.7"/><path class="cls-8" d="M50.55,604.91c13.94,4.41,37.36,6.63,76.68,1.4"/><path class="cls-8" d="M52.22,608.18c14.12,4.06,37.22,5.92,75,.89"/><path class="cls-8" d="M55,611.46c14.26,3.69,37,5.18,73.11.37"/><path class="cls-8" d="M57.6,614.84c14.38,3.22,36.5,4.28,70.55-.25"/><path class="cls-8" d="M60.6,618c14.4,2.88,36,3.63,68.47-.68"/><path class="cls-9" d="M22.55,498.32a127.14,127.14,0,0,0,7.54,18.89,99.51,99.51,0,0,0,10.67,17.3,55.5,55.5,0,0,0,14.9,13.68,36.64,36.64,0,0,0,9.3,4A33.76,33.76,0,0,0,75,553.29c.84,0,1.69-.1,2.53-.19s1.66-.3,2.48-.51a23.94,23.94,0,0,0,4.74-1.76A36.43,36.43,0,0,0,93.05,545a77.23,77.23,0,0,0,12.67-15.84c7.17-11.55,12.55-24.1,17.25-36.82-4.67,12.73-10,25.3-17.15,36.88a77.14,77.14,0,0,1-12.66,15.9,36.36,36.36,0,0,1-8.3,5.89,24.8,24.8,0,0,1-4.78,1.79c-.83.21-1.66.37-2.51.52s-1.69.16-2.55.19a33.5,33.5,0,0,1-10.11-1.13,36.54,36.54,0,0,1-9.34-4,55.85,55.85,0,0,1-14.91-13.76A101.26,101.26,0,0,1,30,517.24,127.64,127.64,0,0,1,22.55,498.32Z"/><path class="cls-9" d="M23,477.62a160.12,160.12,0,0,0,6.78,20.49,127,127,0,0,0,9.58,19.3,65.24,65.24,0,0,0,13.8,16.38,36.86,36.86,0,0,0,9.13,5.53,29.05,29.05,0,0,0,10.39,2.22c.89,0,1.78,0,2.67,0,.44,0,.89-.06,1.33-.1a8.62,8.62,0,0,0,1.27-.25,21.18,21.18,0,0,0,4.91-2,40.76,40.76,0,0,0,8.51-6.48,88.71,88.71,0,0,0,13.19-17,174.33,174.33,0,0,0,10.1-19.06c3-6.52,5.78-13.19,8.3-19.93-4.84,13.55-10.48,26.9-18,39.23a89.38,89.38,0,0,1-13.18,17.14,42,42,0,0,1-8.6,6.62,22.17,22.17,0,0,1-5.05,2.1,8.52,8.52,0,0,1-1.37.27c-.45.05-.91.09-1.36.12-.91.05-1.82.08-2.73.05a30,30,0,0,1-10.61-2.32,37.61,37.61,0,0,1-9.26-5.68A66,66,0,0,1,39,517.64C31.5,505.27,26.44,491.59,23,477.62Z"/><path class="cls-9" d="M23.16,489.42a134.24,134.24,0,0,0,7,19.47,105.18,105.18,0,0,0,10,18.05,56.32,56.32,0,0,0,14.37,14.63A35,35,0,0,0,63.71,546a31.66,31.66,0,0,0,10.14,1.35,22.77,22.77,0,0,0,9.87-2.44,37.29,37.29,0,0,0,8.45-5.82,76.6,76.6,0,0,0,13-15.92A156.73,156.73,0,0,0,115,505c2.93-6.25,5.54-12.64,7.94-19.1-4.68,13-10.12,25.74-17.5,37.43a77.48,77.48,0,0,1-13,16,38,38,0,0,1-8.51,5.91,23.15,23.15,0,0,1-10,2.51,31.64,31.64,0,0,1-10.28-1.39,35.48,35.48,0,0,1-9.33-4.52,56.42,56.42,0,0,1-14.41-14.78A105.4,105.4,0,0,1,29.9,509,135.7,135.7,0,0,1,23.16,489.42Z"/><path class="cls-7" d="M190,823.77s36.81,12.7,61,4l3.18-2.81-3.37-6.75-4.68-4.75-6.28-9-7.67-20.12"/><path class="cls-7" d="M522.22,773c26.12-10.6,74.13,14.43,92,25.82,71.5,45.54,103-23.91,108.55-68.07-35,76.66-56.5,56.67-73.29,43.54-33.11-25.9-109.34-87.13-167.68-22.09l-4,9,11.27,14.95,29.67,4.49"/><path class="cls-11" d="M372.84,759.6C394.92,728.79,409,723,429.64,723c23.69,0,52,29.05,52,29.05s23.2,28.28,40.68,20.92l14.05,50.3-49.67-1.84-32.43-15.41s-23.23-10.12-31.74-3S385,795.25,385,795.25l-19.78-27.14Z"/><path class="cls-7" d="M488.54,826.76l-5,12.72c-19.66,41.28-59.64,36.8-59.64,36.8-27.37,0-73.57-17.46-91.07-57-4.83-10.92-4-17.47-13.57-18.86"/><path class="cls-12" d="M333.88,816.58c-4.83-10.92-5.05-16.65-14.65-18l.1,0c-7.6-.31-14.55-2-19-5.44"/><path class="cls-12" d="M334.79,814.74c-4.82-10.92-5-16.65-14.64-18l.1,0c-7.6-.31-14.55-2-19-5.44"/><path class="cls-12" d="M335.71,812.9c-4.82-10.92-5-16.65-14.64-18l.1,0c-7.6-.31-14.55-2-19-5.44"/><path class="cls-12" d="M336.63,811.06c-4.82-10.92-5-16.65-14.64-18l.1,0c-7.6-.31-14.55-2-19-5.44"/><path class="cls-7" d="M445.74,802c-44.73,18.06-53.64-2.4-65.31-24.8-9-17.26-17.79-53.5-61.29-53.5-33.31,0-51.57,33.5-51.57,33.5"/><path class="cls-7" d="M542.81,823.77s-33.11,10.46-57.26,1.72l-.25-.1a218.8,218.8,0,0,1-29.59-15.81c-17.48-11.26-30.13-1.76-30.13-1.76s-5.65,3.24-19.16-.3c0,0-11.85-2-21.05-21"/><path class="cls-12" d="M486.22,822.63a219.38,219.38,0,0,1-29.59-15.8c-17.48-11.27-30.13-1.77-30.13-1.77s-5.65,3.24-19.16-.3c0,0-11.85-2-21-21"/><path class="cls-12" d="M479.21,816.2a218.47,218.47,0,0,1-21.66-12.13c-17.48-11.27-30.13-1.77-30.13-1.77s-5.65,3.24-19.16-.3c0,0-8.85-1.52-17.19-14.17"/><path class="cls-12" d="M473.86,810.73c-4.86-2.53-10.58-5.73-16.31-9.42-17.48-11.27-30.13-1.77-30.13-1.77s-5.65,3.24-19.16-.3c0,0-7.3-1.26-14.88-11"/><path class="cls-12" d="M469.35,805.05c-3.47-1.93-7.18-4.11-10.88-6.5-17.48-11.27-30.13-1.77-30.13-1.77s-5.65,3.24-19.16-.3c0,0-5.32-.92-11.59-7.22"/><path class="cls-7" d="M522.3,773c-17.48,7.36-40.68-20.92-40.68-20.92S453.33,723,429.64,723c-20.69,0-34.72,5.75-56.8,36.56"/><path class="cls-13" d="M488.06,828.35a103.94,103.94,0,0,1-36.41-19.12"/><path class="cls-13" d="M487.27,830.19a104.87,104.87,0,0,1-36.37-18.62"/><path class="cls-13" d="M486.49,832A105.64,105.64,0,0,1,450,813.78"/><path class="cls-13" d="M485.74,833.86a106.35,106.35,0,0,1-36.68-17.93"/><path class="cls-13" d="M484.91,836a105.82,105.82,0,0,1-36.75-18.22"/><path class="cls-13" d="M484.32,837.86a106.26,106.26,0,0,1-37.84-18.51"/><path class="cls-13" d="M483.61,839.7a106.63,106.63,0,0,1-38.81-18.78"/><path class="cls-13" d="M482.57,841.44a107,107,0,0,1-39.45-18.94"/><path class="cls-13" d="M481.72,843.23c-14.19-3.56-28.21-9.69-40.28-19.16"/><path class="cls-13" d="M480.68,845c-14.41-3.53-28.67-9.71-40.92-19.31"/><path class="cls-13" d="M479.83,846.74c-14.68-3.49-29.26-9.73-41.75-19.52"/><path class="cls-13" d="M478.49,848.39c-14.8-3.48-29.51-9.73-42.09-19.59"/><path class="cls-13" d="M477.43,850.11c-15-3.45-29.95-9.73-42.71-19.73"/><path class="cls-13" d="M476.29,851.81C461.1,848.39,446,842.07,433,832"/><path class="cls-13" d="M474.94,853.46c-15.3-3.4-30.57-9.74-43.57-19.93"/><path class="cls-13" d="M473.66,855.13c-15.43-3.39-30.86-9.74-44-20"/><path class="cls-13" d="M472.1,856.73c-15.47-3.38-31-9.74-44.09-20.05"/><path class="cls-13" d="M470.73,858.35c-15.68-3.34-31.09-9.65-44.4-20.1"/><path class="cls-13" d="M469.34,860c-15.68-3.35-31.38-9.74-44.69-20.18"/><path class="cls-13" d="M467.43,861.55c-15.67-3.34-31.14-9.7-44.46-20.15"/><path class="cls-13" d="M465.52,863.06c-15.67-3.34-30.92-9.64-44.23-20.08"/><path class="cls-13" d="M463.41,864.54c-15.37-3.39-30.74-9.74-43.8-20"/><path class="cls-13" d="M461.34,866c-15.25-3.42-30.46-9.74-43.41-19.9"/><path class="cls-13" d="M459.15,867.49c-15.07-3.44-30.09-9.74-42.9-19.78"/><path class="cls-13" d="M456.76,868.9c-14.84-3.47-29.58-9.73-42.19-19.62"/><path class="cls-13" d="M454.06,870.24c-14.49-3.53-28.85-9.72-41.17-19.38"/><path class="cls-13" d="M451.15,871.5c-14.07-3.56-28-9.68-39.93-19.07"/><path class="cls-13" d="M448.28,872.77A106.76,106.76,0,0,1,409.54,854"/><path class="cls-13" d="M444.92,873.89a106.23,106.23,0,0,1-37.07-18.3"/><path class="cls-13" d="M441.15,874.86a105.05,105.05,0,0,1-35-17.7"/><path class="cls-13" d="M436.79,875.62A103.76,103.76,0,0,1,405.26,859"/><path class="cls-13" d="M432.4,876.25a102.37,102.37,0,0,1-28.06-15.41"/><path class="cls-13" d="M427.24,876.44a100.35,100.35,0,0,1-23.82-13.76"/><path class="cls-13" d="M421.77,876.28a98.66,98.66,0,0,1-19.27-11.76"/><path class="cls-13" d="M416.41,875.92a96.22,96.22,0,0,1-14.83-9.56"/><path class="cls-13" d="M410.92,875.21a93.91,93.91,0,0,1-10.26-7"/><path class="cls-13" d="M405.46,874.19q-2.93-2-5.72-4.15"/><path class="cls-8" d="M527,773.4c18.64-4.08,46.82,6.2,67.65,16.45"/><path class="cls-8" d="M525.59,775.59c18.21-4.87,46.53,5.15,67.77,15.45"/><path class="cls-8" d="M524.45,777.76c17.76-5.51,46,4.16,67.49,14.44"/><path class="cls-8" d="M523.55,779.89c17.36-6,45.42,3.34,67.15,13.56"/><path class="cls-8" d="M523.43,781.78c16.93-5.95,44.12,2.81,65.66,12.76"/><path class="cls-8" d="M523.55,783.57c16.6-5.75,43,2.54,64.25,12.22"/><path class="cls-8" d="M523.71,785.36c16.25-5.52,41.74,2.27,62.69,11.63"/><path class="cls-8" d="M524.08,787.08c15.89-5.16,40.4,2.12,60.91,11.13"/><path class="cls-8" d="M524.52,788.78c15.47-4.76,38.84,2,58.81,10.55"/><path class="cls-8" d="M525.08,790.45c15.14-4.33,37.53,1.95,57,10.17"/><path class="cls-8" d="M525.92,792.06c14.68-3.76,35.79,2,54.48,9.71"/><path class="cls-8" d="M526.91,793.67c14.24-3.18,34.1,2.08,52,9.33"/><path class="cls-8" d="M527.63,795.35c13.79-2.77,32.61,2.08,49.81,8.9"/><path class="cls-8" d="M528.88,797c13.2-2.17,30.63,2.2,46.84,8.46"/><path class="cls-8" d="M530.3,798.6c12.55-1.6,28.61,2.32,43.76,8"/><path class="cls-7" d="M321.57,875.43c-34.64,1.34-70.67-34.28-86.72-84.78-3.28-10.33-10-16-18.64-18.36,0,0-4.05-2.43-15.55-11"/><path class="cls-8" d="M249.15,828.38A168.2,168.2,0,0,1,233,792.49c-2.72-8.58-7.83-13.92-14.43-16.86"/><path class="cls-8" d="M246.52,828.89a168.25,168.25,0,0,1-15.35-34.56c-2.51-7.91-7-13.06-12.9-16.12"/><path class="cls-8" d="M244,829.55a168.86,168.86,0,0,1-14.66-33.38c-2.36-7.43-6.51-12.44-11.86-15.55"/><path class="cls-8" d="M241.35,830a169.83,169.83,0,0,1-13.86-32c-2.18-6.87-5.88-11.66-10.66-14.8"/><path class="cls-8" d="M238.7,830.39a171,171,0,0,1-13-30.54,27,27,0,0,0-9.6-14.07"/><path class="cls-8" d="M236,830.63a171.57,171.57,0,0,1-12.18-28.94,27.58,27.58,0,0,0-8.19-13"/><path class="cls-8" d="M233.27,830.8A171.33,171.33,0,0,1,222,803.53a28.05,28.05,0,0,0-7.11-12"/><path class="cls-8" d="M230.47,830.77a172,172,0,0,1-10.34-25.4,28.86,28.86,0,0,0-5.86-10.66"/><path class="cls-8" d="M227.3,830.83a174.74,174.74,0,0,1-9-22.7,29.58,29.58,0,0,0-5.06-9.72"/><path class="cls-8" d="M224.48,830.6a171.85,171.85,0,0,1-8-20.63,31.07,31.07,0,0,0-3.75-7.92"/><path class="cls-8" d="M221.72,830.43a171.66,171.66,0,0,1-7.1-18.62,32.06,32.06,0,0,0-3.09-6.89"/><path class="cls-8" d="M368.4,860.38c-13.08-7.4-25.31-17.72-34-31.22"/><path class="cls-8" d="M366.56,861.3C353.77,854.06,341.8,844,333.13,831"/><path class="cls-8" d="M364.72,862.22c-12.54-7.1-24.3-16.87-32.93-29.56"/><path class="cls-8" d="M362.88,863.14c-12.31-7-23.87-16.51-32.45-28.86"/><path class="cls-8" d="M361,864.41c-12.1-7-23.4-16.53-31.78-28.78"/><path class="cls-8" d="M359.11,865.32c-12.09-7-23.39-16.52-31.77-28.77"/><path class="cls-8" d="M357.39,866.31c-12.13-7-23.48-16.55-31.89-28.84"/><path class="cls-8" d="M355.22,867c-12-7-23.23-16.47-31.56-28.65"/><path class="cls-8" d="M353.42,868c-12-7-23.26-16.48-31.6-28.67"/><path class="cls-8" d="M351.54,868.88c-12-7-23.23-16.47-31.56-28.65"/><path class="cls-8" d="M349.46,869.66c-11.92-7-23-16.41-31.32-28.51"/><path class="cls-8" d="M347.42,870.46c-11.84-7-22.89-16.36-31.12-28.39"/><path class="cls-8" d="M345.16,871.14A96.74,96.74,0,0,1,314.46,843"/><path class="cls-8" d="M342.9,871.8a96.67,96.67,0,0,1-30.28-27.89"/><path class="cls-8" d="M340.44,872.35a96.32,96.32,0,0,1-29.66-27.52"/><path class="cls-8" d="M338.33,873.11a96.42,96.42,0,0,1-29.39-27.36"/><path class="cls-8" d="M335.9,873.66a96,96,0,0,1-28.8-27"/><path class="cls-8" d="M333.36,874.14a95.69,95.69,0,0,1-28.1-26.55"/><path class="cls-8" d="M330.76,874.58a95.4,95.4,0,0,1-27.34-26.07"/><path class="cls-8" d="M328.14,875a95,95,0,0,1-26.56-25.56"/><path class="cls-8" d="M325.34,875.27a94.55,94.55,0,0,1-25.6-24.92"/><path class="cls-8" d="M322.26,875.35a94.14,94.14,0,0,1-24.36-24.08"/><path class="cls-8" d="M319.28,875.47a93.73,93.73,0,0,1-23.22-23.28"/><path class="cls-8" d="M316.07,875.4a93,93,0,0,1-21.85-22.29"/><path class="cls-8" d="M312.6,875.1A92.14,92.14,0,0,1,292.38,854"/><path class="cls-8" d="M308.67,874.38A91.26,91.26,0,0,1,290.54,855"/><path class="cls-8" d="M304.23,873.13a89.93,89.93,0,0,1-15.52-17.26"/><path class="cls-8" d="M299.79,871.71a88.63,88.63,0,0,1-12.92-14.92"/><path class="cls-8" d="M294.88,869.65A86.38,86.38,0,0,1,285,857.71"/><path class="cls-8" d="M289.85,867.16a84.37,84.37,0,0,1-6.66-8.53"/><path class="cls-11" d="M366.88,446s-14-108.13-22.47-138.21c-7.3-26.06-36.48-138.21-36.48-138.21s30.9,48,58.95,48c26.61,0,59-48,59-48s-29.18,112.15-36.48,138.21C380.93,337.87,366.88,446,366.88,446Z"/><path class="cls-3" d="M336.45,277.85c2.92-.16,5.84-.37,8.74-.68s5.81-.64,8.69-1.08A148.46,148.46,0,0,0,371,272.57a101.61,101.61,0,0,0,16.44-5.82,68.47,68.47,0,0,0,7.71-4.09,59.14,59.14,0,0,0,7.15-5.05,52.05,52.05,0,0,1-6.86,5.51,68.7,68.7,0,0,1-7.64,4.39,93.61,93.61,0,0,1-16.52,6.11,130.17,130.17,0,0,1-17.29,3.3A124,124,0,0,1,336.45,277.85Z"/><path class="cls-3" d="M343.8,297.54c2.27-.28,4.53-.54,6.78-.89s4.5-.66,6.74-1.07c4.48-.8,8.93-1.71,13.31-2.92a109.63,109.63,0,0,0,12.94-4.19q3.17-1.23,6.23-2.72c2.06-1,4.06-2.06,6-3.21a58.85,58.85,0,0,1-5.78,3.68c-2,1.1-4.07,2.1-6.16,3a97.5,97.5,0,0,1-13,4.47,123.74,123.74,0,0,1-13.46,2.69q-3.39.46-6.81.77C348.36,297.35,346.09,297.5,343.8,297.54Z"/><path class="cls-3" d="M349.29,317.06c1.68-.3,3.36-.56,5-.88s3.35-.59,5-.93c3.33-.68,6.64-1.39,9.92-2.23s6.54-1.77,9.76-2.81c1.62-.51,3.22-1.08,4.8-1.68s3.17-1.22,4.76-1.86c-1.48.86-3,1.62-4.55,2.36s-3.13,1.36-4.72,2a88,88,0,0,1-9.78,3.07,101.43,101.43,0,0,1-10,2c-1.69.24-3.38.46-5.07.64S351,317,349.29,317.06Z"/><path class="cls-3" d="M352.63,336.67c5.1-1.08,10.18-2.08,15.22-3.3s10-2.62,15-4.15a69.83,69.83,0,0,1-14.74,5.21A83.29,83.29,0,0,1,352.63,336.67Z"/><path class="cls-3" d="M355.83,356.23c3.9-1,7.8-1.85,11.69-2.79s7.74-1.91,11.67-2.84a57.68,57.68,0,0,1-11.42,3.91A64.13,64.13,0,0,1,355.83,356.23Z"/><path class="cls-3" d="M358.46,375.82c2.79-.9,5.6-1.55,8.41-2.22s5.62-1.29,8.52-1.74a39.9,39.9,0,0,1-8.27,2.8A42.76,42.76,0,0,1,358.46,375.82Z"/><path class="cls-3" d="M362,395.18a22.09,22.09,0,0,1,2.6-1c.88-.28,1.76-.5,2.64-.72s1.78-.39,2.68-.53a19.26,19.26,0,0,1,2.76-.31,20.53,20.53,0,0,1-5.19,1.91A21,21,0,0,1,362,395.18Z"/><path class="cls-3" d="M363.62,414.87a7.3,7.3,0,0,1,1.62-.78,14.5,14.5,0,0,1,1.67-.5,12.49,12.49,0,0,1,1.73-.29,7.63,7.63,0,0,1,1.79,0,9.54,9.54,0,0,1-3.27,1.37A9.74,9.74,0,0,1,363.62,414.87Z"/><path class="cls-11" d="M167.94,1000.69H119.62l-10.23,25.18H95.86l48-118,48.16,118H178.33ZM124.82,988.1h38.09l-19-46.75Z"/><path class="cls-11" d="M269.93,944.5A36.4,36.4,0,0,1,268,956.23a35.45,35.45,0,0,1-5.35,10.15,38.94,38.94,0,0,1-8.11,8,34.46,34.46,0,0,1-10.3,5.11L269,1025.87H254.82L230.9,981H214.06v44.85H201.47v-118h31.79a35.32,35.32,0,0,1,14.24,2.91A37,37,0,0,1,267,930.26,35.29,35.29,0,0,1,269.93,944.5Zm-55.87,23.92h19.2a23.43,23.43,0,0,0,9.28-1.88,25.19,25.19,0,0,0,7.72-5.12,23.77,23.77,0,0,0,5.19-7.55,24,24,0,0,0,0-18.66,24.21,24.21,0,0,0-12.91-12.9,23.27,23.27,0,0,0-9.28-1.89h-19.2Z"/><path class="cls-11" d="M347.84,944.5A36.4,36.4,0,0,1,346,956.23a35.45,35.45,0,0,1-5.35,10.15,38.94,38.94,0,0,1-8.11,8,34.46,34.46,0,0,1-10.3,5.11l24.71,46.43H332.73L308.81,981H292v44.85H279.37v-118h31.8a35.32,35.32,0,0,1,14.24,2.91,37,37,0,0,1,19.52,19.52A35.29,35.29,0,0,1,347.84,944.5ZM292,968.42h19.21a23.43,23.43,0,0,0,9.28-1.88,25.19,25.19,0,0,0,7.72-5.12,23.77,23.77,0,0,0,5.19-7.55,24,24,0,0,0,0-18.66,24.21,24.21,0,0,0-12.91-12.9,23.27,23.27,0,0,0-9.28-1.89H292Z"/><path class="cls-11" d="M425.59,1000.69H377.27L367,1025.87H353.5l48-118,48.16,118H436ZM382.47,988.1h38.08l-19-46.75Z"/><path class="cls-11" d="M459.11,907.83h12.6v59l59-59h17.63l-59,59,59,59H530.73l-59-59v59h-12.6Z"/><path class="cls-11" d="M557.8,907.83h12.59v118H557.8Z"/><path class="cls-11" d="M586.52,958.19a33.47,33.47,0,0,1-5.5-11.25,31.66,31.66,0,0,1-.87-12.43,32.58,32.58,0,0,1,4.09-12.2,33.77,33.77,0,0,1,8.66-9.76A32.87,32.87,0,0,1,604.07,907a31.75,31.75,0,0,1,12.44-.86,32.44,32.44,0,0,1,12.27,4.09l9.13,5.35v14.32l-15.27-8.81a20.27,20.27,0,0,0-7.63-2.52,19.86,19.86,0,0,0-7.71.55,21.28,21.28,0,0,0-6.93,3.39,18.56,18.56,0,0,0-5.27,6,20.27,20.27,0,0,0-2.52,7.63,21.29,21.29,0,0,0,.47,7.71,18.56,18.56,0,0,0,3.39,6.85,19.8,19.8,0,0,0,6.06,5.19l19,11a32.68,32.68,0,0,1,9.68,8.66,33.68,33.68,0,0,1,5.51,11.17,31.94,31.94,0,0,1,.87,12.44,32.63,32.63,0,0,1-4.1,12.27,33.46,33.46,0,0,1-8.65,9.76,32.91,32.91,0,0,1-11.18,5.59,31.71,31.71,0,0,1-12.43.86,32.66,32.66,0,0,1-12.28-4.09l-9.13-5.19v-14.64l15.27,8.81a18.83,18.83,0,0,0,7.63,2.68,20.1,20.1,0,0,0,7.72-.55,20.45,20.45,0,0,0,6.84-3.38,19.68,19.68,0,0,0,7.87-13.7,20.52,20.52,0,0,0-.47-7.63,18.69,18.69,0,0,0-3.38-6.85,20,20,0,0,0-6.06-5.19l-19-11A32.68,32.68,0,0,1,586.52,958.19Z"/><path class="cls-11" d="M119.51,128.3a46.81,46.81,0,0,0-13.56,33,47.38,47.38,0,0,0,3.39,17.59,46.14,46.14,0,0,0,25.55,25.55,47.39,47.39,0,0,0,17.59,3.4,46.88,46.88,0,0,0,33-13.57l8.83,8.83a57.5,57.5,0,0,1-19.56,13,59.15,59.15,0,0,1-44.48,0,59.64,59.64,0,0,1-32.57-32.58,59.15,59.15,0,0,1,0-44.48,59.64,59.64,0,0,1,32.57-32.58,59.15,59.15,0,0,1,44.48,0,57.5,57.5,0,0,1,19.56,13l-8.83,8.83a46.88,46.88,0,0,0-33-13.57,47.59,47.59,0,0,0-17.59,3.4A44.87,44.87,0,0,0,119.51,128.3Z"/><path class="cls-11" d="M273.94,167.58H228.2v52.85H215.58V102.11H228.2V155h45.74V102.11h12.62V220.43H273.94Z"/><path class="cls-11" d="M307.7,161.27a57.11,57.11,0,0,1,4.66-23,59.83,59.83,0,0,1,31.47-31.47,59.24,59.24,0,0,1,46.06,0,59.83,59.83,0,0,1,31.47,31.47,59.36,59.36,0,0,1,0,46.06,59.83,59.83,0,0,1-31.47,31.47,59.24,59.24,0,0,1-46.06,0,59.83,59.83,0,0,1-31.47-31.47A57.11,57.11,0,0,1,307.7,161.27Zm12.62,0A45.77,45.77,0,0,0,324,179.41a46.09,46.09,0,0,0,24.77,24.77,47.14,47.14,0,0,0,36.28,0,46.09,46.09,0,0,0,24.77-24.77,47.14,47.14,0,0,0,0-36.28A46.09,46.09,0,0,0,385,118.36a47.14,47.14,0,0,0-36.28,0A46.09,46.09,0,0,0,324,143.13,45.81,45.81,0,0,0,320.32,161.27Z"/><path class="cls-11" d="M508.52,195.19H460.09l-10.26,25.24H436.27l48.11-118.32,48.27,118.32H518.93Zm-43.23-12.62h38.18l-19.09-46.86Z"/><path class="cls-11" d="M551.58,102.11,597,147.55l45.43-45.44V220.43H629.82v-88L597,165.21,564.2,132.4v88H551.58Z"/><path class="cls-3" d="M250.3,478.86a10.37,10.37,0,0,1,4.15.84,10.47,10.47,0,0,1,3.38,2.31,11.47,11.47,0,0,1,2.27,3.38,10.08,10.08,0,0,1,.85,4.11v31.92H249.79V490.08H235.7v31.34H224.4V490.08H210.31v31.34H199.08V478.86Z"/><path class="cls-3" d="M300.28,478.86a10.37,10.37,0,0,1,4.15.84,10.47,10.47,0,0,1,3.38,2.31,11.47,11.47,0,0,1,2.27,3.38,10.07,10.07,0,0,1,.84,4.11v16.29H279v4.4h31.92v11.23H278.41a10.14,10.14,0,0,1-4.11-.84,11.11,11.11,0,0,1-5.68-5.69,9.92,9.92,0,0,1-.85-4.11V489.5a9.92,9.92,0,0,1,.85-4.11,11.11,11.11,0,0,1,5.68-5.69,10.14,10.14,0,0,1,4.11-.84ZM299.7,496v-5.88H279V496Z"/><path class="cls-3" d="M328.1,464.84v45.35h8.58v11.23h-9.24a10.07,10.07,0,0,1-4.11-.84,10.92,10.92,0,0,1-3.38-2.31,11,11,0,0,1-2.31-3.38,10.07,10.07,0,0,1-.84-4.11V464.84Z"/><path class="cls-3" d="M374.85,478.86a10.32,10.32,0,0,1,4.14.84,10.47,10.47,0,0,1,3.38,2.31,11.47,11.47,0,0,1,2.27,3.38,9.92,9.92,0,0,1,.85,4.11v31.92H353a10.37,10.37,0,0,1-4.15-.84,10.47,10.47,0,0,1-3.38-2.31,11.47,11.47,0,0,1-2.27-3.38,10.08,10.08,0,0,1-.85-4.11V494.49h31.93v-4.41H342.33V478.86Zm-.59,25.46h-20.7v5.87h20.7Z"/><path class="cls-3" d="M425.34,478.86a10.44,10.44,0,0,1,7.52,3.15,11.5,11.5,0,0,1,2.28,3.38,10.07,10.07,0,0,1,.84,4.11v31.92H424.75V490.08h-20.7v31.34H392.83V478.86Z"/><path class="cls-3" d="M485.52,527.59a10.12,10.12,0,0,1-.85,4.14,10.56,10.56,0,0,1-5.65,5.65,10.16,10.16,0,0,1-4.14.85H449v-11.3h25.25v-5.51H453a10.37,10.37,0,0,1-4.15-.84,10.71,10.71,0,0,1-3.41-2.31,11.25,11.25,0,0,1-2.32-3.38,10.07,10.07,0,0,1-.84-4.11V489.5a10.07,10.07,0,0,1,.84-4.11,11.25,11.25,0,0,1,2.32-3.38,10.71,10.71,0,0,1,3.41-2.31,10.37,10.37,0,0,1,4.15-.84h21.87A10.48,10.48,0,0,1,482.4,482a11.47,11.47,0,0,1,2.27,3.38,9.92,9.92,0,0,1,.85,4.11Zm-32-17.4h20.77V490.08H453.52Z"/><path class="cls-3" d="M524.05,478.86a10.44,10.44,0,0,1,7.52,3.15,11.5,11.5,0,0,1,2.28,3.38,10.07,10.07,0,0,1,.84,4.11v16.29H502.77v4.4h31.92v11.23H502.18a10.07,10.07,0,0,1-4.11-.84,11.08,11.08,0,0,1-5.69-5.69,10.07,10.07,0,0,1-.84-4.11V489.5a10.07,10.07,0,0,1,.84-4.11,11.08,11.08,0,0,1,5.69-5.69,10.07,10.07,0,0,1,4.11-.84Zm-.59,17.1v-5.88H502.77V496Z"/><path class="cls-3" d="M326.45,566.93a10.48,10.48,0,0,1,7.52,3.15,11.47,11.47,0,0,1,2.27,3.38,9.92,9.92,0,0,1,.85,4.11v31.92H325.93V578.15H311.84v31.34h-11.3V578.15H286.45v31.34H275.22V566.93Z"/><path class="cls-3" d="M358.08,553v11.3H346.85V553Zm-11.23,13.95h11.23v42.56H346.85Z"/><path class="cls-3" d="M399.25,566.93a10.44,10.44,0,0,1,7.52,3.15,11.5,11.5,0,0,1,2.28,3.38,10.07,10.07,0,0,1,.84,4.11v31.92H398.66V578.15H378v31.34H366.74V566.93Z"/><path class="cls-3" d="M447.91,566.93a10.28,10.28,0,0,1,4.14.84,10.47,10.47,0,0,1,3.38,2.31,11.7,11.7,0,0,1,2.28,3.38,10.07,10.07,0,0,1,.84,4.11v16.29H426.62v4.4h31.93v11.23H426a10.07,10.07,0,0,1-4.11-.84,10.92,10.92,0,0,1-3.38-2.31,11,11,0,0,1-2.31-3.38,10.08,10.08,0,0,1-.85-4.11V577.57a10.08,10.08,0,0,1,.85-4.11,11,11,0,0,1,2.31-3.38,10.92,10.92,0,0,1,3.38-2.31,10.07,10.07,0,0,1,4.11-.84Zm-.59,17.1v-5.88h-20.7V584Z"/><path class="cls-3" d="M252.69,667.76h-11.3v-1.54h-20.7v4.41H242a10.62,10.62,0,0,1,4.18.84,10.29,10.29,0,0,1,3.41,2.31,11.5,11.5,0,0,1,2.28,3.38,10.07,10.07,0,0,1,.84,4.11v5.65a10.07,10.07,0,0,1-.84,4.11,11.33,11.33,0,0,1-2.28,3.37,10.46,10.46,0,0,1-3.41,2.32,10.62,10.62,0,0,1-4.18.84H220.11a10.07,10.07,0,0,1-4.11-.84,11.13,11.13,0,0,1-3.38-2.32,10.88,10.88,0,0,1-2.31-3.37,10.08,10.08,0,0,1-.85-4.11v-2.13h11.23v1.54h20.7v-4.4H220.11a9.92,9.92,0,0,1-4.11-.85,11.11,11.11,0,0,1-5.69-5.68,10.15,10.15,0,0,1-.85-4.11v-5.65a10.08,10.08,0,0,1,.85-4.11,11.08,11.08,0,0,1,5.69-5.69,10.08,10.08,0,0,1,4.11-.85H242a10.63,10.63,0,0,1,4.18.85,10.29,10.29,0,0,1,3.41,2.31,11.37,11.37,0,0,1,2.28,3.38,10.07,10.07,0,0,1,.84,4.11Z"/><path class="cls-3" d="M291.15,655a10.55,10.55,0,0,1,7.52,3.16,11.57,11.57,0,0,1,2.28,3.38,10.07,10.07,0,0,1,.84,4.11v21.28A10.07,10.07,0,0,1,301,691a11.52,11.52,0,0,1-2.28,3.37,10.55,10.55,0,0,1-3.38,2.32,10.28,10.28,0,0,1-4.14.84H269.28a10.07,10.07,0,0,1-4.11-.84,11.13,11.13,0,0,1-3.38-2.32,10.88,10.88,0,0,1-2.31-3.37,10.07,10.07,0,0,1-.84-4.11V665.64a10.07,10.07,0,0,1,.84-4.11,11.08,11.08,0,0,1,5.69-5.69,10.08,10.08,0,0,1,4.11-.85Zm-21.29,31.34h20.7V666.22h-20.7Z"/><path class="cls-3" d="M318.89,641v45.35h8.58v11.23h-9.24a10.07,10.07,0,0,1-4.11-.84,11.13,11.13,0,0,1-3.38-2.32,10.88,10.88,0,0,1-2.31-3.37,10.07,10.07,0,0,1-.84-4.11V641Z"/><path class="cls-3" d="M376.35,655v31.93a10.07,10.07,0,0,1-.84,4.11,11.14,11.14,0,0,1-2.28,3.37,10.62,10.62,0,0,1-3.37,2.32,10.37,10.37,0,0,1-4.15.84H343.84a10.37,10.37,0,0,1-4.15-.84,10.62,10.62,0,0,1-3.37-2.32A11.14,11.14,0,0,1,334,691a10.07,10.07,0,0,1-.84-4.11V655h11.23v31.34h20.69V655Z"/><path class="cls-3" d="M393.67,666.22v20.11h15.78v11.23H393.16a10.58,10.58,0,0,1-7.6-3.16,11.3,11.3,0,0,1-2.27-3.37,9.92,9.92,0,0,1-.85-4.11V642.37h11.23V655h15.78v11.23Z"/><path class="cls-3" d="M426.7,641.05v11.3H415.47v-11.3ZM415.47,655H426.7v42.57H415.47Z"/><path class="cls-3" d="M464.71,655a10.5,10.5,0,0,1,7.52,3.16,11.19,11.19,0,0,1,2.28,3.38,10.07,10.07,0,0,1,.84,4.11v21.28a10.07,10.07,0,0,1-.84,4.11,11.14,11.14,0,0,1-2.28,3.37,10.62,10.62,0,0,1-3.37,2.32,10.37,10.37,0,0,1-4.15.84H442.84a10.07,10.07,0,0,1-4.11-.84A11.27,11.27,0,0,1,433,691a10.07,10.07,0,0,1-.84-4.11V665.64a10.07,10.07,0,0,1,.84-4.11,11.13,11.13,0,0,1,2.32-3.38,10.88,10.88,0,0,1,3.37-2.31,10.08,10.08,0,0,1,4.11-.85Zm-21.28,31.34h20.69V666.22H443.43Z"/><path class="cls-3" d="M513.66,655a10.55,10.55,0,0,1,7.53,3.16,11.35,11.35,0,0,1,2.27,3.38,10.07,10.07,0,0,1,.84,4.11v31.92H513.08V666.22h-20.7v31.34H481.15V655Z"/></svg>