<svg xmlns="http://www.w3.org/2000/svg" viewBox="0 0 958.94 498.67"><defs><style>.cls-1{fill:#dadada;}.cls-2{fill:#623c21;}.cls-3{fill:#e0c5ac;}</style></defs><g id="Warstwa_2" data-name="Warstwa 2"><rect class="cls-1" width="958.94" height="498.67"/></g><g id="Warstwa_3" data-name="Warstwa 3"><path class="cls-2" d="M713.71,277.3c-.74-6.23-4.49-11.73-11.14-16.35-.23-.17-.5-.32-.74-.49a11.78,11.78,0,0,0,2.76-8.37l0-.43a11.81,11.81,0,0,0-4.85-8.82c0-1.14,0-4.1,0-4.13,0-.25,0-.47,0-.65a11.82,11.82,0,0,0,0-22.34v-5.2a18.36,18.36,0,0,0-5.63-13.78,19.61,19.61,0,0,0-13.29-5.14c-.53,0-.85,0-.94,0-.26,0-.51,0-.77.07l-12.69,1.62a26.87,26.87,0,0,0-8.38,2.91,20.17,20.17,0,0,0-6.13-.94c-.87,0-1.4.06-1.43.06l-.48.05-4.78.61a11.83,11.83,0,0,0-10.32,11.73v0l-.13-.13-.09-.09a29.05,29.05,0,0,0-14.55-7c4.42-9.29,4.38-18.63-.27-25.43a21.36,21.36,0,0,0-2.37-2.88,22.61,22.61,0,0,0,10-19.38,24.33,24.33,0,0,0-7.8-18c-6.92-6.32-16-7.27-20.82-7.27l-1.15,0H340.58a19.88,19.88,0,0,0-6.9,1.25,19.78,19.78,0,0,0-6.89-1.25h-69.9a11.82,11.82,0,0,0-11.82,11.82v5.42a11.82,11.82,0,0,0,11.82,11.82h2.16a12.7,12.7,0,0,1,12.84,12.53v9.4a20.33,20.33,0,0,1-1,6.58A11.82,11.82,0,0,0,263.79,196v.44a11.83,11.83,0,0,0,7.13,10.86,20.28,20.28,0,0,1,1,6.58v6.58c0,9.57-5.81,15.23-7.65,15.73a11.81,11.81,0,0,0-8.55,13.7l.09.43a6.57,6.57,0,0,0,.23.79A11.71,11.71,0,0,0,261.4,267l.54.26c.83.46,9.92,5.61,9.95,15.75l.05,5.45a20,20,0,0,1-1,6.58,11.84,11.84,0,0,0-7.13,10.86v.43A11.84,11.84,0,0,0,271,317.17a20,20,0,0,1,1,6.58c0,6.87-2.54,11.8-7.76,15.06a25.53,25.53,0,0,1-8.62,3.28h-.05a11.82,11.82,0,0,0-10.44,11.74v5.42a11.81,11.81,0,0,0,11.82,11.81,12.58,12.58,0,0,0,1.5-.09l43.73-5.58a11.85,11.85,0,0,0,7-3.52,11.82,11.82,0,0,0,6.16,1.74,11,11,0,0,0,1.51-.1l19.28-2.45,310.7-39.5c17.31-2.07,33.45-6.83,45.42-13.38C712.79,296.92,714.52,284,713.71,277.3Z"/><path class="cls-3" d="M608.18,299.29v-.08l2.52-6.13c1.87-4.51,2.83-7.32,2.34-11.2-.55-4.39-2.65-6.41-5.68-6-2.78.35-4.76,2.66-4.56,7.64l2.48.35c-.06-2.53.29-4.3,2.25-4.55,1.5-.19,2.5.71,2.8,3.07.39,3.08-.51,5.4-2.27,9.86l-2.95,7.52.44,3.48,10.26-1.3-.44-3.55Z"/><path class="cls-3" d="M620.36,274.21c-4.66.59-5.33,6.24-4.31,14.36s2.85,13.41,7.51,12.82,5.22-6.18,4.15-14.66C626.73,279,625,273.63,620.36,274.21Zm2.85,23.84c-2.55.32-3.5-3.42-4.3-9.77-.83-6.56-.7-10.26,1.82-10.58s3.35,3.23,4.16,9.61C625.73,294,625.73,297.73,623.21,298.05Z"/><path class="cls-3" d="M632.62,273.15a6.06,6.06,0,0,1-4.42,3.65l.59,3.35a7.67,7.67,0,0,0,3.5-1.62l2.65,21,2.69-.34-3.32-26.25Z"/><path class="cls-3" d="M646.67,298.48c3.68-.47,5.53-4,5-8.08-.49-3.91-2.12-5.44-4.33-6.63a8.29,8.29,0,0,0,2.22-7.09c-.47-3.7-2.6-5.82-5.88-5.41s-5.16,3.23-4.6,7.69a7.33,7.33,0,0,0,3.62,5.88c-2,1.76-3,4.12-2.52,7.57C640.66,296.11,642.72,299,646.67,298.48Zm-4.89-20.41c-.26-2.07.61-3.51,2.21-3.71s2.67.92,2.93,2.95a6.33,6.33,0,0,1-1.76,5.23A5.54,5.54,0,0,1,641.78,278.07Zm1.05,13.64a6,6,0,0,1,2-5.45c1.74.74,3.72,1.63,4.1,4.61.25,2-.42,4.06-2.57,4.34S643.11,293.92,642.83,291.71Z"/><polygon class="cls-3" points="539.28 280.3 512.68 283.64 459.5 290.32 406.34 297.2 379.76 300.64 353.19 304.18 379.79 300.93 406.38 297.59 459.57 290.9 512.73 284.02 539.31 280.58 565.88 277.05 539.28 280.3"/><polygon class="cls-3" points="506.19 290.26 454.12 296.8 402.08 303.54 376.06 306.91 350.05 310.37 376.09 307.19 402.13 303.92 454.19 297.38 506.24 290.64 532.25 287.27 558.26 283.81 532.22 286.99 506.19 290.26"/><polygon class="cls-3" points="399.97 309.99 452.02 303.45 504.05 296.71 530.06 293.35 556.06 289.88 530.02 293.06 504 296.33 451.95 302.87 399.92 309.6 373.9 312.97 347.9 316.43 373.94 313.25 399.97 309.99"/><polygon class="cls-3" points="399.97 315.78 452.02 309.24 504.05 302.5 530.06 299.14 556.06 295.68 530.02 298.85 504 302.12 451.95 308.66 399.92 315.39 373.9 318.76 347.9 322.22 373.94 319.05 399.97 315.78"/><polygon class="cls-3" points="402.13 321.3 454.19 314.75 506.24 308.02 532.25 304.65 558.26 301.19 532.22 304.36 506.19 307.63 454.12 314.17 402.08 320.91 376.06 324.28 350.05 327.74 376.09 324.56 402.13 321.3"/><polygon class="cls-3" points="406.38 326.54 459.57 319.86 512.73 312.98 539.31 309.54 565.88 306 539.28 309.25 512.68 312.59 459.5 319.28 406.34 326.16 379.76 329.6 353.19 333.13 379.79 329.88 406.38 326.54"/><path class="cls-3" d="M352.28,265.15h0a2.86,2.86,0,0,1-.07.28,4.42,4.42,0,0,1-.45,1.26,6.23,6.23,0,0,1-.89,1.26l-.12.16a11.28,11.28,0,0,1-1.82,1.49c-.39.26-.74.46-.93.57l-.19.1-.78.37.86.05h.23c1,.1,4.71.66,5.23,3.48h0a30.88,30.88,0,0,0,3.08,7.55,25.41,25.41,0,0,0,4.61,5.83,17.78,17.78,0,0,0,12.06,5.11h0a15.63,15.63,0,0,0,1.93-.12l.22,0a17.32,17.32,0,0,0,7.55-3.2,16.19,16.19,0,0,0,3.09-3.1,24.6,24.6,0,0,0,3.22-5.37c1.3-3,1.72-6.24,1.39-10.71l-.11-1.46c-1-13.18-1.14-15.56-4.31-19.83a18,18,0,0,0-15.5-6.74,23.45,23.45,0,0,0-4.48.78C358.19,245.08,352.51,254.23,352.28,265.15Zm11.65-16.35a5.58,5.58,0,0,1,2.06-2.06,10.08,10.08,0,0,1,4.28-1.14h.07c.57,0,1.13-.07,1.66-.07,4.16,0,7.12,1.35,9,4.18a11.15,11.15,0,0,1,1,1.88,18.89,18.89,0,0,1,1.25,4.83c.35,2.75,1.55,17.35,1.22,23.1a14.67,14.67,0,0,1-.39,2.64,10.52,10.52,0,0,1-.3,1,10.06,10.06,0,0,1-3.31,5,9.39,9.39,0,0,1-1.54,1,11.89,11.89,0,0,1-4.12,1.25h-.07a11.07,11.07,0,0,1-1.14.07c-6,0-10-6-11-16.39-.15-1.48-.24-3-.27-4.69l0-2.16c-.08-4.09-.12-7.44,0-10.19,0-.69.06-1.34.11-2A14.93,14.93,0,0,1,363.93,248.8Z"/><path class="cls-3" d="M395,167.22c4,0,9.42,5.37,9.42,9.42a.22.22,0,0,0,.22.22h0a.22.22,0,0,0,.22-.22c0-2.53,2.1-5.58,4.66-7.51a8.37,8.37,0,0,1,4.76-1.91.22.22,0,0,0,.22-.22h0a.22.22,0,0,0-.22-.22c-4.05,0-9.42-5.37-9.42-9.42a.22.22,0,0,0-.22-.22h0a.22.22,0,0,0-.22.22,7.05,7.05,0,0,1-.9,3.18c-1.7,3.22-5.48,6.24-8.52,6.24a.22.22,0,0,0-.22.22h0A.22.22,0,0,0,395,167.22Z"/><path class="cls-3" d="M367.13,195.7a10,10,0,0,1-4.33,2.69c-.55.17-1.23.33-2,.51a27.48,27.48,0,0,0-8.8,3.29,8.84,8.84,0,0,0-.85.6,11.28,11.28,0,0,0-1.08,1,14.43,14.43,0,0,0-3.88,8.46,24.41,24.41,0,0,0,.28,7.55,21.55,21.55,0,0,0,.83,3.21c2.48,7.16,8.53,11.75,15.62,11.75h0c.35,0,.71-.05,1.06-.07l-.18.09h0l26.36-3.38,2.53-.32-1.32-.26a11.38,11.38,0,0,1-9.14-8,20.92,20.92,0,0,1-1-5,13.07,13.07,0,0,1,1-6.59,8.43,8.43,0,0,1,2.87-3.39,10.29,10.29,0,0,1,2.79-1.4l.9-.29.43-.14h-1.4a7.3,7.3,0,0,1-3.43-.79c-2.87-1.49-4.2-4.8-5-7.44-1.36-6.37-3.66-8.61-4.76-9.69l-.18-.18A17.54,17.54,0,0,0,361.94,184a11.32,11.32,0,0,0-2.14.42l-.82.26a16.87,16.87,0,0,0-2.57,1.17,15.81,15.81,0,0,0-1.45.89,19.41,19.41,0,0,0-2.23,1.82,21.72,21.72,0,0,0-4.2,5.75l.38.22a14.43,14.43,0,0,1,.89-1.17c.29-.35.65-.75,1.08-1.18a19.67,19.67,0,0,1,2-1.73,16.73,16.73,0,0,1,9.26-3.73,6.78,6.78,0,0,1,3.12.45l.12,0a4.71,4.71,0,0,1,.63.3,2.43,2.43,0,0,1,.28.14l.05.06c2,2.54,2.07,3.93,2.07,4a5,5,0,0,1-.49,3A5.35,5.35,0,0,1,367.13,195.7Zm1.43-5.78-.15-.27c-.2-.34-.4-.64-.6-.92h0A10.11,10.11,0,0,1,369,190a3.37,3.37,0,0,1,.29.35,10,10,0,0,1,.89,1.36c.13.23.26.44.38.69a12.19,12.19,0,0,1,.63,1.71c.09.29.21.55.28.87a15.74,15.74,0,0,1,.41,3.19v0c.23,9.88,0,21.68,0,21.81v.91h0c0,4.31.08,9.66-6.91,13.27l0,0-.09,0-.15,0-.08,0-.28-.09-.08,0-.38-.16-.08,0a4.39,4.39,0,0,1-.46-.26l-.1-.06a4.75,4.75,0,0,1-.5-.36l-.12-.09c-.17-.14-.35-.3-.53-.48l-.13-.13a6.86,6.86,0,0,1-.54-.62l-.15-.17c-.18-.23-.35-.49-.53-.76a2,2,0,0,1-.16-.24c-.17-.27-.34-.58-.51-.9l-.17-.33c-.16-.32-.31-.68-.47-1l-.18-.43c-.14-.37-.27-.78-.41-1.2-.06-.18-.12-.35-.18-.55-.12-.42-.23-.89-.34-1.35-.06-.23-.12-.44-.17-.68-.11-.48-.19-1-.28-1.54-.05-.27-.1-.52-.15-.81-.08-.57-.15-1.2-.21-1.82,0-.3-.07-.56-.1-.86-.08-.88-.13-1.82-.17-2.8,0-.08,0-.15,0-.23-.26-7.31.81-10.79,3.81-13.48a20.9,20.9,0,0,1,3.68-2.55,16.16,16.16,0,0,0,1.95-1.33,8,8,0,0,0,2.39-3,5.73,5.73,0,0,0,.44-1.67,6,6,0,0,0,0-1.47c0-.15-.07-.3-.1-.45a6.53,6.53,0,0,0-.25-.92c-.05-.15-.11-.28-.17-.42A6.81,6.81,0,0,0,368.56,189.92Z"/><path class="cls-3" d="M443.09,224.64h0l0-.43c-3.64,0-4.57-2.29-4.8-4.6q0-.5-.06-1c0-.25,0-.56,0-.92,0-2.14,0-5.85,0-6.91v-.29a17.06,17.06,0,0,1,.69-5.07,9.85,9.85,0,0,1,2.76-4.49c.09-.08.17-.13.26-.2a9,9,0,0,1,2.93-1.64l1.33-.42h-1.4a7.49,7.49,0,0,1-1.53-.15,5.46,5.46,0,0,1-4.11-3.36,13.59,13.59,0,0,1-.93-5.45,21.75,21.75,0,0,1,.81-6.33c1.53-5,5-6.42,8.07-7a8.92,8.92,0,0,1,2.09-.15,10.52,10.52,0,0,1,7.42,4.1l.76,1.07h0l-.37-1.26c-1.72-5.91-7.23-6.83-10.66-6.81a17.52,17.52,0,0,0-2.5.2,16.42,16.42,0,0,0-5.68,2.34,12.42,12.42,0,0,0-1.91,1.49,8,8,0,0,0-2,3c-1.34-4.55-5.74-4.76-6.86-4.73h-.26l-4.8.61v2l.15,0c.07,0,7,2.74,7,12.48v22c0,.51,0,1,.06,1.61s0,1.29,0,2c-.22,3.57-1.51,7.63-7,10.44l-.57.29-.55.28h0Z"/><path class="cls-3" d="M515.63,187.13c-.29.05-.73.09-1.29.14s-1.31.12-2.08.22a21.2,21.2,0,0,0-2.39.44,11.54,11.54,0,0,0-1.8.61,6.32,6.32,0,0,0-1,.56,3,3,0,0,0-.35.21,3.88,3.88,0,0,0-.73.73h0a3.31,3.31,0,0,0-.56,2.72l.17.88h0l.25-.86a4.08,4.08,0,0,1,1.47-2.17,3.71,3.71,0,0,1,1.54-.67c.78-.13,3.34-.35,5.77-.5,1.5-.1,3-.17,3.9-.19,4.49-.08,5.75-.1,6.68-1.2a4.12,4.12,0,0,0,.92-3.14c-.11-3.12-2-7.55-4.28-10.68-.06-.1-5.92-8.84-15.4-8.65a16.05,16.05,0,0,0-4.28.68,16.23,16.23,0,0,0-4.69,2.47c-.28.21-.59.38-.87.61-4.94,4.11-8.09,11.13-8.26,19.18a3.77,3.77,0,0,1-.27,1.1,7.86,7.86,0,0,1-2.84,3.19c-.4.28-.72.47-1,.61l-.4.22-.4.19-.37.18.86,0a10.94,10.94,0,0,1,1.59.26,7.87,7.87,0,0,1,1.89.71,4.2,4.2,0,0,1,1.57,1.45,3.32,3.32,0,0,1,.41,1.08h0c2.18,8.28,7.29,14.54,13.39,17.15a17,17,0,0,0,3.13,1,16,16,0,0,0,3.24.34,15.47,15.47,0,0,0,1.92-.12h0a13.14,13.14,0,0,0,1.39-.26,17.63,17.63,0,0,0,6.38-3,22.09,22.09,0,0,0,7.71-13.22c0-.22.09-.45.12-.67a21.77,21.77,0,0,0,0-5.3,3.27,3.27,0,0,0-1.79-2.81,4.65,4.65,0,0,0-3.05-.12,12.19,12.19,0,0,0-3.83,1.84l-.72.49-.33.23h0l1.23-.33c2.06-.55,3.59-.33,4.54.64a5.17,5.17,0,0,1,1.16,3.59,14.62,14.62,0,0,1-.21,2.68,28.2,28.2,0,0,1-.74,3.2,22.55,22.55,0,0,1-3.67,7.56,15.07,15.07,0,0,1-1.42,1.6,12.83,12.83,0,0,1-3.57,2.45,11.36,11.36,0,0,1-1.83.68,11.76,11.76,0,0,1-1.31.26l-.15,0H511a9.81,9.81,0,0,1-7.86-2.35,15.1,15.1,0,0,1-3.74-5.42,24.6,24.6,0,0,1-.9-2.43,44.35,44.35,0,0,1-1.79-12.43l0-2.1a106.91,106.91,0,0,1,.26-14.14c.38-2.95,1.14-5.12,2.59-6.64s3.57-2.37,6.68-2.68c3.41-.34,11.51.17,13.29,12.24,0,0,.22,3.76-1.46,6A4.09,4.09,0,0,1,515.63,187.13Zm-19.49-1.87Z"/><path class="cls-3" d="M468.68,255.24a10.07,10.07,0,0,1,1.59.25c1.47.36,3.49,1.22,3.87,3.24h0a29.12,29.12,0,0,0,5.23,10.69,23.42,23.42,0,0,0,2.46,2.68,18.78,18.78,0,0,0,8.83,4.77,15.91,15.91,0,0,0,3.24.34h0a15.47,15.47,0,0,0,1.92-.12h0a14.67,14.67,0,0,0,3.26-.83,17.37,17.37,0,0,0,3.08-1.45c.47-.28.95-.6,1.43-.95a15.74,15.74,0,0,0,2.29-2.08,22.35,22.35,0,0,0,3.13-4.54c.37-.69.66-1.33.89-1.85a22.68,22.68,0,0,0,1-3.07,19.94,19.94,0,0,0,.67-4.82,22.8,22.8,0,0,0-.15-2.82,3.28,3.28,0,0,0-1.8-2.82c-1.66-.76-4.16-.13-6.87,1.72l-1.05.72L503,254a9.49,9.49,0,0,1,1.45-.26,3.63,3.63,0,0,1,3.09.91c1.48,1.51,1.55,4.88.21,9.46a20.57,20.57,0,0,1-5.09,9.16,12.57,12.57,0,0,1-4.19,2.74,11.16,11.16,0,0,1-1.21.39c-.37.1-.66.15-.89.2l-.42.06-.15,0a11.08,11.08,0,0,1-2.22.05,9.53,9.53,0,0,1-5.19-2c-.16-.13-.34-.22-.5-.36a13.57,13.57,0,0,1-2.66-3.28,22.52,22.52,0,0,1-2-4.56A44.48,44.48,0,0,1,481.44,254l0-2.1a106.91,106.91,0,0,1,.26-14.14c.5-3.89,1.69-6.41,4.21-7.87a9,9,0,0,1,1.25-.59c.29-.11.59-.22.92-.31a16,16,0,0,1,2.89-.55c3.4-.34,11.51.17,13.29,12.24a13.38,13.38,0,0,1-.09,2.09c0,.09,0,.19,0,.29-.23,1.58-.81,3.55-2.31,4.6a4.63,4.63,0,0,1-.81.37,3.62,3.62,0,0,1-.6.26l-.54.07-.75.07c-.56.05-1.24.12-2,.21-.42.05-.86.12-1.3.2a13.56,13.56,0,0,0-3,.86,5.14,5.14,0,0,0-2.11,1.51,3.29,3.29,0,0,0-.56,2.71l.17.88h0l.25-.86a4.31,4.31,0,0,1,1.12-1.92,3.32,3.32,0,0,1,.85-.59,4.22,4.22,0,0,1,1-.33l.77-.1,2.09-.19.21,0c2.25-.18,5.08-.35,6.6-.37a31.18,31.18,0,0,0,5.07-.3,3,3,0,0,0,1.18-.5,3.57,3.57,0,0,0,1.24-2.1c.61-3.06-1.48-8.48-4.17-12.13l-.38-.52c-1.43-1.89-6.89-8.29-15-8.13a16.46,16.46,0,0,0-4.28.68,16.71,16.71,0,0,0-5.52,3,20.12,20.12,0,0,0-2.33,2.29,25.6,25.6,0,0,0-5.64,13,31.71,31.71,0,0,0-.33,3.94,5.81,5.81,0,0,1-2.27,3.65l-.25.19a11.87,11.87,0,0,1-1,.75c-.52.33-.9.52-.91.53l-.77.38h0Zm12.2-8.79Z"/><path class="cls-3" d="M531.64,188h.06c1.65-.13,3.09-.26,4.41-.39l3.32-.32,3.05-.3c2.22-.2,4.18-.33,6.43-.34H549c1,0,2.16,0,3.41.06a15.59,15.59,0,0,1,5,1.06,10.68,10.68,0,0,1,5.1,3.8c2,2.89,2.35,6.72,1,10.77a12,12,0,0,1-9.89,7.73,8.73,8.73,0,0,1-3.85-1,21.75,21.75,0,0,1-3.27-1.9A17.14,17.14,0,0,1,540,196.76a9,9,0,0,1,.42-4.65,2.38,2.38,0,0,1,.16-.4,4.67,4.67,0,0,1,.83-1.08,5.15,5.15,0,0,1,1.57-1.06,1.45,1.45,0,0,1,.29-.11l.83-.26h0l-.85-.17a7.8,7.8,0,0,0-4.6.24,4.78,4.78,0,0,0-1.13.68,4.71,4.71,0,0,0-.64.62,5.81,5.81,0,0,0-.85,1.37,6.68,6.68,0,0,0-.53,2.28,15,15,0,0,0,3.87,10.55,10,10,0,0,0,.79.81,17.81,17.81,0,0,0,11.83,5h.56a15,15,0,0,0,11.91-5.84,22.46,22.46,0,0,0,2.17-3.14c3.53-6.16,4.15-12,1.66-15.66a11,11,0,0,0-6.73-4.41A66.54,66.54,0,0,0,550.65,180c-.92-.08-1.65-.14-2.13-.2a8.65,8.65,0,0,1-2.35-.53c-1.71-.82-1.72-3-1.76-11.46v-1.33a5.2,5.2,0,0,1,.18-1.64,3.06,3.06,0,0,1,.25-.6,3.44,3.44,0,0,1,1-1.13,5.52,5.52,0,0,1,.88-.48,7.91,7.91,0,0,1,1.17-.41,11.33,11.33,0,0,1,1.82-.3c.11,0,.21,0,.31-.06a13.23,13.23,0,0,1,6.6,1.35c5.18,2.44,5,5.93,4.79,7a2.18,2.18,0,0,1-.07.31,2.24,2.24,0,0,1-2.06,1.23l-.5,0h0l.31.39a3,3,0,0,0,2.36,1.14,3.16,3.16,0,0,0,2.46-1.29h0c1.4-1.87.58-4-2.56-6.8-6.46-5.69-13.65-6.55-20.27-2.42a15.21,15.21,0,0,0-3.42,2.84c-2.75,3.12-3.5,7.11-2.23,11.89l.1.36a11.59,11.59,0,0,1,.54,3.31,5.75,5.75,0,0,1-.16,1.21,6.3,6.3,0,0,1-1,2.09,9.33,9.33,0,0,1-1.6,1.85,16.53,16.53,0,0,1-1.82,1.4l-.7.47h0Z"/><path class="cls-3" d="M456.05,244.35a2.9,2.9,0,0,0,1.34.91,2.75,2.75,0,0,0,1,.22,3.1,3.1,0,0,0,2.45-1.28,3,3,0,0,0,.64-2.25,4.5,4.5,0,0,0-.21-.82,10.35,10.35,0,0,0-3-3.74c-4-3.55-8.36-5.22-12.65-5A16.18,16.18,0,0,0,438,235a18.32,18.32,0,0,0-1.87,1.35,11.38,11.38,0,0,0-4.38,8.87,15,15,0,0,0,.13,2.19,17,17,0,0,0,.47,2.32l.09.36c.55,2,1.2,4.43-.89,7.1a13.23,13.23,0,0,1-3.11,2.76l-.7.47h0l.84-.07,2.23-.18c2.11-.19,3.88-.37,5.5-.53a79.39,79.39,0,0,1,13-.57c4.48.19,8.07,1.91,10.1,4.86a11,11,0,0,1,1.69,7.78,16.26,16.26,0,0,1-.69,3,11.47,11.47,0,0,1-2.1,3.57,12.83,12.83,0,0,1-2.51,2.28,10.44,10.44,0,0,1-5.28,1.87c-1.69.11-4-1-5.7-2-.56-.34-1.05-.66-1.42-.92a15.82,15.82,0,0,1-2.64-2.44,17.23,17.23,0,0,1-3.88-8,8.47,8.47,0,0,1,.58-5.05,4.61,4.61,0,0,1,.83-1.07,5.13,5.13,0,0,1,1.32-.94l.36-.17.17-.07.84-.25-.86-.17a9.19,9.19,0,0,0-3.18-.14,5.14,5.14,0,0,0-2.54,1.05,5.89,5.89,0,0,0-2,3.76c0,.29,0,.47,0,.51A15.11,15.11,0,0,0,437,277.89a18.58,18.58,0,0,0,7.91,4.47,17.81,17.81,0,0,0,3.91.55h.57a15.44,15.44,0,0,0,2.4-.2c.28,0,.55-.11.82-.17a15,15,0,0,0,7.3-3.95,21,21,0,0,0,3.55-4.66c3.54-6.15,4.16-12,1.66-15.65a11,11,0,0,0-6.73-4.42c-.92-.24-1.88-.44-2.85-.62-2.9-.52-5.87-.77-8-.95-.92-.08-1.65-.14-2.12-.21-4.06-.54-4.06-.76-4.12-12v-1.86a3.43,3.43,0,0,1,.85-2.29,5.37,5.37,0,0,1,2.67-1.43,12.5,12.5,0,0,1,8.74,1,10.36,10.36,0,0,1,3.28,2.31,5.33,5.33,0,0,1,1.44,5,2.24,2.24,0,0,1-1.37,1.13,2.14,2.14,0,0,1-.69.09l-.5,0h0Z"/><path class="cls-3" d="M645.05,257.53l-1.13.57h0l21.74-2.77,0-.44c-4.16,0-4.78-3-4.86-5.58,0-.76,0-2.08,0-3.44v-1.35c0-.89,0-1.72,0-2.32v-1a14.94,14.94,0,0,1,1.45-6.93,9.13,9.13,0,0,1,2-2.62,8.63,8.63,0,0,1,2.19-1.45,9.28,9.28,0,0,1,1-.39l1.33-.43h-1.4a5.71,5.71,0,0,1-4.92-2.25c-1.09-1.49-1.65-3.73-1.65-6.7,0-5.39,1.27-8.58,3-10.5a8.14,8.14,0,0,1,1.38-1.21,10.42,10.42,0,0,1,4.48-1.63c.47-.07.93-.13,1.38-.16a4.82,4.82,0,0,1,3.73,1c1.35,1.16,2.18,3.36,2.51,6.66.11,1.11.16,2.33.16,3.69v22c0,.51.05,1.05.06,1.61v0a19.86,19.86,0,0,1-.2,3.38c0,.22-.09.44-.13.66-.61,3-2.29,6.06-6.73,8.33l-1.12.57h0l2.45-.31L691,252.09h0l0-.44a6.67,6.67,0,0,1-1.4-.13,4,4,0,0,1-1.94-1,3.82,3.82,0,0,1-.61-.73,7.46,7.46,0,0,1-.9-3.77c0-1.5,0-5.28,0-7.11,0-.61,0-1,0-1a21.2,21.2,0,0,1,.18-2.76c.83-5.89,4.29-7.93,6.46-8.63l1.32-.43h-1.39c-4.36,0-6.57-3-6.57-9v-7.44a6.88,6.88,0,0,0-1.95-5.21,7.9,7.9,0,0,0-5.38-1.89l-12.44,1.58a12,12,0,0,0-1.93.52c-2.52.86-6.39,2.82-7.62,6.33a6.16,6.16,0,0,0-2.91-3.79,7.85,7.85,0,0,0-1.2-.53,8.35,8.35,0,0,0-2.75-.42h-.26l-.62.08-4.17.54h0v2l.14.06c.06,0,5.35,2.1,6.67,9.14a18,18,0,0,1,.29,3.33v22c0,.51.05,1,.06,1.61C652.18,249.08,651.59,254.19,645.05,257.53Z"/><path class="cls-3" d="M281.61,168.38v9.41a30.55,30.55,0,0,1-2.11,11.61,12.9,12.9,0,0,1-2.65,4.23c-.07.07-.13.17-.2.23a4.64,4.64,0,0,1-3.15,1.37h0v.43c4.47,0,8.11,7.83,8.11,17.45v6.59a33.12,33.12,0,0,1-5.26,18.07c-3.12,4.77-7.23,8.05-11.18,9.1l.09.43,16.61-2.12,16.61-2.12h0v-.22l0-.22c-2.12,0-4.14-2.27-5.64-5.8q-.29-.66-.54-1.38a33.15,33.15,0,0,1-1.54-6.45,39,39,0,0,1-.38-5.47V217c0-13.44,7.34-24.37,16.38-24.37a11.86,11.86,0,0,1,6.36,1.91,16.29,16.29,0,0,1,2.79,2.25,21.07,21.07,0,0,1,1.93,2.31c3.24,4.46,5.29,10.82,5.29,17.9v4.43a32.16,32.16,0,0,1-2.31,12.38c-1.45,3.39-3.5,5.85-5.87,6.75l-1.74.66,35.07-4.48,0-.43c-9.37,0-16.38-14.33-16.38-27.15v-4.49a30,30,0,0,1,2.38-12.33,15.37,15.37,0,0,1,1.2-2.14,7.27,7.27,0,0,1,2.9-2.63,4.05,4.05,0,0,1,1.63-.35v-.44h0c-1.68,0-3.23-1.1-4.53-3a15.37,15.37,0,0,1-1.2-2.14,30.07,30.07,0,0,1-2.38-12.33v-.93a24.12,24.12,0,0,1,5.64-15.5c.5-.6,1-1.18,1.59-1.73A24.78,24.78,0,0,1,356.51,144h1.95l6-.09,1.13,0,13.16-.18,3.83-.06,74.46-1c.28.28.57.6.86.94.14.17.29.36.43.55a14.12,14.12,0,0,1,1,1.45l.16.3a13.94,13.94,0,0,1,.88,1.86c.07.15.13.3.19.46a16.45,16.45,0,0,1,.68,2.45l.09.54a19.35,19.35,0,0,1,.27,3.06l0,32.47v22c.17,3.55.41,8.69-4.54,12.47a15.47,15.47,0,0,1-2.46,1.53l-1.12.58,21.73-2.77h0l0-.44c-4.16,0-4.78-3-4.86-5.59,0-.75,0-2.07,0-3.43h0c0-.9,0-1.82,0-2.6v0c0-1.17,0-2,0-2.06,0-6,2.34-9,4.56-10.41a8.92,8.92,0,0,1,2.08-1l1.32-.43h-1.39c-4.36,0-6.57-3-6.57-8.95l0-39.37a9.15,9.15,0,0,0-.74-3.79c56.53-.79,115.26-1.61,121.65-1.61q1.07,0,2.1.06c10.36.64,18.47,6,18.47,12.39a8.18,8.18,0,0,1-1.26,4.24,11.66,11.66,0,0,1-2.4,2.83,16.26,16.26,0,0,1-1.28,1c-.45.31-.91.61-1.4.9h0l.33.3h0l.21.2s.07.06.06.06l.34.33a16.11,16.11,0,0,0,4.16-2.83,10.56,10.56,0,0,0,3.31-8.11,14.58,14.58,0,0,0-1.06-5.36,11.33,11.33,0,0,0-2.89-4.12,14.16,14.16,0,0,0-4.31-2.64,21.07,21.07,0,0,0-2.29-.75,25.55,25.55,0,0,0-6.74-.79l-.4,0H463.54a3.85,3.85,0,0,0-.63,0H338.68a7.54,7.54,0,0,0-5.12,1.81,6.77,6.77,0,0,0-1.94,3.6,6.63,6.63,0,0,0-1.94-3.6,7.58,7.58,0,0,0-5.27-1.8H316v2l.12.06A14.42,14.42,0,0,1,322,148a16.19,16.19,0,0,1,.79,2.85,18.76,18.76,0,0,1,.29,3.38v9.18c0,7.08-2.05,13.44-5.29,17.9a21.07,21.07,0,0,1-1.93,2.31,16.29,16.29,0,0,1-2.79,2.25,11.86,11.86,0,0,1-6.36,1.91c-9,0-16.38-10.93-16.38-24.37V138.59H254.77V144h2.16A24.55,24.55,0,0,1,281.61,168.38Z"/><path class="cls-3" d="M419,202c-4.36,0-6.57-3-6.57-8.95v-6.9a7.66,7.66,0,0,0-2.22-5.93,6.1,6.1,0,0,0-.85-.64,7.58,7.58,0,0,0-3.82-1.08c-.33,0-.54,0-.57,0l-1.07.14-7.31.93h0v2l.14,0c.07,0,7,2.75,7,12.47V215.9l0,.21c.19,4.06.47,10.2-7,14l-1.13.57,21.74-2.77h0l0-.44a5.55,5.55,0,0,1-2.5-.5,3.47,3.47,0,0,1-.84-.58,5.28,5.28,0,0,1-1.46-3.52c0-.33,0-.66-.06-1s0-.57,0-.93c0-2.5,0-7.14,0-7.2,0-5,1.62-7.91,3.44-9.55.09-.08.18-.13.26-.2a8.23,8.23,0,0,1,1.45-1,9.69,9.69,0,0,1,1.48-.66l1.33-.43H419Z"/><path class="cls-3" d="M392.08,239.34v2h0l.14.06c.07,0,7,2.74,7,12.47v22a23.9,23.9,0,0,1-.16,5.21,11.82,11.82,0,0,1-.46,1.89c-.84,2.52-2.64,5-6.38,6.91l-.74.38-.38.19h0l2.45-.31,19.28-2.46h0l0-.44c-3.11,0-4.24-1.68-4.64-3.61a11,11,0,0,1-.21-2c0-.76,0-2.08,0-3.44h0c0-.91,0-1.83,0-2.61v0c0-1.17,0-2,0-2.06,0-5.8,2.16-8.71,4.3-10.2.25-.18.5-.33.74-.47a10.26,10.26,0,0,1,1.6-.72L415,262l.89-.29H414.5c-4.36,0-6.57-3-6.57-8.95,0-6.35,1.8-9.62,4.14-11.4a11,11,0,0,1,4.74-1.94c5.13-1,8.54,2.74,9.33,3.72l.18.23.75,1.07h0l-.36-1.26c-2.29-7.89-11.34-6.9-13.17-6.62a16.8,16.8,0,0,0-5.29,2.1,10.78,10.78,0,0,0-3.44,3.12,7.09,7.09,0,0,0-.81,1.63,6.82,6.82,0,0,0-.75-1.7c-2.08-3.39-6.32-3-6.38-3l-4.79.62Z"/><path class="cls-3" d="M582,252.38c0-.61,0-1,0-1a14.94,14.94,0,0,1,1.45-6.93,9.15,9.15,0,0,1,2-2.63,8.58,8.58,0,0,1,2.19-1.44,7.57,7.57,0,0,1,1-.39l1.33-.43h-1.4a5.71,5.71,0,0,1-4.92-2.25q-1.65-2.25-1.65-6.7v-6.9a8.68,8.68,0,0,0-1.26-4.82,5.79,5.79,0,0,0-1-1.12,6.16,6.16,0,0,0-1.71-1.09,7.81,7.81,0,0,0-3-.62h0c-.32,0-.53,0-.56,0l-12.37,1.59a5.3,5.3,0,0,0-.8.17,11.25,11.25,0,0,0-1.13.34,15.26,15.26,0,0,0-5.66,3.32,7.94,7.94,0,0,0-2,3,6.11,6.11,0,0,0-2.91-3.78,7.94,7.94,0,0,0-4.21-.94l-8.72,1.11a16.24,16.24,0,0,0-4.75,1.76,9.9,9.9,0,0,0-4.8,5.09c-1.52-5.21-7.06-4.73-7.12-4.73l-4.79.62h0v2h0l.14.06.32.14a12.31,12.31,0,0,1,6.35,9,17.8,17.8,0,0,1,.3,3.32v22c0,.51,0,1.05.06,1.61a19.54,19.54,0,0,1-.22,3.6,11.45,11.45,0,0,1-1.82,4.51,12.84,12.84,0,0,1-5,4.29l-1.12.57h0l2.76-.35,19-2.42h0l0-.44a4.73,4.73,0,0,1-3.34-1.08,3.64,3.64,0,0,1-.62-.74,7.49,7.49,0,0,1-.89-3.76c0-.76,0-2.08,0-3.44,0-.45,0-.92,0-1.36,0-1.77,0-3.3,0-3.33a13.67,13.67,0,0,1,2-7.83,9.13,9.13,0,0,1,2.27-2.37,9.33,9.33,0,0,1,1.35-.8,9.16,9.16,0,0,1,1-.39l.33-.1,1-.33h-1.39c-4.36,0-6.57-3-6.57-8.95,0-4.82,1-7.83,2.5-9.79a8.53,8.53,0,0,1,1.24-1.35,7.77,7.77,0,0,1,1.47-1,8.63,8.63,0,0,1,1.67-.71,14.13,14.13,0,0,1,2-.47c.47-.07.93-.13,1.38-.16a4.82,4.82,0,0,1,3.73,1c1.35,1.16,2.18,3.36,2.51,6.66.11,1.11.16,2.33.16,3.69v22c0,.51,0,1.05.06,1.61v0c.08,3.94-.53,9-7,12.37l-1.13.57h0l21.74-2.77,0-.44c-2.6,0-3.82-1.16-4.38-2.67a6,6,0,0,1-.27-.94,11,11,0,0,1-.21-2c0-.75,0-2.08,0-3.44v-1.36c0-.88,0-1.7,0-2.3v-1a17,17,0,0,1,.69-5.06,9,9,0,0,1,6-6.33l1.33-.43h-1.4c-4.36,0-6.57-3-6.57-8.95,0-4.64,1-7.59,2.41-9.56a8.71,8.71,0,0,1,3.33-2.82,13.18,13.18,0,0,1,3.12-1h.07c1.86-.28,3.66-.43,5.11.83a7,7,0,0,1,2,3.72,27.32,27.32,0,0,1,.66,6.62v22a23.91,23.91,0,0,1-.16,5.21c-.52,3.12-2.17,6.41-6.84,8.79l-1.12.58h0l21.73-2.77,0-.44c-4.16,0-4.78-3-4.86-5.59,0-.75,0-2.07,0-3.43h0C582,254.69,582,253.29,582,252.38Z"/><path class="cls-3" d="M694.07,269.92c-.76-.53-1.6-1.05-2.48-1.55l-.82-.45c-.66-.36-1.34-.72-2.06-1.06l-1-.46c-.88-.4-1.78-.8-2.73-1.18l-.48-.2c-1.09-.43-2.22-.84-3.38-1.23l-1.32-.43c-.78-.25-1.58-.5-2.4-.73-.51-.16-1-.3-1.55-.45-.85-.23-1.7-.45-2.57-.66l-1.56-.38q-1.8-.42-3.66-.78l-2.05-.37c-.72-.12-1.43-.25-2.16-.36s-1.51-.24-2.27-.34-1.36-.18-2-.26c-1.38-.17-2.78-.32-4.19-.44-.68-.06-1.36-.13-2-.18-.87-.06-1.73-.1-2.6-.14-.62,0-1.25-.07-1.88-.09-.87,0-1.75-.05-2.62-.06h-1.89c-.88,0-1.76,0-2.64,0h0l-.33-.06a11.45,11.45,0,0,1-7.13-4.19,16.18,16.18,0,0,1-3-8.86,15.24,15.24,0,0,1,.28-4.47,9.59,9.59,0,0,1,1.57-3.61,8.62,8.62,0,0,1,2.26-2.11,10.35,10.35,0,0,1,2.53-1.19l1.32-.42h-1.39c-5.37,0-7.38-4.72-8.42-8.24a25,25,0,0,0-1.81-5.58,14.61,14.61,0,0,0-1.31-2.25,12.61,12.61,0,0,0-1.64-1.86l-.18-.18a17.91,17.91,0,0,0-10.2-4,14.15,14.15,0,0,0-2.33.08,11.68,11.68,0,0,0-1.42.24l-.71.18a14.61,14.61,0,0,0-1.73.61q-.48.19-1,.45a19.37,19.37,0,0,0-8.56,8.83l.39.22A18.62,18.62,0,0,1,602.4,218a19.52,19.52,0,0,1,1.88-1.39,16.25,16.25,0,0,1,7.86-2.7,6.76,6.76,0,0,1,3.12.45l.3.12.31.15c.13.07.25.12.42.22l.07.09c2,2.52,2,3.9,2,3.93.57,4.59-4.54,6.44-5.57,6.76l-.25.07c-.43.12-.94.25-1.51.38l-.26.06c-.6.14-1.26.3-2,.48s-1.43.39-2.19.64a23,23,0,0,0-3.4,1.49c-.42.22-.84.41-1.26.68a12.39,12.39,0,0,0-3.81,4.11,17,17,0,0,0-2.16,9.39,28.72,28.72,0,0,0,.44,4.09c0,.27.14.51.2.77a22.31,22.31,0,0,0,.63,2.44,20.32,20.32,0,0,0,.88,2c.14.29.24.61.39.89a20.29,20.29,0,0,0,1.38,2.12c.1.13.18.3.29.43a16.5,16.5,0,0,0,1.88,2l.13.14A15.72,15.72,0,0,0,612.92,262c-13.85,2.56-25.66,6.85-34,12.1l-.64.39c-.75.48-1.45,1-2.14,1.47-.34.25-.69.49-1,.74-.58.45-1.12.9-1.66,1.35-.37.32-.74.64-1.08,1s-.89.84-1.3,1.27-.7.75-1,1.13-.68.8-1,1.21-.6.84-.88,1.26-.5.76-.72,1.15-.47.94-.68,1.42-.33.69-.46,1.05a13.91,13.91,0,0,0-.45,1.65c-.06.29-.16.57-.21.86a12.13,12.13,0,0,0-.14,2.55h0c.18,3.52,1,5.94,2.42,7.17a4,4,0,0,0,3.17.94,2.79,2.79,0,0,0,1.84-1.34,5,5,0,0,0,.59-2.43,10.79,10.79,0,0,0-.34-2.72,10.79,10.79,0,0,1-.1-4.63c.6-3.1,2.53-6.22,5.73-9.27a41.58,41.58,0,0,1,5.75-4.52c1.09-.73,2.25-1.44,3.48-2.14a98.4,98.4,0,0,1,14-6.47A172,172,0,0,1,622.33,261c13.83-1.66,27.17-1.34,38.13.88,1.57.31,3.08.67,4.55,1.06a47.52,47.52,0,0,1,9.93,3.79c5.54,2.92,8.8,6.6,9.3,10.78a11.36,11.36,0,0,1-1.71,7.14c-2.33,4-6.92,7.93-13.54,11.55q-2,1.1-4.17,2.11a91.64,91.64,0,0,1-9.31,3.74A135.39,135.39,0,0,1,628,308.17c-1.57.21-5.64.68-11.56,1.37l-7.4.85-8.45,1-7.15.82-6.23.71-.77.08c-8.1.93-16.95,1.93-26.15,3l-.87.1-11.92,1.35-4.18.47-12.61,1.42-4.66.53-7.4.83-.89.1-15.42,1.74-4.73.53L470,326.11l-.67.08-8.08.91-3.17.35-4.2.48-2.59.29-4.82.54-1.64.18-1.8.21-1.44.16c-9.23,1-17.67,2-25.39,2.87-13,1.48-23.94,2.72-33.18,3.67-4.62.47-8.82.86-12.63,1.17-1.91.15-3.71.28-5.43.39-15.45,1-23.49.14-27.82-3.41a11,11,0,0,1-3.05-4.1,14.43,14.43,0,0,1-.66-1.75,42.57,42.57,0,0,1-1.49-9.09c0-.41,0-1.14,0-1.89v-.76c0-1,0-1.81,0-1.83,0-9.62,3.63-17.45,8.11-17.45v-.44c-4.48,0-8.11-7.82-8.11-17.45l0-.93a46.82,46.82,0,0,1,3.3-15.87,31.65,31.65,0,0,1,7.63-11.31,27.73,27.73,0,0,1,15.73-7.07l-.05-.44-17.28,2.21-2.52.32c-2.75.35-6.31,1.55-7.08,7.49a7,7,0,0,0-3.48-4.64,8.71,8.71,0,0,0-3.78-1l-8.3,1.05h0v2l.13.06c.07,0,7,3.33,7,13.07v9.17a35.26,35.26,0,0,1-.74,7.24,27.25,27.25,0,0,1-5.23,11.57c-2.83,3.48-6.46,5.57-10.41,5.57a14.79,14.79,0,0,1-12-5.6,19.1,19.1,0,0,1-3.31-6.47,29.37,29.37,0,0,1-1.16-8.48c0-.08,0-2.48.19-5.79.49-7.27,2.17-18.89,7.93-19.64h0l-.05-.43h0l-33.95,4.32h0l.66.32s.63.32,1.58.91c.63.4,1.42.92,2.31,1.58,4.86,3.64,12.55,11.35,12.59,23.72l.05,5.58a30.07,30.07,0,0,1-2.38,12.33,13,13,0,0,1-1.2,2.13c-1.29,1.89-2.85,3-4.53,3v.44c1.68,0,3.24,1.1,4.53,3a13.46,13.46,0,0,1,1.2,2.13,30.09,30.09,0,0,1,2.38,12.34c0,10.4-4.08,17.18-8.68,21.53a29.36,29.36,0,0,1-4.65,3.57,36.67,36.67,0,0,1-13.37,5l-.19,0v5.42L298.54,353l0-.44c-4.24,0-8.11-9.11-8.11-19.11v-6.55a31.23,31.23,0,0,1,4.8-17.22,19.56,19.56,0,0,1,2.43-3,15.33,15.33,0,0,1,2.78-2.25,11.82,11.82,0,0,1,6.37-1.92c9,0,16.38,10.93,16.38,24.37v4.44c0,1.16-.06,2.3-.16,3.41a27.38,27.38,0,0,1-3.35,11.32,9.86,9.86,0,0,1-4.68,4.39l-1.74.66h0l2.18-.28,17.12-2.18,276-35.08,35.08-4.46c4-.47,7.86-1.1,11.63-1.86,1.89-.37,3.74-.79,5.56-1.23,3.64-.9,7.14-1.92,10.46-3.06,2.37-.81,4.62-1.71,6.79-2.64q2.41-1,4.63-2.16c.71-.36,1.44-.7,2.12-1.07a46.39,46.39,0,0,0,9.82-6.94,22.31,22.31,0,0,0,3.93-4.86,13,13,0,0,0,1.72-4.9,10.4,10.4,0,0,0,0-2.43C699.9,275.24,697.83,272.53,694.07,269.92ZM573,296a6.48,6.48,0,0,1,0,.9h0a9.11,9.11,0,0,0,0-.93ZM618.6,217.2l-.15-.27a9.77,9.77,0,0,0-.6-.92h0a10.75,10.75,0,0,1,1.21,1.22l.3.36a12.32,12.32,0,0,1,.89,1.36c.12.23.26.44.38.69a11.75,11.75,0,0,1,.62,1.71,7.38,7.38,0,0,1,.28.87,15.07,15.07,0,0,1,.41,3.19v0c.23,9.88,0,21.68,0,21.81,0,.29,0,.6,0,.91,0,4.31.08,9.66-6.92,13.27l0,0-.09,0-.14,0-.09,0-.27-.09-.09,0c-.11-.05-.24-.1-.37-.17l-.09,0-.46-.26-.09-.06a4.09,4.09,0,0,1-.51-.37l-.11-.08c-.18-.15-.36-.31-.54-.49l-.12-.13a6.9,6.9,0,0,1-.55-.62l-.15-.17c-.17-.23-.35-.49-.53-.76l-.16-.24q-.25-.42-.51-.9c0-.11-.11-.21-.17-.33-.16-.32-.31-.68-.46-1-.06-.14-.12-.27-.18-.42-.15-.37-.28-.79-.42-1.21,0-.18-.12-.34-.17-.53-.13-.43-.24-.9-.35-1.37-.06-.22-.12-.43-.17-.67-.1-.48-.19-1-.28-1.53,0-.28-.1-.53-.14-.82-.09-.56-.15-1.18-.22-1.79,0-.3-.07-.57-.1-.88-.07-.87-.13-1.8-.17-2.78,0-.08,0-.15,0-.24-.22-6.09.48-9.52,2.46-12.06a11.23,11.23,0,0,1,1.35-1.42,21.74,21.74,0,0,1,3.67-2.55,13.18,13.18,0,0,0,2.68-2.05,6.67,6.67,0,0,0,2.11-3.94h0a5.92,5.92,0,0,0,0-1.46c0-.15-.07-.3-.1-.45a8.24,8.24,0,0,0-.24-.92c-.06-.15-.11-.29-.17-.43C618.88,217.75,618.75,217.47,618.6,217.2Z"/><path class="cls-3" d="M608.27,180.93a10.28,10.28,0,0,0-.67-.81,10.42,10.42,0,0,0-3.91-2.88,15,15,0,0,0-2.15-.72,56.23,56.23,0,0,0-8.47-1.37l-2.39-.21c-.93-.08-1.66-.14-2.13-.2h0c-3.67-.49-4-.77-4.07-9.25.18,0,.36.09.54.12.85.16,1.73.28,2.62.38l.35,0c1.07.1,2.16.17,3.27.17a34.14,34.14,0,0,0,4.47-.29h0s.68,0,1.69-.17a36.12,36.12,0,0,0,4.1-.79h0a4.65,4.65,0,0,1-.09.48c0,.08-.1.11-.15.18a2.78,2.78,0,0,1-.46.57l-.07,0a2.35,2.35,0,0,1-1.38.44l-.5,0h0l.21.26.1.13.06,0a2.86,2.86,0,0,0,1,.8h0a2.81,2.81,0,0,0,1.3.29h0a3.32,3.32,0,0,0,1-.26c.11-.05.23,0,.33-.09a3.26,3.26,0,0,0,1.09-.94,3.54,3.54,0,0,0,.43-.71,2.86,2.86,0,0,0,.21-1.53,4.48,4.48,0,0,0-.63-1.68,10.84,10.84,0,0,0-1.49-1.87c-.32-.33-.68-.67-1.07-1-4.6-4.06-9.58-5.61-14.45-4.7-.25,0-.51,0-.77.11a17,17,0,0,0-5.05,2.17c-.43.27-.84.55-1.23.83h0l0,0a15.53,15.53,0,0,0-1.49,1.27,9.3,9.3,0,0,1-3.32-6.75,3.18,3.18,0,0,0-.77-2.07,2.35,2.35,0,0,0-1.76-.67,2.13,2.13,0,0,0-1.6.63h0a2.81,2.81,0,0,0-.65,1.33c0,.09,0,.16-.06.24a5,5,0,0,0-.06.83c0,3.54,2.35,6.76,6.14,9.09a10.7,10.7,0,0,0-.8,1.76c-.08.22-.13.46-.2.69a11.68,11.68,0,0,0-.33,1.56c0,.14-.07.26-.08.4a1,1,0,0,0,0,.17c0,.06,0,.14,0,.2v.06a13.77,13.77,0,0,0,0,1.7c0,.21,0,.4,0,.61a1.62,1.62,0,0,1,0,.2,18.59,18.59,0,0,0,.49,2.61l.09.36a2.13,2.13,0,0,1,.07.27,14.06,14.06,0,0,1,.37,1.67,7.68,7.68,0,0,1,.11,1.37c0,1.88-1,4-4.13,6.22-.15.11-.26.22-.42.33l-.7.47.84-.07,4.23-.37,3.5-.34a79.31,79.31,0,0,1,12.85-.58h.11c4.48.19,8.07,1.92,10.1,4.86a11,11,0,0,1,1.69,7.78,15.15,15.15,0,0,1-.69,3,11.93,11.93,0,0,1-2.69,4.19,13,13,0,0,1-1.65,1.45,8.86,8.86,0,0,1-.94.6,10.34,10.34,0,0,1-4.61,1.49c-.19,0-.41-.07-.61-.08-2.21-.16-5.16-1.83-6.51-2.81a17,17,0,0,1-6.42-10.06c0-.12-.08-.27-.1-.38a9.83,9.83,0,0,1,.17-4,4.52,4.52,0,0,1,.41-1,4.67,4.67,0,0,1,.83-1.08,5.06,5.06,0,0,1,1.85-1.17l.84-.26h0l-.86-.17a9.14,9.14,0,0,0-3.26-.13,5.54,5.54,0,0,0-1.33.37,4.78,4.78,0,0,0-1.13.68,4.71,4.71,0,0,0-.64.62,6.22,6.22,0,0,0-1.34,3.13c0,.29,0,.48,0,.52h0a2.91,2.91,0,0,0,0,.3,14.53,14.53,0,0,0,2.18,8,15,15,0,0,0,2.24,2.87l.23.21a24.16,24.16,0,0,0,2.1,1.7,16.78,16.78,0,0,0,2.6,1.58l.46.2a17,17,0,0,0,6.66,1.55h.57c7.35,0,11.71-4.86,14.08-9a23.06,23.06,0,0,0,3.09-8.77,14.35,14.35,0,0,0,.07-1.95A9.21,9.21,0,0,0,608.27,180.93Zm-12.59-15.48a30.76,30.76,0,0,1-11.24-2c0-.23,0-.43,0-.66v-1.33c0-1.24,0-3.31,3.52-4.26a12.09,12.09,0,0,1,2.14-.35,11.26,11.26,0,0,1,2.17,0,14,14,0,0,1,4.43,1.3,11.59,11.59,0,0,1,1.74,1l.34.25a7.41,7.41,0,0,1,2,2.12c0,.09.11.19.15.28a5.44,5.44,0,0,1,.38.88c0,.14.07.26.1.39s.08.34.1.49,0,.34,0,.49c-.9.32-1.84.59-2.81.83S596.73,165.31,595.68,165.45Z"/></g></svg>