<svg xmlns="http://www.w3.org/2000/svg" viewBox="0 0 958.94 498.67"><defs><style>.cls-1{fill:#dadada;}.cls-2{fill:#623c21;}.cls-3{fill:#e0c5ac;}</style></defs><g id="Warstwa_2" data-name="Warstwa 2"><rect class="cls-1" width="958.94" height="498.67"/></g><g id="Warstwa_3" data-name="Warstwa 3"><path class="cls-2" d="M275.39,271.77c.26-.36.64-.53.6-.36.42-.81.62-.66.38-1,.23-.56.86-.82.55-.22l.94-1.38-.73.67c-.07-.45,1.18-1.07,1.11-1.58L277,269.19l0-.15a4.58,4.58,0,0,1-1,1.11c0-.07-.1-.11.11-.35-1.47,1.62.06.84-1,2.29A1.79,1.79,0,0,1,275.39,271.77Z"/><path class="cls-2" d="M273.55,272.67l-.11.88-.84,1c.11.1-.32.93.15.5a2.35,2.35,0,0,1,.28-.5c.18.31-.83,1.48-.33,1.37a5.24,5.24,0,0,0,.78-1.61,6.81,6.81,0,0,1,1.4-1.46c.13-.25,0-.41.18-.7l-.14.19-.41-.28a3.11,3.11,0,0,1-.5.74l.49-1.54c-.68.07-1.4,1.42-1.9,1.79C273.38,272.67,272.41,273.61,273.55,272.67Z"/><path class="cls-2" d="M275.06,272.12l0,0Z"/><path class="cls-2" d="M324.94,342c.31,0,.4-.1.45-.16-1.13-.06-2.25-.14-3.37-.25.09.14,1.05.39.39.41a1.74,1.74,0,0,0,1.32-.05l-.26.18c.79-.19,1.29.34.77.46h.07l2.21-.86C325.74,341.63,325.9,342.05,324.94,342Z"/><path class="cls-2" d="M386.37,316.61c-.2.39-.19.46-.12.44A2.64,2.64,0,0,0,386.37,316.61Z"/><path class="cls-2" d="M327,341.52l.69-.28A2.35,2.35,0,0,0,327,341.52Z"/><path class="cls-2" d="M322,345.88s0,0,0,.05l.33-.12h0Z"/><path class="cls-2" d="M342.07,339.57l.21-.05Z"/><path class="cls-2" d="M312.08,346.18l1.64,0c-.24.1.54.2.17.3.13,0,.71.05.56-.05l-.32-.05c.9-.26.43-.49,1.86-.57a2.2,2.2,0,0,0-1.71-.13l-.42,0-1.42.31Z"/><path class="cls-2" d="M372.77,333.08v0S372.78,333.08,372.77,333.08Z"/><path class="cls-2" d="M372.79,333.25l0-.14C372.74,333.21,372.5,333.44,372.79,333.25Z"/><path class="cls-2" d="M326.78,341.78a.54.54,0,0,1,.25-.26l-.51.21Z"/><path class="cls-2" d="M325.59,342.61l-1.28,0-.49.18C324.32,342.72,324.89,342.71,325.59,342.61Z"/><path class="cls-2" d="M340.1,339.59c2.54-.4-.56.56.62.52a8.11,8.11,0,0,0,1.35-.54c-2,.46.17-.78-1.84-.39.24-.45,1.4-.64,2.09-.63.84.27-.62.4-.75.8.8-.18.65-.23,1-.5,1.29-.11,2.53-.92,3.38-.54.89-.26.8-.44,1.27-.76,0-.42-1.39.07-1.79-.21.08,0,.23.07.2.14l-.8.06c.77,0,0,.44-.41.55s-.87.17-.81,0L344,338c-.59,0-1.2.51-1.84.38,0-.09.18-.17.2-.23a11.54,11.54,0,0,1-2.25.79l.52-.5c-.73.59-2.57.64-3.85.5.15.06.4.09.26.18-.74.16-1.32-.09-1-.34-.7.42-2.76-.14-3.73.35-1.5.74-3,1.48-4.6,2.14a2.43,2.43,0,0,1,.55-.1c.41.37.65.34-.1.67.73-.18.46-.49,1.55-.49-.43.18-.54.61.51.66,2.65-.4,4.35-1.51,6.7-2.24.11.3,2,0,2.92,0a3.31,3.31,0,0,1-1.69.63l1.78-.14Z"/><path class="cls-2" d="M334.17,341a.65.65,0,0,0,.2,0A.56.56,0,0,0,334.17,341Z"/><path class="cls-2" d="M337.94,340.37a.08.08,0,0,0,0,0l.23-.05Z"/><path class="cls-2" d="M327.37,342.44l-.44.17.34-.06C327.39,342.52,327.44,342.48,327.37,342.44Z"/><path class="cls-2" d="M326.86,341.92l.09-.11-.17,0C326.76,341.84,326.77,341.89,326.86,341.92Z"/><path class="cls-2" d="M350.34,340.32l.23-.12C350.42,340.24,350.36,340.28,350.34,340.32Z"/><path class="cls-2" d="M343,339.67c-.88.17,0,.46-1.3.63l.38,0a19.08,19.08,0,0,1-3.57.55c.1-.18-.68-.14-.58-.41a4.64,4.64,0,0,0-1.82.53c-.46-.05-1.15.24-1.74.15.26.15-.81.58.61.32-.11,0,0,0-.15.08.93.18,1.28-.24,2.07-.3.49.12-.76.31-.3.34,1-.19,3.12-.11,3-.68a1.49,1.49,0,0,1,1.06.07c1-.75,4.23-.36,4.08-1.16a8.16,8.16,0,0,0-1.64.46Z"/><path class="cls-2" d="M328.91,342.44h0Z"/><path class="cls-2" d="M317.76,339.17l.45-.47c2.09.18,2.83.4,4.67.56.13.08-.09.11-.21.12a23,23,0,0,0,4.18.09c.41,0,1.49.21,1.08.36a1.79,1.79,0,0,1,.66-.06c.06.19-.52,0-.53.19.18,0,.25.06.29,0-.31.16.31.66-1.14.6-.54-.45,1,0,.69-.52-.48,0-.43.17-.47.23-.61,0-.59-.16-.56-.26-.23.14-1-.1-1.33.11-1.19,0,.09-.37-.69-.41l-.47.46L323.1,340c-1.89,0,.19.89-2,.95.31-.23-.5-.75-1.48-1a13.29,13.29,0,0,1,2.48.09c-1-.49,1.49.09,1-.41a4.4,4.4,0,0,1-2.12-.08l.23,0c-.72-.14-1.35.31-2.33,0-.51-.05-.39-.17-.29-.28C318.14,339.24,317.74,339.28,317.76,339.17Zm1.1.05.67.15A1.28,1.28,0,0,0,318.86,339.22Z"/><path class="cls-2" d="M268.24,281.61l.13-.19A.78.78,0,0,0,268.24,281.61Z"/><path class="cls-2" d="M291.66,336.68l-.36-.21A3.65,3.65,0,0,0,291.66,336.68Z"/><path class="cls-2" d="M282.65,332.83l-.58-.29A2,2,0,0,0,282.65,332.83Z"/><polygon class="cls-2" points="266.41 286.45 266.4 286.47 266.4 286.57 266.41 286.45"/><path class="cls-2" d="M270.18,317.66a2.35,2.35,0,0,0-.09-.36S270.09,317.48,270.18,317.66Z"/><polygon class="cls-2" points="282.76 332.89 282.73 332.86 282.65 332.83 282.76 332.89"/><path class="cls-2" d="M294.79,339.88l.27.07Z"/><path class="cls-2" d="M294.85,338.35l.25.07Z"/><path class="cls-2" d="M308.33,344.27l.57.07A2.1,2.1,0,0,0,308.33,344.27Z"/><path class="cls-2" d="M296.08,339.28l.11,0C296.11,339.24,296.06,339.25,296.08,339.28Z"/><polygon class="cls-2" points="271.19 279.02 271.17 279.05 271.21 279.09 271.19 279.02"/><path class="cls-2" d="M271.25,277.47l.23-.45A2.13,2.13,0,0,0,271.25,277.47Z"/><path class="cls-2" d="M267.21,309.65c0-.16,0-.54.11-.4C267.14,309,266.89,309.1,267.21,309.65Z"/><path class="cls-2" d="M272.73,282.78a1.77,1.77,0,0,1,0-.33C272.69,282.65,272.67,282.83,272.73,282.78Z"/><path class="cls-2" d="M272.71,282.45l0-.31A1.62,1.62,0,0,0,272.71,282.45Z"/><path class="cls-2" d="M272.43,311.52a.28.28,0,0,0,0,.18C272.48,311.65,272.47,311.59,272.43,311.52Z"/><path class="cls-2" d="M271.76,276.72c-.06-.14.94-2.11-.13-.61-.27-.26.51-1.09.72-1.54-.27.25-.09-.28-.26-.26a3.75,3.75,0,0,1-.43.85c-.25.06,0-.52.33-.88-.5.38.2-.79-.41-.18a10.34,10.34,0,0,0-1.65,4.13,10.09,10.09,0,0,1,1.53-2.61l.07.47a6.83,6.83,0,0,0-1.36,2.06c.39-.58.8-1.15,1.22-1.71.74-.68.45-.09.09.58C271.58,276.86,271.69,276.73,271.76,276.72Z"/><path class="cls-2" d="M273.44,279.32l0,0a.24.24,0,0,0,0-.08Z"/><path class="cls-2" d="M309.85,338,310,338C309.89,338,309.85,338,309.85,338Z"/><path class="cls-2" d="M271.52,279.58Z"/><path class="cls-2" d="M305.93,336.85l0,0Z"/><path class="cls-2" d="M302.69,343a.09.09,0,0,0,0,.05C302.8,343.07,302.76,343,302.69,343Z"/><path class="cls-2" d="M305.91,336.88l0,0Z"/><path class="cls-2" d="M287.53,329.11a1,1,0,0,0,.07.18S287.64,329.24,287.53,329.11Z"/><path class="cls-2" d="M290.6,331.7l0,.07Z"/><path class="cls-2" d="M266.23,311.13a3.79,3.79,0,0,0,.22.48A3.31,3.31,0,0,0,266.23,311.13Z"/><path class="cls-2" d="M306,336.83l.23,0A1.44,1.44,0,0,0,306,336.83Z"/><polygon class="cls-2" points="281.73 326.55 281.85 326.61 281.81 326.55 281.73 326.55"/><path class="cls-2" d="M280.34,324.94a.65.65,0,0,0,.18,0c-.65-.42-1.51-1.52-1.86-1.41.17.19,1,1.27.68,1.26.43.31.84,1,1.09,1.19-.51-.75.12-.27.63,0,.33.43-.26.13,0,.49l1,.79-.79-.74.46,0-.1-.05C280.19,325.38,281.83,326.06,280.34,324.94Z"/><path class="cls-2" d="M280.52,325a1.34,1.34,0,0,0,.26.14C280.66,325,280.59,325,280.52,325Z"/><path class="cls-2" d="M276,319.14l-.23-.22Z"/><path class="cls-2" d="M322.92,342.64c0-.09-1.05-.38-1.06-.14l.94.17Z"/><path class="cls-2" d="M267,301.32l0,.36.05.07A1.07,1.07,0,0,0,267,301.32Z"/><path class="cls-2" d="M279,324.66a.91.91,0,0,0,.32.15A.67.67,0,0,0,279,324.66Z"/><path class="cls-2" d="M267.61,301.19c.06-.16.14-.39.23-.43a5.13,5.13,0,0,0-.25-.82A4.27,4.27,0,0,1,267.61,301.19Z"/><path class="cls-2" d="M267.58,299.92v0Z"/><path class="cls-2" d="M323.54,342.8l.28,0-.15.06.72.12.3,0a.24.24,0,0,0-.11.06l.24,0c.59-.21,2-.34,2.45-.48a8.14,8.14,0,0,1,1.64-.11c-.39,0-.9,0-.75.17a3.64,3.64,0,0,0,2.54.23h-.8l1.79-.57c.64.22-.89.29-1.14.49,1.4-.29,2.58.42,3.22-.1.1.28.28.75,1.2.68-.68-.29.54-.23,0-.55.31-.17,1,0,1.07-.19l-.08.13c1.61.34,2.07-.41,2.71-.72,1.85-.3,2.72-.24,4.23-.51a1.22,1.22,0,0,0,1.19.52c.24-.3,1.59-.66,1.66-1-1.1.08-.83.44-1.47.62-.59-.25-.1-.33-.87-.41.62,0,2.64-.64,3.34-.46l-.22.09c1.07,0,1.45.73,3.06-.13l.77-.4s0,.08,0,.11c1.33-.32,1.08.18,2.46-.54-.11.06,0,.07-.13.12a6,6,0,0,0,2.21-.94c.47.15,0,.29-.18.56a9.68,9.68,0,0,0,3.66-2l1-.21c-.49.33-1.06.85-.84.94.49-.24.35-.33,1.08-.56a3.73,3.73,0,0,1-.56.83c1.6-.31.11-.72,1.34-.62.47-.18.64-.53.61-.75l.94-.1c0-.29,1-.73,1.64-1.09,0-.14-.65,0-.86.19,0-.21.62-.63,1.07-.84.43.46,2.88-1.51,2.66-.65A48,48,0,0,0,372,330.9c.49-.15,1.31-.71,1-.15,1.49-1,1.88-2,3.35-3,.16,0-.62.5-.45.61.76-.9,1.8-1.14,3.05-2.47-.22.21-.2.36-.19.43s.41-.65.69-1c.22-.14-.21.29-.06.24,2.75-2.22,4-4.73,6-7.49-.56.8-.5,1.31-.38,1.41.2-.25.4-.5.58-.77a13.11,13.11,0,0,1,.71-1.6c.1,0,.32-.22.23.08,1.37-1.42,1-2.89,2.21-4.85-.21.94-.39,1.92-.67,2.86l.59-.49-.34,1.28c.57-.56.48-1.37.77-1.31,0,.18-.22.5-.1.59.47-.58.3-.75.5-1.26-.13,1.57-1.64,4.06-2.46,5.38-.11.22,0-.25,0-.32-.35.53-.71.73-1.12,1.42-.1.54.38-.2.64-.49.14.17,0,.32-.24.69-.26-.09-1.57,1.83-2.22,2-1.48,1.8.82.21-.82,1.83l-.7.27a15.1,15.1,0,0,1-3,3.43l.23-.22c.07-.24-.25-.08-.42,0-.93.65-1.48,1.59-2.22,1.76a25.09,25.09,0,0,1-3.53,3.54c-.57-.13,1.4-1.4,1.73-2-.36.27-.73.52-1.1.78a2.8,2.8,0,0,0,1.1-1.3c-1,.64-1.09,1.14-1.95,1.87,0-.15-.15-.12-.58.16l0,.32s-.08,0-.22.06c-.53.4-1.05.83-1.6,1.2.43-.11.58.1,1-.17-.25-.05.11-.31.54-.59-.28.4.51-.13.59,0-.88.56-1.94,1.27-2.5,1.67l-.32-.11c-.88.45-1.73,1.06-2.35,1.32l.12-.23a15.6,15.6,0,0,1-3.11,1.38c-.81.73-1.93,1.49-2.61,2.11-.3.52-3,.78-4,1.6a11,11,0,0,1,1-.77c-.76.22-1.21.83-1.56.58,1.71-.49-.19-.24.53-.61a11.88,11.88,0,0,0-1.93.88c1.28-.42-.3.61.95.05a10.22,10.22,0,0,1-3.51,1.41c0-.16-.2-.18-.67-.11l-.31.32c-.57.12,1-.58-.13-.32-1.08.69-3.61.69-4,1.47-1-.06,1.67-.66.22-.68.74-.42,1.9-.4,2.07-.82-.75.3-.35-.22-.85-.1l-.81.41.2,0a25.34,25.34,0,0,1-5.59,1.33,13.88,13.88,0,0,1-4.52,1.44c.55-.27-1.62,0-.45-.55a2.5,2.5,0,0,0-1.77.35c.79,0,.28,0,.95.05a3.77,3.77,0,0,1-1.9.21c.2,0,.12,0,.16-.1-.95-.06-.44.23-1.12.35-.23-.25-1.51,0-2.14-.11l-.89.39c.49-.25-.87-.07-1-.3a5.17,5.17,0,0,1-2.19.42c.41-.13-.9-.19-.91-.45-1.67-.28-2.83.58-4.41.11.05-.05.39-.19-.08-.29a13.51,13.51,0,0,1-1.41,0h0c-.19,0-.31,0-.32.08a8.1,8.1,0,0,1-2.43.44c.06.3,1.2.32,1.7.28l.45-.24c.36.47,1.21,0,1.5.2-.84.45-3.14.1-4.57.21a10.61,10.61,0,0,0,4.28.87l-.7-.23.84.06-.79-.37c.8.13,1.49.1,2.22.16-.85-.05-1.15-.46-.68-.37.92.34,1-.11,1.71-.06-.4,0-.92-.08-.57-.22,1.39.42,1.78.21,3.06.61-.15-.47,1.62,0,1.81-.41l-.59-.05,1.26-.28c1.17.37-1,.41.75.66,1.65,0,1.59-.47,2.87-.57a4.74,4.74,0,0,1-2.47.59l.64.13a10.4,10.4,0,0,1-2.51.14c1.19-.32-.56-.11-1.1-.37-.1.27.67.24-.24.45a15.33,15.33,0,0,1,2.05.08c-2.33-.13-2.12.94-4.17.64,1-.08-.32-.41-.42-.55-.44,0-1.35,0-1.72.07l.31.42c-1.22.09-1.56-.78-3-.5-.2.22,1.2.19.95.21-1.91.08-2.52-.63-4.14-1.14a.89.89,0,0,1-.73.48c.21-.21-.2-.39.48-.47a5.6,5.6,0,0,0-1.72-.09c1.13.33-.53.26-.76.37-.6-.14.22-.2.6-.21-.48-.14-1-.58-1.31-.28,0-.24,1.44-.41,2.33-.34l-.59-.14a2.4,2.4,0,0,1,1.08.11c-.55-.27-.46-.48-.3-.63.07,0-.05,0,0,.1.46.13.83.11.74,0,.47-.27-.62-.29-.92-.51l-.72,0-2.63.64a5.33,5.33,0,0,1-2.24-.76l-.28.24c-.91-.22-1.73-.53-1.07-.74,0,.1.13.11.33.16a.26.26,0,0,1,.14-.05l.06,0-1.66-.23c1.73,0,.21-.48.6-.91l-1.67-.26c.95.41,0,.25-.41.22,0-.31-1.31-.36-1.87-.58l.06,0a10.18,10.18,0,0,0-2.1-.65,6.83,6.83,0,0,1-1.48.39c1.09.49.39.37.42.57a.83.83,0,0,0-.36-.11c-.19,0,.19.18.19.28,1.24.29,2.5.63,3.11.4-.32-.29-.68,0-1.06-.27a7.17,7.17,0,0,1,2.44.5l.26.32,1.06.15c-.46,0-.27.33-1.35.08.07.26,1.07.23,1.71.48l.42-.22c-.18.14,1.23.51.17.5l-1.7-.17.4.33-1.4-.31.36-.07c-2.27-.41-.47-.78-2.79-1.09a4.9,4.9,0,0,1-2.88-.62c1,.26.19-.22.63-.3a3.47,3.47,0,0,0-1.94-.38c-.17-.29-.29-.5.57-.15.26-.35-1.17-.37-1.09-.81-2.85-1.14-2.87.4-5.95-1.65l.2-.11a47.41,47.41,0,0,1-5.19-2.61l-1.21-1.27c.36.15,1.39.39,1.1,0,.47.81,1.3,1.11,1.95,1.75.13-.06-.14-.31-.24-.45.46.27.59.57,1.25.83,0-.09-.6-.55-.07-.33l.71.7c1.2.45.86-.3,2.13.46a2.56,2.56,0,0,1-1.57,0c.59.36-.88-.28-.39.14,1,.12,1.34.6,2.63.95a1.24,1.24,0,0,1-.53-.09l1.67.94c-.35-.38,1.53.42,1.5,0-1.8-.94-1.34-.51-3.34-1.66a4.09,4.09,0,0,0,2,.16.22.22,0,0,0,.1.08c.45-.14.16-.37.39-.87-1.1-.07-1.58-.66-2.77-1-.34.17.46.66,1.05.85l-1.06-.29.25,0c-.8-.44-1.59-.88-2.38-1.35a1.82,1.82,0,0,0,1,.17,5.2,5.2,0,0,1-.85-.67c-.07.29-.21.45-.51.29a7.36,7.36,0,0,1-2.58-2.28l-.18-.09c.09.41-1.34-.21-2-.26.19-.24-.65-.66-1-1.08-.42.13-.41.74-.05,1.33,1.18.41.74.11,1.47,0l1.78.76-.52,0c.75.61,1.74.74,1.49,1-.56-.05-1.21-.6-1.76-.66l.47.45c-1.14-.29-.31-.59-1.59-1.11.25.53-.11-.05-.72-.2.27.45,2.08,1.22,1.45,1.45-.74-.18-1.68-1.81-2.75-1.91l.07,0a5.21,5.21,0,0,0-2.21-1.07,8.45,8.45,0,0,0-1.69-1.21l.1-.11-.74-.53c.51.06.82.69,1.47,1.14l.1-.28c.5.82,1.3.78,2,1-1-.39-2.23-1.78-2.77-1.5l-.3-.62-.3-.12c-.22-.46.36-.41,1.1.11.08.15.12.23,0,.24a4.26,4.26,0,0,1,1.61.89l-.53-.2a6,6,0,0,0,2.5,1.37l-4.11-3.31a11.2,11.2,0,0,0-2.08.33,11.23,11.23,0,0,1-2.74-2.61l.15,0a4.91,4.91,0,0,0-1-.93c-.24-.49.48,0,.29-.28l-1.28-1.1c.27-.1,1.22.94,1.7,1.4-.11-.08-.32-.23-.29-.14.46.64,1.81,1.32,1.79,1.83.32.22-.76-.32.16.58.53.7,1,.62,1.12.6s-.85-1.07-.37-.89a5,5,0,0,1-1.34-1.17c.49.45,1.35.83,1.44,1.24,1.15.66,1.49,0,1.08-.44-.05.27-1.91-1.38-.87,0a16.7,16.7,0,0,1-2.59-1.86h.07l-.9-.85c.18.07.49.3.61.2l-1.47-1c.86.54-.26-.58-.44-1-.3,0-.87-.4-.56.19s.38.24.82.73l-.89-.47,0-.09-.6-.25c-.79-1,.9,0-.36-1.11l-.19.43c-1.18-1.55-2.18-3.87-3-4.93.4.2.81.13.74-.42a13.66,13.66,0,0,0,1.38,2.16c0,.18-1-.57-1.4-1.4-.35.76,1.59,1.68,1.09,2.15,1.18,2,1.54,1,2.44,2.77.26-.17.48.33.75.23,0-.74-1.65-2-2.24-3.12.09.08.27.26.34.26a5.8,5.8,0,0,0-1.16-1.49l0,.08c-.87-.74-.19-.69-.42-1.3-.18-.18-.56-1-.68-.76l-.33-1.15-.28.22c-.33-.57-.21-.8-.67-1.23l-.28.11.69,1.51c-.49-.69-.37-.06-.87-.84.79.75-.2-.73,0-.95l-.47-.53.15.12c-.09-.55-.37-.52-.61-1.1a3.63,3.63,0,0,0,.81,2,12.69,12.69,0,0,1-1.39-2,6.23,6.23,0,0,1-.62-1.82c.61,1.15.66-.75,1.49,1.68-.07,0-.15-.21-.14-.3-.22.47.67,1.39,1.06,1.8.14-.23.45.25.12-.66,0,.35-.82-.52-1-1.45l.5-.05-.47-1.26.06.12c.1-.58-.59-1.31-.72-2.24-.39-.57-1-3.07-1.15-1.88.06-.88-.49-1.49-.75-2.38l.06,1.17a6.77,6.77,0,0,0-1.1-1.89c.11-.13.17-.39.35-.2-.34-1.82-.45-4.45-.86-5.52,0-1.31.54-1.51.39-3.33-.05-.39-.48.28-.26-.92,0-.08.28,1.18.33-.16-.29-1,.43-2.21.32-3.48.24-.63.43-1.75.67-1.45a7.52,7.52,0,0,0-.34,2.69c-.16-.17-.27.7-.31-.07-.41,1.53.05,1-.22,2.41.1.1.38-.69.31-1,.38,0,0,2.75.55,1.55.13-1.45-.64-2-.05-3.21.17.54-.14,1.32.22,2l.28-1-.19-.79.05.05c.65-1.75-.14-1.74,0-3.43-.5.89-.63-.38-1,.3.2-1.13.49-1.93.87-1.82-.21,2.12.37.23.31,2.19.21-.27.47.57.77-.52,0-1.3-.43.3-.24-1,.06-.07.11-.13.16-.08-.05-.62.26-.63.23-1.38l0,.19c.5-.76,0-1,.53-1.63-.38.19-.07-.56-.07-1.07a7.21,7.21,0,0,0-1.37,2.42c.17.24.33.17.26.81l.25-1c0,.21,0,.39,0,.59l-.38.88c.16-1.21-.22-.74-.32-1.32.44-1,.22-.9.52-1.54.3.17,1.28-1.83,2-2.88l-.25.53c-.16.93.51-.47.62-.45l.12-.68c0,.13,0,.32.13.08.32-.83,0-.94.35-1.77.2,0,.12.83.46.38a2.44,2.44,0,0,0,1.33-1.52,2,2,0,0,1,.25-.71s0,.1,0,.13l.58-.56c-.07.74-.82,1.07-.86,1.82l.24.19a3.65,3.65,0,0,0-.45,1.48,13.1,13.1,0,0,0,.77-1.63c.23,0,.05.59,0,.68l-.09-.2c-.71.79-.47,1.49-1.06,2.62-.09.17-.06.05-.1,0-.15,1.06-.92,1.84-.9,2.92l0-.36a30.68,30.68,0,0,0-.33,3.38l.11,0c.11-.12,0,.35-.14.59h0l0,1.83a2,2,0,0,0,.27-.56c-.1-.23.3-1.35-.05-1.28.32-.47.3-1.4.54-1.75-.42.64-.13-.58-.25-.77.27-.17.35-1,.57-.86.12-.11-.29.29-.24.64,0,.81.68-1.26.59-.28.23-1.2.92-2.66,1.26-3.9l-.4.6a8.44,8.44,0,0,1,1-1.74c-.17.38-.39.82-.58,1.32.26.16.57-1.14.77-1.11l.31-1.6-.35.59a9.69,9.69,0,0,1,1.58-2.46c0,.73-.85,1.35-1.25,2.41-.26.77.6-.24.31.47a1.49,1.49,0,0,0,.44-.82l.22-.21c0,.77-.82,2-.95,3.06a.45.45,0,0,0,0-.22,5.77,5.77,0,0,0-1,2,1.16,1.16,0,0,0,.3-.71c.1,0-.15.67-.15,1,.37-.59.26,0,.49-.4a4.76,4.76,0,0,1-.49,1.24c-.24.21-.1-.29-.3-.31-.09.57-.62.65-.68,1.5.44-1,.29.41.3.79l.07-.16a.66.66,0,0,1-.23.83c0-.45.24-.83,0-.78a4.6,4.6,0,0,0-.19.9l-.07-.34c-.12.47-.24.94-.35,1.42a4.18,4.18,0,0,0,.57,1,1.7,1.7,0,0,0-.2,1.12l-.06-.16a3.61,3.61,0,0,0-.2,2.12c-.24.45-.62-3.34-.95-.12-.15,1.22.48.82.6,1.52a.07.07,0,0,0-.1,0c-.08.52.13.59.19,1a1.66,1.66,0,0,0,.07-.91c.22.17-.1,1.08.08,1.5-.35-.54-.17,1-.34.59a4,4,0,0,0,.39,2.69c-.39.74.16,1.23.11,2.39a3.79,3.79,0,0,1-.1-.74c-.37-.62,0,1.21-.39.23.07.21.15,0,.08-.22-.08-.38-.25-.73-.37-.62l-.14,1-.11-.33c-.07.5-.1,1-.15,1.51.07,0,.12-.12.14-.2a23.41,23.41,0,0,0,1.2,5c.81,0,1.56,3.32,2.58,4.17-.35-.19-.8-.17-.86.08a3.64,3.64,0,0,1-.86-1.19c.07-.14-.07-.9.25-.51-.72-1.53-.24.35-.71,0a15.39,15.39,0,0,0,2.45,3.46l-.07.07.59.69c-.3-.66.12-.85.44,0l-.08-.08a9.09,9.09,0,0,0,1.31,2.09l.53.31c.44.7.07,1,0,1.41a7.44,7.44,0,0,0,2.34,2c.09.47,1.38,2,.49,1.37,1,.77,1.61-.2,2.57,1.68l-.52-.22c1.39,1.37,3.77,2.86,4.33,3.58-1.05.14,1.45,2.12,1.33,2.9,0-.19.66.2.8.19a.74.74,0,0,0,.59.43c-.56-.56.88-.32-.5-.92a5.85,5.85,0,0,1,3.24,1.12l-.18.24-1-.77c0,.26-.56-.11-.84-.18,1.91,1.47-.67.44,1.43,1.74.31,0,.13-.05.72.22-.26-.15-.42,0,0,.26l.53,0c.48.89-1.4-.46-.95.24-1-.29-2.43-1.12-2.39-.62,1.26,1,1.6.17,2.91,1.17l.07.24c.56.2.78,0,1.13,0,0,.1.07.23.38.44a23.81,23.81,0,0,0,2.65.38c-2.26-.82-1.66-1.19-3.91-2.18.4.1,1.93.87,2.23.55l-.17.25a9.37,9.37,0,0,1,2.38,1l-.62-.12c1.26.41,1.76,1.4,2.93,1.37a3.31,3.31,0,0,0-.83-.35,10.45,10.45,0,0,1,2.09.88l1.6.12c-.07.14.83.5.3.56.94.62,1.59.37,2.21.51.95.7-1-.19-1.21.17a10.47,10.47,0,0,0,3.94,1.08c-.28-.16-.42-.25-.38-.32,0,.11.62.28.95.38l.29-.12c.52.29.41.38-.11.38.52.21,1.26,0,1.74.45a24.55,24.55,0,0,1-2.6-.58c1.95.38,1.74,1.18,4.26,1.57,0,.11-.45.18,0,.31,1.12.19.39-.34.78-.47a2.46,2.46,0,0,1-1.65-.68l.26-.1c0,.09.54.23.67.35l.22-.28c-.15.34.63.81,1.32.84-.61-.42-.43-.37-.51-.81,1-.16,1,.62,2.1.44-.11.1-1,0-.27.24s.63-.15,1.08-.15c-.55.21-.47.46-1.09.7a10.47,10.47,0,0,0-1.64-.24l.91.47c-1-.16-.8.18-.91.28,1.65.68,1.39-.17,2.47.14.57-.11-1-.26-.15-.31,1,.25.28-.13,1.45-.06l-.22.11c.32.24.71.08,1.13.13s-.33-1.13,1.5-.86c-.1.07-.14.12-.15.16-.73.74-1.47,1.5-2.23,2.22l6.33,1.11c.48.56-1.65.25-1.53.48l-1-.22c.09-.21,2.16.19,1.28-.3a29.74,29.74,0,0,0-4.38-.26c.45.59,2.26.27,3.33.79a5.66,5.66,0,0,0-1.27-.08c1.05.22,2.17.42,3.36.62l.29-.09c-.81-.14-1.36-.24-1.43-.27,1.06.16,2,0,2.1-.39l-.19,0,.4-.08Zm62-24.12a.44.44,0,0,0,0,.2C385.53,318.82,385.48,318.83,385.54,318.68Zm-82.86,21c1.34.52,2.71,1.07,4,1.51-2.21-1.43-3.67-2.49.27-1.24l.27,0a13.77,13.77,0,0,0-2.23-.74c-.75.05-3.24.16-3.25.24.17.27.59.2,1,.41Zm-.55-1.5c-.73-.35-.61-.15-.78-.06l.81.25C302.08,338.31,302,338.24,302.13,338.19Zm-.79.1.19.1Zm15.22,4.25h-.09l.58.13A1.75,1.75,0,0,0,316.56,342.54Zm-1.57-.63-.24.22.54.13A.49.49,0,0,0,315,341.91Zm-4.95-2c-.4.22-1.48,0-1.64.29-.09.07.12.17.37.27l.9.26c0-.05.1-.08.22-.1-.3-.13-.49-.27-.31-.45.69.69.82-.16,1.67.18C311.59,340.2,310.33,339.91,310,339.94Zm-42.37-47.47a1.89,1.89,0,0,0,.25-.21l.1.66c-.21,1.1-.81,2-.39,3a2.44,2.44,0,0,1-.57,1,5.63,5.63,0,0,1,.07-.65C266.6,293.34,267.88,294.83,267.67,292.47Zm.12,13.23a.27.27,0,0,0-.12-.14c1.28,2.38,2.22,4.23,2.74,5.51a7.87,7.87,0,0,0-.22-2.14l.46.37-.11.38.59.72c.1-.31-.22-.95-.23-1.45-.07,0-.91-1.32-1.21-1.67l.18,1.23A21.84,21.84,0,0,0,269,306c-.16,0-.06,1.18.29,1.22-.17.2-.55-1.05-.55-.19a7.8,7.8,0,0,1-.71-3.18l.35-.2c0-.79-.56-.43-.49-1.39.25,1.12.38-.26.55.63.1-.31.4-.07.23-1-.6-.68.19-1-.33-1.63.12-.48.35.47.34-.45-.36-1-.52-1-.89-1-.05,1,.55,1.1.54,1.92-.27-.52-.52-1-.77-1.58a1.62,1.62,0,0,0,0,.72,2.77,2.77,0,0,0-.31-.84l-.21-.38a6.09,6.09,0,0,1,0,2l-.19-.11a1.48,1.48,0,0,0,.23,1.13c.13.85.53,1.65.34,1.88l-.22-.3Zm20.44,27.07c-.18-.91-.47-1.71-2.89-3.37l.21.1c-.93-1.2-2.63-1.35-3.7-2.89a4.69,4.69,0,0,0,1.87.56l-.83-.45c.43-.11-.4-.57-.89-1l.73.09c.22.35,1,1.07,1,1-.21-.11.73,1.31,1.52,1.75.1-.28-1.43-1.34-.49-1.19-.69-.31-.57-.59-1.22-1,.69.32.39-.18.94,0l-1-.72c0-.08,1.51,1,1,.08-.47-.2-1.33-1.2-1.55-1l0-.09c-.62-.67-.6.05-1.29-.86-.12.1,0,.33.28.59s.48.06,1,.5c.07.4-.61-.59-.52,0,0,.33,1.52,1.11.82,1.11l-.65-.66c-.22.22-.71-.25-.87-.06-.5-.3-.64-.93-1.25-1.15-.32,0-.28.54-.85-.27-.22-.85-1.79-2.43-2.36-3l-.61-.45c-.12.18.91,1.07.42.86l-.79-.84h.15a5,5,0,0,0-.83-.77c.39.15.84.85,1,.52-.29-.45-.24-.59-.59-.95.09.07.17.13.2.09-.55-.94-.92-.62-1.17-.78-1-.66.34,1.13,0,1.21q-1.05-1.25-2-2.58c.24.18.48.36.53.2-.31-.75.2-.15-.41-1.08-.34.3-1-1.06-1.56-1.64,0-.41,0-.49.37.22.2-.22-.42-1.11-.56-1.47-.17-.16-.37-.49-.53-.68,0,.36-.21.31-.63-.28h-.07c.4,1.09,1,2.84,1.63,3.32l-.23-.1c.47,1.31,2,2.21,1.89,3-.21.08.12.25-.15.41l.78.67-.24-.08,1.08,1.31h-.07c.72.46,1.3.8,1.76,1.06.11-.09.1-.16.35,0a2.27,2.27,0,0,1,.47.44h0c.24.33.27.66.57,1.08L277,322.33c-.26.06-.35.31.05,1-.22-.23-.44-.21-.2.1.07,0,.8.67.68.27,1.06,1,2.38,3.19,4.4,4.34-1.4-.88.79,1.1-.64,0,.73,1.12,1.06.44,2,1.3,0,.17-.53-.45-.92-.44,1.58,1.48,3.2,1.77,4.83,3l-.08.29Zm3.68,1.8,1.1.49-.1-.06,1.16.35c-.6-.43-.87-.93.09-.59-.13.06.07.33-.27.23.52.47,1.79,1.27,1.63.71-1.35-.21,0-.62-1.08-.81a7.12,7.12,0,0,1,1.56.47c-.58,0-.12.53.57,1,.35.08,1.19.54,1.78.67-.09-.33.44-.26-.4-.7a3.82,3.82,0,0,1,1.36.6c-.24,0-.63-.19-.65-.08.27.38.7.54.89.73l.58.19a.33.33,0,0,1-.1-.14l.71,0c-.88-.21-.34-.27-.28-.41-.13.28.52.25.81.35l-.5-.54c.36,0,1,.62.93.26a19.69,19.69,0,0,0-3-1.18l.37.44c-1.38-.41-.63-.74-2.08-1.4-.71-.06-2.16-1-2.4-.64.24,0-.69-.82-1.27-.9-.74.09-2.36-.78-2-.34.43.25,1.13.38,1.35.82l-.89-.4.44.52C292,334,291.94,334.2,291.91,334.57Zm19.95,10.15,0,0h0Z"/><path class="cls-2" d="M271.51,278.54c0-.3.43-.9.16-.9C271.89,277.75,271.06,278.75,271.51,278.54Z"/><path class="cls-2" d="M272.15,277.93c0-.07-.13-.09,0-.36l-.4.77Z"/><path class="cls-2" d="M274,278.1a2.55,2.55,0,0,1,.53-1.31c.64.14-.48,1-.15,1.58.7-1,.48-1.59,1-2.46C274.94,276.16,273.66,277.81,274,278.1Z"/><polygon class="cls-2" points="274.41 278.96 274.65 278.32 274.58 278.36 274.34 279 274.41 278.96"/><path class="cls-2" d="M264.22,291.72c-.2,0-.07.55-.06.81A2.06,2.06,0,0,0,264.22,291.72Z"/><path class="cls-2" d="M376.73,332.88c1.5-1.16,2.94-2.42,4.33-3.73C379.85,330.27,378.72,331.29,376.73,332.88Z"/><path class="cls-2" d="M267.59,310.48a21.44,21.44,0,0,1-1.74-3.41c.2,2.12,1.37,2.42,1.62,4.17Z"/><path class="cls-2" d="M266,310.49c.24-.36.82,1,1,.68-.47-.94-.5-.33-.8-1.24Z"/><polygon class="cls-2" points="269.94 302.55 270.2 302.92 270.07 302.61 269.94 302.55"/><polygon class="cls-2" points="269.3 316.85 269.15 316.74 269.45 317.48 269.3 316.85"/><path class="cls-2" d="M269,316.63l.16.11Z"/><path class="cls-2" d="M270.79,302.93l0-.6-.21-.26C270.62,302.36,270.7,302.65,270.79,302.93Z"/><path class="cls-2" d="M270.36,308.64l-.29-.49C270.12,308.25,270.25,309,270.36,308.64Z"/><polygon class="cls-2" points="271.77 320.94 272.33 321.47 272.32 321.39 271.76 320.85 271.77 320.94"/><path class="cls-2" d="M273,312.26c.07-.46.57.94.43.14C273.06,311.8,273.06,312.11,273,312.26Z"/><path class="cls-2" d="M275.9,320.24a1.34,1.34,0,0,0,.21.2Z"/><path class="cls-2" d="M275.9,320.24c-.2-.24-.29-.55-.48-.67A1.24,1.24,0,0,0,275.9,320.24Z"/><path class="cls-2" d="M278.22,322.87l-.17-.22c.29.12.19,0-.06-.08s-.26-.14-.33-.13l-.2-.07.24.12C278,322.83,278.2,323,278.22,322.87Z"/><path class="cls-2" d="M285.59,335.15c-.86-.71-1.06-.92-.89-1-.82-.66-.89-.28-1.46-.57C284.23,334.19,284.37,334.41,285.59,335.15Z"/><path class="cls-2" d="M283.24,333.53l-.35-.24A3.19,3.19,0,0,0,283.24,333.53Z"/><polygon class="cls-2" points="277.43 318.31 278.06 318.59 277.89 318.44 277.43 318.31"/><path class="cls-2" d="M286.91,336.13a2.41,2.41,0,0,1-.54-.44C286.2,335.84,287.08,336.25,286.91,336.13Z"/><path class="cls-2" d="M285.83,330.35c0-.17-.59-.49-.77-.7C285.35,329.91,285.37,330.41,285.83,330.35Z"/><path class="cls-2" d="M290.07,337c-.17-.11-.37-.39-.16-.47C289.6,336.46,289.07,336.59,290.07,337Z"/><polygon class="cls-2" points="287.36 331.47 287.28 331.33 286.62 331.04 287.36 331.47"/><path class="cls-2" d="M287.17,327.48c-.76-.26.61,1.22-.57.6,1.21,1.22.1-.36,1.09.41C287.14,328,287.05,327.51,287.17,327.48Z"/><path class="cls-2" d="M287.69,328.49l.27.22Z"/><path class="cls-2" d="M296.28,335.39l-.28,0A2.4,2.4,0,0,0,296.28,335.39Z"/><path class="cls-2" d="M291.13,330.52l-1.17-.29c.78.21,2.42,1.22,2.51.82a3.66,3.66,0,0,0-1.53-.71Z"/><path class="cls-2" d="M300.59,342.71l-.57,0,.63.28C300.49,342.82,300.91,342.68,300.59,342.71Z"/><path class="cls-2" d="M300.77,343l-.12-.06Z"/><path class="cls-2" d="M294.2,334.56a4.69,4.69,0,0,0-.94-.44C293.35,334.25,294.16,334.76,294.2,334.56Z"/><polygon class="cls-2" points="304.38 343.43 303.51 343.21 304.45 343.49 304.38 343.43"/><polygon class="cls-2" points="308.22 345.19 308.36 345.3 309.11 345.35 308.97 345.25 308.22 345.19"/><path class="cls-2" d="M305.32,336.54c-.51-.21-1,0-.92.08l1,.33c-.17-.36-.29-.08-.85-.35Z"/><path class="cls-2" d="M338.92,347a2.14,2.14,0,0,1-1.61,0c.17-.1.85-.23.41-.32l-1,.57c-1.36-.21,1-.71,1.61-.95-1.36.05-1.74.4-3.19.49a3,3,0,0,1,.94.21c.07.35-1.29.28-2.26.34.62.12.27.26-.17.42a.41.41,0,0,0-.17.06l-.16.06h.12s0,.09.11.15a9.7,9.7,0,0,1,2,.1c-.55-.52,1.79-.26,2.44-.48l.76-.13.28,0c.06.06,0,.14-.43.3.35-.15,1.57-.24,1.43-.4.93-.09,1.84-.24,2.76-.36a.92.92,0,0,1,.25.06c.09-.05.1-.08.08-.1A85.48,85.48,0,0,0,355,344.34c-.58.13-1.12.15-1.72.26.79-.6-1,.2-.82-.22a3.41,3.41,0,0,1,1.32-.37c.08-.21-.45-.21-.45-.43-1.51.17-1.52,1.05-3,1.28,0-.22.41-.5-.52-.26l.23-.1c-1.46.57-1.28-.2-2.11.57l0-.31a12.3,12.3,0,0,1-2.73.8l0-.07c-2.07.69-1.18.29-3.56.76l1.06-.51c-.85,0-1,.38-1.58.42,0-.07-.13-.27.42-.4-.94.32-1.9.59-2.85.87C338,346.93,338.8,346.84,338.92,347Z"/><path class="cls-2" d="M335.17,346.79a3.35,3.35,0,0,0-.54,0Z"/><path class="cls-2" d="M355.77,344.1l-.82.24A4.15,4.15,0,0,0,355.77,344.1Z"/><path class="cls-2" d="M331,347.59c.52.15-.38.23-.47.35l1.84,0c0-.12.17-.25.13-.37Z"/><path class="cls-2" d="M332.88,348.12a1.33,1.33,0,0,1,.47-.24l-1,0C332.35,348,332.47,348.07,332.88,348.12Z"/><polygon class="cls-2" points="332.52 341.8 332.82 341.78 333.28 341.67 332.52 341.8"/><path class="cls-2" d="M337.31,342.05a2.55,2.55,0,0,0-1.29.1A9.71,9.71,0,0,0,337.31,342.05Z"/><polygon class="cls-2" points="336.19 340.21 336.93 340.05 336.86 340.02 336.19 340.21"/><path class="cls-2" d="M361.28,340.87l.36-.16A2.75,2.75,0,0,0,361.28,340.87Z"/><path class="cls-2" d="M354.76,343.44c2-.21-1.14.63-.43.89l1-.44-.05.14,1.23-.43c-.31-.11-.51-.06-.52-.28,1.68-.45.6.07,1.9-.07l1.82-.69-.13.11c.16-.06.22-.1.26-.16,2-.81,4.05-1.67,6-2.66,1-.66-.76-.07-.1-.73-1.24.61-3.21,1.19-3.15,1.63,0-.08.06-.22-.22-.15l-.6.62.75-.18a8.15,8.15,0,0,1-3.59,1.43c1.35-.61.51-.74,2.5-1.27-.13-.06-.55-.11-.14-.33C359.1,341.88,357,342.38,354.76,343.44Z"/><path class="cls-2" d="M376.23,332.83v.05C376.26,332.83,376.26,332.82,376.23,332.83Z"/><path class="cls-2" d="M375.54,333.26l-.73,1,1.49-1.08-.06-.31a1.83,1.83,0,0,1-.8.69Z"/><path class="cls-2" d="M373.8,335.24c.74-.62.5-.88,0-.73.64-.6.59.06.88-.58-.15-.19-1,.52-1.14.69Z"/><polygon class="cls-2" points="367.64 338.57 367.81 338.32 367.21 338.59 367.64 338.57"/><path class="cls-2" d="M367.81,338.32l.6-.26a.58.58,0,0,0-.31-.16Z"/><path class="cls-2" d="M370,337.33a8.32,8.32,0,0,0,.86-.42Z"/><polygon class="cls-2" points="369.26 337.61 369.3 337.64 369.95 337.33 369.26 337.61"/><path class="cls-2" d="M368.41,338.06c.2.17.43.33,1.23-.18l-.34-.24Z"/><polygon class="cls-2" points="341.68 339.99 342.34 339.76 342.26 339.74 341.61 339.96 341.68 339.99"/><path class="cls-2" d="M345.61,339.56a2.59,2.59,0,0,0,.38-.21A1,1,0,0,0,345.61,339.56Z"/><path class="cls-2" d="M348.11,337.35c.82.06-1,.55.46.34.18.19-.43.62-1.13.67,0-.22.63-.28.16-.4-.39.34-.6.21-.37.49a8.38,8.38,0,0,0-1.24.9c.9-.3,2.91-.41,4-1.12.55-.53,0-.94-.11-1.49C349.73,336.65,348.09,337,348.11,337.35Z"/><path class="cls-2" d="M346.78,337.08a2.42,2.42,0,0,0-.67.18C346.21,337.44,346.5,337.16,346.78,337.08Z"/><path class="cls-2" d="M356.11,338.87c.05-.09.67-.41.49-.49l-1,.42A.54.54,0,0,1,356.11,338.87Z"/><path class="cls-2" d="M355.21,339l.43-.18A2.1,2.1,0,0,0,355.21,339Z"/><path class="cls-2" d="M356.18,338.91l-.07,0S356.11,338.91,356.18,338.91Z"/><path class="cls-2" d="M372.36,336.09c.07.14.45-.2.63-.37A4.27,4.27,0,0,0,372.36,336.09Z"/><path class="cls-2" d="M386.26,323.54l.38-.26A.93.93,0,0,0,386.26,323.54Z"/><path class="cls-2" d="M386.73,315.81a.2.2,0,0,1,0-.11A.22.22,0,0,0,386.73,315.81Z"/><path class="cls-2" d="M386.71,315.7c.05-.3.63-.94.62-1.3l0,.06.19-.55A7.63,7.63,0,0,0,386.71,315.7Z"/><path class="cls-2" d="M556.67,328.19c-.41-.28-.63-.69-.43-.64-.93-.47-.76-.7-1.15-.45-.63-.28-1-1-.28-.6-.54-.34-1-.71-1.56-1.09l.77.83c-.47.05-1.22-1.33-1.77-1.3l1.5,1.42h-.16a6.41,6.41,0,0,1,1.29,1.12c-.08,0-.12.11-.4-.13,1.87,1.66.91,0,2.57,1.17A1.78,1.78,0,0,1,556.67,328.19Z"/><path class="cls-2" d="M557.82,330.16l1,.15,1.13.89c.1-.11,1,.36.52-.15a2.36,2.36,0,0,1-.55-.3c.31-.18,1.68.91,1.51.39a6.1,6.1,0,0,0-1.83-.86,9.85,9.85,0,0,1-1.71-1.5c-.28-.14-.44,0-.77-.22l.22.15-.27.43a4.17,4.17,0,0,1,.85.54c-.58-.17-1.15-.35-1.71-.57.13.74,1.68,1.51,2.11,2.06C557.84,330.34,558.93,331.39,557.82,330.16Z"/><path class="cls-2" d="M557.08,328.56l0,0Z"/><path class="cls-2" d="M670.07,313.85c.25-.23.25-.38.24-.46-.95.85-1.92,1.67-2.91,2.47.18,0,1.13-.55.61,0a2.27,2.27,0,0,0,1-1.07l-.09.33c.52-.76,1.3-.78,1-.28l.05-.06,1.18-2.35C670.45,313,670.87,313.13,670.07,313.85Z"/><path class="cls-2" d="M672.77,248.55c.44.23.52.22.5.15A2.57,2.57,0,0,0,672.77,248.55Z"/><path class="cls-2" d="M671.41,311.86l.35-.74A3,3,0,0,0,671.41,311.86Z"/><path class="cls-2" d="M670.39,318.94s0,0,0,0l.18-.35h0Z"/><path class="cls-2" d="M681.44,298.16l.1-.21Z"/><path class="cls-2" d="M662.52,326.76l1.36-1.23c-.12.25.58-.26.36.08.1-.09.6-.5.42-.46l-.3.21c.56-.87,0-.68,1.11-1.82a2.72,2.72,0,0,0-1.49,1.21l-.36.31-.94,1.3Z"/><path class="cls-2" d="M690.12,265.17h0Z"/><path class="cls-2" d="M690.3,265.21l-.15,0C690.25,265.25,690.44,265.57,690.3,265.21Z"/><path class="cls-2" d="M671.39,312.25a.59.59,0,0,1,0-.39l-.26.56Z"/><path class="cls-2" d="M671,313.78l-1,1-.26.51C670.07,314.86,670.53,314.4,671,313.78Z"/><path class="cls-2" d="M680,299.85c1.54-2.4,0,.85.84-.18a9.59,9.59,0,0,0,.56-1.51c-1.07,2-.46-.65-1.61,1.31-.15-.5.53-1.6,1-2.19.79-.53-.14.79.07,1.17.44-.8.28-.71.3-1.15.82-1.17,1-2.77,1.89-3.26a3.16,3.16,0,0,0,.23-1.59c-.33-.28-.84,1.25-1.32,1.42.06-.05.2-.15.23-.08l-.48.72c.52-.65.32.3.14.71s-.46.86-.51.72l.16-.47c-.42.48-.42,1.36-1,1.81-.1,0,0-.26,0-.32a11.39,11.39,0,0,1-1,2.43v-.77c-.1,1-1.38,2.59-2.44,3.54.15-.08.36-.27.32-.08-.43.71-1,1-1,.57-.23.86-2.17,2.18-2.6,3.28q-.92,2.6-2.09,5.19a2.86,2.86,0,0,1,.37-.51c.6-.07.75-.29.39.55.45-.72,0-.7.89-1.59-.2.48,0,.87.88.05,1.82-2.4,2.3-4.58,3.54-7,.29.1,1.5-1.63,2.13-2.45a3.76,3.76,0,0,1-.77,1.86c.32-.39.83-1.09,1.2-1.6Z"/><path class="cls-2" d="M676.68,305.78a1.33,1.33,0,0,0,.19-.14A.94.94,0,0,0,676.68,305.78Z"/><path class="cls-2" d="M679,302.2l0,0,.13-.22Z"/><path class="cls-2" d="M672.34,312.24l-.23.47.23-.32C672.4,312.28,672.42,312.21,672.34,312.24Z"/><path class="cls-2" d="M671.56,312.28v-.15l-.16.12C671.42,312.31,671.47,312.33,671.56,312.28Z"/><path class="cls-2" d="M687.54,291.31l0-.28C687.52,291.19,687.52,291.26,687.54,291.31Z"/><path class="cls-2" d="M682.17,297.44c-.5.86.31.32-.45,1.52l.25-.33a20.8,20.8,0,0,1-2.18,3.4c0-.21-.61.46-.73.2a5.91,5.91,0,0,0-1,1.88c-.39.34-.7,1.1-1.22,1.53.3-.11-.2,1.07.69-.29-.06.12,0,.08,0,.2.84-.66.81-1.23,1.36-1.93.45-.32-.35.85,0,.49.59-.95,2.25-2.7,1.72-3,.42-.69.59-.71.82-.85.21-1.38,2.73-3.88,2-4.29a12.73,12.73,0,0,0-.78,1.73Z"/><path class="cls-2" d="M673.57,311l.15-.14Z"/><path class="cls-2" d="M662.17,317.47l0-.68c1.86-1.51,2.63-1.92,4.24-3.25.16,0,0,.15-.09.25a25.53,25.53,0,0,0,3.45-3.23c.34-.32,1.35-1,1.12-.6a2.8,2.8,0,0,1,.48-.57c.18.08-.38.44-.28.57.15-.14.24-.17.23-.24-.14.35.72.21-.49,1.33-.76.1.8-.82.18-.92-.39.37-.22.47-.21.54-.51.46-.58.36-.63.25-.09.3-.88.72-1,1.13-1,.92-.19-.32-.85.26l-.06.7-1.18.88c-1.53,1.47.79.46-.94,2.22.09-.41-1-.14-1.91.46a16.37,16.37,0,0,1,2.09-1.87c-1.2.47,1.28-1.1.5-1.05a5.41,5.41,0,0,1-1.79,1.6l.18-.19c-.7.46-.88,1.27-1.94,1.79-.45.36-.45.18-.43,0C662.54,317.23,662.23,317.55,662.17,317.47Zm1-.82.65-.42A1.77,1.77,0,0,0,663.12,316.65Z"/><path class="cls-2" d="M568,335.87l-.21-.13A.76.76,0,0,0,568,335.87Z"/><path class="cls-2" d="M639.07,335.89l-.45.14A3,3,0,0,0,639.07,335.89Z"/><path class="cls-2" d="M629.32,340.54l-.65.29A3,3,0,0,0,629.32,340.54Z"/><polygon class="cls-2" points="573.27 338 573.29 338.01 573.4 338.01 573.27 338"/><path class="cls-2" d="M607.94,342.78a2.65,2.65,0,0,0-.39-.08C607.57,342.75,607.72,342.77,607.94,342.78Z"/><polygon class="cls-2" points="629.44 340.49 629.39 340.49 629.32 340.54 629.44 340.49"/><path class="cls-2" d="M644,335.58l.27-.16A2.11,2.11,0,0,0,644,335.58Z"/><path class="cls-2" d="M642.84,334.53a1.36,1.36,0,0,0,.25-.16Z"/><path class="cls-2" d="M658.08,328.29l.52-.39A3.39,3.39,0,0,0,658.08,328.29Z"/><path class="cls-2" d="M644.53,334.2l.07-.1C644.52,334.15,644.49,334.19,644.53,334.2Z"/><polygon class="cls-2" points="564.95 332.78 564.98 332.8 565.02 332.75 564.95 332.78"/><path class="cls-2" d="M563.24,332.67l-.51-.24A2.83,2.83,0,0,0,563.24,332.67Z"/><path class="cls-2" d="M598.65,342.17c-.17-.08-.56-.18-.37-.25C598,342,598,342.26,598.65,342.17Z"/><path class="cls-2" d="M569,331.33a2.36,2.36,0,0,1-.38,0C568.86,331.37,569.07,331.4,569,331.33Z"/><path class="cls-2" d="M568.63,331.35l-.34,0Z"/><path class="cls-2" d="M602.87,338.08a.38.38,0,0,0,.19.06C603,338.08,603,338.06,602.87,338.08Z"/><path class="cls-2" d="M562.38,332.12c-.14.06-2.39-1-.64.13-.26.26-1.24-.54-1.75-.79.3.3-.29.09-.26.27a4.59,4.59,0,0,1,1,.47c.09.26-.57,0-1-.37.45.53-.88-.24-.16.42a12.44,12.44,0,0,0,4.62,1.79,12.31,12.31,0,0,1-2.95-1.63l.5-.06a8.68,8.68,0,0,0,2.35,1.45c-.66-.44-1.33-.83-2-1.3-.8-.79-.14-.47.62-.07C562.55,332.31,562.4,332.2,562.38,332.12Z"/><path class="cls-2" d="M565.08,330.46l0,0a.19.19,0,0,0-.1,0Z"/><path class="cls-2" d="M654.78,322.78l.1-.2C654.77,322.71,654.75,322.76,654.78,322.78Z"/><path class="cls-2" d="M565.53,332.45Z"/><path class="cls-2" d="M650.65,325v0A0,0,0,0,0,650.65,325Z"/><path class="cls-2" d="M652.59,331.69s0,0,0,0S652.67,331.66,652.59,331.69Z"/><path class="cls-2" d="M650.66,325s0,0,0,0A0,0,0,0,0,650.66,325Z"/><path class="cls-2" d="M629.7,334.35a.78.78,0,0,0,.21.06S629.89,334.35,629.7,334.35Z"/><path class="cls-2" d="M634.21,333.52h0Z"/><path class="cls-2" d="M599.75,343.62a4.53,4.53,0,0,0,.56,0A2.69,2.69,0,0,0,599.75,343.62Z"/><path class="cls-2" d="M650.66,325a1.24,1.24,0,0,1,.15-.21A.76.76,0,0,0,650.66,325Z"/><polygon class="cls-2" points="623.26 337.55 623.4 337.48 623.31 337.48 623.26 337.55"/><path class="cls-2" d="M620.86,337.78a.92.92,0,0,0,.14-.13c-.82.28-2.4.43-2.53.78.29,0,1.81-.13,1.59.11.58-.19,1.5-.11,1.81-.23-1,0-.16-.25.47-.5.61,0-.06.29.47.24l1.37-.32-1.21.21.29-.39-.11.05C621.16,338.16,622.89,337.19,620.86,337.78Z"/><path class="cls-2" d="M621,337.65a1.51,1.51,0,0,0,.31-.14A.55.55,0,0,0,621,337.65Z"/><path class="cls-2" d="M612.63,338.36l-.35.09Z"/><path class="cls-2" d="M668.88,315.9c-.08,0-1.13.55-1,.73l.88-.62Z"/><path class="cls-2" d="M589.76,339.75l.4.06.08,0A1.21,1.21,0,0,0,589.76,339.75Z"/><path class="cls-2" d="M619.72,338.73a.82.82,0,0,0,.34-.19A1,1,0,0,0,619.72,338.73Z"/><path class="cls-2" d="M589.76,339.16c-.17-.1-.4-.24-.42-.34a8,8,0,0,0-1,.06A4.69,4.69,0,0,1,589.76,339.16Z"/><path class="cls-2" d="M669.5,315.53l.21-.25-.09.16.68-.48.23-.25a.17.17,0,0,0,0,.12l.22-.15c.33-.62,1.4-1.85,1.64-2.29a10.85,10.85,0,0,1,1.23-1.38c-.32.3-.7.74-.48.72.74-.51,1.37-.51,2.19-1.88l-.64.65,1-1.84c.66-.36-.49.92-.54,1.27.89-1.33,2.32-1.82,2.44-2.7.28.11.76.3,1.42-.53-.73.38.24-.61-.42-.36.1-.38.82-.83.69-1l0,.15c1.47-1.11,1.25-2,1.51-2.76,1.14-1.77,1.82-2.48,2.69-4a1.35,1.35,0,0,0,1.23-.7c-.05-.4.59-1.83.37-2.13-.71,1-.23,1-.53,1.7-.61.36-.33-.12-.93.5.47-.51,1.34-2.73,1.94-3.25l-.08.25c.7-1,1.56-.83,1.9-2.85l.17-1a.23.23,0,0,0,.06.11c.58-1.43.8-.91,1.06-2.63,0,.13.05.07,0,.2a7.07,7.07,0,0,0,.5-2.66c.38-.36.23.17.35.5a10,10,0,0,0,.22-4.67l.29-1.06c.05.65.22,1.49.42,1.31a4.52,4.52,0,0,1,0-1.36,3.5,3.5,0,0,1,.45,1c.5-1.77-.57-.46.09-1.67.05-.57-.2-.91-.41-1,.12-.33.22-.67.32-1-.26-.12-.27-1.37-.35-2.19-.12-.09-.27.67-.16,1-.21-.06-.33-.91-.37-1.46.62-.26-.46-3.59.28-3a28.28,28.28,0,0,0-2.54-7.25c-.06-.56-.52-1.58,0-1.08-.87-1.85-1.88-2.47-2.82-4.22,0-.18.49.75.61.59-.88-1-1.09-2.13-2.49-3.63.22.25.37.26.45.26s-.67-.54-1.09-.87c-.15-.26.31.26.26.08-2.39-3.19-5.21-4.62-8.34-6.86.9.64,1.46.6,1.56.48l-.89-.65c-.45-.1-1.13-.56-1.78-.81,0-.11-.28-.35.06-.24-1.64-1.5-3.24-1.18-5.49-2.54,1.07.25,2.13.52,3.2.84l-.57-.63,1.42.41c-.64-.62-1.54-.55-1.49-.85.2,0,.57.25.66.12-.67-.5-.84-.34-1.41-.58,1.74.22,4.54,1.9,6,2.81.26.12-.27,0-.35,0,.6.39.85.78,1.62,1.24.6.14-.23-.4-.57-.69.18-.13.35,0,.76.28-.07.28,2.1,1.76,2.34,2.46,2,1.71.19-.85,2,1l.32.78a15.85,15.85,0,0,1,3.72,3.65l-.22-.28c-.26-.11-.09.26,0,.45.67,1.11,1.65,1.86,1.79,2.71a21.63,21.63,0,0,1,3.31,4.7c-.2.59-1.22-1.92-1.82-2.41.23.46.47.92.68,1.4a3.58,3.58,0,0,0-1.22-1.52c.55,1.23,1.08,1.46,1.69,2.6-.15-.05-.13.13.08.68l.33.05s0,.09,0,.27c.33.69.63,1.4.92,2.11,0-.5.2-.6,0-1.17-.09.26-.29-.22-.49-.78.36.43-.06-.6.09-.64l1.22,3.28-.19.31c.23,1.13.64,2.28.69,3.07l-.18-.22a15.75,15.75,0,0,1,.32,3.92c.4,1.2.64,2.75.91,3.78.35.58-.67,3.59-.49,5-.05.08-.08-1-.16-1.48-.18.9.12,1.7-.29,1.92.47-2-.3.06-.24-.87a17,17,0,0,0-.28,2.43c.34-1.52.37.65.55-.93a11.14,11.14,0,0,1-.81,4.32c-.14-.06-.26.09-.49.59l.07.49c-.26.63.17-1.34-.34-.06-.08,1.48-1.74,3.86-1.37,4.7-.7.86.58-2-.39-.64.15-.95.9-2,.69-2.46-.25.88-.41.2-.63.74l-.2,1,.11-.2a26.55,26.55,0,0,1-2.79,6,16.61,16.61,0,0,1-2.24,4.92c.21-.65-1.25,1.37-.74,0-.75.71-1.19,1.64-1.08,1.75.59-.68.23-.22.75-.78a4.87,4.87,0,0,1-1.3,1.76c.15-.17.07-.13.06-.2-.78.75-.19.51-.62,1.16-.35,0-1.17,1.27-1.75,1.71l-.41,1c.2-.58-.74.67-1,.63a6.41,6.41,0,0,1-1.44,2.06c.24-.42-.87.58-1.05.42-1.55,1.14-1.87,2.68-3.49,3.59,0-.08.18-.44-.27-.15a15.44,15.44,0,0,1-1.18,1.08v0c-.16.15-.25.26-.22.31a9.7,9.7,0,0,1-1.67,2.21c.27.16,1.21-.71,1.59-1.14l.2-.51c.63.05,1-.93,1.36-1-.36,1-2.49,2.53-3.57,3.72a13.44,13.44,0,0,0,4.1-2.73l-.74.39.74-.62-.91.36c.74-.53,1.29-1.1,1.92-1.63-.73.64-1.26.58-.81.27,1-.48.72-.85,1.34-1.39-.36.29-.8.67-.62.3,1.42-.81,1.59-1.27,2.91-2-.46-.21,1.28-1.31,1.16-1.75l-.51.46.8-1.23c1.21-.68-.53,1.13,1.07-.15,1.33-1.33.92-1.64,1.86-2.77a6.05,6.05,0,0,1-1.52,2.46l.59-.43a11.69,11.69,0,0,1-1.9,2.13c.73-1.2-.51.4-1.13.64.1.27.7-.37.11.51.69-.68.78-.79,1.71-1.6-2,1.8-1,2.37-2.9,3.81.71-.82-.54,0-.73-.05-.35.36-1.07,1.09-1.35,1.41l.55.05c-.92,1-1.81.68-2.77,2,0,.32,1.12-.81.93-.6-1.5,1.55-2.51,1.53-4.19,2.42a1,1,0,0,1-.26.9c0-.31-.44-.11.06-.69a6.69,6.69,0,0,0-1.47,1.26c1.15-.65-.24.59-.36.84-.59.36,0-.31.34-.61-.48.27-1.22.35-1.27.81-.16-.19.88-1.4,1.66-2l-.58.36a2.87,2.87,0,0,1,1-.76c-.65.23-.72,0-.7-.22.09,0,0,.08.08.06.47-.27.77-.57.59-.6.19-.56-.72.28-1.12.35l-.63.53-1.7,2.46a7,7,0,0,1-2.38,1.19l0,.37c-.91.53-1.8.95-1.41.29.08.07.18,0,.38-.13a.37.37,0,0,1,.08-.15l0-.07-1.52,1.1c1.41-1.32-.18-.49-.17-1.09L657,327.66c1.07-.43.14.21-.18.47-.24-.2-1.34.75-1.94,1v-.07a12.07,12.07,0,0,0-2.18,1.14c.08.08-.59.93-.9,1.4,1.24-.5.58,0,.76.07a1.12,1.12,0,0,0-.37.19c-.13.16.29,0,.36.05,1.21-.74,2.48-1.46,2.8-2.08-.47,0-.57.5-1.06.62a9,9,0,0,1,2.35-1.5h.45l1-.69c-.36.36,0,.42-1,1.08.25.12,1.05-.65,1.75-1l.17-.47c0,.23,1.39-.57.51.23l-1.5,1.17.56-.07-1.37.84.25-.33c-2.15,1.43-1-.18-3.06,1.36a6,6,0,0,1-2.76,1.76c1-.58,0-.29.27-.69a4.21,4.21,0,0,0-1.82,1.22c-.35-.07-.61-.12.34-.54-.06-.44-1.21.65-1.48.28-3.12,1.4-1.95,2.44-5.91,3.43l.07-.22c-2.31,1.12-3.78,1.41-6,2.29l-1.92.14c.38-.19,1.34-.86.78-.9a11.24,11.24,0,0,0,2.86-.38c.05-.14-.35-.1-.54-.11a8.37,8.37,0,0,0,1.61-.42c-.07-.08-.9.09-.32-.17l1.09-.09c1.28-.62.42-.87,2-1.33a3.22,3.22,0,0,1-1.24,1.18c.73-.22-.89.5-.19.4.89-.73,1.49-.64,2.76-1.4a1.54,1.54,0,0,1-.48.35l2-.64c-.56,0,1.52-.89,1.21-1.12-2.12.75-1.44.68-3.88,1.46a5.15,5.15,0,0,0,1.68-1.43.36.36,0,0,0,.14,0c.23-.44-.17-.37-.37-.89-.92.81-1.75.8-2.94,1.48-.13.38.88.09,1.48-.23l-1.05.62.17-.22-2.89,1a2.22,2.22,0,0,0,.9-.67,7.47,7.47,0,0,1-1.18.23c.17.24.19.46-.17.58a9.4,9.4,0,0,1-3.78.55l-.21.09c.4.19-1.17.91-1.67,1.38-.06-.31-1,.09-1.61.1-.19.42.32.78,1.07.87,1.19-.68.63-.52,1.1-1.14l1.94-.91-.37.41c1-.2,1.91-.87,1.95-.5-.46.41-1.39.55-1.85.95l.72-.08c-1.08.72-.72-.14-2.08.53.62.15-.13.07-.69.45.56.07,2.52-.85,2.25-.21-.7.45-2.72.17-3.57,1l0-.07a5.85,5.85,0,0,0-2.46,1.09,10.9,10.9,0,0,0-2.18.63l0-.16-1,.29c.4-.38,1.14-.26,2-.49l-.17-.26c1.05.1,1.56-.58,2.23-1-1,.54-3.06.71-3.19,1.31l-.74-.13-.3.18c-.54-.1-.11-.55.85-.84.18,0,.27.05.23.12a4.91,4.91,0,0,1,1.88-.75l-.54.3a7.83,7.83,0,0,0,2.93-1.16c-2,.41-3.87.87-5.7,1.29-.39.77-1,1.25-1.12,1.9a15.13,15.13,0,0,1-4,.75l.08-.13a5.64,5.64,0,0,0-1.43.29c-.58-.07.34-.38-.07-.4l-1.77.48c.07-.3,1.59-.52,2.3-.66-.13,0-.4.14-.3.16.85,0,2.32-.78,2.75-.45.4-.14-.77.44.61.2,1-.05,1.18-.45,1.25-.59s-1.48.09-1-.2a6.35,6.35,0,0,1-1.89.43c.7-.14,1.6-.63,2-.48,1.33-.57,1-1.23.32-1.14.21.19-2.46.79-.59.71a23.32,23.32,0,0,1-3.31,1.1l0-.07-1.33.28c.17-.11.57-.23.56-.39l-1.8.69c1-.44-.68-.07-1.17-.15-.17.26-.88.52-.16.57s.44-.18,1.15-.31l-1,.51-.09,0-.58.38c-1.39.15.52-.78-1.22-.26l.28.38c-2.08.2-4.78-.05-6.22.23.39-.26.54-.65,0-.84a19.54,19.54,0,0,0,2.78-.19c.19.07-1.08.58-2.06.56.52.65,2.43-.59,2.6.07,2.52,0,1.78-.83,3.94-.7,0-.31.58-.23.65-.51-.69-.42-2.8.38-4.19.33a1.36,1.36,0,0,0,.45-.18,7.48,7.48,0,0,0-2.06.29l.09,0c-1.17.39-.75-.17-1.46-.26-.27.07-1.25,0-1.08.27l-1.29-.24.08.35c-.72,0-.88-.17-1.53.07l0,.3,1.8,0c-.9.14-.24.31-1.24.42,1.11-.39-.79-.14-.91-.42l-.73.18.18-.08c-.58-.15-.68.12-1.36.1a4.52,4.52,0,0,0,2.34.12,17.38,17.38,0,0,1-2.56.42,7,7,0,0,1-2.05-.14c1.4-.11-.48-.91,2.3-.71-.05.06-.27.05-.36,0,.37.38,1.66-.06,2.26-.22-.16-.22.46-.29-.6-.4.35.14-.89.52-1.91.36l.18-.49-1.47-.06.14,0c-.55-.32-1.57.06-2.57-.16-.74.16-3.53-.12-2.35.44-.89-.36-1.71,0-2.71,0l1.22.28a7.54,7.54,0,0,0-2.28.5c-.11-.15-.36-.28-.11-.4-2-.18-4.76-.72-6-.52-1.39-.24-1.5-.86-3.47-1-.42,0,.23.51-1,.1-.08-.06,1.3-.09-.13-.36-1.1.16-2.32-.76-3.7-.77-.65-.33-1.86-.62-1.52-.83a9.34,9.34,0,0,0,2.88.64c-.19.14.74.36-.1.29,1.6.63,1.11.11,2.56.57.13-.09-.69-.48-1-.44.09-.4,3,.44,1.75-.32-1.56-.36-2.23.34-3.49-.42.6-.11,1.41.33,2.2.06l-1.08-.42-.88.08.07-.05c-1.87-.85-1.92-.09-3.74-.4.94.57-.44.6.28,1-1.2-.31-2-.66-1.93-1,2.29.39.25-.35,2.39-.11-.28-.24.65-.42-.53-.82-1.43-.16.3.45-1.08.14-.07-.06-.14-.12-.07-.16-.68,0-.7-.29-1.51-.34l.2,0c-.83-.56-1.09-.1-1.78-.63.2.4-.62,0-1.16,0a9.2,9.2,0,0,0,2.62,1.54c.27-.16.2-.31.89-.21l-1-.33c.23,0,.42.05.64.08l1,.44c-1.32-.26-.82.18-1.44.22-1.12-.51-1-.28-1.67-.61.19-.29-2-1.4-3.18-2.19l.59.28c1,.21-.52-.55-.52-.65l-.74-.15c.14,0,.34,0,.08-.13-.94-.34-1,0-2-.42,0-.2.9-.08.39-.45a3.12,3.12,0,0,0-1.76-1.41,2.46,2.46,0,0,1-.8-.27l.15,0-.66-.61c.8.1,1.24.86,2,.94l.2-.24a5,5,0,0,0,1.66.5,19.1,19.1,0,0,0-1.85-.84c0-.24.64,0,.74,0l-.21.09c.93.74,1.67.54,3,1.17.2.1.07.07,0,.1,1.18.22,2.08,1,3.28,1.08l-.4,0c.76.17,2.28.4,3.79.59l0-.11c-.14-.12.4.05.67.19h0l2.07.23a2.31,2.31,0,0,0-.63-.34c-.26.08-1.52-.46-1.44-.09-.54-.38-1.59-.42-2-.71.73.49-.65.09-.85.2-.2-.28-1.19-.42-1-.64-.13-.12.33.33.72.29.92.08-1.43-.78-.31-.61-1.37-.33-3-1.12-4.44-1.51l.68.44a11.74,11.74,0,0,1-2-1.09c.45.18.94.43,1.51.66.16-.27-1.31-.65-1.28-.85-.61-.1-1.2-.24-1.81-.38l.68.39a13.19,13.19,0,0,1-2.84-1.71c.8,0,1.55.92,2.76,1.37.87.29-.31-.63.5-.31a1.93,1.93,0,0,0-.94-.49l-.26-.23c.84.05,2.32.92,3.49,1.11a.63.63,0,0,0-.25,0,8.13,8.13,0,0,0,2.36,1.13,1.46,1.46,0,0,0-.81-.36c0-.1.76.2,1.08.21-.68-.41,0-.26-.48-.52a7.17,7.17,0,0,1,1.45.58c.24.26-.33.08-.34.28.65.13.75.69,1.72.81-1.16-.51.46-.27.91-.25l-.19-.08a.87.87,0,0,1,1,.32c-.52-.1-1-.32-.9-.06a5.71,5.71,0,0,0,1,.28l-.38,0,1.62.48a4.36,4.36,0,0,0,1.14-.45,2.41,2.41,0,0,0,1.3.34l-.19,0a5,5,0,0,0,2.48.51c.49.29-3.95.16-.23.93,1.4.35,1-.33,1.84-.35,0,0-.06.05,0,.1.6.18.71,0,1.23,0a2.49,2.49,0,0,0-1.07-.24c.24-.19,1.26.31,1.77.21-.68.24,1.17.36.65.45a5.94,5.94,0,0,0,3.24.22c.77.59,1.48.13,2.81.52-.2,0-.59,0-.88-.11-.81.19,1.4.33.17.44.26,0,0-.15-.24-.14-.46,0-.91.05-.81.19l1.09.4-.4,0c.55.18,1.11.39,1.66.55.06-.05-.1-.14-.17-.19a49.91,49.91,0,0,0,6,.44c.36-.79,4.31-.22,5.72-.8-.38.24-.58.66-.34.83a5.21,5.21,0,0,1-1.68.31c-.11-.14-1-.29-.43-.44-2,.08.27.36-.32.66a24.35,24.35,0,0,0,4.86-.83l0,.1,1-.23c-.86,0-.84-.48.26-.37l-.13,0a14.28,14.28,0,0,0,2.9-.2l.63-.31c1-.07,1.07.42,1.41.69a10.83,10.83,0,0,0,3.42-1c.52.17,2.8-.15,1.64.31,1.35-.42.88-1.48,3.32-1.27l-.57.31c2.24-.41,5.3-1.52,6.36-1.55-.64.94,2.94.08,3.52.67-.15-.14.67-.41.77-.53a1,1,0,0,0,.81-.21c-.9.1.39-.9-1.17-.16a7.35,7.35,0,0,1,3.45-1.91l.06.3-1.45.34c.21.18-.53.37-.8.56,2.71-.61-.15.8,2.57-.05.2-.27.06-.14.73-.44-.32.12-.32.34.22.17l.43-.39c1.11.18-1.46.81-.55.9-1,.56-2.78,1.23-2.33,1.5,1.78-.38,1.35-1.15,3.2-1.56l.25.09c.6-.31.61-.61.9-.87.06.08.24.09.65,0,.93-.74,1.6-1.06,2.41-1.82-2.45,1.23-2.28.52-4.86,1.67.39-.25,2.23-1,2.2-1.41l.08.29a12.4,12.4,0,0,1,2.71-1.21l-.59.41c1.34-.73,2.53-.46,3.45-1.38a4.88,4.88,0,0,0-.94.4,14,14,0,0,1,2.39-1l1.4-1.16c0,.15,1.06-.31.68.14,1.24-.31,1.58-1,2.21-1.36,1.3-.26-.95.61-.88,1.05a14,14,0,0,0,4.07-2.3c-.35.11-.53.14-.55.07s.72-.29,1.07-.47l.15-.31c.64-.19.62-.05.19.36.58-.27,1.07-1,1.77-1-.83.75-2.15,1.21-2.58,1.6,1.91-1.23,2.32-.52,4.69-2.19.08.07-.25.48.24.2,1.07-.72.08-.53.31-.92a3.23,3.23,0,0,1-1.87.8l.15-.27c.07.05.61-.26.81-.28l0-.36c.12.35,1.12.09,1.71-.44-.81.18-.62.08-1-.17.73-.89,1.26-.3,2.07-1.31,0,.15-.87.79,0,.38.65-.4.41-.58.79-.94-.31.57-.07.68-.4,1.32a14.75,14.75,0,0,0-1.54,1.11l1.1-.37c-1,.65-.54.74-.56.89,1.86-.79,1-1.19,2.15-1.81.4-.51-1,.62-.34-.09,1-.62.12-.32,1.16-1.16l-.11.24c.44-.08.65-.49,1-.78s-1.07-.53.63-1.77c0,.13,0,.2,0,.23-.06,1.1-.15,2.19-.25,3.29l6-4.13c.78,0-1.17,1.46-.92,1.54l-1,.63c-.07-.21,1.9-1.54.84-1.2-1.54,1.38-2.44,1.72-3.79,3.21.79.06,2.06-1.57,3.3-2a6.88,6.88,0,0,0-1.09.93c1-.66,2.08-1.37,3.19-2.18l.16-.28c-.75.53-1.27.89-1.35.93,1-.72,1.61-1.59,1.44-1.92l-.18.12.27-.37Zm5.59-66h.21C675.24,249.53,675.26,249.59,675.09,249.52Zm-25,79.91c1.49-.68,3-1.33,4.42-2.05-2.86.7-4.84,1.1-.69-1.06l.25-.2a20.38,20.38,0,0,0-2.38,1.2c-.58.61-2.52,2.6-2.47,2.66.35,0,.63-.32,1.13-.49Zm-1.57-.61c-.86.32-.61.38-.67.57l.85-.46C648.58,329,648.51,328.93,648.53,328.82Zm-.56.68a.65.65,0,0,1,.23-.07Zm15.62-8.73-.07.07.56-.36A2.1,2.1,0,0,0,663.59,320.77Zm-1.74.77,0,.34.54-.32A.55.55,0,0,0,661.85,321.54ZM656.33,324c-.16.47-1.25,1.11-1.14,1.46,0,.12.23,0,.5-.09l.94-.51c0-.06,0-.14.11-.24-.35.15-.61.19-.59-.08,1.07-.06.57-.72,1.51-1.15C657.8,323,656.55,323.72,656.33,324ZM580,337.36a3.12,3.12,0,0,0-.21-.28h.75c1.23.39,2.15,1.12,3.38.91a2.61,2.61,0,0,1,1,.75c-.26-.07-.5-.13-.7-.2C580.85,338.52,582.68,337.54,580,337.36Zm14.73,2.92a.35.35,0,0,0-.19.07,41.92,41.92,0,0,1,6.92-.61,8.24,8.24,0,0,0-2.37-.6l.6-.3.36.24,1-.27c-.29-.21-1.1-.17-1.65-.33,0,.07-1.81.35-2.31.53l1.4.26a23.17,23.17,0,0,0-3-.07c0,.15,1.25.46,1.42.13.15.24-1.33.17-.41.45a11.32,11.32,0,0,1-3.69-.32l-.1-.39c-.88-.24-.65.4-1.69.07,1.31.05-.18-.43.86-.36-.31-.18,0-.39-1-.48-.91.4-1-.45-1.91-.11-.52-.22.62-.22-.43-.43-1.25.08-1.21.28-1.34.63,1.13.28,1.35-.27,2.27-.07-.64.14-1.29.26-1.94.36a2.21,2.21,0,0,0,.8.2,2.9,2.9,0,0,0-1,.11l-.46.11a8.14,8.14,0,0,1,2.15.48l-.17.16a1.9,1.9,0,0,0,1.3.07c1,.11,2-.07,2.13.19l-.38.12Zm38.58-4.21c-.89-.43-1.79-.72-5,.23l.24-.12c-1.72,0-3,1.32-5.16,1.3a5.52,5.52,0,0,0,1.81-1.2l-1,.42c.21-.41-.78,0-1.55.13l.59-.56a3.86,3.86,0,0,0,1.61-.28,5.48,5.48,0,0,0,2.63-.2c-.17-.24-2.22.35-1.4-.32-.77.38-.94.13-1.76.43.77-.38.11-.43.67-.78l-1.37.41c0-.07,2-.66.77-.74-.52.28-2,.39-2,.7l0-.09c-1.06.15-.37.55-1.7.6,0,.16.29.22.74.1a4.77,4.77,0,0,1,1.19-.58c.4.17-1,.18-.34.46.32.14,2.08-.61,1.6,0l-1.07.16c0,.3-.73.44-.66.68-.62.25-1.29,0-1.91.4-.24.24.31.52-.82.56-.93-.29-3.44.18-4.38.36l-.81.3c.09.18,1.59-.23,1.08.09l-1.29.24.09-.13a5.45,5.45,0,0,0-1.25.32c.38-.27,1.33-.3,1.1-.59a4.92,4.92,0,0,0-1.28,0c.12,0,.23-.08.21-.12-1.25,0-1.16.48-1.46.61-1.21.54,1.3.26,1.17.61-1.21.17-2.43.37-3.66.5.31-.12.62-.25.49-.37-.91-.09,0-.25-1.3-.14.12.44-1.57.38-2.46.66-.42-.16-.51-.19.4-.24-.12-.29-1.34-.11-1.77-.13-.25.08-.68.13-1,.2.37.13.22.31-.57.45l-.05.06c1.31.07,3.36.29,4.16,0l-.22.15c1.53.17,3.25-.73,4-.25-.05.21.31,0,.31.32l1.09-.35-.22.16,1.88-.27,0,.07,2.07-1c0-.14-.08-.17.2-.31a2.62,2.62,0,0,1,.72-.17h0c.46,0,.79.12,1.37.11l-1.73.3c-.11.24.07.46,1,.48-.35.06-.47.26,0,.22,0-.06,1.12-.32.68-.43,1.63-.32,4.43-.24,6.83-1.2-1.74.63,1.51,0-.46.51,1.47.07,1.11-.62,2.53-.89.15.1-.77.17-1,.49,2.39-.4,3.8-1.53,6.07-2.05l.17.25Zm4.26-1.74,1.25-.55-.13,0,1.19-.67c-.81.18-1.43.06-.4-.46-.05.14.32.16,0,.36.78-.1,2.43-.54,1.86-.79-1.24.9-.52-.39-1.5.3a9,9,0,0,1,1.61-.91c-.48.45.32.45,1.22.21.35-.21,1.38-.57,2-.92-.32-.15.15-.52-.87-.16a5,5,0,0,1,1.56-.66c-.23.15-.65.37-.58.45a5.7,5.7,0,0,0,1.28-.19l.61-.32a.39.39,0,0,1-.19,0l.6-.53c-.87.54-.48.08-.53-.06.1.29.61-.23.92-.38h-.82c.26-.3,1.26-.32,1-.53a22.14,22.14,0,0,0-3.32,1.49h.64c-1.43.79-1.09,0-2.77.68-.61.5-2.53,1-2.41,1.44.17-.2-1.2,0-1.72.41-.51.63-2.48,1.35-1.82,1.33.54-.18,1.19-.64,1.71-.53l-1,.44h.76C637.19,333.86,637.3,334.06,637.57,334.33Zm23.72-8.41,0,0,0,0Z"/><path class="cls-2" d="M564.39,332.43c-.33-.06-1-.46-1-.19C563.5,332,564.66,332.89,564.39,332.43Z"/><path class="cls-2" d="M563.67,331.76c-.07,0-.09.13-.4,0l.89.42Z"/><path class="cls-2" d="M563.68,329.8a3.41,3.41,0,0,1-1.48-.58c.08-.66,1.17.51,1.75.2-1.16-.76-1.8-.55-2.79-1.15C561.47,328.82,563.41,330.19,563.68,329.8Z"/><polygon class="cls-2" points="564.6 329.45 563.87 329.18 563.92 329.24 564.65 329.52 564.6 329.45"/><path class="cls-2" d="M578.85,340.7c0,.2.58.15.86.17A2.3,2.3,0,0,0,578.85,340.7Z"/><path class="cls-2" d="M690.37,260.73a38.47,38.47,0,0,0-3.8-5.51A41.09,41.09,0,0,1,690.37,260.73Z"/><path class="cls-2" d="M599.64,342.12a35.35,35.35,0,0,1-4.15.44c2.24.49,3-.45,4.87-.05Z"/><path class="cls-2" d="M599,343.63c-.27-.36,1.31-.41,1.07-.67-1.14.07-.54.34-1.57.28Z"/><polygon class="cls-2" points="591.93 337.28 592.43 337.14 592.04 337.17 591.93 337.28"/><polygon class="cls-2" points="606.72 343.19 606.54 343.27 607.39 343.35 606.72 343.19"/><path class="cls-2" d="M606.36,343.37l.18-.09Z"/><polygon class="cls-2" points="592.62 336.57 591.92 336.43 591.55 336.56 592.62 336.57"/><path class="cls-2" d="M598.86,338.87l-.66.08C598.33,338.94,599.22,339.12,598.86,338.87Z"/><polygon class="cls-2" points="611.88 342.95 612.69 342.73 612.61 342.7 611.8 342.92 611.88 342.95"/><path class="cls-2" d="M603.93,337.87c-.45-.26,1.29-.1.36-.32C603.48,337.61,603.81,337.74,603.93,337.87Z"/><path class="cls-2" d="M613.61,339a1.67,1.67,0,0,0,.32-.08Z"/><path class="cls-2" d="M613.61,339a4.12,4.12,0,0,0-.93.08A1.57,1.57,0,0,0,613.61,339Z"/><path class="cls-2" d="M617.56,338.42l-.32,0c.3-.18.15-.13-.12,0s-.3.14-.32.21l-.19.13.25-.14C617.38,338.59,617.69,338.53,617.56,338.42Z"/><path class="cls-2" d="M633.32,339.64c-1.2.24-1.51.27-1.51.05-1.12.24-.86.54-1.51.8C631.55,340.12,631.84,340.15,633.32,339.64Z"/><path class="cls-2" d="M630.3,340.49l-.43.13A2.23,2.23,0,0,0,630.3,340.49Z"/><polygon class="cls-2" points="612.67 336.73 613.34 336.32 613.09 336.4 612.67 336.73"/><path class="cls-2" d="M635.07,339.23a3.07,3.07,0,0,1-.75.14C634.32,339.6,635.29,339.18,635.07,339.23Z"/><path class="cls-2" d="M629.5,336.47c-.15-.09-.86.17-1.17.2C628.76,336.59,629.21,336.88,629.5,336.47Z"/><path class="cls-2" d="M638.1,337.32c-.21.06-.58,0-.5-.18C637.33,337.34,637,337.84,638.1,337.32Z"/><polygon class="cls-2" points="631.57 335.94 631.39 335.92 630.66 336.27 631.57 335.94"/><path class="cls-2" d="M628,333.65c-.79.47,1.51.23.09.83,2-.24-.24-.31,1.18-.64C628.44,334,628,333.76,628,333.65Z"/><path class="cls-2" d="M629.29,333.84a3.39,3.39,0,0,0,.39-.08Z"/><path class="cls-2" d="M641.66,331.46a2,2,0,0,0-.25.19Z"/><path class="cls-2" d="M633.66,332.35l-1.16.75c.78-.48,2.9-1.16,2.64-1.48a4.57,4.57,0,0,0-1.78.78Z"/><path class="cls-2" d="M650.69,333.08l-.48.4.71-.29C650.69,333.24,650.93,332.82,650.69,333.08Z"/><path class="cls-2" d="M651.05,333.14l-.13.05A.24.24,0,0,0,651.05,333.14Z"/><path class="cls-2" d="M639.35,332.53a5.08,5.08,0,0,0-1.09.45C638.44,333,639.48,332.69,639.35,332.53Z"/><polygon class="cls-2" points="654.27 330.69 653.41 331.21 654.37 330.69 654.27 330.69"/><polygon class="cls-2" points="658.67 329.01 658.86 328.99 659.51 328.45 659.32 328.48 658.67 329.01"/><path class="cls-2" d="M649.91,325.25c-.58.24-.88.77-.69.76l1.09-.57c-.41-.12-.3.16-1,.41Z"/><path class="cls-2" d="M684.62,305.85c0,.35-1,1.46-1.2,1.4.06-.2.47-.88.08-.56l-.33,1.21c-1.2,1,.23-1.31.53-2-1,1.21-1,1.76-2.09,3a3.8,3.8,0,0,1,.89-.64c.3.18-.8,1.29-1.52,2.13.58-.43.41,0,.17.44a.38.38,0,0,0-.09.18l-.09.17.1-.1s.07,0,.18,0a14.82,14.82,0,0,1,1.63-1.6c-.81.11,1.21-1.67,1.53-2.4l.48-.74.2-.26c.09,0,.1.1-.12.57.18-.39,1-1.52.8-1.52.62-.87,1.21-1.76,1.78-2.66a1.21,1.21,0,0,1,.23-.19c0-.11,0-.14,0-.14a52.46,52.46,0,0,0,5.87-12.89c-.24.68-.56,1.22-.85,1.88,0-1.15-.45,1.1-.68.68a4.4,4.4,0,0,1,.52-1.53c-.12-.2-.46.32-.64.18-.78,1.59-.08,2.13-.87,3.69-.16-.14-.12-.7-.55.34l.08-.28c-.51,1.75-1,1.07-1,2.34l-.26-.16a14.15,14.15,0,0,1-1.29,3l0-.07c-1,2.32-.62,1.26-2,3.68l.4-1.27c-.65.72-.43,1.12-.86,1.66,0-.07-.29-.06,0-.63-.47,1-1,2.06-1.49,3.07C683.86,306.65,684.44,305.87,684.62,305.85Z"/><path class="cls-2" d="M681.61,308.91a5.34,5.34,0,0,0-.4.47Z"/><path class="cls-2" d="M693.9,288.3l-.27,1A5.63,5.63,0,0,0,693.9,288.3Z"/><path class="cls-2" d="M678.89,313c.52-.32-.14.48-.13.63l1.44-1.53c-.09-.08-.05-.32-.16-.36Z"/><path class="cls-2" d="M680.78,311.74a1.36,1.36,0,0,1,.19-.55l-.77.86C680.27,312.1,680.42,312.06,680.78,311.74Z"/><polygon class="cls-2" points="675.95 307.65 676.17 307.38 676.45 306.94 675.95 307.65"/><path class="cls-2" d="M679.81,303.87a3.05,3.05,0,0,0-.9,1.14A13.73,13.73,0,0,0,679.81,303.87Z"/><polygon class="cls-2" points="677.61 303.54 678.05 302.81 677.98 302.85 677.61 303.54"/><path class="cls-2" d="M694,280.79l0-.46A4.4,4.4,0,0,0,694,280.79Z"/><path class="cls-2" d="M692.77,288.93c1-2.1-.15,1.53.47,1l.22-1.26.09.14.35-1.5c-.27.26-.35.48-.53.36.56-2,.4-.55,1-2,.15-.76.27-1.52.37-2.29l0,.19a.62.62,0,0,0,0-.35,38.84,38.84,0,0,0,.2-7.85c-.25-1.42-.34.8-.71-.22.14,1.64-.16,4,.24,4.19-.05-.05-.16-.16-.23.16l.29,1,.17-.9a9.81,9.81,0,0,1-.45,4.57c.15-1.75-.37-.93.11-3.31-.12.1-.35.52-.36,0A71,71,0,0,1,692.77,288.93Z"/><path class="cls-2" d="M690.28,261.28h0S690.26,261.23,690.28,261.28Z"/><path class="cls-2" d="M690.66,262.15l1,1.09c-.29-.66-.61-1.31-1-2h-.34a2.43,2.43,0,0,1,.65,1.07Z"/><path class="cls-2" d="M692.47,264.66c-.54-1-.83-.82-.75-.2-.53-.89.14-.64-.48-1.15-.21.12.41,1.22.55,1.48Z"/><polygon class="cls-2" points="694.34 272.78 694.16 272.49 694.23 273.26 694.34 272.78"/><path class="cls-2" d="M694.16,272.49l-.08-.77a.58.58,0,0,0-.24.27Z"/><path class="cls-2" d="M693.79,269.7a11.12,11.12,0,0,0-.21-1.12C693.65,269,693.73,269.33,693.79,269.7Z"/><polygon class="cls-2" points="693.89 270.58 693.93 270.55 693.79 269.7 693.89 270.58"/><path class="cls-2" d="M694.08,271.72c.21-.16.46-.36.16-1.46l-.31.29Z"/><polygon class="cls-2" points="681.48 298.78 681.76 298.06 681.69 298.11 681.4 298.82 681.48 298.78"/><path class="cls-2" d="M683.87,295.1a3.78,3.78,0,0,0,.09-.47A1.36,1.36,0,0,0,683.87,295.1Z"/><path class="cls-2" d="M683.76,291.51c.57-.69-.18,1.22.56-.2.26-.05.24.77-.19,1.41-.16-.14.19-.72-.2-.39,0,.56-.23.66.14.64a10.88,10.88,0,0,0-.11,1.66c.37-1,1.59-2.85,1.67-4.24-.11-.81-.75-.59-1.27-.79C684.21,289.66,683.47,291.31,683.76,291.51Z"/><path class="cls-2" d="M682.7,292.5a2.6,2.6,0,0,0-.29.7C682.62,293.23,682.58,292.79,682.7,292.5Z"/><path class="cls-2" d="M689.7,285c-.06-.1,0-.87-.18-.74l-.14,1.16A.63.63,0,0,1,689.7,285Z"/><path class="cls-2" d="M689.3,285.93l.08-.52A2.48,2.48,0,0,0,689.3,285.93Z"/><path class="cls-2" d="M689.76,285l-.06,0S689.73,285,689.76,285Z"/><path class="cls-2" d="M693.08,266.55c.15,0-.12-.56-.26-.83A4.36,4.36,0,0,0,693.08,266.55Z"/><path class="cls-2" d="M680.3,249l-.31-.42A1.3,1.3,0,0,0,680.3,249Z"/><path class="cls-2" d="M671.86,248.13a.22.22,0,0,1-.12,0A.16.16,0,0,0,671.86,248.13Z"/><path class="cls-2" d="M671.74,248.15c-.34-.05-1.07-.72-1.48-.71l.07,0-.62-.21A10.67,10.67,0,0,0,671.74,248.15Z"/><path class="cls-2" d="M645,178.42c-1.63-1.06-2.13-2.13-4.55-4.13,1.55-3.28.66-4.19.66-4.19-1.17-1.82-3.32-1.11-5.69.67-.94-.59-2-1.22-3.19-1.9-10.51-6-10-4.31-21-8.79s-24.38-9.7-24.38-9.7a8.86,8.86,0,0,0-2.64,9.35c4.46,1.67,28.39,11.3,28.39,11.3s5.18,2.32,8-2.46c0,0-.15-1.22,3.08.33,1.45.7,5,2.56,8.7,4.51a92.32,92.32,0,0,0-7.28,8.49c-13.13,14.7-29,25-36,29.38-5.1,4.15-.21,9.15,2.88,8,9.56-4.06,22.68-15.61,37.42-30.9A77.42,77.42,0,0,0,639,176.84c2,1,3.67,1.86,4.47,2.2a19.8,19.8,0,0,0,7.31,1.79,2.15,2.15,0,0,0,.46-1.4A9.36,9.36,0,0,1,645,178.42Z"/><path class="cls-2" d="M571.8,221.74c.74-.73,1.47-1.49,2.18-2.29a9.45,9.45,0,0,0,.83-1.06l.24-.29.29-.33a8.94,8.94,0,0,0,.65-.87l.45-.63a15.82,15.82,0,0,0,2.61-7.68,14.93,14.93,0,0,0-2.41-9.05,16.33,16.33,0,0,0-8.33-6.41,27.07,27.07,0,0,0-4.56-1.23,20.94,20.94,0,0,0-3.63-.32,21.93,21.93,0,0,0-6.69,1.06,15.1,15.1,0,0,0-1.35-2.18,16.33,16.33,0,0,0-8.71-5.87,26.45,26.45,0,0,0-4.63-.94,22.55,22.55,0,0,0-2.32-.13,22.32,22.32,0,0,0-4,.38,23.14,23.14,0,0,0-5.93,2c-.26.13-.52.26-.77.4-2-2.87-5.2-5-9.46-6.34a22.81,22.81,0,0,0-7.2-1.17,23.66,23.66,0,0,0-6.54.94,28.75,28.75,0,0,0-3.12,1.08c1.26-2,2.38-3.68,3.33-5l.14-.18a9.92,9.92,0,0,0-.65-17,33.53,33.53,0,0,0-7.91-3.26,12.66,12.66,0,0,0-3.18-.4c-2.79,0-8.08,1-12.14,7.45-1.23,2-2.81,4.67-4.71,8l0,0A17.13,17.13,0,0,0,467.6,166a19.63,19.63,0,0,0-7.31-1.09H459a11,11,0,0,1-2.09-.11,15,15,0,0,1-3.68-1.86,9.85,9.85,0,0,0-8.42-1.41l-1-.59a16.81,16.81,0,0,0-8.3-2.17h-.28a13.6,13.6,0,0,0-12.42,8.08,13,13,0,0,0-1.08,5.41,15.55,15.55,0,0,0-1.91,2.31,11.9,11.9,0,0,0-3.66-2.46,18.68,18.68,0,0,0-6.87-1.37h-.51a23.36,23.36,0,0,0-6.08.81,15.1,15.1,0,0,0-4.11,1.67,15.43,15.43,0,0,0-2.42-.18,22.21,22.21,0,0,0-4.93.62,26.51,26.51,0,0,0-5.78,2.07,27.27,27.27,0,0,0-5.46,3.68l-.18.15.07-.06a21.68,21.68,0,0,0-2.17,2,49.38,49.38,0,0,0,1.44-10.11c.2-7.25-3.05-11.53-4.05-12.67l-.11-.13a18.86,18.86,0,0,0-14.13-6.26,22.71,22.71,0,0,0-10.4,2.59l-.43.26a19.58,19.58,0,0,0-5.73,5,17.4,17.4,0,0,0-3.72,10.33,43.16,43.16,0,0,0,.53,7.45q.36,3,.8,6.79c-6-12.32-15-17.14-23.08-17.14q-.54,0-1.08,0c-8.21.42-15.52,5.94-20.05,15.16-3.67,7.46-5.42,17-4.92,26.89a9.93,9.93,0,0,0,9.58,9.42h.34a9.92,9.92,0,0,0,9.84-8.75c.37-3.09,1.66-10.64,3.32-14.26.18-.39.36-.73.52-1a73.2,73.2,0,0,1,2.84,13.71c.05.33.11.67.19,1s.08.36.12.51c.07.58.16,1.12.25,1.59.57,3.24,1,6.29,1.19,9.05.13,1.57.28,4.2.38,6.49-1.85,2.45-4.22,5.56-6.92,9.1a133.52,133.52,0,0,0-11.54,17.75c-2.63,5.24-3.14,9.19-1.79,13.63a15.59,15.59,0,0,0,5.11,7.28,21.17,21.17,0,0,0,10.5,3.87c.73.06,1.46.1,2.18.1a28,28,0,0,0,11.28-2.56,26.25,26.25,0,0,0,12.44-12,51.48,51.48,0,0,0,5.29-13.45,72.68,72.68,0,0,0,1.89-12.94c0-.38,0-.81,0-1.29.21,1,.43,1.87.67,2.71a20.7,20.7,0,0,0,1.83,4.36,17.73,17.73,0,0,0,4.6,5.34,20.08,20.08,0,0,0,6.18,3.23,17.75,17.75,0,0,0,5.41.81,22.85,22.85,0,0,0,3.62-.3l.34-.06c2.92-.58,8.32-2.62,11.62-9.84a44.68,44.68,0,0,0,3.24-11.37l.12-.78c.45,0,.91.05,1.37.05a18.91,18.91,0,0,0,3.42-.31,15.87,15.87,0,0,0,7.09-3.11l.2-.15a15.81,15.81,0,0,0,4.13.94c.65.06,1.3.09,1.94.09h0a19.78,19.78,0,0,0,13.84-5.8c.56-.53,1.09-1.09,1.62-1.67a14.49,14.49,0,0,0,4.59,1.37,16.32,16.32,0,0,0,2,.12,20.65,20.65,0,0,0,12.25-4.3c.46-.35.9-.7,1.33-1.07a13.13,13.13,0,0,0,4.16,4.11,20.56,20.56,0,0,0,6.41,2.62,15.4,15.4,0,0,0,3.52.41,16.26,16.26,0,0,0,6.71-1.48,15.47,15.47,0,0,0,4.32,2.95,16.41,16.41,0,0,0,7,1.56,18.44,18.44,0,0,0,6.46-1.2,25.53,25.53,0,0,0,4-1.87,21.8,21.8,0,0,0,6.61,4.69,29.37,29.37,0,0,0,12.5,2.77,36,36,0,0,0,4.83-.35,19.51,19.51,0,0,0,9.19,9.33c3.23,1.69,7.89,2.29,10.89,2.29a23.37,23.37,0,0,0,2.4-.12,20.36,20.36,0,0,0,2.38-.38,21.33,21.33,0,0,0,5.77,5,26.32,26.32,0,0,0,12.29,3l.84,0c6.45-.24,11.84-3.26,14.69-8.06.78.05,1.51.08,2.09.08a10.55,10.55,0,0,0,7.66-2.91c3.59-3.51,4.67-9.84-.22-15.15A10,10,0,0,0,571.8,221.74Z"/><path class="cls-3" d="M423.37,186.69a87,87,0,0,1-4.57,14.61,43.91,43.91,0,0,1-5.14,9.39c-1.68,2.17-3.16,3.29-4.42,3.36s-2.07-1.08-2.41-3.46a27.21,27.21,0,0,1,.16-7.75,81,81,0,0,1,1.65-8.34,69.58,69.58,0,0,1,2.19-7.17,22.13,22.13,0,0,1,1.93-4.26q.89-1.27-.42-1.83a8.83,8.83,0,0,0-3.24-.6,13.54,13.54,0,0,0-3.76.45c-1.22.34-1.67.48-2,1.14a6.33,6.33,0,0,0-.57,1.62,29.89,29.89,0,0,0-.38,4.57c-2.45-6.26-5.82-5.8-8.91-5.11a16.75,16.75,0,0,0-3.55,1.28,18,18,0,0,0-3.48,2.39,13,13,0,0,0-2.72,2.91,18.81,18.81,0,0,0-1.14,1.71,29.27,29.27,0,0,0-2.88,6.5,37.49,37.49,0,0,0-1.07,4.42c-.4,1.6-.78,3.36-1.13,5.3-.81,4.45-.35,8.77-.84,12.74a88.48,88.48,0,0,1-1.85,10.57c-.76,3.07-1.59,5.18-2.5,6.35s-1.85,1.17-2.8,0-2.22-4.31-3.25-8.36c-.08-.3-.21-1.19-.46-2.66s-.58-2.92-.86-4.76-.57-3.72-.86-5.67-.5-2.81-.8-4.64L363,210c-.27-1.51-.59-4.37-1.08-8.2-.21-1.68-.42-3.41-.62-5.19A87.9,87.9,0,0,0,367,183.23a45,45,0,0,0,2.3-12.12c.11-3.93-1.59-5.87-1.59-5.87-5.1-5.62-12.42-1.62-12.42-1.62a10.26,10.26,0,0,0-3.21,2.75,7.57,7.57,0,0,0-1.52,4.65,39.43,39.43,0,0,0,.47,5.72q.56,4.66,1.29,11,.66,5.85,1.46,12.19c-2.65,4.18-5.77,8.86-9.45,14.1-1.79,2.56-3.21,4.61-5.27,7.21,0-.64-.19-4.31-.22-4.91l-.85-9c-2.34-19-10.21-30.34-19.67-29.86s-16.42,14.65-15.56,31.64c0,0,1.3-11,4.16-17.23,3.27-7.12,8-8.71,12.42-8.08,3.83.55,7.41,5.84,9.79,23.6.16.68.25,1.07.31,1.28-.06-.18-.1-.18.18,1.41q.95,5.37,1.31,10c.21,2.69.49,8,.53,10.46-2,2.64-5.18,6.85-9.08,12a124.79,124.79,0,0,0-10.55,16.17c-1.72,3.43-1.66,4.7-1.17,6.29a5.9,5.9,0,0,0,1.6,2.26,11.59,11.59,0,0,0,5.4,1.9,17.13,17.13,0,0,0,8.63-1.68,16.52,16.52,0,0,0,7.65-7.62A44.19,44.19,0,0,0,338.25,249a64.1,64.1,0,0,0,1.67-11.24c.09-2.19.15-6.82.16-10.61,2.17-2.44,3.22-3.65,5.69-6.61a114.32,114.32,0,0,0,9.15-12.78c.31,1.86.59,3.64.78,5.41l.53,2.89q1,6.61,2.09,12.31c.75,3.79,1.21,6.56,1.76,8.48a10.87,10.87,0,0,0,1,2.3,7.6,7.6,0,0,0,2,2.3,10.11,10.11,0,0,0,3.12,1.61,9.48,9.48,0,0,0,4.41.17q2.83-.57,4.5-4.21a34.32,34.32,0,0,0,2.48-8.82,84.76,84.76,0,0,0,.95-11.15c.06-2.47.06-4.82,0-7.08,0,.17.06.34.11.5a11,11,0,0,0,4.73,6.93,9.77,9.77,0,0,0,7.1,1.55,6.23,6.23,0,0,0,2.76-1.14,14.1,14.1,0,0,0,2.08-2.13,21.4,21.4,0,0,0,3.52-6.07,8.2,8.2,0,0,0,1.74,4.61,5.43,5.43,0,0,0,4,2.29,9.74,9.74,0,0,0,8-3,28.63,28.63,0,0,0,6-8.51,51.17,51.17,0,0,0,3.71-10.64A33.63,33.63,0,0,0,423.37,186.69Zm-92.13,54.39a55.45,55.45,0,0,1-1.79,10.52,26,26,0,0,1-4,9.15c-2,2.67-3.06,3.69-4.84,4.45a6.7,6.7,0,0,1-4.56.59,2.86,2.86,0,0,1-1.91-1.71c-.54-1.54.19-3.29.75-4.65.92-2.2,4.2-6.72,6.22-9.35,4.34-5.67,7.93-10.11,10.49-13.21Zm28.32-63.71a49.4,49.4,0,0,1-.11-8.24,3.91,3.91,0,0,1,1-2.55,3.23,3.23,0,0,1,1.83-1s3.55-1,4.8,1.86c.74,1.72.67,4.82-1.43,10.34a89.7,89.7,0,0,1-5.16,10.79C360.3,186.31,359.77,180.41,359.56,177.37ZM400.5,192.5a57.44,57.44,0,0,1-.81,6.44q-.62,3.54-1.55,7.13a44.83,44.83,0,0,1-2.05,6.19,10.78,10.78,0,0,1-3.17,4.48,4.13,4.13,0,0,1-3.51,1,4.48,4.48,0,0,1-2.8-2.59,13.48,13.48,0,0,1-1-6.5,46.55,46.55,0,0,1,.71-5.63,33.19,33.19,0,0,1,1.63-5.88,30.1,30.1,0,0,1,2.69-5.35,18.67,18.67,0,0,1,3.83-4.36c2-1.54,3.18-1.79,4.06-1.22a4.72,4.72,0,0,1,1.73,2.22A10.88,10.88,0,0,1,400.5,192.5Z"/><path class="cls-3" d="M568.27,204.88a6.69,6.69,0,0,0-3.43-2.46,17.75,17.75,0,0,0-2.83-.75,11.14,11.14,0,0,0-3.32-.08,13.11,13.11,0,0,0-3.46,1,9.7,9.7,0,0,0-3.29,2.34,13.91,13.91,0,0,0-3.36,5.82c-.06.18-.08.35-.13.53l-.18.75a11.88,11.88,0,0,0,0,4.75c.42,1.8,1,3.21,1.46,4.84l.08.31a23.49,23.49,0,0,1-3.58.62,45.43,45.43,0,0,1-10.3-.42,45,45,0,0,0-3.19-8.08c-.2-.45-.68-1.86-.68-1.86L532,212a48.59,48.59,0,0,0,9.16-6.15,11.37,11.37,0,0,0,2.57-2.72l.18-.22h0c.14-.2.28-.39.41-.61a5.89,5.89,0,0,0,.82-2.94,4.92,4.92,0,0,0-1.07-3,6.62,6.62,0,0,0-3.58-2.24,17.33,17.33,0,0,0-2.87-.57,11.65,11.65,0,0,0-3.32.13,13.24,13.24,0,0,0-3.4,1.18,9.83,9.83,0,0,0-3.13,2.54,14.1,14.1,0,0,0-3,6c0,.19-.06.36-.1.55l-.13.75a11.88,11.88,0,0,0,.33,4.74c.54,1.77,1.17,3.15,1.76,4.73a116.15,116.15,0,0,1-15.38,4.31,27.8,27.8,0,0,1-8.56.55,9.69,9.69,0,0,1-5.93-2.22,4,4,0,0,1-1.5-2.28,8,8,0,0,1-.16-2.94,14.57,14.57,0,0,1,.77-3.11,15.9,15.9,0,0,1,1.3-2.77c.05-.09.11-.17.16-.25A17.06,17.06,0,0,0,502,206a20.78,20.78,0,0,0,6.44-1.09,18.89,18.89,0,0,0,5.86-3.16,12,12,0,0,0,3.83-5.42,4.65,4.65,0,0,0-.24-3.93q-1-1.86-4.63-3a13.07,13.07,0,0,0-8-.14,21.57,21.57,0,0,0-7.52,3.91,25.76,25.76,0,0,0-5.9,6.66,26.91,26.91,0,0,0-1.36,2.53c-.83.89-1.84,2-3.06,3.32a44.2,44.2,0,0,1-8.42,6.7q-3.12,1.93-4.66,1.37t-.53-3.81a56.66,56.66,0,0,1,2.69-7.07q1.88-4.23,4.25-8.91c1.59-3.13,3.24-6.27,5-9.42s3.37-6,4.92-8.45,2.92-4.55,4.11-6.15,2.09-2.47,2.69-2.59a24.14,24.14,0,0,0-5.57-2.34q-2.42-.61-4.45,2.65-1.68,2.72-4.54,7.7t-5.78,10.55c-1.51,2.87-2.94,5.7-4.33,8.52a59.6,59.6,0,0,0,2.66-7.18c0-.19-.09-.19-.29,0A137.55,137.55,0,0,1,467,202.05a34.17,34.17,0,0,1-5.88,7.13q-2.42,1.95-3.63,1.47a2.48,2.48,0,0,1-1.44-2.24c-.17-1,.22-2.74,1.14-5.28s2-5.19,3.22-8,2.44-5.42,3.65-7.95,3.13-4.36,3.75-5.41a2.56,2.56,0,0,0,.17-2.32,5.85,5.85,0,0,0-1.88-2.29,7.62,7.62,0,0,0-3-1.3c-16.41-3.48-19.84,14.44-22.9,21.71a28.11,28.11,0,0,1-4.77,7.81,11.48,11.48,0,0,1-4.19,3.44c-1.15.41-1.81-.12-2-1.57a27.79,27.79,0,0,1,.6-6.3c.49-2.65,1.12-5.39,1.89-8.2a71.82,71.82,0,0,1,2.63-7.87,15.86,15.86,0,0,1,2.87-5q-4.05-1.83-6.43-1.62T427,182.32c-.69,1.79-1.33,3.77-1.94,5.94s-1.15,4.34-1.62,6.5-.81,4.3-1,6.4a35.81,35.81,0,0,0-.21,5.48,5.53,5.53,0,0,0,1.54,4.22,5.64,5.64,0,0,0,3.15,1.65,10.25,10.25,0,0,0,7-2.2,23.65,23.65,0,0,0,5.27-5.65,29.31,29.31,0,0,0,3.65-7.62c1.23-3.38,2-7.2,3.24-11.74,1.85-6.72,8.55-9.46,13.25-6.35-.62,1.14-1.53,3-2.69,5.65s-2.35,5.47-3.53,8.54-2.2,6.06-3,9a24.82,24.82,0,0,0-1.21,6.88q.18,2.78,1.83,3.78a10.16,10.16,0,0,0,3.37,1.37q2.73.69,5.81-1.53a28.76,28.76,0,0,0,6.06-6.18,56.81,56.81,0,0,0,4.91-7.87,69.54,69.54,0,0,0-3.1,7.65c-1,2.91-1.1,5.21-.4,6.92a6.47,6.47,0,0,0,3.28,3.59,7.41,7.41,0,0,0,5.87,0,20.45,20.45,0,0,0,6.57-4.2,45.75,45.75,0,0,0,6.27-7.19,27.1,27.1,0,0,0-.75,2.85,9.66,9.66,0,0,0,1.05,7.32,11.72,11.72,0,0,0,5,4.33c5.95,2.73,11,2.07,17.23.49a135.4,135.4,0,0,0,15-5.81l.51,1.1a50.75,50.75,0,0,1,2.3,5.18c-2.61-.65-4.51-1.27-5.24-1.47a12.2,12.2,0,0,0-5.1-.65,4.7,4.7,0,0,0-2.39,1.08,3.77,3.77,0,0,0-1.14,3.72c.79,4.49,2.54,6.62,5.84,8.34a17.34,17.34,0,0,0,7.71,1.09c3-.31,5.89-1.85,6.68-4.53a11.33,11.33,0,0,0,.29-4.73c1,.06,2,.08,2.8.1a39.71,39.71,0,0,0,11.16-.93l.1.26a52.14,52.14,0,0,1,2,5.32c-2.56-.81-4.42-1.55-5.14-1.81a12.38,12.38,0,0,0-5-1,4.81,4.81,0,0,0-2.46.93,3.78,3.78,0,0,0-1.37,3.64c.51,4.53,2.12,6.76,5.31,8.69a17.21,17.21,0,0,0,7.62,1.58c3-.12,6-1.47,6.95-4.1a11.31,11.31,0,0,0,.59-4.7c.95.12,2,.21,2.78.28,0,0,7.22.77,7.56.45s-.59-1.34-.59-1.34a44.8,44.8,0,0,1-9.94-1,45,45,0,0,0-2.67-8.27c-.07-.18-.16-.49-.26-.82a32.45,32.45,0,0,0,11-8.16l-.1-.06a13,13,0,0,0,1-1.16l.2-.21h0c.15-.19.3-.37.44-.58a6,6,0,0,0,1-2.89A4.93,4.93,0,0,0,568.27,204.88Zm-64.18-7.35a19.77,19.77,0,0,1,8.79-4.59c1.78-.39,2.82-.16,3.13.7a2.83,2.83,0,0,1-.26,2.48,13.79,13.79,0,0,1-6.31,5.82,30.36,30.36,0,0,1-7.31,2.32,36.56,36.56,0,0,1-4.33.51A35.24,35.24,0,0,1,504.09,197.53Zm27.11,8.79c.15-2,.49-4.22,2.48-5.91a9.7,9.7,0,0,1,3.13-1.77,7.92,7.92,0,0,1,3.42-.22c1.33.31,2,1,2,2.21a5.65,5.65,0,0,1-.44,2h0c-1.9,4-5.57,6.92-9.81,9.17A13,13,0,0,1,531.2,206.32Zm-.94,21.6c-2.39,2-9.33,1.87-10.24-5.3-.37-3,1.8-2.45,4.46-1.84a54.76,54.76,0,0,1,5.38,1.76l.37.12C530.93,225,531.23,227.11,530.26,227.92Zm22.23,7.62c-2.51,1.86-9.44,1.28-9.89-5.94-.18-3,2-2.32,4.57-1.55a53.68,53.68,0,0,1,5.26,2.1l.36.14C553.34,232.62,553.5,234.8,552.49,235.54Zm2.3-21.49c.28-2,.76-4.19,2.85-5.75a10,10,0,0,1,3.24-1.57,7.89,7.89,0,0,1,3.42,0,2.17,2.17,0,0,1,1.86,2.33,5.71,5.71,0,0,1-.56,1.93h0c-2.15,3.83-6,6.55-10.38,8.53A13.22,13.22,0,0,1,554.79,214.05Zm.47,5.68,1.55-.74c-.49.28-1,.56-1.53.82A.19.19,0,0,0,555.26,219.73Z"/><path class="cls-3" d="M433,175c1.15.73,3.09,1.24,3.56.92.67-.33-1.27-.57-2.13-1.74a2.17,2.17,0,0,1,.17-3c.86-1.12,2.22-1.1,3.74-.68a18.1,18.1,0,0,1,4.17,1.9c.31.17.07-.1-.7-.85a14.21,14.21,0,0,0-2.81-2,6.9,6.9,0,0,0-3.55-.9A3.57,3.57,0,0,0,433,175Z"/><path class="cls-3" d="M447.53,171a25.35,25.35,0,0,0,7,3.36c3.4.86,7.28,0,9.56.84,4.56,1.75,4.47,5.59,3.85,6.34-.44.53-12-4.36-17.85-5.28a5.33,5.33,0,0,1-3.79-2.29C445.94,172.83,447.53,171,447.53,171Z"/><path class="cls-2" d="M668.92,236.36A78,78,0,0,0,666.77,224a72.74,72.74,0,0,0-3.57-10.78,9.72,9.72,0,0,0-1.41-2.33,10.06,10.06,0,0,0-7.82-3.74,9.92,9.92,0,0,0-6.73,2.62l-.8-.35a15.27,15.27,0,0,0-5.74-1.1,17,17,0,0,0-3.35.35,22.23,22.23,0,0,0-7,2.77,22,22,0,0,0-6,5.25,13.26,13.26,0,0,0-1.12,1.68c-4.65,1.1-7.75,4.7-8.89,6a14.13,14.13,0,0,0-2,3.1,22.52,22.52,0,0,0-3.35,1,23.65,23.65,0,0,0-5.9,3.22,14.64,14.64,0,0,0-3.68,3.92,18.17,18.17,0,0,0-6.3,2.49,23.13,23.13,0,0,0-4.89,4.1,24.3,24.3,0,0,0-2.33,3.08c-.4,0-.8,0-1.19,0a19.56,19.56,0,0,0-4.82.67,21.47,21.47,0,0,0-7.23,3.21,12.49,12.49,0,0,0-2.78,2.63l-.69,0H569a19.94,19.94,0,0,0-5.1.68l-.59.15a20.18,20.18,0,0,0-7.06,2.8,11.13,11.13,0,0,0-1.72,1.4h-.12a14.9,14.9,0,0,0-10.19,4l-.65.69a19,19,0,0,0-4-.41,25.29,25.29,0,0,0-4,.34,24.09,24.09,0,0,0-12.11,5.33l-.44-.35a16.6,16.6,0,0,0-10.24-3.4h-.42a28,28,0,0,0-4.51.4,21.2,21.2,0,0,0-6.22,2.11c-.29.15-.58.32-.86.49a19.5,19.5,0,0,0-3.87-1.58,17.67,17.67,0,0,0-4.89-.63c-1.24,0-2.41.1-3.54.19-.93.07-1.8.14-2.53.14A5.47,5.47,0,0,1,485,264a18.81,18.81,0,0,1-4.72-1.86A9.91,9.91,0,0,0,477.2,261c-1.08-9.23-8.48-15.37-15.45-17.28l-.48-.12a22.45,22.45,0,0,0-5-.62,21.22,21.22,0,0,0-2.75.19,17.44,17.44,0,0,0-10,5,42,42,0,0,0-4.83,5.89L433,261.73c5.67-15.17,1.74-26.23-5.3-32.25a21.89,21.89,0,0,0-14.47-5.08c-11.17,0-23.72,6.88-33.57,18.4a9.92,9.92,0,0,0,13.86,14.1c2.92-2.41,8.9-6.75,12.54-8.17a9.83,9.83,0,0,1,2.16-.61c-.86,2.15-2.91,6.19-7.82,13a10.07,10.07,0,0,0-.56.88c-.11.19-.2.36-.29.5-.36.49-.66.94-.9,1.32-1.84,2.81-3.67,5.35-5.44,7.54-1,1.26-2.74,3.31-4.27,5.08l-11.7,1.76A137.12,137.12,0,0,0,356,283c-5.67,2-8.84,4.54-10.93,8.81a15.68,15.68,0,0,0-1.23,8.95A21.9,21.9,0,0,0,349,310.93a28,28,0,0,0,11.68,7.65,24.06,24.06,0,0,0,8.5,1.5,30,30,0,0,0,9.14-1.48,53.05,53.05,0,0,0,13.47-6.14,73.27,73.27,0,0,0,10.52-8.22c.95-.93,2.38-2.37,3.89-3.91a2.39,2.39,0,0,0-.13.21c-1.47,2.3-2.63,4.12-3.51,5.85a20.17,20.17,0,0,0-1.67,4.55,17.84,17.84,0,0,0-.25,7.16,20.58,20.58,0,0,0,2.37,6.66,20,20,0,0,0,6.28,6.62,2.23,2.23,0,0,0,.3.2,15.49,15.49,0,0,0,8.32,2.39,19.22,19.22,0,0,0,7-1.41,44.73,44.73,0,0,0,10.45-6.08c1.67-1.28,3.36-2.67,5.05-4.17a21.49,21.49,0,0,0,6.94,3.06A23,23,0,0,0,453,326a27.83,27.83,0,0,0,12.73-3,35.22,35.22,0,0,0,6.5-4.58,13.82,13.82,0,0,0,6.42,6.93,21.34,21.34,0,0,0,7,2.19,16.46,16.46,0,0,0,2.32.17,16.82,16.82,0,0,0,8.84-2.59,22.52,22.52,0,0,0,6.44,2.37,16.76,16.76,0,0,0,3.48.32,29.14,29.14,0,0,0,10.43-2,19.31,19.31,0,0,0,8.33-6.43,22.88,22.88,0,0,0,7.69,1.3h.69a30.14,30.14,0,0,0,17.47-5.85,17.12,17.12,0,0,0,5.05.82h.33a17.55,17.55,0,0,0,14-7,9.42,9.42,0,0,0,1.07-1.69,14.9,14.9,0,0,0,2.88-.53,31.26,31.26,0,0,0,5.52-2.27,10,10,0,0,0,2.92-2.38,13.32,13.32,0,0,0,2.78.74,20.73,20.73,0,0,0,7.6-.22,17.19,17.19,0,0,0,10.69-7.36H605A19.19,19.19,0,0,0,615.3,292a16,16,0,0,0,5.52-5.6c.07-.11.13-.22.19-.33a15.71,15.71,0,0,0,4.39-.65,19.54,19.54,0,0,0,12-9.78,17.86,17.86,0,0,0,4-.75,20.45,20.45,0,0,0,12.29-10.78c.08-.19.16-.38.23-.58a18.14,18.14,0,0,0,5.79-2c3.2-1.7,7.22-5.25,8.66-12.6A44.39,44.39,0,0,0,668.92,236.36Z"/><path class="cls-3" d="M551.18,267.77a8,8,0,0,0-2.43,5.69,9.68,9.68,0,0,1-.15,1.8,6.57,6.57,0,0,0-.09,1.52q0,1.32.06,5t.25,12a24,24,0,0,0,.53,4.65,24.39,24.39,0,0,1-1.44,2,17.74,17.74,0,0,1-6.75,5.5,10.79,10.79,0,0,1-7,.71,4.41,4.41,0,0,1-2.62-1.52,8.77,8.77,0,0,1-1.62-2.86,15.24,15.24,0,0,1-.77-3.48,18.11,18.11,0,0,1-.09-3.41c0-.09,0-.18,0-.27a19.1,19.1,0,0,0,4.88-1.77,23,23,0,0,0,5.88-4.28,20.72,20.72,0,0,0,4.28-6.06,13.32,13.32,0,0,0,1.13-7.28,5.15,5.15,0,0,0-2.19-3.81q-1.92-1.36-6.09-.67a14.5,14.5,0,0,0-8,3.79,24.45,24.45,0,0,0-5.56,7.63,29.09,29.09,0,0,0-2.57,9.56,27.2,27.2,0,0,0,.37,7.87l.19.82a4.84,4.84,0,0,1-2,1.86,16.85,16.85,0,0,1-2.6.86,49,49,0,0,0-5.83-7.67c-.34-.41-1.25-1.74-1.25-1.74l-.13-.18a50.91,50.91,0,0,0,7.29-9.11,12.64,12.64,0,0,0,.91-1.5,11.38,11.38,0,0,0,.83-2.09l.12-.28h0a6.45,6.45,0,0,0,.22-.75,6.53,6.53,0,0,0-.09-3.32,5.54,5.54,0,0,0-2-2.79,7,7,0,0,0-4.29-1.27,16.34,16.34,0,0,0-3.06.26,11,11,0,0,0-3.29,1.12,13.1,13.1,0,0,0-3.05,2.22,10.34,10.34,0,0,0-2.36,3.58,15.22,15.22,0,0,0-1.12,7.14c0,.21.05.4.07.6l.1.82a13.39,13.39,0,0,0,1.8,4.84c1.09,1.68,2.16,2.93,3.24,4.4l.27.39.35.4c-1.39,1.7-2.26,2.85-3.82,5-.12.15-.22.29-.33.45a8,8,0,0,0-2.47.69,4.88,4.88,0,0,0-2.07,1.83,4,4,0,0,0-.27,3.53c-.46.51-.89.95-1.29,1.35-1.64,1.59-3.92,2.25-4.84,2a2.77,2.77,0,0,1-1.81-2.35q-.42-1.61.74-6c.76-2.92,1.69-6,2.76-9.17s2.15-6.27,3.24-9.2,3-5.15,3.61-6.37a2.94,2.94,0,0,0-.05-2.6,6.59,6.59,0,0,0-2.3-2.37,8.37,8.37,0,0,0-3.42-1.16C474.73,272,478.26,283,475.6,291.32c-1.3,4-1.82,5.91-4.6,9.69a27.4,27.4,0,0,1-4.79,5.47,41.33,41.33,0,0,1-5.37,4,12.52,12.52,0,0,1-5.24,1.83,8.38,8.38,0,0,1-4.28-.74,6.46,6.46,0,0,1-2.12-1.82,9.62,9.62,0,0,1-1-2.14,12.91,12.91,0,0,1-.32-1.86c0-.22,0-.89,0-.89a16.26,16.26,0,0,1,.46-4.18c.13-.61.29-1.19.44-1.76,1-1.18,1.81-2.28,2.56-3.28a19.35,19.35,0,0,0,2.39-3.6q-2.1,2.67-4.49,5.34a29.54,29.54,0,0,1,2.29-5.44,25.78,25.78,0,0,1,4.76-6.3,18.94,18.94,0,0,1,5.5-3.73A10.54,10.54,0,0,1,467,281c1.86.18,3.76,1.49,4.83,4.19a12.66,12.66,0,0,1,.59,4.29c-.06,2.25-1.24,4.69-2.08,6.59-1.4,3.15-2.13,3.94-2.63,5.1a.67.67,0,0,0,0,.73c.15.17.3,0,.59-.37,4.34-6,7.23-11.52,5.94-16.6a10.25,10.25,0,0,0-8.34-7.89,17.18,17.18,0,0,0-9.32,1,23,23,0,0,0-7.78,5.3,30,30,0,0,0-5.69,8.27,36.06,36.06,0,0,0-2.69,8.17l-.19,1c-.05.25-.11.49-.14.73a13.57,13.57,0,0,0,.2,4.93c-1.67,1.54-3.32,3-5,4.34a87.65,87.65,0,0,1-8.83,6.48,18.36,18.36,0,0,1-6.36,2.91c-1.52.19-2.23-.47-2.16-2s1.34-4.78,3.4-8.53c.16-.27.68-1,1.52-2.29s1.62-2.57,2.69-4.14,2.18-3.16,3.33-4.81,1.59-2.44,2.65-4l.85-1.21c.85-1.31,2.62-3.66,4.93-6.84q1.53-2.1,3.18-4.29a88,88,0,0,0,13.66-5.84,44.54,44.54,0,0,0,10.26-7.31c2.84-2.83,2.91-5.48,2.91-5.48.07-7.83-8.3-10.12-8.3-10.12a10.54,10.54,0,0,0-4.38-.27,7.58,7.58,0,0,0-4.43,2.34,41.58,41.58,0,0,0-3.65,4.57q-2.85,3.85-6.75,9.06c-2.39,3.21-4.88,6.57-7.44,10.08-5,1.18-10.62,2.39-17.09,3.63-3.16.61-5.68,1.1-9.07,1.55l3.27-3.8,5.66-7.24c11.58-15.76,13.53-29.78,6-36.22s-22.78-1-34.06,12.23c0,0,8.74-7.23,15.26-9.77,7.49-2.91,12.2-.7,15.13,3,2.53,3.16,1.53,9.64-9.13,24.48l-.66,1.17c.08-.17,0-.2-.85,1.17q-3.06,4.67-6,8.33c-1.72,2.14-5.23,6.24-6.94,8.12-3.37.52-8.76,1.34-15.31,2.32a127.37,127.37,0,0,0-19.38,4.38c-3.72,1.3-4.56,2.28-5.31,3.81a6.09,6.09,0,0,0-.37,2.82,12.36,12.36,0,0,0,2.78,5.29,18.28,18.28,0,0,0,7.75,5,17.2,17.2,0,0,0,11.16-.14,44.26,44.26,0,0,0,10.93-4.92,63.67,63.67,0,0,0,9.16-7.11c1.61-1.56,4.91-4.94,7.58-7.73,3.36-.25,5-.39,9-.81a115.91,115.91,0,0,0,15.94-2.88c-1.08,1.61-2.11,3.13-3.21,4.57l-1.63,2.52q-3.9,5.58-7.05,10.6c-2.1,3.35-3.69,5.73-4.62,7.54a10.24,10.24,0,0,0-.86,2.4,7.87,7.87,0,0,0-.09,3.15,10.53,10.53,0,0,0,1.24,3.44,10.26,10.26,0,0,0,3.24,3.29q2.55,1.62,6.38.12a34.34,34.34,0,0,0,8.08-4.75,82.54,82.54,0,0,0,8.55-7.56c1-1,2-2,2.92-3a9.7,9.7,0,0,0,1.46,2.6l1,1.09a14.09,14.09,0,0,0,2.66,2.34,11.28,11.28,0,0,0,3.8,1.69A17.52,17.52,0,0,0,461,314.24a30.24,30.24,0,0,0,8-6.7c3.91-4.62,5.24-8.75,6.52-13.06.53-1.79,1.63-6.26,1.63-6.26,1.38-7.64,6.64-13.19,12.13-10.18q-.87,2-2.41,6.54t-3,9.83q-1.52,5.29-2.46,10.3a28,28,0,0,0-.66,7.76c.32,2,1.11,3.39,2.39,4a11.12,11.12,0,0,0,3.84,1.2q3.09.51,6.26-2.26a28.19,28.19,0,0,0,3.81-4.15c2.13,4.09,4.51,5.69,8.22,6.48a17.51,17.51,0,0,0,8.08-1.14c2.93-1.21,5.35-3.67,5.3-6.69a12.72,12.72,0,0,0-1.19-5,11.3,11.3,0,0,0,2.85-1.11,9.16,9.16,0,0,0,1.54-1.28,10.56,10.56,0,0,0,4.55,6.4,13.27,13.27,0,0,0,7.13,1.84q10.93-.35,16.77-9.21a.25.25,0,0,0,0-.07,8.53,8.53,0,0,0,1.75,2.52,6.25,6.25,0,0,0,4.44,1.72,7.57,7.57,0,0,0,6.37-3.23c-1.85.62-3.4,1.1-4.49.42s-1.3-1.41-1.79-3.07a21.9,21.9,0,0,1-.73-6.18q0-3.66.41-8.37c.54-2.42,1-4.48,1.45-6.16a35,35,0,0,1,1.39-4.4c.49-1.25,1-2.33,1.4-3.27s.92-1.91,1.44-2.94a7,7,0,0,1,.84-1.38,2.93,2.93,0,0,1,1.25-1,.93.93,0,0,1,1.17.31,5.11,5.11,0,0,1,.53,2.85c.09,5.44.17,9.85.25,13.26s.25,6.07.5,8a15,15,0,0,0,1,4.23,4,4,0,0,0,1.73,1.93,3.47,3.47,0,0,0,2.68.15,22.42,22.42,0,0,0,3.5-1.44,10.45,10.45,0,0,1-1.36-1.84,14.28,14.28,0,0,1-.73-3.66c-.1-1.41-.14-3.12-.12-5.11s0-4.09.09-6.32c.92-2.92,1.76-5.91,2.52-9a36.43,36.43,0,0,1,2.7-7.63,7.68,7.68,0,0,1,.77-1.36,3.38,3.38,0,0,1,1.07-1,.79.79,0,0,1,1.07.27,5.79,5.79,0,0,1,.68,2.79c.09,1.7.16,3.74.18,6.12s.06,4.87.11,7.47.21,5.1.47,7.49a22.8,22.8,0,0,0,1.29,5.86c.77,1.91,1.83,3,3.2,3.17a10.78,10.78,0,0,0,4-.1c2.57-.57,4.46-2.31,5.67-5.25a32,32,0,0,0,1.46-4.4,10.16,10.16,0,0,0,4.19,1.84,9.93,9.93,0,0,0,7.39-1.19,6.24,6.24,0,0,0,2.19-2.14,13.08,13.08,0,0,0,1.18-2.85,21.78,21.78,0,0,0,1.06-7.16,8.54,8.54,0,0,0,3.42,3.78,5.58,5.58,0,0,0,4.73.67,10,10,0,0,0,6.53-5.91,28.18,28.18,0,0,0,2-6.64,9.11,9.11,0,0,0,2.51,1.84,6.62,6.62,0,0,0,4.88.22,10.64,10.64,0,0,0,6.09-5.28c-1.59,1.14-3.17,2.49-4.43,2.05a6.61,6.61,0,0,1-3.32-2.94,23.86,23.86,0,0,1-2.51-5.79c-.73-2.34-1.4-4.85-2-7.53a55.94,55.94,0,0,1-.34-9.95,32.86,32.86,0,0,1,1.55-9.4c.11-.37.27-.82.48-1.34a1.94,1.94,0,0,1,.74-1c.29-.17.62-.06,1,.33a7.81,7.81,0,0,1,1.28,2.73c.29.87.67,2.37,1.14,4.49s1.11,4.46,1.93,7a53.08,53.08,0,0,0,3,7.39,19.09,19.09,0,0,0,4.17,5.79c1.63,1.33,3,2,4.24,1.89a8,8,0,0,0,3.52-1.08q2.79-1.44,3.65-5.79a34.74,34.74,0,0,0,.38-9.7,68,68,0,0,0-1.88-10.79,63.53,63.53,0,0,0-3.06-9.31c-.14-.17-.23-.1-.26.2a152,152,0,0,1,2.8,15.79,59.16,59.16,0,0,1,.43,9.78c-.18,2.37-.64,3.86-1.39,4.47s-1.63.49-2.61-.38a10.55,10.55,0,0,1-2.48-4.47c-.8-2.27-1.6-4.76-2.39-7.45s-1.51-5.32-2.12-7.89-1.05-4.5-1.3-5.83a3.51,3.51,0,0,0-2-2.75,6,6,0,0,0-3.43-.24,12.1,12.1,0,0,0-3.85,1.56,11.83,11.83,0,0,0-3.3,2.89c-.61.78-1.14,2.66-1.57,5.65a89.11,89.11,0,0,0-.8,9.43,65.65,65.65,0,0,1-1.62-7.15c-.28-1.95-1.7-5.23-6.29.1-1.26,1.46-1.49,3.61-.78,6.38.56,2.05,1.35,4.74,2.39,8.08s2.26,7.07,3.67,11.22a26.17,26.17,0,0,0,2,4,30,30,0,0,1-.85,4.39c-.78,2.72-1.77,4.36-2.95,4.91s-2.39-.25-3.62-2.42a28.39,28.39,0,0,1-2.81-7.52,84.43,84.43,0,0,1-1.6-8.66,71.89,71.89,0,0,1-.64-7.73,22.79,22.79,0,0,1,.22-4.82c.24-1.05-.13-1.58-1.1-1.61a9,9,0,0,0-3.33.65,13.72,13.72,0,0,0-3.43,1.86,3.28,3.28,0,0,0-1.59,2.34,3.91,3.91,0,0,0-.16,1.73,18.49,18.49,0,0,0,1.22,3.8c-3.48-2.62-7-3-10.09-1a13.41,13.41,0,0,0-2.83,2.35,18.7,18.7,0,0,0-2.41,3.62,17.19,17.19,0,0,0-1.94,5.91,30.77,30.77,0,0,0-.28,7.35,40.3,40.3,0,0,0,1.37,7.66,19,19,0,0,0,3.15,6.54,14.44,14.44,0,0,0,1,1.25,29.92,29.92,0,0,1-1,3.48c-.8,2.06-1.59,3.2-2.39,3.4s-1.53-.26-2.21-1.39a10.75,10.75,0,0,1-1.12-5q-.21-3.59-.23-7.77c0-2.79-.17-5.48,0-8.09s0-3.79,0-6a3.87,3.87,0,0,0-1-3.28,5,5,0,0,0-3-1.34,8.5,8.5,0,0,0-3.38.35,11.61,11.61,0,0,0-3.93,1.75q-1.23.84-2.19,4.55c-.65,2.46-1.5,5.26-2.59,8.37l-.19-4c0-1.41-.23-2.54-1-3.26a4.59,4.59,0,0,0-3.13-1.28,12,12,0,0,0-3.48.54,11.43,11.43,0,0,0-3.93,1.43,5.79,5.79,0,0,0-1.45,2.38c-.5,1.08-1,2.34-1.62,3.79s-1.15,3-1.7,4.7c-.4,1.23-.72,2.39-1,3.53l-.23,1c0,.1-.06.21-.08.32a45.6,45.6,0,0,1,1-8.43s.71-3.56-1.18-4.06A5,5,0,0,0,551.18,267.77Zm-19.29,16a22,22,0,0,1,6.49-8.94c1.58-1.27,2.73-1.56,3.47-.85a3.12,3.12,0,0,1,1,2.6,15.39,15.39,0,0,1-3.4,8.93,34.55,34.55,0,0,1-6.14,5.93,40.64,40.64,0,0,1-4.07,2.66A39.13,39.13,0,0,1,531.89,283.77Zm-79.15-17.19a49.08,49.08,0,0,1,5.7-6.18,4,4,0,0,1,2.56-1.15,3.44,3.44,0,0,1,2.07.6s3.42,1.79,2.34,4.83c-.63,1.81-2.86,4.05-8.35,6.62a91.2,91.2,0,0,1-11.49,4.28C447,273.72,450.76,269,452.74,266.58Zm-66.28,26.77a56.48,56.48,0,0,1-8.75,6.5,26.37,26.37,0,0,1-9.44,3.92c-3.43.51-4.92.53-6.81-.18a7.13,7.13,0,0,1-3.88-2.85,3,3,0,0,1-.26-2.63c.68-1.53,2.46-2.3,3.84-2.9,2.25-1,7.92-1.95,11.3-2.45,7.28-1.07,13.13-1.78,17.26-2.23Zm121.18-11.89a10.21,10.21,0,0,1,2.6-2.77,8,8,0,0,1,3.37-1.23,2.34,2.34,0,0,1,2.69,1.7,6.32,6.32,0,0,1,.17,2.18h0c-.68,4.68-3.45,8.85-7,12.45a14.8,14.8,0,0,1-2.46-5.44C506.53,286.24,506.17,283.8,507.64,281.46ZM505.76,299l.21.25a56.62,56.62,0,0,1,4.18,5.06c-2.92,0-5.27-.33-6-.33-.45,0-1.25,0-2.15.06C503.34,302.2,504.73,300.38,505.76,299Zm7,12.14c-1.77,2.79-8.79,4.7-11.93-2.49-1.3-3,1.05-3.08,3.91-3.23a52.24,52.24,0,0,1,5.95.23l.41,0C512.5,307.81,513.47,310,512.75,311.11Zm99.32-38a11.11,11.11,0,0,1-1.32,5.52,4.23,4.23,0,0,1-3,2.26,4.65,4.65,0,0,1-3.67-1.43,14.06,14.06,0,0,1-3.41-5.89,53.17,53.17,0,0,1-1.47-5.69,35.27,35.27,0,0,1-.68-6.27,31,31,0,0,1,.53-6.17,14.68,14.68,0,0,1,2-5.66c1.29-1.87,2.35-2.22,3.47-2.14a4.05,4.05,0,0,1,2.73,1.52,9.14,9.14,0,0,1,1.48,3.26,63.91,63.91,0,0,1,1.69,6.5q.75,3.64,1.23,7.46A45.32,45.32,0,0,1,612.07,273.09Z"/><path class="cls-3" d="M475.36,270.76a28.73,28.73,0,0,0,8,3c3.85.64,8.09-.64,10.71.11,5.22,1.5,5.45,5.64,4.82,6.5-.44.6-13.76-3.69-20.31-4.19a6,6,0,0,1-4.41-2.15C473.75,272.81,475.36,270.76,475.36,270.76Z"/></g></svg>