<svg xmlns="http://www.w3.org/2000/svg" viewBox="0 0 958.94 498.67"><defs><style>.cls-1{fill:#e6d4c7;}.cls-2{fill:#8b8c8d;}</style></defs><g id="Warstwa_3" data-name="Warstwa 3"><path class="cls-1" d="M764.13,204.18c7-.3,9.76,4.2,10.21,7.84a34.48,34.48,0,0,1-.71,13.15l-5.91,1s3.3-11.29-.51-18.29Z"/><path class="cls-1" d="M765.52,207.53c3.26,1.62,3.06,4.14,3.42,11.57l-1.22,7s7-23.88-11.08-23.73c-13.32.12-19.48,17.21-2,22.27l8.07.17c-14.13-4.81-13.4-9.22-13.06-11.73s2.85-6,7.66-6.53C759.69,206.33,763.37,206.45,765.52,207.53Z"/><path class="cls-1" d="M775.46,246.83c2.28-16.22-20.63-23.52-20.63-23.52,15.89,2.62,20.63,5.7,23.8,10.88S782,246,779.77,253.11a26.79,26.79,0,0,1-34.53,17.61c-2.29,0,.52-1.05,2.33-1.25C765.51,267.52,774,257.38,775.46,246.83Z"/><path class="cls-1" d="M711.54,204.82c-5.32-3.08-16.19.63-20,7.78l5,2.67a22.82,22.82,0,0,1,6.89-5.89c6.36-3.49,10.73-1.33,11.22-.84Z"/><path class="cls-1" d="M702.1,252c24.75-28.95,9.94-46.88,9.94-46.88,6.92-.6,8.9,4,9.53,5.54,1.11,2.74,1.54,8.18,1.13,12.8-.73,8.21-1.82,12.76-10.84,26.44-10.67,16.19-29.53,25.93-45.29,19.73C684.07,267.74,692.21,260.37,702.1,252Z"/><path class="cls-1" d="M598.73,251.92l4.32,3.74,14.74-15.07c6.19-7.24,13.39-16.2,20.81-26.5,7.86-10.91,41.22-58.68,40.52-72.51-.24-4.72-4.19-2.77-5.85-2,0,0,2,1.24.69,4.8s-12.45,29.41-34.44,58.52-32,40-32.58,40.6S598.73,251.92,598.73,251.92Z"/><path class="cls-1" d="M664,152.3c-4.19,5.29-10.07,13.81-18.27,27.4l-2,3.23c-3.49,5.68-7.11,12.18-10.54,19l-39.93,71.76L589.27,269s26.73-48.71,40.64-72.91,29.92-53.62,41.4-57.56C674.28,139.14,674.75,138.64,664,152.3Z"/><path class="cls-1" d="M484.3,270c28.23-.06,40.69-23,41.21-24.14l-5.23-2.29s-11.15,25.44-36,25.5Z"/><path class="cls-1" d="M460.39,251.92l4.31,3.74c-2.75,3.17-14.52,19.49-29.28,13.34C446.8,268.28,460.39,251.92,460.39,251.92Z"/><path class="cls-1" d="M395,268.25c-4.44,0-11.78-2.12-16.76-10.82-3.31-5.81-2.95-14,1.31-22,7-13.19,21.75-27.22,35.23-27.22,11.53,0,13.88,5.57,13.92,5.62l5.44-1.71s-3-9.62-19.36-9.62-32.52,15.68-40.27,30.26c-10,18.79-1.13,36.2,14.14,36.2Z"/><path class="cls-1" d="M423,250.23c7.35-28.33,21-40.15,21-40.15,2.45.77,11.65-6.13,12.68,2.15.23,1.83-.08,8.44-24.48,37.52-1.3,1.55-2.66,3-4,4.44l-10.55,9.32c-9.64,7.18-18.59,9.58-28.31,6.82C410.85,263.43,420.22,253.89,423,250.23Z"/><path class="cls-1" d="M493.05,267.92c-14.67,3-17.12-1.07-19.88-3.87-6.07-8.4-.07-26.21-.07-26.21l5.17,2.75c-2.27,8.78-3.15,16.17-.62,19.87,5.12,7.49,11.48,7.16,16.45,7.16Z"/><path class="cls-1" d="M395,268.25c-4.44,0-11.78-2.12-16.76-10.82-3.31-5.81-2.95-14,1.31-22,7-13.19,21.75-27.22,35.23-27.22,11.53,0,13.88,5.57,13.92,5.62l5.44-1.71s-3-9.62-19.36-9.62-32.52,15.68-40.27,30.26c-10,18.79-1.13,36.2,14.14,36.2Z"/><path class="cls-1" d="M460.39,251.92l4.31,3.74,13.57-15.07c6.18-7.24,13.38-16.2,20.81-26.5,7.86-10.91,41.22-58.68,40.51-72.51-.24-4.72-4.19-2.77-5.84-2,0,0,2,1.24.68,4.8S522,173.8,500,202.91s-31.64,40.35-32.17,40.94S460.39,251.92,460.39,251.92Z"/><path class="cls-1" d="M598.73,251.92l4.32,3.74c-2.75,3.17-14.52,19.49-29.28,13.34C585.15,268.28,598.73,251.92,598.73,251.92Z"/><path class="cls-1" d="M533.37,268.25c-4.44,0-11.77-2.12-16.75-10.82-3.32-5.81-3-14,1.31-22,7-13.19,21.75-27.22,35.22-27.22,11.54,0,13.89,5.57,13.92,5.62l5.45-1.71s-3-9.62-19.37-9.62-32.51,15.68-40.26,30.26c-10,18.79-1.13,36.2,14.14,36.2Z"/><path class="cls-1" d="M533.37,268.25c-4.44,0-11.77-2.12-16.75-10.82-3.32-5.81-3-14,1.31-22,7-13.19,21.75-27.22,35.22-27.22,11.54,0,13.89,5.57,13.92,5.62l5.45-1.71s-3-9.62-19.37-9.62-32.51,15.68-40.26,30.26c-10,18.79-1.13,36.2,14.14,36.2Z"/><path class="cls-1" d="M674.62,268.25c-4.44,0-11.77-2.12-16.75-10.82-3.32-5.81-3-14,1.31-22,7-13.19,21.75-27.22,35.22-27.22,11.54,0,13.89,5.57,13.92,5.62l5.45-1.71s-3-9.62-19.37-9.62-32.51,15.68-40.26,30.26c-10,18.79-1.13,36.2,14.14,36.2Z"/><path class="cls-1" d="M561.3,250.23c7.35-28.33,21-40.15,21-40.15,2.45.77,11.65-6.13,12.68,2.15.23,1.83-.09,8.44-24.48,37.52-1.3,1.55-2.66,3-4,4.44l-10.55,9.32c-9.64,7.18-18.59,9.58-28.31,6.82C549.19,263.43,558.57,253.89,561.3,250.23Z"/><path class="cls-1" d="M737.82,268.3c-10.1-2.38-15-8.15-19.74-18.67-3.06-6.76,2.11-20,7.72-24.78l4.15,3.92c-8.7,9.56-8,17.16-4.86,22.72,2.1,3.72,6.08,10.15,27.22,17.32Z"/><path class="cls-1" d="M350.64,185.81l4.72-8.06c15.77-26.13,25.58-38.92,29.22-38.92,3.25,0,12.8-1.65,8.84,7.57-3.4,7.9-18.65,24-37.09,40.4-.41.36-1.69,3-2.1,3.34L333,207.49c-9.87,7.81-19,13.44-39.83,29.73l-4.78-2,36.35-28.48Z"/><path class="cls-1" d="M167.46,268.67c-1.57-.21-12.16-.85-11-8.31.59-3.7,6.24-14.6,19.3-10.53l2.78-5.22C152,236.89,140.89,267,162.81,269Z"/><path class="cls-1" d="M225.25,243.48c-16.31,11.84-46.17,32.81-62.74,25.52l8.6-.83a99.76,99.76,0,0,0,12.13-4.1c16.89-6.76,42.12-26.63,42.12-26.63,24.71-19.87,31.17-25.26,47.54-40.19,0,0,20.69-20.14,26.89-26.75,6.12-21.13,17.13-29.36,17.13-29.36,2-.94,5.45-3.79,9.2-2.73,3.06.87,3.23,4.44,1.19,8-4.4,7.64-13.43,18-22.66,27.74,0,0-10.84,11.32-14.71,14.83C273.87,203.6,243.65,230.11,225.25,243.48Z"/><path class="cls-1" d="M595.37,246.56c.58-6.23,6.06-6.74,9.71-6.6s8,4.14,8,4.14a63.76,63.76,0,0,0-7.73-.13,5.08,5.08,0,0,0-4.35,3.44c-2,6,5.85,9,4.57,9.21C602.68,257.18,594.8,252.79,595.37,246.56Z"/><path class="cls-1" d="M524.5,152.3c-4.19,5.29-10.06,13.81-18.27,27.4l-2,3.23c-3.5,5.68-7.12,12.18-10.54,19L483.53,225.2l-9.13,10.56s2.07-15.48,16-39.68,29.92-53.62,41.39-57.56C534.76,139.14,535.23,138.64,524.5,152.3Z"/><path class="cls-1" d="M772.3,230.65c-1.43,4-37.61,97.52-250.1,109.16q-8.6.46-17.33.46c-103.23,0-219.52-46.15-283.14-72.29-18.59-7.64-36.9-15.41-45.95-18.15l2.78-5.22c43.42,13.14,208.26,96.9,343.33,89.5,211.16-11.57,245-105.4,245-105.4Z"/><path class="cls-1" d="M438.49,268.44c-5.78,1.9-11.38-1.28-13.5-3.06-4.62-4.63-2-12-2-12l5.16.83a14,14,0,0,0,.79,6.91c1.62,4,4.87,7.34,9.59,7.34"/><path class="cls-1" d="M286.21,242.4l-9.61,9.29c-6.65,5.21-7.68,9.7-7.38,11.26,1.25,6.28,6.6,5.18,7.69,1.86C280,264.81,283.9,249.76,286.21,242.4Zm18.44-68.26c-.36,1.29-.67,2.59-.94,3.9-2.54,12.53-3.4,17.66-4.58,24.76l-.93,5.47c-.44,2.6-.88,5.29-1.33,8-.32,1.94-.64,3.88-1,5.8L292.82,239c-6.28,29.57-17.53,32.76-25.33,30-3-2.7-3.32-5.26-4-7.86-.94-3.71,3.15-7.56,11.95-15.8l7.24-5.66,4.92-3.85c1.34-6.74,3-16.83,3.82-21.76.46-2.75,7.63-40.07,8.08-42.7Z"/><path class="cls-1" d="M621.91,249.39c12.77-10.61,19-16.12,30.08-29.78,2-2.45,10-12,14.58-17.08,2.11,1.67,3.57,2.87,4.44,3.59-6.76,8.38-27,32.85-44.44,46.82l-4.75,3.23a23.68,23.68,0,0,1-7,3.49c-5.27,1-10.81-1.23-13.84-3.81C601,255.85,609.94,258.6,621.91,249.39Z"/><path class="cls-1" d="M627,269.05a75,75,0,0,0-7.82-17.6l7.43,1.49a89.48,89.48,0,0,1,5.83,14.39Z"/><path class="cls-1" d="M375,243.4S366.83,260.13,350.2,267c-3.82,1.58-9,1.25-9,1.25-5,0-8.37-7.1-8.85-8-6-10.67,9.71-48.46,24-73.52l-3.67-2.36c-8.49,15.06-25.81,45.84-27.26,66.59-1.41,20.2,16.86,21.57,26.68,18.76a45.22,45.22,0,0,0,22.51-15.18Z"/><path class="cls-2" d="M593.72,257q12.88-13.77,24.37-28.68c7.72-9.87,14.93-20.11,21.87-30.54s13.64-21,19.8-31.9c3.07-5.43,6.09-10.91,8.61-16.53.63-1.4,1.22-2.81,1.74-4.22a21.46,21.46,0,0,0,1.13-4.12,5.33,5.33,0,0,0,.06-.84c0-.21-.06-.39,0-.31s.36.37.47.36-.25,0-.45.06a8.56,8.56,0,0,0-3.36,1.65,40.7,40.7,0,0,0-6.42,6.2c-2,2.32-3.89,4.77-5.71,7.28-3.65,5-7,10.27-10.37,15.56l-4.94,8-1.22,2L638.13,183l-2.28,4.12-9.17,16.44q-9.2,16.44-18.53,32.8l-9.4,16.32-4.7,8.16L589.27,269l4.24-8.42,4.31-8.39,8.61-16.77q8.7-16.71,17.51-33.39l8.85-16.65,2.22-4.15,1.11-2.08,1.23-2.06,4.84-8.1c3.28-5.38,6.72-10.69,10.42-15.86,1.85-2.58,3.78-5.12,5.88-7.56a43.3,43.3,0,0,1,7.09-6.88l1.09-.73,1.19-.66c.42-.2.87-.38,1.31-.57a13.52,13.52,0,0,1,1.49-.37,5.84,5.84,0,0,1,1.9,0,3.53,3.53,0,0,1,1.34.61,4.08,4.08,0,0,1,.55.55,5.36,5.36,0,0,1,.38.59,4.82,4.82,0,0,1,.45,2,9,9,0,0,1-.09,1.51,25.37,25.37,0,0,1-1.37,4.95c-.57,1.53-1.2,3-1.86,4.48-2.67,5.82-5.71,11.36-8.9,16.81q-9.63,16.32-20.51,31.76A364.36,364.36,0,0,1,593.72,257Z"/><path class="cls-2" d="M520.28,243.55a50.21,50.21,0,0,1-13,17.53,36.44,36.44,0,0,1-20.15,8.82c-.93.12-1.87.12-2.8.18a27.71,27.71,0,0,1-2.87-.14,14,14,0,0,1-5.61-1.78,11.86,11.86,0,0,1-4.23-4.27,17.26,17.26,0,0,1-1.94-5.55,37,37,0,0,1,0-11.32A86.22,86.22,0,0,1,472,236.13a167.39,167.39,0,0,1,7.35-20.82c2.85-6.77,6-13.4,9.31-19.94s6.94-13,10.77-19.17,7.57-12.52,11.69-18.61c2.08-3,4.23-6,6.54-9a62.64,62.64,0,0,1,7.64-8.3,19.54,19.54,0,0,1,5.07-3.36,10.14,10.14,0,0,1,1.64-.52,5.63,5.63,0,0,1,.93-.12l.48,0a4,4,0,0,1,.66,0,3.59,3.59,0,0,1,.76.21,3.52,3.52,0,0,1,.77.45,3.43,3.43,0,0,1,1,1.29,5.31,5.31,0,0,1,.36,2.16,13.89,13.89,0,0,1-.53,3.15c-.26,1-.56,1.87-.89,2.76-.65,1.79-1.4,3.5-2.18,5.18-3.16,6.72-6.81,13.08-10.56,19.37S515,183.37,511,189.45c-8.13,12.15-16.65,24-25.9,35.38q-7,8.47-14.35,16.57c-4.92,5.39-10,10.65-15.34,15.62,20.07-21.21,37.32-44.77,53-69.29q5.85-9.21,11.36-18.6c3.63-6.28,7.16-12.64,10.13-19.16.73-1.63,1.42-3.28,2-4.92.3-.82.56-1.64.78-2.44a10.73,10.73,0,0,0,.38-2.23,1.35,1.35,0,0,0,0-.52s.06.12.18.2a.4.4,0,0,0,.18.1s.09,0,.1,0,0,0,0,0l-.21,0a3.56,3.56,0,0,0-.43.05,5.9,5.9,0,0,0-1,.32,15.53,15.53,0,0,0-4,2.7,59.79,59.79,0,0,0-7.11,7.81c-2.21,2.81-4.29,5.76-6.33,8.74-4.08,6-7.88,12.15-11.65,18.38S495.38,190.7,492,197.12C485.28,210,479.16,223.2,475,237a81.44,81.44,0,0,0-2.42,10.45,36.15,36.15,0,0,0-.28,10.47,14.7,14.7,0,0,0,1.5,4.77,9.38,9.38,0,0,0,3.27,3.52,11.91,11.91,0,0,0,4.7,1.63,24.47,24.47,0,0,0,2.58.2c.89,0,1.77,0,2.66-.07a34.94,34.94,0,0,0,19.62-7.69,48.61,48.61,0,0,0,7.69-7.62A51,51,0,0,0,520.28,243.55Z"/><path class="cls-2" d="M178.11,244.45c6.36,1.86,12.59,4.17,18.8,6.47s12.37,4.76,18.54,7.18c12.33,4.85,24.66,9.71,37,14.44,24.7,9.55,49.59,18.63,74.78,26.72s50.66,15.33,76.47,21,51.94,9.93,78.26,11.57a347.06,347.06,0,0,0,39.5.34q19.78-1.05,39.49-3.25t39.19-5.74c6.48-1.24,13-2.53,19.38-4s12.84-3.06,19.19-4.84c25.4-7.09,50.22-16.75,72.81-30.43a181.74,181.74,0,0,0,31.6-23.72,130.11,130.11,0,0,0,13.34-14.62,97.53,97.53,0,0,0,5.74-8.08,59.18,59.18,0,0,0,4.7-8.73,60.38,60.38,0,0,1-4.43,8.89c-1.7,2.85-3.55,5.62-5.52,8.29a132.42,132.42,0,0,1-13.08,15,183.62,183.62,0,0,1-31.3,24.64c-22.59,14.14-47.51,24.22-73,31.73s-51.8,12.27-78.18,15.43c-13.21,1.56-26.45,2.64-39.72,3.38a343.67,343.67,0,0,1-40-.26A508.44,508.44,0,0,1,402.9,324a788.53,788.53,0,0,1-76.6-21.78c-25.15-8.47-50-17.88-74.54-27.82-12.27-5-24.49-10.15-36.71-15.28-6.11-2.56-12.22-5.11-18.36-7.6S184.41,246.5,178.11,244.45Z"/><path class="cls-2" d="M572.52,212.15a12,12,0,0,0-3-4.06,15.71,15.71,0,0,0-4.19-2.74,24.76,24.76,0,0,0-9.71-2.2,27.88,27.88,0,0,0-9.84,1.21,35.85,35.85,0,0,0-9,4.16,52.24,52.24,0,0,0-7.95,6A65.48,65.48,0,0,0,522,221.8a70.08,70.08,0,0,0-5.76,8.15,44.78,44.78,0,0,0-4.26,8.86c-2.08,6.12-2.31,13,.27,18.67a16.49,16.49,0,0,0,5.79,7,15.66,15.66,0,0,0,8.6,2.6,29.65,29.65,0,0,0,9.39-1.54,46.36,46.36,0,0,0,8.9-4,67,67,0,0,0,8.16-5.55,84.51,84.51,0,0,0,7.36-6.67c2.34-2.36,4.48-4.88,6.67-7.48s4.29-5.22,6.37-7.87A157,157,0,0,0,585,217.48a37.31,37.31,0,0,0,2.19-4.32,13,13,0,0,0,.71-2.1,3,3,0,0,0,.09-1.35s0,0,0,0,0,0,0,0h0s-.12,0-.21-.06-.21,0-.31,0a4,4,0,0,0-1.64.45,14.9,14.9,0,0,0-3.57,2.73,52.13,52.13,0,0,0-6.17,7.65,86.37,86.37,0,0,0-5.16,8.56,96.44,96.44,0,0,0-7.65,18.51,43.06,43.06,0,0,0-1.08,4.83,25.78,25.78,0,0,0-.4,4.86,14.66,14.66,0,0,0,.74,4.65,8.43,8.43,0,0,0,2.52,3.72c2.3,2,5.75,2.62,9,2.56s6.31-1.65,9.18-3.33a60.6,60.6,0,0,0,8.15-6,88.54,88.54,0,0,0,7.4-7,73.35,73.35,0,0,1-15,13.84,31.21,31.21,0,0,1-4.53,2.52,16.6,16.6,0,0,1-5.1,1.43,21.08,21.08,0,0,1-5.32-.32,12,12,0,0,1-5-2.23,10.53,10.53,0,0,1-3.29-4.49,17.13,17.13,0,0,1-1-5.33,28.33,28.33,0,0,1,.26-5.3,44.38,44.38,0,0,1,1-5.14,76,76,0,0,1,3.19-9.85q1.89-4.81,4.21-9.43a91.94,91.94,0,0,1,5.15-9,54.65,54.65,0,0,1,6.49-8.29,18.25,18.25,0,0,1,4.46-3.45,7.26,7.26,0,0,1,3.25-.85,4.86,4.86,0,0,1,2,.38l.55.26c.18.13.35.28.52.43a3.6,3.6,0,0,1,.77,1.06,4.9,4.9,0,0,1,.33,1.08,6.58,6.58,0,0,1,.07,1c0,.29,0,.59-.06.86l-.13.77a17.47,17.47,0,0,1-.87,2.73,39.43,39.43,0,0,1-2.35,4.79,149.08,149.08,0,0,1-11.7,17q-3.13,4.06-6.41,8c-2.17,2.6-4.41,5.28-6.86,7.75a87.05,87.05,0,0,1-7.76,7,72.15,72.15,0,0,1-8.69,5.85,49.59,49.59,0,0,1-9.67,4.29,31.91,31.91,0,0,1-10.65,1.64A19.32,19.32,0,0,1,516,267.49a20.09,20.09,0,0,1-7-8.58,25.18,25.18,0,0,1-2-10.65,32.93,32.93,0,0,1,2-10.48,47,47,0,0,1,4.75-9.36,70.26,70.26,0,0,1,13.57-15.61,52.82,52.82,0,0,1,8.47-6,37.82,37.82,0,0,1,9.61-3.93,29.48,29.48,0,0,1,10.32-.81,25.63,25.63,0,0,1,9.92,2.72,15.93,15.93,0,0,1,4.12,3.07A11.86,11.86,0,0,1,572.52,212.15Z"/><path class="cls-2" d="M713.77,212.15a13.12,13.12,0,0,0-4.83-5.42,20,20,0,0,0-6.7-2.74,33.82,33.82,0,0,0-7.24-.66,12,12,0,0,0-1.8.1l-1.79.16-1.77.35a13.11,13.11,0,0,0-1.75.42,40.61,40.61,0,0,0-12.83,6.47,62,62,0,0,0-10.59,9.89,72.27,72.27,0,0,0-8.23,11.92,33.91,33.91,0,0,0-4.3,13.33,22.07,22.07,0,0,0,2.61,13.18,15.47,15.47,0,0,0,10.36,7.49,18.2,18.2,0,0,0,3.3.34,30.73,30.73,0,0,0,3.45-.22,33.43,33.43,0,0,0,6.84-1.59,51.75,51.75,0,0,0,12.73-6.46,65.34,65.34,0,0,0,11-9.37,58.31,58.31,0,0,0,8.69-11.48,39.11,39.11,0,0,0,4.66-13.48,28.6,28.6,0,0,0-1.2-14.08c-.86-2.15-2-4.39-4-5.19a12,12,0,0,0-6.9-.38,19.36,19.36,0,0,0-6.71,2.71,15.81,15.81,0,0,0-5.16,5.16,16.31,16.31,0,0,1,4.82-5.67,20.2,20.2,0,0,1,6.79-3.29,13,13,0,0,1,7.74,0l.94.41a5,5,0,0,1,.9.6,9.51,9.51,0,0,1,1.44,1.47,16.39,16.39,0,0,1,2,3.4,30.71,30.71,0,0,1,2,15.16,40.86,40.86,0,0,1-4.51,14.63,52.42,52.42,0,0,1-4,6.52c-.74,1-1.55,2-2.35,3s-1.65,1.92-2.49,2.87a68.59,68.59,0,0,1-11.4,10.11,54,54,0,0,1-13.64,7,37.42,37.42,0,0,1-7.6,1.81,34.65,34.65,0,0,1-4,.28,21.65,21.65,0,0,1-4.09-.41,19,19,0,0,1-3.94-1.26,17.78,17.78,0,0,1-3.58-2.08,20,20,0,0,1-5.44-6.11,23.54,23.54,0,0,1-2.74-7.59,26.81,26.81,0,0,1-.25-7.94,37.47,37.47,0,0,1,5-14.67,69.44,69.44,0,0,1,9-12.28,62.51,62.51,0,0,1,11.43-10,42.74,42.74,0,0,1,13.87-6.22,13.22,13.22,0,0,1,1.88-.34l1.9-.27,1.92-.07a17.38,17.38,0,0,1,1.91,0,33.26,33.26,0,0,1,7.48,1.14,20.62,20.62,0,0,1,6.78,3.33A13.36,13.36,0,0,1,713.77,212.15Z"/><path class="cls-2" d="M460.39,251.92a73.87,73.87,0,0,1-15,13.84,32.29,32.29,0,0,1-4.54,2.52,16.6,16.6,0,0,1-5.1,1.43,20.55,20.55,0,0,1-5.31-.33,12,12,0,0,1-5-2.22,10.59,10.59,0,0,1-3.28-4.49,16.85,16.85,0,0,1-1-5.33,28.33,28.33,0,0,1,.26-5.3,46.57,46.57,0,0,1,1-5.14,76,76,0,0,1,3.2-9.85c1.26-3.21,2.67-6.34,4.21-9.42a89,89,0,0,1,5.15-9,54,54,0,0,1,6.48-8.28,18.26,18.26,0,0,1,4.47-3.45,7.35,7.35,0,0,1,3.24-.86,5,5,0,0,1,2,.38c.18.08.37.17.55.27s.35.27.52.42a3.6,3.6,0,0,1,.77,1.06,5.39,5.39,0,0,1,.33,1.09,8,8,0,0,1,.07,1c0,.29,0,.59-.06.85l-.14.78a16.47,16.47,0,0,1-.86,2.73,41.75,41.75,0,0,1-2.35,4.79c-1.7,3-3.62,5.92-5.58,8.74s-4,5.56-6.12,8.26-4.23,5.37-6.41,8-4.41,5.28-6.85,7.76a87.18,87.18,0,0,1-7.77,7,70.6,70.6,0,0,1-8.69,5.85,50.14,50.14,0,0,1-9.66,4.3,32.79,32.79,0,0,1-10.66,1.64,19.42,19.42,0,0,1-10.57-3.39,20,20,0,0,1-7-8.58,25.35,25.35,0,0,1-2-10.65,33.15,33.15,0,0,1,2-10.48,47.61,47.61,0,0,1,4.76-9.36A69.67,69.67,0,0,1,389,212.81a52.88,52.88,0,0,1,8.47-6,37.36,37.36,0,0,1,9.62-3.92,29.19,29.19,0,0,1,10.31-.81,25.75,25.75,0,0,1,9.92,2.71,16.2,16.2,0,0,1,4.12,3.08,11.86,11.86,0,0,1,2.76,4.27,11.56,11.56,0,0,0-3-4.05,15.61,15.61,0,0,0-4.18-2.75,25.2,25.2,0,0,0-9.72-2.2,27.92,27.92,0,0,0-9.84,1.22,36,36,0,0,0-9,4.15,53.25,53.25,0,0,0-7.95,6,64.47,64.47,0,0,0-6.86,7.26,69.73,69.73,0,0,0-5.76,8.15,44.5,44.5,0,0,0-4.26,8.86c-2.08,6.12-2.31,13,.26,18.67a16.5,16.5,0,0,0,5.8,7,15.7,15.7,0,0,0,8.59,2.61,29.93,29.93,0,0,0,9.39-1.54,46.36,46.36,0,0,0,8.9-4,66,66,0,0,0,8.16-5.56,82.82,82.82,0,0,0,7.36-6.66c2.34-2.35,4.49-4.88,6.67-7.48s4.29-5.21,6.37-7.87a154.49,154.49,0,0,0,11.49-16.47,35.88,35.88,0,0,0,2.2-4.32,13,13,0,0,0,.71-2.1,3.22,3.22,0,0,0,.09-1.35s0,0,0,0a0,0,0,0,0,0,0h0s-.13,0-.21-.07a3.16,3.16,0,0,0-.32,0,3.77,3.77,0,0,0-1.64.44,15.41,15.41,0,0,0-3.58,2.73,52.82,52.82,0,0,0-6.16,7.66,88.42,88.42,0,0,0-5.17,8.56,96.41,96.41,0,0,0-7.64,18.51,45.44,45.44,0,0,0-1.09,4.83,26.62,26.62,0,0,0-.39,4.86,15,15,0,0,0,.73,4.66,8.65,8.65,0,0,0,2.53,3.72c2.3,2,5.75,2.61,8.95,2.56s6.32-1.66,9.18-3.34a62.16,62.16,0,0,0,8.16-6A92,92,0,0,0,460.39,251.92Z"/><path class="cls-2" d="M767.72,226.14a38.56,38.56,0,0,0,.84-6.31,28.52,28.52,0,0,0-.24-6.27,17.62,17.62,0,0,0-.72-3,11.72,11.72,0,0,0-1.29-2.72,8.9,8.9,0,0,0-4.45-3.58,14.46,14.46,0,0,0-5.83-.67,12.65,12.65,0,0,0-5.51,1.7,11,11,0,0,0-3.94,4,8.29,8.29,0,0,0-1.07,5.2c.48,3.55,3.56,6.26,7.18,7.66.91.38,1.82.64,2.83,1s2.1.61,3.13,1a46.48,46.48,0,0,1,6.15,2.52c1,.46,2,1.07,3,1.64l1.4,1,.7.5.66.56a20,20,0,0,1,4.58,5.33l.83,1.6c.25.54.41,1.12.62,1.69l.29.85c.09.29.12.59.18.88l.31,1.77c.08.58,0,1.18.08,1.77a11.49,11.49,0,0,1,0,1.76l-.19,1.73a10.4,10.4,0,0,1-.29,1.7L776.5,251a10,10,0,0,1-.51,1.64l-.63,1.63c-.11.27-.21.54-.33.81l-.42.76a19.94,19.94,0,0,1-1.84,2.95l-1,1.39c-.38.43-.79.84-1.18,1.26a30.81,30.81,0,0,1-11.34,7.31,39.6,39.6,0,0,1-13.09,2.56,24.27,24.27,0,0,1-6.8-.79A33.17,33.17,0,0,1,733.1,268a35,35,0,0,1-10.46-8.1,25.79,25.79,0,0,1-6-11.79,21.62,21.62,0,0,1,1.59-12.94,33.3,33.3,0,0,1,7.53-10.36,42.35,42.35,0,0,0-3.75,5.13,27.58,27.58,0,0,0-2.75,5.65,20.43,20.43,0,0,0-.69,12.09,23.57,23.57,0,0,0,6,10.44,33.25,33.25,0,0,0,9.89,7.06,30.47,30.47,0,0,0,5.7,2,21.1,21.1,0,0,0,5.85.53,36.24,36.24,0,0,0,11.79-2.58,27.52,27.52,0,0,0,9.89-6.48l1-1.07.85-1.18a15.17,15.17,0,0,0,1.51-2.46l.36-.63.26-.68.51-1.35a8.1,8.1,0,0,0,.42-1.4l.35-1.44a7,7,0,0,0,.25-1.43l.18-1.44a9.63,9.63,0,0,0,0-1.42c0-.47,0-1,0-1.42l-.24-1.38c0-.22-.06-.46-.13-.68l-.23-.66c-.16-.43-.27-.88-.46-1.31l-.64-1.23a15.83,15.83,0,0,0-3.66-4.32l-.55-.48-.6-.43-1.2-.85c-.87-.5-1.68-1.07-2.6-1.51a42,42,0,0,0-5.61-2.44c-1-.35-2-.67-2.94-1a31.55,31.55,0,0,1-3.19-1.15,16.71,16.71,0,0,1-5.82-3.93,11,11,0,0,1-1.41-13.64,13.31,13.31,0,0,1,5.15-4.79,15.07,15.07,0,0,1,6.66-1.71,16.28,16.28,0,0,1,6.7,1.15,10.61,10.61,0,0,1,5,4.61,12.62,12.62,0,0,1,1.24,3.12,16.46,16.46,0,0,1,.54,3.25A34.23,34.23,0,0,1,767.72,226.14Z"/><path class="cls-2" d="M666.57,202.53a326.27,326.27,0,0,1-23.71,29.32c-4.21,4.69-8.64,9.18-13.27,13.52-2.32,2.17-4.76,4.22-7.29,6.19a44.43,44.43,0,0,1-8.33,5.26,17.94,17.94,0,0,1-2.49.91l-2.47.55c-.86.09-1.7.24-2.58.28a16.84,16.84,0,0,1-2.65-.08,11.62,11.62,0,0,1-5.25-1.73,10.36,10.36,0,0,1-3.83-4.16,10.88,10.88,0,0,1-1.21-5.5,9.51,9.51,0,0,1,2.08-5.34,9.68,9.68,0,0,1,4.71-3.13,11.16,11.16,0,0,1,5.44-.12,18.15,18.15,0,0,1,8.73,5.08,37.89,37.89,0,0,1,5.78,7.77,70,70,0,0,1,6.73,17.7,86.91,86.91,0,0,0-8.4-16.65,36,36,0,0,0-5.91-6.89,22.8,22.8,0,0,0-3.58-2.53,12.78,12.78,0,0,0-3.93-1.4,8,8,0,0,0-3.85.27,6.23,6.23,0,0,0-2.95,2.09,5.81,5.81,0,0,0-1.18,3.33,7.15,7.15,0,0,0,.92,3.55,7.28,7.28,0,0,0,6.11,3.74,12.45,12.45,0,0,0,2,0c.69,0,1.4-.17,2.1-.25l2.11-.48a16.73,16.73,0,0,0,1.92-.73,41.53,41.53,0,0,0,7.57-4.71c2.44-1.84,4.79-3.84,7.12-5.88,4.67-4.08,9.11-8.47,13.55-12.86C649.41,220.84,658,211.69,666.57,202.53Z"/><path class="cls-2" d="M375,243.41a52.07,52.07,0,0,1-6.72,10.71,45.64,45.64,0,0,1-9.21,8.72,38.22,38.22,0,0,1-5.5,3.22,34.56,34.56,0,0,1-12.32,3.24c-1.07,0-2.13.13-3.21.09a19.61,19.61,0,0,1-3.23-.37,12.08,12.08,0,0,1-5.86-2.93,12.66,12.66,0,0,1-3.36-5.64c-1.26-4.22-1.09-8.62-.6-12.84,1.11-8.49,3.72-16.63,6.66-24.58s6.48-15.66,10.22-23.25,7.76-15.07,12.18-22.3S362.71,163,367.53,156a127.63,127.63,0,0,1,7.7-10.22A56.79,56.79,0,0,1,379.7,141a19.94,19.94,0,0,1,5.64-3.88,8.43,8.43,0,0,1,1.87-.52,6,6,0,0,1,1.06-.07,3.48,3.48,0,0,1,1.38.3,2.8,2.8,0,0,1,1.28,1.2,3.31,3.31,0,0,1,.39,1.41,6.44,6.44,0,0,1-.26,2.07,25.77,25.77,0,0,1-2.91,6.11,101,101,0,0,1-7.56,10.41A222.44,222.44,0,0,1,363.2,176.7q-9.17,8.84-19.05,16.88c-6.61,5.3-13.24,10.47-19.87,15.71l-39.75,31.36-9.94,7.84a41.28,41.28,0,0,0-4.48,4,20.48,20.48,0,0,0-3.38,4.66,9.65,9.65,0,0,0-1.22,5,5.27,5.27,0,0,0,2.07,3.94,4.28,4.28,0,0,0,2,.78,8,8,0,0,0,1.19,0,4.89,4.89,0,0,0,1.14-.22,8.65,8.65,0,0,0,4-3A36.76,36.76,0,0,0,281.19,253a119.79,119.79,0,0,0,3.31-12c1.86-8.15,3.25-16.45,4.64-24.77l2.11-12.48c.7-4.16,1.4-8.33,2.17-12.5s1.58-8.31,2.42-12.45c.41-2,.84-4.21,1.43-6.3s1.26-4.15,2-6.17a87.65,87.65,0,0,1,5.44-11.71A74.62,74.62,0,0,1,312,143.88a37.13,37.13,0,0,1,4.61-4.79,16.53,16.53,0,0,1,2.92-2,8.19,8.19,0,0,1,1.86-.73,5.37,5.37,0,0,1,2.38-.07,5.5,5.5,0,0,1,.66.21,2.84,2.84,0,0,1,1.76,2.23,5.09,5.09,0,0,1-.27,2.39,17.5,17.5,0,0,1-1.53,3.19,59.93,59.93,0,0,1-3.71,5.37c-5.24,6.78-11,13-16.77,19.19S292.07,181,286,186.89c-3,3-6.08,5.87-9.19,8.75s-6.27,5.68-9.42,8.5q-9.45,8.45-19.29,16.47c-6.54,5.35-13.14,10.61-19.74,15.86a250.15,250.15,0,0,1-20.57,14.9,177.71,177.71,0,0,1-22.17,12.45,79,79,0,0,1-12,4.42c-4.11,1.07-8.48,1.78-12.77,1a15.21,15.21,0,0,1-6-2.42,9.81,9.81,0,0,1-3.82-5.25,11,11,0,0,1,.15-6.46,14.8,14.8,0,0,1,3.25-5.53,19.57,19.57,0,0,1,11.11-5.9,28.52,28.52,0,0,1,12.56.81,28.4,28.4,0,0,0-12.5-.51,19.1,19.1,0,0,0-10.72,6,14.36,14.36,0,0,0-3,5.35,10.26,10.26,0,0,0,0,6A9,9,0,0,0,155.4,266a14.44,14.44,0,0,0,5.67,2.16c4.06.7,8.25-.05,12.25-1.16A76.35,76.35,0,0,0,185,262.45a174.28,174.28,0,0,0,21.72-12.71c7-4.71,13.76-9.67,20.24-15s13.08-10.65,19.55-16.05,12.8-10.93,19-16.61c3.11-2.84,6.24-5.68,9.28-8.57s6.06-5.83,9-8.8q9-8.9,17.57-18.13c5.71-6.16,11.4-12.38,16.45-19a57.33,57.33,0,0,0,3.46-5,14.19,14.19,0,0,0,1.21-2.5,2.41,2.41,0,0,0,.14-.72.68.68,0,0,0,.22.35.72.72,0,0,0,.15.1l-.09,0a3.11,3.11,0,0,0-1.83.48,13.38,13.38,0,0,0-2.27,1.59,32.8,32.8,0,0,0-4.13,4.34,70,70,0,0,0-6.82,10.26,82,82,0,0,0-5.18,11.23c-.72,1.94-1.36,3.89-1.9,5.87s-.93,3.95-1.35,6.05q-1.23,6.19-2.36,12.39c-.74,4.14-1.42,8.29-2.12,12.46l-2.06,12.48c-1.36,8.33-2.72,16.69-4.58,25a123.24,123.24,0,0,1-3.39,12.4,57,57,0,0,1-2.41,6.09,28.91,28.91,0,0,1-3.51,5.81,12.59,12.59,0,0,1-6,4.35,9.43,9.43,0,0,1-2,.38,11.9,11.9,0,0,1-2,0,8.08,8.08,0,0,1-3.85-1.52,8.72,8.72,0,0,1-2.63-3.07,9.79,9.79,0,0,1-1.05-3.8,13.47,13.47,0,0,1,1.66-7.12c2.19-4.19,5.56-7.28,9-10l10-7.8L322,206.43c6.63-5.21,13.32-10.39,19.89-15.62s12.84-10.82,18.89-16.62A226.51,226.51,0,0,0,378,155.91a97.92,97.92,0,0,0,7.42-10A22.85,22.85,0,0,0,388,140.7a3.73,3.73,0,0,0,.17-1c0-.11,0-.15,0-.11a.39.39,0,0,0,.15.14.52.52,0,0,0-.16,0,5.11,5.11,0,0,0-.52,0,5,5,0,0,0-1.17.32,17,17,0,0,0-4.74,3.24,52.58,52.58,0,0,0-4.27,4.42c-2.71,3.13-5.22,6.48-7.63,9.9-4.83,6.86-9.24,14-13.63,21.23s-8.51,14.49-12.33,22-7.32,15.14-10.4,23-5.77,15.81-7,24.06c-.56,4.11-.77,8.35.33,12.28a11.53,11.53,0,0,0,2.94,5.16A10.83,10.83,0,0,0,335,268a17.1,17.1,0,0,0,3,.4c1,.06,2.07,0,3.11,0a35.6,35.6,0,0,0,6.17-.91,36.54,36.54,0,0,0,5.91-2,38.48,38.48,0,0,0,5.46-3.06,45.14,45.14,0,0,0,9.31-8.42A51.53,51.53,0,0,0,375,243.41Z"/></g></svg>