<svg xmlns="http://www.w3.org/2000/svg" viewBox="0 0 958.94 498.67"><defs><style>.cls-1{fill:#2a467c;}.cls-2{fill:#fff;}</style></defs><g id="Warstwa_2" data-name="Warstwa 2"><rect class="cls-1" y="-0.03" width="958.94" height="498.67"/></g><g id="Warstwa_3" data-name="Warstwa 3"><path class="cls-2" d="M412.68,271.39a5.14,5.14,0,0,0,1.25-.11.73.73,0,0,0,.49-.36,2.16,2.16,0,0,0,.11-.84V258.81a2.27,2.27,0,0,0-.11-.87.73.73,0,0,0-.49-.36,5.14,5.14,0,0,0-1.25-.11v-.77h11.39v3.89h-.58a8.05,8.05,0,0,0-.65-1.81,2.07,2.07,0,0,0-1-.89,4.74,4.74,0,0,0-1.84-.28h-1.74a1.15,1.15,0,0,0-.71.16.86.86,0,0,0-.18.64v5.53H420a3.27,3.27,0,0,0,1.25-.18,1.12,1.12,0,0,0,.6-.57,5.48,5.48,0,0,0,.35-1.25h.57v5h-.57a5,5,0,0,0-.35-1.23,1.12,1.12,0,0,0-.6-.57A3.52,3.52,0,0,0,420,265h-2.58v5.08a2,2,0,0,0,.14.87.86.86,0,0,0,.59.36,7.18,7.18,0,0,0,1.48.11v.77h-6.92Z"/><path class="cls-2" d="M425.45,271.39a3.37,3.37,0,0,0,1-.11.6.6,0,0,0,.4-.34,2.13,2.13,0,0,0,.09-.72v-6.78a1.83,1.83,0,0,0-.13-.86.56.56,0,0,0-.52-.21h-.71v-.8L429,261h.65v9.19a2.24,2.24,0,0,0,.1.75.56.56,0,0,0,.4.32,3.42,3.42,0,0,0,1,.1v.77h-5.74ZM427.14,259a1.5,1.5,0,0,1-.42-1.09,1.52,1.52,0,0,1,.42-1.1,1.44,1.44,0,0,1,1.1-.45,1.48,1.48,0,0,1,1.13.45,1.52,1.52,0,0,1,.42,1.1,1.45,1.45,0,0,1-.45,1.09,1.49,1.49,0,0,1-1.1.43A1.46,1.46,0,0,1,427.14,259Z"/><path class="cls-2" d="M441.3,261.47a2.08,2.08,0,0,1,.48,1.39,1.76,1.76,0,0,1-.39,1.21,1.46,1.46,0,0,1-1.13.43,1.41,1.41,0,0,1-1-.33,1.14,1.14,0,0,1-.37-.91,1.31,1.31,0,0,1,.11-.57,1.48,1.48,0,0,1,.28-.39c.12-.13.17-.21.17-.26a.23.23,0,0,0-.07-.17.33.33,0,0,0-.23-.07,1.43,1.43,0,0,0-.94.54,4.73,4.73,0,0,0-.89,1.44,5,5,0,0,0-.37,1.94v4.5a1.6,1.6,0,0,0,.13.75.75.75,0,0,0,.52.32,5.73,5.73,0,0,0,1.29.1v.77h-6.18v-.77a3.3,3.3,0,0,0,1-.11.58.58,0,0,0,.4-.34,2.09,2.09,0,0,0,.1-.72v-6.78a1.8,1.8,0,0,0-.14-.85.57.57,0,0,0-.52-.22h-.7v-.8l3.37-.54h.66v2h0a3.19,3.19,0,0,1,2.89-2.18A1.8,1.8,0,0,1,441.3,261.47Z"/><path class="cls-2" d="M461,271a.62.62,0,0,0,.41.32,3.5,3.5,0,0,0,1,.1v.77h-5.55v-.77a4.49,4.49,0,0,0,.89-.06.47.47,0,0,0,.35-.27,2,2,0,0,0,.09-.73v-5.62a2.46,2.46,0,0,0-.52-1.69,1.91,1.91,0,0,0-1.49-.58,2.49,2.49,0,0,0-1.23.3,3.62,3.62,0,0,0-1.07,1v6.52a2,2,0,0,0,.1.73.53.53,0,0,0,.37.34,2.71,2.71,0,0,0,.87.1v.77H449.8v-.77a4.49,4.49,0,0,0,.89-.06.51.51,0,0,0,.36-.27,1.76,1.76,0,0,0,.11-.73v-5.62a2.46,2.46,0,0,0-.53-1.69,2,2,0,0,0-1.53-.58,2.84,2.84,0,0,0-2.25,1.05v6.84a1.79,1.79,0,0,0,.1.73.51.51,0,0,0,.36.27,4.29,4.29,0,0,0,.85.06v.77H442.6v-.77a3.45,3.45,0,0,0,1-.1.58.58,0,0,0,.4-.32,2.3,2.3,0,0,0,.09-.75v-6.78a1.68,1.68,0,0,0-.14-.85.54.54,0,0,0-.51-.22h-.7v-.8l3.37-.54h.66v1.45a7.29,7.29,0,0,1,1.94-1.16,5.39,5.39,0,0,1,2-.41,3.37,3.37,0,0,1,1.88.52,2.72,2.72,0,0,1,1.09,1.26,5.5,5.5,0,0,1,1.87-1.28,5.41,5.41,0,0,1,2.21-.5,2.93,2.93,0,0,1,2.3.91,3.67,3.67,0,0,1,.82,2.54v5.86A2,2,0,0,0,461,271Z"/><path class="cls-2" d="M474.45,271.67a6.72,6.72,0,0,1-1.12.51,4.46,4.46,0,0,1-1.48.21,2.37,2.37,0,0,1-1.37-.3c-.28-.2-.41-.62-.41-1.26a8.76,8.76,0,0,1-1.64,1.13,4.06,4.06,0,0,1-1.88.43,3.42,3.42,0,0,1-2.08-.6,2,2,0,0,1-.82-1.74,3.44,3.44,0,0,1,1.69-2.8,11.83,11.83,0,0,1,4.73-1.74v-1.43a2.14,2.14,0,0,0-.51-1.48,2.28,2.28,0,0,0-1.67-.49,3,3,0,0,0-1.14.2c-.32.13-.48.27-.48.41a.76.76,0,0,0,.28.49,1.91,1.91,0,0,1,.28.38.87.87,0,0,1,.1.44,1.26,1.26,0,0,1-.35.93,1.36,1.36,0,0,1-2.3-1,2.25,2.25,0,0,1,.57-1.46,4.08,4.08,0,0,1,1.67-1.09,7.31,7.31,0,0,1,2.56-.41,4.05,4.05,0,0,1,2.75.78,3.39,3.39,0,0,1,.88,2.67v5.2a2.72,2.72,0,0,0,.2,1.25.7.7,0,0,0,.65.34,1,1,0,0,0,.42-.08l.23-.1Zm-6.42-1a3.33,3.33,0,0,0,2-.87v-3.42a7.81,7.81,0,0,0-2.86,1.09,2.06,2.06,0,0,0-.92,1.72C466.29,270.22,466.87,270.71,468,270.71Z"/><path class="cls-2" d="M493.1,271.39v.77h-4l-.14-1a7.7,7.7,0,0,1-1.71.91,5.58,5.58,0,0,1-2,.36A3.69,3.69,0,0,1,482.2,271a6.66,6.66,0,0,1-1.1-4.08,6.23,6.23,0,0,1,1.44-4.49,5.45,5.45,0,0,1,4.09-1.49,6.14,6.14,0,0,1,1.15.1,10.49,10.49,0,0,1,1.1.28h0v-2.88a2.16,2.16,0,0,0-.12-.87c-.09-.16-.27-.23-.56-.23h-.7v-.75l3.4-.57h.68v14.23a1.17,1.17,0,0,0,.28.93,1.5,1.5,0,0,0,1,.24Zm-6.3-.49a2.32,2.32,0,0,0,.94-.19,7.87,7.87,0,0,0,1.16-.73v-7.52a3.27,3.27,0,0,0-2-.61,2.46,2.46,0,0,0-2.19,1.09,6.21,6.21,0,0,0-.74,3.41Q484,270.9,486.8,270.9Z"/><path class="cls-2" d="M495.62,271a6,6,0,0,1-1.33-4.33,6.18,6.18,0,0,1,1.34-4.37,5.47,5.47,0,0,1,4.17-1.42,5.38,5.38,0,0,1,4.1,1.4,7.87,7.87,0,0,1,0,8.71,6.87,6.87,0,0,1-8.27,0Zm6.1-.7a7.81,7.81,0,0,0,.61-3.54,8.44,8.44,0,0,0-.63-3.75,2.09,2.09,0,0,0-2-1.19,2.07,2.07,0,0,0-2,1.16,11.11,11.11,0,0,0,0,7.32,2.1,2.1,0,0,0,2,1.15A2.06,2.06,0,0,0,501.72,270.31Z"/><path class="cls-2" d="M515.65,261.47a2.08,2.08,0,0,1,.48,1.39,1.72,1.72,0,0,1-.4,1.21,1.68,1.68,0,0,1-2.12.1,1.17,1.17,0,0,1-.36-.91,1.32,1.32,0,0,1,.1-.57,1.52,1.52,0,0,1,.29-.39c.11-.13.17-.21.17-.26a.23.23,0,0,0-.07-.17.35.35,0,0,0-.23-.07,1.41,1.41,0,0,0-.94.54,4.73,4.73,0,0,0-.89,1.44,5,5,0,0,0-.38,1.94v4.5a1.74,1.74,0,0,0,.13.75.77.77,0,0,0,.53.32,5.73,5.73,0,0,0,1.29.1v.77h-6.19v-.77a3.37,3.37,0,0,0,1-.11.6.6,0,0,0,.4-.34,2.13,2.13,0,0,0,.09-.72v-6.78a1.68,1.68,0,0,0-.14-.85.54.54,0,0,0-.51-.22h-.71v-.8l3.38-.54h.65v2h0a3.19,3.19,0,0,1,2.88-2.18A1.82,1.82,0,0,1,515.65,261.47Z"/><path class="cls-2" d="M528.25,271.67a6.72,6.72,0,0,1-1.12.51,4.53,4.53,0,0,1-1.49.21,2.4,2.4,0,0,1-1.37-.3,1.51,1.51,0,0,1-.41-1.26,8.15,8.15,0,0,1-1.64,1.13,4,4,0,0,1-1.87.43,3.47,3.47,0,0,1-2.09-.6,2.06,2.06,0,0,1-.82-1.74,3.45,3.45,0,0,1,1.7-2.8,11.78,11.78,0,0,1,4.72-1.74v-1.43a2.09,2.09,0,0,0-.5-1.48,2.29,2.29,0,0,0-1.68-.49,3,3,0,0,0-1.13.2c-.32.13-.48.27-.48.41a.76.76,0,0,0,.28.49,2.42,2.42,0,0,1,.28.38.88.88,0,0,1,.09.44,1.22,1.22,0,0,1-.35.93,1.3,1.3,0,0,1-.94.34,1.29,1.29,0,0,1-1.35-1.36,2.25,2.25,0,0,1,.57-1.46,4,4,0,0,1,1.66-1.09,7.37,7.37,0,0,1,2.57-.41,4.05,4.05,0,0,1,2.75.78,3.39,3.39,0,0,1,.88,2.67v5.2a2.72,2.72,0,0,0,.2,1.25.68.68,0,0,0,.64.34,1,1,0,0,0,.43-.08l.23-.1Zm-6.43-1a3.3,3.3,0,0,0,2-.87v-3.42a7.89,7.89,0,0,0-2.86,1.09,2.07,2.07,0,0,0-.91,1.72C520.09,270.22,520.67,270.71,521.82,270.71Z"/><path class="cls-2" d="M541.44,271.39v.77h-4l-.14-1a7.7,7.7,0,0,1-1.71.91,5.62,5.62,0,0,1-2,.36,3.67,3.67,0,0,1-3.12-1.45,6.66,6.66,0,0,1-1.1-4.08,6.23,6.23,0,0,1,1.44-4.49,5.43,5.43,0,0,1,4.09-1.49,6.23,6.23,0,0,1,1.15.1,10.49,10.49,0,0,1,1.1.28h0v-2.88a2,2,0,0,0-.13-.87c-.08-.16-.27-.23-.55-.23h-.7v-.75l3.4-.57h.68v14.23a1.17,1.17,0,0,0,.28.93,1.5,1.5,0,0,0,1,.24Zm-6.31-.49a2.33,2.33,0,0,0,1-.19,7.87,7.87,0,0,0,1.16-.73v-7.52a3.27,3.27,0,0,0-2-.61,2.46,2.46,0,0,0-2.19,1.09,6.21,6.21,0,0,0-.74,3.41Q532.32,270.9,535.13,270.9Z"/><path class="cls-2" d="M544,271a6,6,0,0,1-1.32-4.23,6.2,6.2,0,0,1,1.38-4.39,5.2,5.2,0,0,1,4-1.47,5.89,5.89,0,0,1,2.42.43,3.06,3.06,0,0,1,1.4,1.09,2.5,2.5,0,0,1,.45,1.44A1.58,1.58,0,0,1,552,265a1.32,1.32,0,0,1-1,.4,1.24,1.24,0,0,1-1-.38,1.36,1.36,0,0,1-.34-1,1.49,1.49,0,0,1,.1-.59l.13-.28a1,1,0,0,0,.17-.47.68.68,0,0,0-.43-.6,2.94,2.94,0,0,0-3.32.7,5.74,5.74,0,0,0-.73,3.4,6.66,6.66,0,0,0,.77,3.58,2.68,2.68,0,0,0,2.39,1.17,2.89,2.89,0,0,0,2-.61,5.21,5.21,0,0,0,1.13-1.54l.59.35a5,5,0,0,1-1.61,2.42,4.79,4.79,0,0,1-3,.83A5,5,0,0,1,544,271Z"/><path class="cls-2" d="M553.83,271.36l6.44-9.3H558.4a4.78,4.78,0,0,0-1.75.26,1.85,1.85,0,0,0-.93.81,5.66,5.66,0,0,0-.55,1.56h-.61l.26-3.54h8.57V262L557,271.25h2.6a5.63,5.63,0,0,0,1.9-.26,2,2,0,0,0,1-.86,6.11,6.11,0,0,0,.64-1.72h.61l-.26,3.75h-9.65Z"/><path class="cls-2" d="M566.71,271a6,6,0,0,1-1.33-4.33,6.18,6.18,0,0,1,1.34-4.37,5.47,5.47,0,0,1,4.17-1.42,5.4,5.4,0,0,1,4.1,1.4,7.87,7.87,0,0,1,0,8.71,6.87,6.87,0,0,1-8.27,0Zm6.1-.7a7.81,7.81,0,0,0,.61-3.54,8.44,8.44,0,0,0-.63-3.75,2.1,2.1,0,0,0-2-1.19,2.07,2.07,0,0,0-2,1.16,11.11,11.11,0,0,0,0,7.32,2.1,2.1,0,0,0,2,1.15A2.06,2.06,0,0,0,572.81,270.31Z"/><path class="cls-2" d="M584.24,264.31h6.12v1.9h-6.12Z"/><path class="cls-2" d="M601.62,272.31c-.28-.07-.6-.16-1-.29a2.28,2.28,0,0,0-.89-.23.78.78,0,0,0-.44.1,1.12,1.12,0,0,0-.29.34h-.45l-.21-3.86H599a5,5,0,0,0,1.42,2.27,3.11,3.11,0,0,0,2.14.86,1.81,1.81,0,0,0,1.31-.45,1.67,1.67,0,0,0,.47-1.23,1.43,1.43,0,0,0-.21-.81,2,2,0,0,0-.63-.57,14,14,0,0,0-1.39-.73l-.46-.24a7.57,7.57,0,0,1-2.24-1.48,2.56,2.56,0,0,1-.62-1.8,3,3,0,0,1,1-2.42,4.27,4.27,0,0,1,2.81-.86,5.58,5.58,0,0,1,1.83.31,3.55,3.55,0,0,0,.7.14.51.51,0,0,0,.35-.09.57.57,0,0,0,.13-.2l0-.13h.49l.19,3.44h-.59a3.49,3.49,0,0,0-1.09-1.83,2.76,2.76,0,0,0-1.84-.7,2,2,0,0,0-1.21.35,1.12,1.12,0,0,0-.48.94c0,.7.53,1.3,1.6,1.78l.72.33a13.79,13.79,0,0,1,1.81,1,3.62,3.62,0,0,1,1.08,1.09,3,3,0,0,1,.39,1.58,3.26,3.26,0,0,1-1.11,2.57,4.34,4.34,0,0,1-2.94,1A4.24,4.24,0,0,1,601.62,272.31Z"/><path class="cls-2" d="M608.33,271.36l6.44-9.3H612.9a4.78,4.78,0,0,0-1.75.26,1.85,1.85,0,0,0-.93.81,5.66,5.66,0,0,0-.55,1.56h-.61l.25-3.54h8.58V262l-6.44,9.28h2.6A5.63,5.63,0,0,0,616,271a2,2,0,0,0,1-.86,6.11,6.11,0,0,0,.64-1.72h.61l-.26,3.75h-9.65Z"/><path class="cls-2" d="M631.6,271.39v.77h-5v-.77h.21a.82.82,0,0,0,.34-.07.23.23,0,0,0,.13-.19.71.71,0,0,0-.14-.33l-.33-.47-2.39-3.3-.78.91v2.28a1.93,1.93,0,0,0,.11.73.59.59,0,0,0,.42.34,3.37,3.37,0,0,0,1,.1v.77h-5.74v-.77a3.5,3.5,0,0,0,1-.11.6.6,0,0,0,.41-.34,2.09,2.09,0,0,0,.1-.72V258.43a1.89,1.89,0,0,0-.14-.88.6.6,0,0,0-.54-.22h-.71v-.8L623,256h.65V266.8l2.39-3.17a2.89,2.89,0,0,0,.71-1.36c0-.23-.14-.35-.42-.35h-.54v-.77H631v.77h-.33a3.77,3.77,0,0,0-1.85.47,6.4,6.4,0,0,0-1.71,1.48L626,265.13l3.17,4.34a11.27,11.27,0,0,0,1.25,1.51,1.41,1.41,0,0,0,.9.41Z"/><path class="cls-2" d="M633.27,271a6.08,6.08,0,0,1-1.32-4.33,6.18,6.18,0,0,1,1.33-4.37,5.51,5.51,0,0,1,4.18-1.42,5.41,5.41,0,0,1,4.1,1.4,7.84,7.84,0,0,1,0,8.71,6.87,6.87,0,0,1-8.27,0Zm6.11-.7a8,8,0,0,0,.61-3.54,8.28,8.28,0,0,0-.64-3.75,2.08,2.08,0,0,0-2-1.19,2.05,2.05,0,0,0-2,1.16,11.11,11.11,0,0,0,0,7.32,2.27,2.27,0,0,0,4,0Z"/><path class="cls-2" d="M644,271.39a3.5,3.5,0,0,0,1-.11.6.6,0,0,0,.41-.34,2.13,2.13,0,0,0,.09-.72V258.43a1.77,1.77,0,0,0-.14-.88.58.58,0,0,0-.54-.22h-.7v-.8l3.44-.54h.66v14.23a1.93,1.93,0,0,0,.11.73.59.59,0,0,0,.42.34,3.32,3.32,0,0,0,1,.1v.77H644Z"/><path class="cls-2" d="M661.14,266.8h-7a5.88,5.88,0,0,0,.77,3.07,2.64,2.64,0,0,0,2.36,1.05,3.23,3.23,0,0,0,1.9-.53,3.59,3.59,0,0,0,1.2-1.58l.72.42a5.61,5.61,0,0,1-1.64,2.3,4.86,4.86,0,0,1-3.16.86c-3.36,0-5-1.89-5-5.69a6.4,6.4,0,0,1,1.28-4.33,4.71,4.71,0,0,1,3.74-1.46,4.41,4.41,0,0,1,3.73,1.5,6.47,6.47,0,0,1,1.16,4.08Zm-2.85-.94a9,9,0,0,0-.38-3.05,1.51,1.51,0,0,0-1.57-1,1.77,1.77,0,0,0-1.67,1,6.83,6.83,0,0,0-.58,3.05Z"/><path class="cls-2" d="M674.53,271a.63.63,0,0,0,.44.34,3.59,3.59,0,0,0,1,.1v.77h-5.6v-.77a4.56,4.56,0,0,0,.89-.06.51.51,0,0,0,.36-.27,1.79,1.79,0,0,0,.1-.73v-5.62a2.46,2.46,0,0,0-.52-1.69,1.9,1.9,0,0,0-1.49-.58,3.48,3.48,0,0,0-2.44,1.1v6.79a1.76,1.76,0,0,0,.11.73.51.51,0,0,0,.36.27,4.15,4.15,0,0,0,.85.06v.77H663v-.77a3.45,3.45,0,0,0,1-.1.58.58,0,0,0,.4-.32,2.3,2.3,0,0,0,.09-.75v-6.78a1.8,1.8,0,0,0-.14-.85.54.54,0,0,0-.51-.22h-.71v-.8l3.38-.54h.65v1.55h0a7.24,7.24,0,0,1,2-1.26,5.69,5.69,0,0,1,2-.41,3,3,0,0,1,2.31.91,3.63,3.63,0,0,1,.83,2.54v5.86A2,2,0,0,0,674.53,271Z"/><path class="cls-2" d="M677.36,271.39a3.42,3.42,0,0,0,1-.11.59.59,0,0,0,.39-.34,1.87,1.87,0,0,0,.1-.72v-6.78a2,2,0,0,0-.13-.86.58.58,0,0,0-.53-.21h-.7v-.8l3.44-.54h.66v9.19a2.3,2.3,0,0,0,.09.75.6.6,0,0,0,.4.32,3.45,3.45,0,0,0,1,.1v.77h-5.74ZM679.05,259a1.47,1.47,0,0,1-.43-1.09,1.49,1.49,0,0,1,.43-1.1,1.42,1.42,0,0,1,1.1-.45,1.45,1.45,0,0,1,1.12.45,1.52,1.52,0,0,1,.42,1.1,1.48,1.48,0,0,1-.44,1.09,1.52,1.52,0,0,1-1.1.43A1.45,1.45,0,0,1,679.05,259Z"/><path class="cls-2" d="M686.2,271a7.78,7.78,0,0,1,0-8.7,5.47,5.47,0,0,1,4.17-1.42,5.41,5.41,0,0,1,4.1,1.4,7.84,7.84,0,0,1,0,8.71,6.87,6.87,0,0,1-8.27,0Zm6.11-.7a8,8,0,0,0,.61-3.54,8.28,8.28,0,0,0-.64-3.75,2.22,2.22,0,0,0-3.92,0,11.11,11.11,0,0,0,0,7.32,2.27,2.27,0,0,0,3.95,0Z"/><path class="cls-2" d="M698.24,262.79a1.2,1.2,0,0,0-.46-.69,1.86,1.86,0,0,0-.93-.18v-.77H702v.77h-.65a.72.72,0,0,0-.38.08.37.37,0,0,0-.12.32,2,2,0,0,0,.07.42l1.71,6.47h.05l2.23-8h1.68l2.44,8h.05l1.75-6.52a1.15,1.15,0,0,0,0-.3.43.43,0,0,0-.14-.36.72.72,0,0,0-.42-.11h-.89v-.77h4.26v.77a2.14,2.14,0,0,0-1.09.22,1.21,1.21,0,0,0-.48.74l-2.88,9.28h-1.74l-2.36-6.68H705l-2.16,6.68h-1.73Z"/><path class="cls-2" d="M725.79,271.67a6.26,6.26,0,0,1-1.11.51,4.57,4.57,0,0,1-1.49.21,2.37,2.37,0,0,1-1.37-.3c-.28-.2-.41-.62-.41-1.26a8.44,8.44,0,0,1-1.64,1.13,4,4,0,0,1-1.88.43,3.42,3.42,0,0,1-2.08-.6,2,2,0,0,1-.82-1.74,3.42,3.42,0,0,1,1.7-2.8,11.72,11.72,0,0,1,4.72-1.74v-1.43a2.14,2.14,0,0,0-.51-1.48,2.27,2.27,0,0,0-1.67-.49,3,3,0,0,0-1.14.2c-.32.13-.48.27-.48.41a.81.81,0,0,0,.28.49,2.56,2.56,0,0,1,.29.38.88.88,0,0,1,.09.44,1.26,1.26,0,0,1-.35.93,1.34,1.34,0,0,1-.94.34,1.32,1.32,0,0,1-1-.38,1.33,1.33,0,0,1-.38-1,2.21,2.21,0,0,1,.58-1.46,4,4,0,0,1,1.66-1.09,7.35,7.35,0,0,1,2.56-.41,4.1,4.1,0,0,1,2.76.78,3.42,3.42,0,0,1,.88,2.67v5.2a2.59,2.59,0,0,0,.2,1.25.67.67,0,0,0,.64.34.93.93,0,0,0,.42-.08l.24-.1Zm-6.42-1a3.33,3.33,0,0,0,2-.87v-3.42a7.81,7.81,0,0,0-2.86,1.09,2,2,0,0,0-.91,1.72C717.64,270.22,718.21,270.71,719.37,270.71Z"/><path class="cls-2" d="M412.68,296.77a5.27,5.27,0,0,0,1.25-.1.71.71,0,0,0,.49-.37,2.16,2.16,0,0,0,.11-.84V284.19a2.27,2.27,0,0,0-.11-.87.73.73,0,0,0-.49-.36,5.14,5.14,0,0,0-1.25-.11v-.77h6.73c2.26,0,3.78.45,4.56,1.36a4.66,4.66,0,0,1,1.16,3.09,4.92,4.92,0,0,1-1.34,3.4c-.89,1-2.57,1.48-5,1.48h-1.36v4a2,2,0,0,0,.14.87.82.82,0,0,0,.59.35,8.45,8.45,0,0,0,1.48.09v.77h-6.92Zm6.12-6.3a3,3,0,0,0,2.4-1,4.21,4.21,0,0,0,.88-2.85,3.89,3.89,0,0,0-.84-2.67,3.27,3.27,0,0,0-2.53-.94,1.91,1.91,0,0,0-1.06.2.75.75,0,0,0-.26.62v6.66Z"/><path class="cls-2" d="M435.72,292.18h-7a5.85,5.85,0,0,0,.77,3.07,2.64,2.64,0,0,0,2.37,1.05,3.22,3.22,0,0,0,1.89-.52,3.63,3.63,0,0,0,1.2-1.59l.73.43a5.84,5.84,0,0,1-1.64,2.29,4.91,4.91,0,0,1-3.17.87q-5,0-5-5.7a6.4,6.4,0,0,1,1.28-4.33,4.71,4.71,0,0,1,3.74-1.45,4.44,4.44,0,0,1,3.74,1.5,6.52,6.52,0,0,1,1.16,4.07Zm-2.86-.94a9,9,0,0,0-.38-3,1.5,1.5,0,0,0-1.57-1,1.76,1.76,0,0,0-1.67,1,6.92,6.92,0,0,0-.58,3Z"/><path class="cls-2" d="M449.87,296.77v.77h-4l-.14-1a7.29,7.29,0,0,1-1.71.9,5.58,5.58,0,0,1-2,.36,3.69,3.69,0,0,1-3.12-1.45,6.66,6.66,0,0,1-1.1-4.08,6.2,6.2,0,0,1,1.44-4.48,5.41,5.41,0,0,1,4.09-1.49,6.24,6.24,0,0,1,1.15.09c.31.06.68.16,1.1.28h0v-2.88a2.16,2.16,0,0,0-.12-.87.6.6,0,0,0-.56-.23h-.7v-.75l3.4-.56h.68V295.6a1.2,1.2,0,0,0,.28.94,1.57,1.57,0,0,0,1,.23Zm-6.3-.49a2.16,2.16,0,0,0,.94-.19,6.88,6.88,0,0,0,1.16-.72v-7.53a3.33,3.33,0,0,0-2-.61,2.48,2.48,0,0,0-2.19,1.09,6.23,6.23,0,0,0-.74,3.41Q440.75,296.27,443.57,296.28Z"/><path class="cls-2" d="M462.1,297.05a5.94,5.94,0,0,1-1.11.52,4.57,4.57,0,0,1-1.49.21,2.29,2.29,0,0,1-1.37-.31c-.28-.2-.41-.62-.41-1.26a8.09,8.09,0,0,1-1.64,1.14,4.19,4.19,0,0,1-1.88.43,3.36,3.36,0,0,1-2.08-.61,2,2,0,0,1-.82-1.73,3.4,3.4,0,0,1,1.7-2.8,11.57,11.57,0,0,1,4.72-1.75v-1.43a2.16,2.16,0,0,0-.51-1.48,2.31,2.31,0,0,0-1.67-.49,3,3,0,0,0-1.14.2c-.32.13-.48.27-.48.41a.78.78,0,0,0,.28.49,1.91,1.91,0,0,1,.28.38.82.82,0,0,1,.1.44,1.26,1.26,0,0,1-.35.93,1.29,1.29,0,0,1-.94.34,1.34,1.34,0,0,1-1-.38,1.31,1.31,0,0,1-.37-1,2.22,2.22,0,0,1,.57-1.45,3.89,3.89,0,0,1,1.67-1.09,7.09,7.09,0,0,1,2.56-.41,4.15,4.15,0,0,1,2.76.77,3.45,3.45,0,0,1,.88,2.67V295a2.83,2.83,0,0,0,.19,1.26.72.72,0,0,0,.65.34,1.12,1.12,0,0,0,.42-.08l.23-.11Zm-6.42-1a3.33,3.33,0,0,0,2-.87V291.8a7.81,7.81,0,0,0-2.86,1.09,2.05,2.05,0,0,0-.91,1.73C454,295.6,454.52,296.09,455.68,296.09Z"/><path class="cls-2" d="M474.61,286.7a1.39,1.39,0,0,1,.52,1.17,1.34,1.34,0,0,1-.26.86.92.92,0,0,1-.77.33,1,1,0,0,1-.72-.23.77.77,0,0,1-.24-.56,1.41,1.41,0,0,1,0-.39.92.92,0,0,0,.05-.25.26.26,0,0,0-.09-.18.53.53,0,0,0-.38-.1,1.09,1.09,0,0,0-.91.52,3.53,3.53,0,0,1,.68,2.15,3.08,3.08,0,0,1-1.34,2.76,6,6,0,0,1-3.33.88,8,8,0,0,1-1.57-.15q-.54.44-.54.75c0,.19.13.36.38.51a2.29,2.29,0,0,0,1.15.22h2.13a4.89,4.89,0,0,1,3.14.88,3,3,0,0,1,1.1,2.52,3.43,3.43,0,0,1-1.62,3.08,7.44,7.44,0,0,1-4.1,1,7.07,7.07,0,0,1-3.59-.8,2.52,2.52,0,0,1-1.4-2.31,1.92,1.92,0,0,1,.48-1.35,3.63,3.63,0,0,1,1.63-.88,2.65,2.65,0,0,1-1.14-.73,1.56,1.56,0,0,1-.41-1.05q0-1.2,1.83-2.16a3.18,3.18,0,0,1-2.18-3.16,3.1,3.1,0,0,1,1.43-2.82,6.23,6.23,0,0,1,3.38-.91,7.08,7.08,0,0,1,1.86.25,4.06,4.06,0,0,1,1.51.76,2.33,2.33,0,0,1,2-1.05A2,2,0,0,1,474.61,286.7Zm-4,11.14a5,5,0,0,0-2.46-.46h-1.52a1.78,1.78,0,0,0-1.27,1.78,2.13,2.13,0,0,0,.87,1.76,3.44,3.44,0,0,0,2.18.68,3.68,3.68,0,0,0,2.12-.61,2,2,0,0,0,.88-1.71A1.54,1.54,0,0,0,470.65,297.84ZM469.43,292a3.52,3.52,0,0,0,.52-2.07,3.79,3.79,0,0,0-.4-2,1.66,1.66,0,0,0-1.55-.65,1.72,1.72,0,0,0-1.59.67,4,4,0,0,0-.42,2,4,4,0,0,0,.4,2,1.61,1.61,0,0,0,1.52.68A1.74,1.74,0,0,0,469.43,292Z"/><path class="cls-2" d="M476.92,296.4a6.11,6.11,0,0,1-1.32-4.34,6.19,6.19,0,0,1,1.33-4.37,5.5,5.5,0,0,1,4.17-1.42,5.38,5.38,0,0,1,4.1,1.4,7.89,7.89,0,0,1,0,8.72,6.87,6.87,0,0,1-8.27,0Zm6.1-.71a7.76,7.76,0,0,0,.61-3.53,8.39,8.39,0,0,0-.63-3.75,2.23,2.23,0,0,0-3.93,0,8.22,8.22,0,0,0-.62,3.67,8.09,8.09,0,0,0,.62,3.65,2.1,2.1,0,0,0,2,1.15A2.05,2.05,0,0,0,483,295.69Z"/><path class="cls-2" d="M499.47,286.7a1.36,1.36,0,0,1,.52,1.17,1.34,1.34,0,0,1-.26.86.92.92,0,0,1-.77.33,1,1,0,0,1-.72-.23.77.77,0,0,1-.24-.56,1.41,1.41,0,0,1,0-.39.92.92,0,0,0,0-.25.26.26,0,0,0-.09-.18.53.53,0,0,0-.38-.1,1.09,1.09,0,0,0-.91.52,3.53,3.53,0,0,1,.68,2.15,3.08,3.08,0,0,1-1.34,2.76,6,6,0,0,1-3.33.88,8,8,0,0,1-1.57-.15q-.54.44-.54.75c0,.19.13.36.38.51a2.29,2.29,0,0,0,1.15.22h2.13a4.89,4.89,0,0,1,3.14.88,3,3,0,0,1,1.1,2.52,3.43,3.43,0,0,1-1.62,3.08,7.44,7.44,0,0,1-4.1,1,7.1,7.1,0,0,1-3.59-.8,2.52,2.52,0,0,1-1.4-2.31,1.92,1.92,0,0,1,.48-1.35,3.63,3.63,0,0,1,1.63-.88,2.55,2.55,0,0,1-1.13-.73,1.51,1.51,0,0,1-.41-1.05c0-.8.6-1.52,1.82-2.16a3.18,3.18,0,0,1-2.18-3.16,3.1,3.1,0,0,1,1.43-2.82,6.23,6.23,0,0,1,3.38-.91,7.08,7.08,0,0,1,1.86.25,4.06,4.06,0,0,1,1.51.76,2.33,2.33,0,0,1,2-1.05A2,2,0,0,1,499.47,286.7Zm-4,11.14a5,5,0,0,0-2.46-.46h-1.52a1.78,1.78,0,0,0-1.27,1.78,2.13,2.13,0,0,0,.87,1.76,3.44,3.44,0,0,0,2.18.68,3.68,3.68,0,0,0,2.12-.61,2,2,0,0,0,.88-1.71A1.54,1.54,0,0,0,495.51,297.84ZM494.29,292a3.52,3.52,0,0,0,.52-2.07,3.79,3.79,0,0,0-.4-2,1.66,1.66,0,0,0-1.55-.65,1.72,1.72,0,0,0-1.59.67,4,4,0,0,0-.42,2,4,4,0,0,0,.4,2,1.61,1.61,0,0,0,1.52.68A1.74,1.74,0,0,0,494.29,292Z"/><path class="cls-2" d="M506.83,296.77a5.17,5.17,0,0,0,1.24-.1.69.69,0,0,0,.49-.37,2.13,2.13,0,0,0,.12-.84V284.19a2.32,2.32,0,0,0-.12-.88.66.66,0,0,0-.49-.36,6.12,6.12,0,0,0-1.24-.12v-.75h6.86a8.17,8.17,0,0,1,4,.81,2.91,2.91,0,0,1,1.43,2.75,3.22,3.22,0,0,1-.84,2.33,4.4,4.4,0,0,1-2.35,1.21v0a5,5,0,0,1,2.86,1.37,4,4,0,0,1,1,2.83,3.5,3.5,0,0,1-1.5,3.2,8.11,8.11,0,0,1-4.31.94h-7.12Zm6-7.92a3.61,3.61,0,0,0,2.48-.77,2.83,2.83,0,0,0,.87-2.23,2.7,2.7,0,0,0-.83-2.12,3.69,3.69,0,0,0-2.5-.74,2,2,0,0,0-1.05.2.85.85,0,0,0-.28.74v4.92Zm2.93,7a3.22,3.22,0,0,0,.82-2.39,3.6,3.6,0,0,0-1-2.69,3.75,3.75,0,0,0-2.72-1h-1.36v5.34a1.47,1.47,0,0,0,.4,1.18,2.11,2.11,0,0,0,1.38.34A3.34,3.34,0,0,0,515.78,295.81Z"/><path class="cls-2" d="M521.45,296.77a3.5,3.5,0,0,0,1-.1.66.66,0,0,0,.4-.34,2.2,2.2,0,0,0,.09-.73v-6.77a1.85,1.85,0,0,0-.13-.87.58.58,0,0,0-.53-.21h-.7V287l3.44-.54h.66v9.19a2.3,2.3,0,0,0,.09.75.59.59,0,0,0,.4.33,4,4,0,0,0,1,.09v.77h-5.74Zm1.69-12.36a1.51,1.51,0,0,1-.43-1.09,1.55,1.55,0,0,1,.43-1.1,1.42,1.42,0,0,1,1.1-.44,1.45,1.45,0,0,1,1.12.44,1.54,1.54,0,0,1,.42,1.1,1.44,1.44,0,0,1-.44,1.09,1.52,1.52,0,0,1-1.1.43A1.45,1.45,0,0,1,523.14,284.41Z"/><path class="cls-2" d="M528.6,296.75l6.44-9.3h-1.88a4.71,4.71,0,0,0-1.74.25,1.93,1.93,0,0,0-.94.81,6.15,6.15,0,0,0-.55,1.56h-.61l.26-3.54h8.58v.82l-6.45,9.28h2.6a5.35,5.35,0,0,0,1.9-.26,2,2,0,0,0,1-.85,6.54,6.54,0,0,0,.65-1.72h.61l-.26,3.74H528.6Z"/><path class="cls-2" d="M551.38,296.34a.63.63,0,0,0,.44.34,4,4,0,0,0,1,.09v.77h-5.6v-.77a4.49,4.49,0,0,0,.89-.06.53.53,0,0,0,.37-.27,1.77,1.77,0,0,0,.1-.72v-5.63a2.39,2.39,0,0,0-.53-1.68,1.88,1.88,0,0,0-1.48-.59,3.5,3.5,0,0,0-2.44,1.1v6.8a1.73,1.73,0,0,0,.11.72.51.51,0,0,0,.36.27,4.11,4.11,0,0,0,.84.06v.77h-5.55v-.77a4,4,0,0,0,1-.09.55.55,0,0,0,.39-.33,2,2,0,0,0,.1-.75v-6.77a1.85,1.85,0,0,0-.14-.86.57.57,0,0,0-.52-.22H540V287l3.37-.54h.66V288h0a7.16,7.16,0,0,1,2-1.25,5.44,5.44,0,0,1,2-.41,3,3,0,0,1,2.3.9,3.59,3.59,0,0,1,.84,2.54v5.86A2,2,0,0,0,551.38,296.34Z"/><path class="cls-2" d="M564.07,292.18h-7a6,6,0,0,0,.77,3.07,2.64,2.64,0,0,0,2.37,1.05,3.23,3.23,0,0,0,1.9-.52,3.54,3.54,0,0,0,1.19-1.59l.73.43a5.74,5.74,0,0,1-1.64,2.29,4.88,4.88,0,0,1-3.16.87q-5,0-5-5.7a6.35,6.35,0,0,1,1.28-4.33,4.69,4.69,0,0,1,3.73-1.45,4.43,4.43,0,0,1,3.74,1.5,6.52,6.52,0,0,1,1.16,4.07Zm-2.86-.94a9,9,0,0,0-.37-3,1.51,1.51,0,0,0-1.57-1,1.77,1.77,0,0,0-1.68,1,6.94,6.94,0,0,0-.57,3Z"/><path class="cls-2" d="M569.52,297.7c-.28-.07-.6-.17-1-.3a2.38,2.38,0,0,0-.89-.23.69.69,0,0,0-.43.11,1.07,1.07,0,0,0-.29.33h-.45l-.21-3.86h.59a4.91,4.91,0,0,0,1.42,2.27,3.12,3.12,0,0,0,2.14.87,1.77,1.77,0,0,0,1.31-.46,1.63,1.63,0,0,0,.47-1.23,1.43,1.43,0,0,0-.21-.81,2,2,0,0,0-.63-.57c-.28-.17-.75-.41-1.39-.73l-.46-.23a7.56,7.56,0,0,1-2.24-1.49,2.55,2.55,0,0,1-.62-1.79,3,3,0,0,1,1-2.43,4.27,4.27,0,0,1,2.81-.85,5.57,5.57,0,0,1,1.83.3,2.92,2.92,0,0,0,.7.14.51.51,0,0,0,.35-.09.49.49,0,0,0,.13-.2,1.28,1.28,0,0,0,0-.13H574l.19,3.45h-.59a3.49,3.49,0,0,0-1.09-1.83,2.72,2.72,0,0,0-1.84-.71,2,2,0,0,0-1.21.36,1.09,1.09,0,0,0-.48.93c0,.71.53,1.3,1.6,1.78l.72.33a16.72,16.72,0,0,1,1.81,1,3.62,3.62,0,0,1,1.08,1.09,3,3,0,0,1,.39,1.58,3.25,3.25,0,0,1-1.11,2.57,5.06,5.06,0,0,1-4,.87Z"/><path class="cls-2" d="M587.49,296.34a.62.62,0,0,0,.42.34,3.86,3.86,0,0,0,1,.09v.77h-4.14v-1.61h0a6.47,6.47,0,0,1-4.1,1.87,3,3,0,0,1-2.28-.84,3.45,3.45,0,0,1-.79-2.46v-5.81a1.7,1.7,0,0,0-.14-.87.63.63,0,0,0-.56-.21h-.7v-.77l3.42-.43h.68v7.41a2.82,2.82,0,0,0,.52,1.82,1.89,1.89,0,0,0,1.52.64,2.43,2.43,0,0,0,1.25-.39,5.33,5.33,0,0,0,1.14-.9v-6.3a2,2,0,0,0-.13-.87.61.61,0,0,0-.55-.21h-.71v-.77l3.42-.43h.68v9.19A2,2,0,0,0,587.49,296.34Z"/><path class="cls-2" d="M412.68,322.15a5.27,5.27,0,0,0,1.25-.1.73.73,0,0,0,.49-.36,2.26,2.26,0,0,0,.11-.85V309.57a2.25,2.25,0,0,0-.11-.86.71.71,0,0,0-.49-.37,5.27,5.27,0,0,0-1.25-.1v-.78h6.73c2.26,0,3.78.46,4.56,1.36a4.67,4.67,0,0,1,1.16,3.1,4.9,4.9,0,0,1-1.34,3.39q-1.34,1.49-5,1.48h-1.36v4a2,2,0,0,0,.14.87.82.82,0,0,0,.59.35,8.45,8.45,0,0,0,1.48.09v.78h-6.92Zm6.12-6.3a3,3,0,0,0,2.4-1,4.2,4.2,0,0,0,.88-2.84,3.9,3.9,0,0,0-.84-2.68,3.26,3.26,0,0,0-2.53-.93,1.82,1.82,0,0,0-1.06.2.74.74,0,0,0-.26.62v6.65Z"/><path class="cls-2" d="M437.5,322.44a6.72,6.72,0,0,1-1.12.51,4.46,4.46,0,0,1-1.48.21,2.41,2.41,0,0,1-1.38-.3,1.55,1.55,0,0,1-.41-1.27,7.82,7.82,0,0,1-1.64,1.14,4,4,0,0,1-1.87.43,3.41,3.41,0,0,1-2.09-.61,2,2,0,0,1-.82-1.73,3.44,3.44,0,0,1,1.7-2.8,11.84,11.84,0,0,1,4.72-1.75v-1.43a2.08,2.08,0,0,0-.5-1.47,2.28,2.28,0,0,0-1.67-.49,2.83,2.83,0,0,0-1.14.2c-.32.13-.48.27-.48.41a.76.76,0,0,0,.28.49,2.4,2.4,0,0,1,.28.37.94.94,0,0,1,.1.45,1.19,1.19,0,0,1-.36.92,1.25,1.25,0,0,1-.93.34,1.27,1.27,0,0,1-1.36-1.36,2.22,2.22,0,0,1,.57-1.45,4,4,0,0,1,1.66-1.09,7.41,7.41,0,0,1,2.57-.41,4.05,4.05,0,0,1,2.75.78,3.39,3.39,0,0,1,.88,2.67v5.2a2.75,2.75,0,0,0,.2,1.25.69.69,0,0,0,.65.34,1.16,1.16,0,0,0,.42-.08l.23-.11Zm-6.42-1a3.28,3.28,0,0,0,2-.87v-3.42a7.65,7.65,0,0,0-2.85,1.09,2,2,0,0,0-.92,1.72C429.34,321,429.92,321.48,431.08,321.48Z"/><path class="cls-2" d="M449.57,321.72a.63.63,0,0,0,.43.34,3.81,3.81,0,0,0,1,.09v.78h-4.15v-1.62h0a6.49,6.49,0,0,1-4.1,1.88,3,3,0,0,1-2.29-.85,3.49,3.49,0,0,1-.78-2.46v-5.81a1.84,1.84,0,0,0-.14-.87.64.64,0,0,0-.56-.21h-.71v-.77l3.42-.42h.68v7.4a2.82,2.82,0,0,0,.53,1.82,1.84,1.84,0,0,0,1.51.64,2.51,2.51,0,0,0,1.26-.38,5.57,5.57,0,0,0,1.13-.91v-6.3a1.88,1.88,0,0,0-.13-.87c-.08-.14-.27-.21-.55-.21h-.7v-.77l3.42-.42h.68V321A2,2,0,0,0,449.57,321.72Z"/><path class="cls-2" d="M452.35,322.15a3.58,3.58,0,0,0,1-.1.6.6,0,0,0,.41-.34,2.2,2.2,0,0,0,.09-.73V309.2a1.77,1.77,0,0,0-.14-.88.58.58,0,0,0-.54-.22h-.7v-.8l3.45-.54h.65V321a2,2,0,0,0,.11.74.59.59,0,0,0,.42.34,3.81,3.81,0,0,0,1,.09v.78h-5.74Z"/><path class="cls-2" d="M459.36,322.15a3.37,3.37,0,0,0,1-.1.58.58,0,0,0,.4-.34,1.93,1.93,0,0,0,.1-.73v-6.77a1.94,1.94,0,0,0-.13-.86.56.56,0,0,0-.53-.22h-.7v-.79l3.44-.54h.66V321a2.21,2.21,0,0,0,.09.75.57.57,0,0,0,.4.33,4,4,0,0,0,1,.09v.78h-5.74ZM461,309.8a1.52,1.52,0,0,1-.42-1.09,1.57,1.57,0,0,1,.42-1.11,1.63,1.63,0,0,1,2.23,0,1.57,1.57,0,0,1,.42,1.11,1.49,1.49,0,0,1-.44,1.09,1.57,1.57,0,0,1-1.1.43A1.52,1.52,0,0,1,461,309.8Z"/><path class="cls-2" d="M478.11,321.72a.61.61,0,0,0,.44.34,4.08,4.08,0,0,0,1,.09v.78H474v-.78a4.64,4.64,0,0,0,.89,0,.51.51,0,0,0,.37-.27,1.83,1.83,0,0,0,.1-.73v-5.62a2.44,2.44,0,0,0-.52-1.69,1.92,1.92,0,0,0-1.49-.59,3.49,3.49,0,0,0-2.44,1.11v6.79a1.79,1.79,0,0,0,.11.73.51.51,0,0,0,.36.27,4.3,4.3,0,0,0,.84,0v.78h-5.55v-.78a4,4,0,0,0,1-.09.59.59,0,0,0,.4-.33,2.21,2.21,0,0,0,.09-.75v-6.77a1.8,1.8,0,0,0-.14-.85.57.57,0,0,0-.52-.23h-.7v-.79l3.38-.54h.65v1.55h0a7,7,0,0,1,2-1.26,5.69,5.69,0,0,1,2-.41,3,3,0,0,1,2.31.9,3.64,3.64,0,0,1,.83,2.55V321A2,2,0,0,0,478.11,321.72Z"/><path class="cls-2" d="M491.65,322.44a6.72,6.72,0,0,1-1.12.51,4.53,4.53,0,0,1-1.49.21,2.4,2.4,0,0,1-1.37-.3,1.55,1.55,0,0,1-.41-1.27,7.82,7.82,0,0,1-1.64,1.14,4,4,0,0,1-1.87.43,3.41,3.41,0,0,1-2.09-.61,2,2,0,0,1-.82-1.73,3.44,3.44,0,0,1,1.7-2.8,11.78,11.78,0,0,1,4.72-1.75v-1.43a2.08,2.08,0,0,0-.5-1.47,2.29,2.29,0,0,0-1.68-.49,2.82,2.82,0,0,0-1.13.2c-.32.13-.48.27-.48.41a.76.76,0,0,0,.28.49,2.4,2.4,0,0,1,.28.37,1,1,0,0,1,.09.45,1.18,1.18,0,0,1-.35.92,1.26,1.26,0,0,1-.94.34,1.27,1.27,0,0,1-1.35-1.36,2.22,2.22,0,0,1,.57-1.45,4,4,0,0,1,1.66-1.09,7.41,7.41,0,0,1,2.57-.41,4.05,4.05,0,0,1,2.75.78,3.39,3.39,0,0,1,.88,2.67v5.2a2.75,2.75,0,0,0,.2,1.25.68.68,0,0,0,.64.34,1.18,1.18,0,0,0,.43-.08l.23-.11Zm-6.43-1a3.3,3.3,0,0,0,2-.87v-3.42a7.71,7.71,0,0,0-2.86,1.09,2.06,2.06,0,0,0-.91,1.72C483.49,321,484.07,321.48,485.22,321.48Z"/><path class="cls-2" d="M498.28,322.15a5.23,5.23,0,0,0,1.24-.1.71.71,0,0,0,.49-.36,2.22,2.22,0,0,0,.12-.85V309.57a2.36,2.36,0,0,0-.12-.88.66.66,0,0,0-.49-.36,7.08,7.08,0,0,0-1.24-.12v-.75h6.86a8.12,8.12,0,0,1,4,.81,2.89,2.89,0,0,1,1.43,2.75,3.25,3.25,0,0,1-.83,2.34,4.46,4.46,0,0,1-2.35,1.2v0a5,5,0,0,1,2.86,1.37,4,4,0,0,1,1,2.82,3.49,3.49,0,0,1-1.5,3.2,8.13,8.13,0,0,1-4.31.95h-7.12Zm6-7.91a3.58,3.58,0,0,0,2.48-.78,2.81,2.81,0,0,0,.87-2.22,2.68,2.68,0,0,0-.83-2.12,3.64,3.64,0,0,0-2.5-.74,1.87,1.87,0,0,0-1.05.2.83.83,0,0,0-.28.73v4.93Zm2.93,6.95a3.25,3.25,0,0,0,.82-2.39,3.58,3.58,0,0,0-1-2.69,3.72,3.72,0,0,0-2.72-1H503v5.34a1.49,1.49,0,0,0,.39,1.18,2.16,2.16,0,0,0,1.39.34A3.34,3.34,0,0,0,507.23,321.19Z"/><path class="cls-2" d="M524.16,321.72a.59.59,0,0,0,.42.34,3.81,3.81,0,0,0,1,.09v.78H521.4v-1.62h0a6.49,6.49,0,0,1-4.1,1.88,3,3,0,0,1-2.29-.85,3.49,3.49,0,0,1-.78-2.46v-5.81a1.84,1.84,0,0,0-.14-.87.64.64,0,0,0-.56-.21h-.71v-.77l3.42-.42h.68v7.4a2.82,2.82,0,0,0,.53,1.82,1.84,1.84,0,0,0,1.51.64,2.51,2.51,0,0,0,1.26-.38,5.57,5.57,0,0,0,1.13-.91v-6.3a1.88,1.88,0,0,0-.13-.87c-.08-.14-.27-.21-.55-.21H520v-.77l3.42-.42h.68V321A1.77,1.77,0,0,0,524.16,321.72Z"/><path class="cls-2" d="M530.69,323.08c-.27-.07-.6-.17-1-.29a2.33,2.33,0,0,0-.89-.24.74.74,0,0,0-.43.11,1,1,0,0,0-.3.34h-.44l-.21-3.87H528a4.93,4.93,0,0,0,1.42,2.27,3.14,3.14,0,0,0,2.14.87,1.84,1.84,0,0,0,1.32-.45,1.67,1.67,0,0,0,.47-1.24,1.42,1.42,0,0,0-.22-.8,2,2,0,0,0-.63-.58q-.42-.26-1.38-.72l-.47-.24a7.51,7.51,0,0,1-2.24-1.49,2.58,2.58,0,0,1-.62-1.79,3,3,0,0,1,1-2.42,4.29,4.29,0,0,1,2.81-.86,5.29,5.29,0,0,1,1.83.31,3.6,3.6,0,0,0,.71.14.47.47,0,0,0,.35-.1.63.63,0,0,0,.13-.2.66.66,0,0,0,0-.13h.49l.19,3.45h-.59a3.43,3.43,0,0,0-1.09-1.83,2.69,2.69,0,0,0-1.83-.7,2,2,0,0,0-1.21.35,1.11,1.11,0,0,0-.48.94c0,.7.53,1.29,1.59,1.78l.73.33a13,13,0,0,1,1.8,1,3.4,3.4,0,0,1,1.08,1.09,2.9,2.9,0,0,1,.4,1.58,3.22,3.22,0,0,1-1.11,2.56,4.94,4.94,0,0,1-4,.87Z"/><path class="cls-2" d="M537.4,322.13l6.45-9.3H542a4.68,4.68,0,0,0-1.74.26,1.83,1.83,0,0,0-.94.81,5.91,5.91,0,0,0-.55,1.55h-.61l.26-3.53H547v.82L540.52,322h2.6a5.62,5.62,0,0,0,1.9-.25,2.06,2.06,0,0,0,1-.86,6.54,6.54,0,0,0,.65-1.72h.61l-.26,3.75H537.4Z"/><path class="cls-2" d="M560.67,322.15v.78h-5v-.78h.21a.66.66,0,0,0,.34-.07.19.19,0,0,0,.13-.18.71.71,0,0,0-.14-.33c-.09-.14-.2-.3-.33-.47l-2.39-3.3-.77.91V321a2,2,0,0,0,.1.74.59.59,0,0,0,.43.34,3.81,3.81,0,0,0,1,.09v.78h-5.74v-.78a3.58,3.58,0,0,0,1-.1.62.62,0,0,0,.41-.34A2.2,2.2,0,0,0,550,321V309.2a1.89,1.89,0,0,0-.14-.88.58.58,0,0,0-.54-.22h-.7v-.8l3.44-.54h.66v10.8l2.39-3.16a2.88,2.88,0,0,0,.7-1.36c0-.23-.14-.35-.42-.35h-.54v-.77h5.23v.77h-.33a3.77,3.77,0,0,0-1.85.47,6.22,6.22,0,0,0-1.71,1.47l-1.08,1.27,3.16,4.33a9.42,9.42,0,0,0,1.26,1.51,1.32,1.32,0,0,0,.9.41Z"/><path class="cls-2" d="M561.35,322.15a3.45,3.45,0,0,0,1-.1.63.63,0,0,0,.4-.34,2.2,2.2,0,0,0,.09-.73v-6.77a1.8,1.8,0,0,0-.13-.86c-.08-.15-.26-.22-.53-.22h-.7v-.79l3.45-.54h.65V321a1.94,1.94,0,0,0,.1.75.55.55,0,0,0,.39.33,4,4,0,0,0,1,.09v.78h-5.74ZM563,309.8a1.52,1.52,0,0,1-.42-1.09,1.57,1.57,0,0,1,.42-1.11,1.62,1.62,0,0,1,2.22,0,1.53,1.53,0,0,1,.43,1.11,1.46,1.46,0,0,1-.45,1.09,1.55,1.55,0,0,1-1.1.43A1.5,1.5,0,0,1,563,309.8Z"/><path class="cls-2" d="M578.83,317.56h-7a6,6,0,0,0,.77,3.07,2.65,2.65,0,0,0,2.37,1.06,3.23,3.23,0,0,0,1.9-.53,3.51,3.51,0,0,0,1.19-1.58l.73.42a5.77,5.77,0,0,1-1.64,2.3,4.94,4.94,0,0,1-3.16.86q-5,0-5-5.69a6.37,6.37,0,0,1,1.28-4.34,4.72,4.72,0,0,1,3.73-1.45,4.43,4.43,0,0,1,3.74,1.5,6.53,6.53,0,0,1,1.16,4.08Zm-2.86-.93a9.08,9.08,0,0,0-.37-3.05,1.52,1.52,0,0,0-1.57-1,1.78,1.78,0,0,0-1.68,1,7,7,0,0,0-.57,3.05Z"/><path class="cls-2" d="M581.31,313.56a1.22,1.22,0,0,0-.45-.7,2,2,0,0,0-.93-.17v-.77h5.18v.77h-.66a.7.7,0,0,0-.37.08.37.37,0,0,0-.12.32,2,2,0,0,0,.07.42l1.71,6.47h0l2.23-8h1.68l2.44,8h.05l1.75-6.52a1.26,1.26,0,0,0,0-.3.45.45,0,0,0-.14-.37.74.74,0,0,0-.43-.1h-.89v-.77h4.27v.77a2,2,0,0,0-1.09.22,1.21,1.21,0,0,0-.48.74l-2.88,9.28h-1.74l-2.36-6.68h-.12L586,322.93h-1.73Z"/><path class="cls-2" d="M597.69,322.15a3.45,3.45,0,0,0,1-.1.6.6,0,0,0,.4-.34,2.2,2.2,0,0,0,.09-.73v-6.77a1.8,1.8,0,0,0-.13-.86c-.08-.15-.26-.22-.52-.22h-.71v-.79l3.45-.54h.65V321a1.94,1.94,0,0,0,.1.75.55.55,0,0,0,.4.33,3.86,3.86,0,0,0,1,.09v.78h-5.74Zm1.69-12.35a1.52,1.52,0,0,1-.42-1.09,1.57,1.57,0,0,1,.42-1.11,1.62,1.62,0,0,1,2.22,0,1.53,1.53,0,0,1,.43,1.11,1.46,1.46,0,0,1-.45,1.09,1.55,1.55,0,0,1-1.1.43A1.5,1.5,0,0,1,599.38,309.8Z"/><path class="cls-2" d="M606.58,321.77a6,6,0,0,1-1.32-4.23,6.18,6.18,0,0,1,1.38-4.39,5.21,5.21,0,0,1,4-1.47,6.05,6.05,0,0,1,2.41.42,3.12,3.12,0,0,1,1.4,1.09,2.55,2.55,0,0,1,.45,1.44,1.57,1.57,0,0,1-.36,1.1,1.29,1.29,0,0,1-1,.4,1.24,1.24,0,0,1-1-.37,1.36,1.36,0,0,1-.34-1,1.45,1.45,0,0,1,.1-.59l.13-.28a1,1,0,0,0,.17-.47.7.7,0,0,0-.42-.61,2.67,2.67,0,0,0-1.22-.23,2.49,2.49,0,0,0-2.11.94,5.7,5.7,0,0,0-.73,3.39,6.57,6.57,0,0,0,.78,3.59,2.65,2.65,0,0,0,2.39,1.17,2.87,2.87,0,0,0,2-.61,5.26,5.26,0,0,0,1.13-1.55l.59.36a5,5,0,0,1-1.6,2.42,4.84,4.84,0,0,1-3,.83A5,5,0,0,1,606.58,321.77Z"/><path class="cls-2" d="M616.41,322.13l6.45-9.3H621a4.68,4.68,0,0,0-1.74.26,1.83,1.83,0,0,0-.94.81,5.57,5.57,0,0,0-.55,1.55h-.61l.26-3.53H626v.82L619.53,322h2.6a5.66,5.66,0,0,0,1.9-.25,2.06,2.06,0,0,0,1-.86,6.54,6.54,0,0,0,.65-1.72h.6l-.25,3.75h-9.66Z"/><path class="cls-2" d="M399.19,284.77c0-21.26-13.64-38.17-33.89-38.17,9.88-1.39,26.61-16.25,26.61-38,0-26.38-19.09-39-47.83-39H305.5a75.94,75.94,0,0,1,8,1.11,55.62,55.62,0,0,1,11,3.34,44.61,44.61,0,0,1,7.48,4.09,62.74,62.74,0,0,1,8.34-.47c15.55,0,29.92,9.25,29.92,31.69,0,22.18-13.38,32.47-28.95,33-.54.81-1.12,1.61-1.72,2.38a41.5,41.5,0,0,1-5.47,5.77c2-.05,4-.06,6-.06,15.16,0,37,7.29,37,34.45s-19.09,34-37.6,34c-9.25,0-14.36-1.38-14.36-6.1v-56.4q-2.24,1.11-4.54,2A57.67,57.67,0,0,1,303.34,262v44.8a61.23,61.23,0,0,1-.58,10.11c-1.07,4.31-4.1,5.44-12.73,5.44h-4.29c-8.25-.09-9.68-1.37-9.68-15.55v-49.6h0c1.8.51,3.6,1,5.42,1.33a51,51,0,0,0,5.48.82c1.83.16,3.66.26,5.49.26s3.66-.12,5.51-.24A62.38,62.38,0,0,0,319,254.5a44.17,44.17,0,0,0,4.74-2.44,39.72,39.72,0,0,0,4.37-2.94,38.3,38.3,0,0,0,7.31-7.47A42.29,42.29,0,0,0,343,222.3a60.23,60.23,0,0,0,.54-10.66,50.36,50.36,0,0,0-1.4-10.5c-.08-.43-.22-.85-.34-1.27l-.36-1.26c-.27-.83-.59-1.64-.88-2.47s-.67-1.6-1.05-2.38l-.59-1.16-.3-.59-.33-.55a34.47,34.47,0,0,0-6.55-8.11c-.32-.3-.67-.57-1-.86s-.66-.58-1-.84l-1.06-.8c-.35-.26-.71-.53-1.08-.77l-1.11-.74c-.38-.24-.77-.46-1.15-.69-.76-.47-1.56-.88-2.34-1.31a59.05,59.05,0,0,0-10.11-4A106.08,106.08,0,0,0,291,169.63H236.68v4.77c15,0,17.33,3.49,17.33,15.5V306.82c0,12-2.56,15.55-20.86,15.55v4.72h109C373.61,327.09,399.19,315.87,399.19,284.77ZM276.06,185.18a5.33,5.33,0,0,1,3.54-5.32A33.23,33.23,0,0,1,292,177.7a38.69,38.69,0,0,1,8.84,1c14.09,3.31,23.44,15,23.44,35.44,0,18.08-7,31.92-20.94,36.32a33.73,33.73,0,0,1-10.16,1.47,45.52,45.52,0,0,1-17.12-3.34Z"/></g></svg>