<svg xmlns="http://www.w3.org/2000/svg" xmlns:xlink="http://www.w3.org/1999/xlink" viewBox="0 0 958.94 498.67"><defs><style>.cls-1{fill:#b3c6c4;}.cls-2{fill:#1d1d1b;}.cls-3,.cls-8{fill:#e63312;}.cls-4{fill:url(#Gradient_bez_nazwy_104);}.cls-5{fill:url(#Gradient_bez_nazwy_146);}.cls-6{fill:url(#Gradient_bez_nazwy_21);}.cls-7{fill:url(#Gradient_bez_nazwy_142);}.cls-8{stroke:#e30613;stroke-miterlimit:10;stroke-width:0.5px;}.cls-9{fill:url(#Gradient_bez_nazwy_18);}.cls-10{fill:url(#Gradient_bez_nazwy_152);}.cls-11{fill:#8a1002;}.cls-12{fill:url(#Gradient_bez_nazwy_148);}</style><linearGradient id="Gradient_bez_nazwy_104" x1="411.42" y1="334.93" x2="420.22" y2="334.93" gradientUnits="userSpaceOnUse"><stop offset="0.13" stop-color="#8a1002"/><stop offset="0.94" stop-color="#e63312"/></linearGradient><radialGradient id="Gradient_bez_nazwy_146" cx="493.82" cy="232.88" r="42.1" gradientUnits="userSpaceOnUse"><stop offset="0.2" stop-color="#be1622"/><stop offset="0.93" stop-color="#e63312"/></radialGradient><radialGradient id="Gradient_bez_nazwy_21" cx="501.34" cy="255.76" fx="452.7162686862116" fy="246.75664835584342" r="62.08" gradientUnits="userSpaceOnUse"><stop offset="0.1" stop-color="#f39200"/><stop offset="0.62" stop-color="#ea510c"/><stop offset="0.9" stop-color="#e63312"/></radialGradient><radialGradient id="Gradient_bez_nazwy_142" cx="545.82" cy="244.28" fx="592.9639863501963" fy="162.71424853102104" r="94.21" gradientUnits="userSpaceOnUse"><stop offset="0.21" stop-color="#f39200"/><stop offset="0.28" stop-color="#f18502"/><stop offset="0.4" stop-color="#ed6409"/><stop offset="0.55" stop-color="#e63312"/><stop offset="0.61" stop-color="#dd2f10"/><stop offset="0.72" stop-color="#c3260c"/><stop offset="0.86" stop-color="#9a1605"/><stop offset="0.91" stop-color="#8a1002"/></radialGradient><radialGradient id="Gradient_bez_nazwy_18" cx="409.72" cy="218.3" fx="423.8737381187516" fy="136.26840820392815" r="96.73" gradientUnits="userSpaceOnUse"><stop offset="0.36" stop-color="#e63312"/><stop offset="0.43" stop-color="#e33211"/><stop offset="0.49" stop-color="#da2e10"/><stop offset="0.54" stop-color="#ca280d"/><stop offset="0.58" stop-color="#b32009"/><stop offset="0.63" stop-color="#961504"/><stop offset="0.64" stop-color="#8a1002"/></radialGradient><linearGradient id="Gradient_bez_nazwy_152" x1="408.26" y1="289.2" x2="480.34" y2="249.22" gradientUnits="userSpaceOnUse"><stop offset="0.25" stop-color="#8a1002"/><stop offset="0.47" stop-color="#e63312"/></linearGradient><linearGradient id="Gradient_bez_nazwy_148" x1="497.89" y1="254.51" x2="439.17" y2="343.42" gradientUnits="userSpaceOnUse"><stop offset="0.02" stop-color="#f39200"/><stop offset="0.07" stop-color="#f07a04"/><stop offset="0.15" stop-color="#ec5b0a"/><stop offset="0.23" stop-color="#e8450f"/><stop offset="0.3" stop-color="#e73811"/><stop offset="0.37" stop-color="#e63312"/><stop offset="0.39" stop-color="#df3011"/><stop offset="0.55" stop-color="#ba220a"/><stop offset="0.69" stop-color="#a01806"/><stop offset="0.82" stop-color="#901203"/><stop offset="0.92" stop-color="#8a1002"/></linearGradient></defs><g id="Warstwa_2" data-name="Warstwa 2"><rect class="cls-1" width="958.94" height="498.67"/></g><g id="Warstwa_3" data-name="Warstwa 3"><path class="cls-2" d="M481.45,355.68h-8.79V338.43q0-4.43-4.21-4.81c-2.95,0-4.47,1.84-4.58,5.53v16.53h-8.8V338.43q0-4.43-4.21-4.81c-2.95,0-4.46,1.84-4.58,5.53v16.53h-8.79V325.55h8.79v3.52c1.32-2.35,3.93-3.52,7.85-3.52,3.46,0,6,1.28,7.68,3.86q2.26-3.87,8.5-3.86c6.73,0,10.46,4,11.14,12.11Z"/><path class="cls-2" d="M490.28,352a15.53,15.53,0,1,1,22,0,15.83,15.83,0,0,1-22,0Zm15.78-6a7.41,7.41,0,0,0,0-10,7,7,0,0,0-9.6,0,6.91,6.91,0,0,0,4.81,11.92A6.57,6.57,0,0,0,506.06,346Z"/><path class="cls-2" d="M524,345.19V334.83h-4.7v-8.45H524v-5.56l8.79-2.64v8.2h6v8.45h-6v10.36a2.11,2.11,0,0,0,1.55,2.32,9.54,9.54,0,0,0,2.61.29c.57,0,1.2,0,1.86-.09v8a33.44,33.44,0,0,1-3.58.23Q524,355.91,524,345.19Z"/><path class="cls-2" d="M546.44,321.54a5.19,5.19,0,0,1-1.54-3.76,5,5,0,0,1,1.54-3.69,5.09,5.09,0,0,1,3.76-1.58,5.4,5.4,0,0,1,5.27,5.27,5.11,5.11,0,0,1-1.58,3.76,5,5,0,0,1-3.69,1.54A5.17,5.17,0,0,1,546.44,321.54Z"/><rect class="cls-2" x="545.78" y="325.66" width="8.79" height="30.05"/><path class="cls-2" d="M564.29,352a15.53,15.53,0,1,1,22,0,15.83,15.83,0,0,1-22,0Zm15.78-6a7.41,7.41,0,0,0,0-10,6.55,6.55,0,0,0-4.78-1.89,6.91,6.91,0,1,0,0,13.81A6.56,6.56,0,0,0,580.07,346Z"/><path class="cls-2" d="M623.23,355.68h-8.79V339q0-5.32-4.9-5.33h-.2c-3.24,0-5,2-5.44,6.05v16h-8.79V325.55h8.79v3.58c1.72-2.38,4.5-3.58,8.36-3.58a10.87,10.87,0,0,1,7.71,3.09q3.25,3.09,3.26,9Z"/><path class="cls-3" d="M394.51,351.38a16.18,16.18,0,0,1,0-22,14.64,14.64,0,0,1,21,0,16.18,16.18,0,0,1,0,22,14.68,14.68,0,0,1-21,0Zm15.59-6a7.69,7.69,0,0,0,0-10,7.28,7.28,0,0,0-5.07-1.89,6.16,6.16,0,0,0-4.6,1.89,7.75,7.75,0,0,0,0,10,6.16,6.16,0,0,0,4.6,1.89A7.28,7.28,0,0,0,410.1,345.37Z"/><path class="cls-3" d="M344.5,355.76h-8.8V325.89h8.8v5.78a7.55,7.55,0,0,1,3.49-4.35,10.73,10.73,0,0,1,5.3-1.43v10a9.57,9.57,0,0,0-1.57-.15q-7.23,0-7.22,6.82Z"/><path class="cls-3" d="M356.5,340.38a15,15,0,0,1,15.58-15.46,14.08,14.08,0,0,1,10.66,4.41A15.29,15.29,0,0,1,387,340.38a17.54,17.54,0,0,1-.35,3.53H365.81a7.42,7.42,0,0,0,7,4.09,7.18,7.18,0,0,0,5.62-2.23l7,4.06c-2.95,4-7.18,6-12.77,6Q357.71,355.85,356.5,340.38Zm21.74-3a5.85,5.85,0,0,0-2.49-3.58,7,7,0,0,0-3.73-1.06c-3.35,0-5.47,1.54-6.38,4.64Z"/><path class="cls-4" d="M411.42,328.52V318.36l8.8-4.33v41.79h-8.8v-27.3Z"/><path class="cls-3" d="M549.59,220.88a42.1,42.1,0,1,1-42.1-42.1c1,0,2,0,2.92.1A42,42,0,0,0,537.16,191,42,42,0,0,1,549.59,220.88Z"/><path class="cls-5" d="M549.59,220.88a42.1,42.1,0,1,1-42.1-42.1c1,0,2,0,2.92.1A42,42,0,0,0,537.16,191,42,42,0,0,1,549.59,220.88Z"/><path class="cls-3" d="M497.42,278.29a42.15,42.15,0,0,1-56,36.51c-1-.35-2-.73-2.9-1.15A42.1,42.1,0,0,0,468.06,267a42.12,42.12,0,0,1,29.36,11.34Z"/><path class="cls-3" d="M546.35,193.15c-.87-.31-1.74-.58-2.62-.83l.85.23a66.82,66.82,0,0,0-7.42-1.54,72,72,0,0,0-9.52,0,70.13,70.13,0,0,0-56.34,41.27c-.17.4-.34.81-.52,1.21-.27.6-.55,1.19-.85,1.78-.17.34-.34.67-.52,1a1.09,1.09,0,0,1-.08.15c-.12.23-.24.45-.38.67-.39.69-.8,1.38-1.24,2.06-.19.3-.39.6-.59.89l-.05.07c-.2.3-.41.6-.63.89s-.58.79-.88,1.18-.45.58-.7.87l-.54.64-.76.87c-.51.57-1,1.12-1.58,1.65l-.84.8c-.28.28-.57.54-.86.79a42.68,42.68,0,0,1-3.46,2.76c-.37.27-.75.52-1.13.78s-.85.55-1.28.82l-1.31.77c-.62.36-1.24.69-1.87,1s-1.27.61-1.91.9l-.43.18-1.49.61-.12,0c-.46.18-.93.35-1.4.51l-.27.09-1.28.41c-.53.15-1.05.3-1.58.43q-1.28.33-2.55.57l-1.29.22h0a68.4,68.4,0,0,0,6.31,12.35c.7,1.08,1.42,2.15,2.18,3.19A70.64,70.64,0,0,0,474.75,296c1.81.84,3.67,1.61,5.56,2.3l.95.33,2.85.92.14.05.61.18a70.29,70.29,0,0,0,74.6-24.1,72.47,72.47,0,0,0,6.59-10.05A69.4,69.4,0,0,0,572,250.72a68.28,68.28,0,0,0,1.69-8.14h0a63.92,63.92,0,0,0,.67-7.1A42.12,42.12,0,0,0,546.35,193.15Z"/><path class="cls-6" d="M546.35,193.15c-.87-.31-1.74-.58-2.62-.83l.85.23a66.82,66.82,0,0,0-7.42-1.54,72,72,0,0,0-9.52,0,70.13,70.13,0,0,0-56.34,41.27c-.17.4-.34.81-.52,1.21-.27.6-.55,1.19-.85,1.78-.17.34-.34.67-.52,1a1.09,1.09,0,0,1-.08.15c-.12.23-.24.45-.38.67-.39.69-.8,1.38-1.24,2.06-.19.3-.39.6-.59.89l-.05.07c-.2.3-.41.6-.63.89s-.58.79-.88,1.18-.45.58-.7.87l-.54.64-.76.87c-.51.57-1,1.12-1.58,1.65l-.84.8c-.28.28-.57.54-.86.79a42.68,42.68,0,0,1-3.46,2.76c-.37.27-.75.52-1.13.78s-.85.55-1.28.82l-1.31.77c-.62.36-1.24.69-1.87,1s-1.27.61-1.91.9l-.43.18-1.49.61-.12,0c-.46.18-.93.35-1.4.51l-.27.09-1.28.41c-.53.15-1.05.3-1.58.43q-1.28.33-2.55.57l-1.29.22h0a68.4,68.4,0,0,0,6.31,12.35c.7,1.08,1.42,2.15,2.18,3.19A70.64,70.64,0,0,0,474.75,296c1.81.84,3.67,1.61,5.56,2.3l.95.33,2.85.92.14.05.61.18a70.29,70.29,0,0,0,74.6-24.1,72.47,72.47,0,0,0,6.59-10.05A69.4,69.4,0,0,0,572,250.72a68.28,68.28,0,0,0,1.69-8.14h0a63.92,63.92,0,0,0,.67-7.1A42.12,42.12,0,0,0,546.35,193.15Z"/><circle class="cls-3" cx="532.32" cy="232.84" r="42.1"/><circle class="cls-7" cx="532.32" cy="232.84" r="42.1"/><path class="cls-8" d="M481.26,298.61l2.85.92C483.15,299.25,482.2,299,481.26,298.61Z"/><path class="cls-3" d="M434.1,232.32a69.9,69.9,0,0,0,1.5,14.49,68.66,68.66,0,0,0,2.18,8c.06.18.12.37.19.55.28.83.59,1.65.91,2.47a.09.09,0,0,0,0,.06l-.09,0c-.61.1-1.23.18-1.85.25l-.45,0a41.57,41.57,0,0,1-17.77-2.05h0l-.43-.14a41.78,41.78,0,0,1-14.55-8.78,38.72,38.72,0,0,1-2.91-3l-1.21-1.43,0,0a181.5,181.5,0,0,1-41.79-100.62,42.14,42.14,0,0,0,50.72,37.64c.52-.11,1-.23,1.53-.36a2.25,2.25,0,0,0,.35-.09c.22,0,.45-.11.66-.18,0,0,0,0,0,0a38.21,38.21,0,0,0,4.08-1.35l.3-.12,1.33-.56a41.85,41.85,0,0,1,24.62-2,42.55,42.55,0,0,1,4.91,1.41,41.79,41.79,0,0,1,9.58,4.83A70,70,0,0,0,434.1,232.32Z"/><path class="cls-9" d="M434.1,232.32a69.9,69.9,0,0,0,1.5,14.49,68.66,68.66,0,0,0,2.18,8c.06.18.12.37.19.55.28.83.59,1.65.91,2.47l0,.06-.09,0c-.61.1-1.23.18-1.85.25l-.45,0a41.57,41.57,0,0,1-17.77-2.05h0l-.43-.14a41.78,41.78,0,0,1-14.55-8.78,38.72,38.72,0,0,1-2.91-3l-1.21-1.43,0,0a181.5,181.5,0,0,1-41.79-100.62,42.14,42.14,0,0,0,50.72,37.64c.52-.11,1-.23,1.53-.36a2.25,2.25,0,0,0,.35-.09c.22,0,.45-.11.66-.18,0,0,0,0,0,0a38.21,38.21,0,0,0,4.08-1.35l.3-.12,1.33-.56a41.85,41.85,0,0,1,24.62-2,42.55,42.55,0,0,1,4.91,1.41,41.79,41.79,0,0,1,9.58,4.83A70,70,0,0,0,434.1,232.32Z"/><path class="cls-3" d="M447.4,273.43c-.76-1-1.48-2.11-2.18-3.19a68.49,68.49,0,0,1-6.31-12.36l-.09,0c-.61.1-1.23.18-1.85.25l-.45,0a41.57,41.57,0,0,1-17.77-2.05h0l-.43-.14a41.78,41.78,0,0,1-14.55-8.78,38.72,38.72,0,0,1-2.91-3h0c.88,1,1.77,2.05,2.69,3.06q5.07,5.67,10.59,10.89a180.69,180.69,0,0,0,66.18,40.07,70.58,70.58,0,0,1-32.91-24.85Z"/><path class="cls-10" d="M447.4,273.43c-.76-1-1.48-2.11-2.18-3.19a68.49,68.49,0,0,1-6.31-12.36l-.09,0c-.61.1-1.23.18-1.85.25l-.45,0a41.57,41.57,0,0,1-17.77-2.05h0l-.43-.14a41.78,41.78,0,0,1-14.55-8.78,38.72,38.72,0,0,1-2.91-3h0c.88,1,1.77,2.05,2.69,3.06q5.07,5.67,10.59,10.89a180.69,180.69,0,0,0,66.18,40.07,70.58,70.58,0,0,1-32.91-24.85Z"/><path class="cls-11" d="M527.64,191a83.53,83.53,0,0,0-17.41,5.08,76.43,76.43,0,0,0-28.81,21.13,84.05,84.05,0,0,0-10.12,15.06,61.09,61.09,0,0,1,8.9-16,65.31,65.31,0,0,1,29.47-21.6A61.38,61.38,0,0,1,527.64,191Z"/><circle class="cls-11" cx="538.32" cy="214.76" r="5.03"/><path class="cls-11" d="M491.26,223.55a47.59,47.59,0,0,0,.34,16.29,44.25,44.25,0,0,0,16.88,26.74A47.59,47.59,0,0,0,523,273.9a38.19,38.19,0,0,1-15.46-6,40.4,40.4,0,0,1-17.51-27.76A38.34,38.34,0,0,1,491.26,223.55Z"/><path class="cls-12" d="M497.42,278.29a42.15,42.15,0,0,1-56,36.51c-1-.35-2-.73-2.9-1.15A42.1,42.1,0,0,0,468.06,267a42.12,42.12,0,0,1,29.36,11.34Z"/></g></svg>