<svg xmlns="http://www.w3.org/2000/svg" viewBox="0 0 1910.69 4360.6"><g id="a5337a1f-b4e5-4bc7-9312-a801a72b2917" data-name="Warstwa 2"><g id="e7fcc0a8-9ac7-4654-9c28-2539f649873b" data-name="tło"><path d="M0,666.56V667l.14-.27C.09,666.67.05,666.61,0,666.56Z" fill="#d18c63"/><path d="M0,0V182.39C67.06,101.07,169.7,50.25,291.51,50.25a417.54,417.54,0,0,1,82.35,8.16,375.08,375.08,0,0,1,75.76,24.13L487.43,4.87,716.5,68.26,626.1,248.82c4.68,9,9,18.25,12.84,27.73,0,.12.12.12.12.24,18.37,45.14,28.45,95.2,28.45,148,0,70.35-18,135.66-50.06,191.48C554.18,726.51,435.81,799.39,291.51,799.39a408.3,408.3,0,0,1-92-10.33L137.36,912.48c47.54-18.73,98-28.82,178.64-28.82,190.16,0,341.43,103.73,406.26,304H446c-39.76-60.86-101.94-95.08-200.56-95.08-97.91,0-164.6,18.73-245.41,56.09V3109.22c981.58-6.14,1788.52-748.41,1896.55-1702.54V0Z" fill="#d18c63"/><path d="M287.19,614.86c1.43.12,2.87.12,4.32.12,99.4,0,168.55-83.55,168.55-190.16a226.52,226.52,0,0,0-13.32-77.68C422,279.79,365.1,233.21,291.51,233.21a173.85,173.85,0,0,0-22.57,1.44c-89.32,11.53-146,91.6-146,190.17A241.09,241.09,0,0,0,127.51,472C143.84,553.76,202.91,612.94,287.19,614.86Z" fill="#d18c63"/><path d="M1253.36,3868.77c-130.54,0-212.11,16.32-289,46.62l100.62-199.68a660.61,660.61,0,0,0,148.79,16.7c233.49,0,425-117.91,527.38-296.23,51.86-90.32,81-196,81-309.82,0-85.47-16.31-166.47-46-239.51,0-.19-.2-.19-.2-.38-6.21-15.35-13.21-30.31-20.78-44.87l146.27-292.15-370.63-102.56-61.18,125.67a605.57,605.57,0,0,0-122.58-39,675.05,675.05,0,0,0-133.25-13.21c-235,0-426,116.94-527.76,295.06-51.87,90.33-80.61,196.38-80.61,311,0,105.87,24.86,204.54,70.12,290.59a577.57,577.57,0,0,0,66.82,100.82l-276.81,546.8,247.09,246.89c144.52-69.73,256.4-104.7,426.57-104.7,159.56,0,260.18,55.37,324.5,153.84h447C1805.8,4036.6,1561.05,3868.77,1253.36,3868.77Zm233.1-742.41c0,172.49-111.88,307.69-272.73,307.69-2.33,0-4.66,0-7-.2-136.36-3.11-231.93-98.87-258.35-231.15a389.62,389.62,0,0,1-7.38-76.34c0-159.48,91.69-289,236.21-307.69a281.84,281.84,0,0,1,36.51-2.33c119.08,0,211.15,75.37,251.17,184.34C1478.88,3039,1486.46,3081.49,1486.46,3126.36Z" fill="#d18c63"/></g></g></svg>