<svg xmlns="http://www.w3.org/2000/svg" viewBox="0 0 630 453.79"><g id="a106e849-a4fd-47f3-b18f-75f11dabf75f" data-name="Warstwa 2"><g id="f9f24b0a-ff3e-4836-b92a-6afef6d0e1b4" data-name="Warstwa 3"><path d="M372.55,133.46a68.9,68.9,0,0,0-44.29,16.62,67.56,67.56,0,0,1-26.55-55.16,67,67,0,0,0,60.8,38.84C366.43,133.76,369.69,133.43,372.55,133.46Z" fill="#9dcecb" stroke="#62645b" stroke-linecap="round" stroke-linejoin="round" stroke-width="2.86"/><path d="M421.23,57.78a267.84,267.84,0,0,0-4.68-26.91,33.46,33.46,0,0,0-5.5-12.56c-14.12-20.27-46-18-56.87,4.37-19,41.46-26.95,89.52-22.94,133.23a266.52,266.52,0,0,0,84.06-76A33.19,33.19,0,0,0,421.23,57.78Z" fill="#9dcecb" stroke="#62645b" stroke-linejoin="round" stroke-width="2.86"/><path d="M354.18,22.68c-.44.94-.86,1.9-1.28,2.86C353.28,24.57,353.71,23.6,354.18,22.68Z" fill="#9dcecb" stroke="#62645b" stroke-linejoin="round" stroke-width="2.86"/><path d="M328.26,150.08c-13.36,11.56-22.43,28.83-22.7,50.83l-.19-.12a67,67,0,0,1-3.66-105.87A67.56,67.56,0,0,0,328.26,150.08Z" fill="#9dcecb" stroke="#62645b" stroke-linejoin="round" stroke-width="2.86"/><path d="M204.45,135.1A110.88,110.88,0,0,0,236.26,44a55.54,55.54,0,1,1-31.82,91.14Z" fill="#9dcecb" stroke="#62645b" stroke-linejoin="round" stroke-width="2.86"/><path d="M281.27,83.79a55.56,55.56,0,0,1-76.82,51.31A110.88,110.88,0,0,0,236.26,44a55.75,55.75,0,0,1,31.31,3.31A55.22,55.22,0,0,1,281.27,83.79Z" fill="#9dcecb" stroke="#62645b" stroke-linejoin="round" stroke-width="2.86"/><path d="M252.19,105.29a9.1,9.1,0,1,1-.72-3.54A9,9,0,0,1,252.19,105.29Z" fill="#9dcecb" stroke="#62645b" stroke-linejoin="round" stroke-width="2.86"/><path d="M190.75,98.6a54.59,54.59,0,0,1,3.59-21.52,55.35,55.35,0,0,1,11.9-18.54,55.91,55.91,0,0,1,18.28-12.49,55.88,55.88,0,0,1,43.54,0,55.87,55.87,0,0,1,18.29,12.5,55.25,55.25,0,0,1,11.9,18.54,54.58,54.58,0,0,1,3.58,21.52,56.8,56.8,0,0,0-17.05-38.48,55.21,55.21,0,0,0-77,0A56.81,56.81,0,0,0,190.75,98.6Z" fill="#62645b"/><path d="M221.47,0a102.28,102.28,0,0,1,14.27,33.79,105.86,105.86,0,0,1,2.47,18.34,110.14,110.14,0,0,1-.73,18.51,110.75,110.75,0,0,1-3.9,18.12,106.73,106.73,0,0,1-7,17.15,101.7,101.7,0,0,1-22.19,29.2,121.47,121.47,0,0,0,20.19-30.18A116.86,116.86,0,0,0,231,88a111.23,111.23,0,0,0,3.66-17.7,115,115,0,0,0-1.09-36A122.13,122.13,0,0,0,221.47,0Z" fill="#62645b"/><path d="M308,202.54a66.56,66.56,0,0,0,34.28,10.8,67.06,67.06,0,0,1,61.95,46c45-24.75,45.73-85.83,7.28-113.5-39.88-29.53-105.23-4.57-106,55Z" fill="#9dcecb" stroke="#62645b" stroke-linejoin="round" stroke-width="2.86"/><path d="M435.4,223.14c-6.15,17-17.4,28.64-31.16,36.25a67.05,67.05,0,0,0-61.95-46A66.64,66.64,0,0,1,308,202.54C338.08,140.79,427.19,157,435.4,223.14Z" fill="#9dcecb" stroke="#62645b" stroke-linejoin="round" stroke-width="2.86"/><path d="M216.12,309.33V402H192l-1.48-10.94a36.94,36.94,0,0,1-28,12.79c-20.57,0-36.69-16.68-36.69-37.62V309.33h27v53.56a17.13,17.13,0,0,0,17.42,17.23c10.38,0,18.9-7.6,18.9-17.23V309.33Z" fill="#9dcecb"/><path d="M228.16,392.35,240,373.26c6.12,5.19,18.72,9.27,27.61,9.83,8.72.55,15.2-2,15.2-7.23,0-6.3-8.89-8.9-19.27-11.86-14.27-4.08-31.32-9.27-31.32-26.69,0-17.79,15.38-29.83,38.73-29.83,11.68,0,26.87,2.78,38,10l-12.6,17.42c-5-3.7-14.27-7-21.31-7.78-7.78-.93-15.75,1.11-15.75,6.49,0,6.3,9.82,8.52,20.75,12,13.9,4.26,29.47,10.38,29.47,28.54,0,18.35-14.46,29.65-37.07,29.65C255.59,403.84,238.35,400.14,228.16,392.35Z" fill="#9dcecb"/><path d="M519.86,343.43V402H492.8V346.76c0-9.45-7-15.75-17.24-15.75-10.56,0-18.9,7.6-18.9,17.24V402H429.61V309.33h24.27l1.49,10.75a37.49,37.49,0,0,1,28.16-12.6C505.22,307.48,519.86,321.56,519.86,343.43Z" fill="#9dcecb"/><path d="M533.26,355.66c0-27.06,20.2-48.18,48.37-48.18,28,0,48.37,21.12,48.37,48.18,0,26.87-20.38,48.18-48.37,48.18C553.46,403.84,533.26,382.53,533.26,355.66Zm70,0c0-13.71-8.89-24.65-21.68-24.65C568.47,331,560,342,560,355.66s8.52,24.46,21.68,24.46C594.42,380.12,603.31,369.37,603.31,355.66Z" fill="#9dcecb"/><path d="M316.9,355.57a49.16,49.16,0,0,0,6.49,24.71c5.85,10.13,14.93,18.56,26.67,22.09a37.13,37.13,0,0,0,18.59.39c8.07-2.59,13.78-5.54,19.42-11.79l1.48,10.93h24.09V309.24H389.36l-.52,3.8-1,6.95c-6.52-7.22-16.46-12.51-25.68-12.51-14.2,0-25.95,7-34,16.49A48.45,48.45,0,0,0,316.9,355.57Zm26.69,0c0-13.72,8.89-24.65,21.68-24.65.42,0,.82,0,1.22,0,10.89.57,18.38,8.8,20.09,19.72a31.48,31.48,0,0,1,.37,4.9,31.13,31.13,0,0,1-.37,4.88c-1.77,11.3-9.76,19.58-21.31,19.58a20.21,20.21,0,0,1-14.82-6.22C346.12,369.36,343.59,362.89,343.59,355.57Zm6.47,46.8a37.13,37.13,0,0,0,18.59.39c6.54-1.39,13.78-5.54,19.42-11.79" fill="#9dcecb"/><path d="M62.64,414.69c-10.38,0-16.86,1.29-23,3.7l8-15.87a52.81,52.81,0,0,0,11.83,1.33c18.56,0,33.79-9.38,41.93-23.56a49.26,49.26,0,0,0,6.44-24.63,50.52,50.52,0,0,0-3.66-19s0,0,0,0c-.49-1.22-1.05-2.41-1.65-3.57l11.63-23.23-29.47-8.15-4.86,10a48,48,0,0,0-9.75-3.1,53.64,53.64,0,0,0-10.59-1c-18.69,0-33.87,9.29-42,23.46a50.8,50.8,0,0,0-.84,47.83,46,46,0,0,0,5.32,8L0,430.25l19.64,19.63c11.49-5.54,20.39-8.32,33.92-8.32,12.69,0,20.69,4.4,25.8,12.23H114.9C106.56,428,87.1,414.69,62.64,414.69Zm18.53-59c0,13.72-8.89,24.46-21.68,24.46h-.56c-10.84-.25-18.44-7.86-20.54-18.38a31.49,31.49,0,0,1-.58-6.07c0-12.68,7.29-23,18.78-24.46a22.91,22.91,0,0,1,2.9-.19c9.47,0,16.79,6,20,14.66A29.14,29.14,0,0,1,81.17,355.66Z" fill="#9dcecb"/></g></g></svg>