<svg xmlns="http://www.w3.org/2000/svg" viewBox="0 0 101.92 106.29"><g id="a7a0bea9-550f-40dc-9452-60b994a7d397" data-name="Warstwa 2"><g id="e6baed3e-dcee-480f-9e55-b98d6a18859f" data-name="Warstwa 1"><path d="M73.85,54.17a28,28,0,0,0-18,6.75A27.42,27.42,0,0,1,45.09,38.53,27.18,27.18,0,0,0,69.77,54.29C71.36,54.29,72.68,54.16,73.85,54.17Z" fill="#62645b" stroke="#e5e5d9" stroke-linecap="round" stroke-linejoin="round" stroke-width="2"/><path d="M93.61,23.45c-.45-3.67-1.09-7.32-1.9-10.92a13.64,13.64,0,0,0-2.24-5.1C83.74-.79,70.81.13,66.39,9.2a109,109,0,0,0-9.31,54.09A108.36,108.36,0,0,0,91.2,32.42,13.52,13.52,0,0,0,93.61,23.45Z" fill="#62645b" stroke="#e5e5d9" stroke-linejoin="round" stroke-width="2"/><path d="M66.39,9.2c-.18.39-.35.78-.52,1.17A12.24,12.24,0,0,1,66.39,9.2Z" fill="#62645b" stroke="#e5e5d9" stroke-linejoin="round" stroke-width="2"/><path d="M55.87,60.92a27,27,0,0,0-9.22,20.63l-.07,0a27.18,27.18,0,0,1-1.49-43A27.42,27.42,0,0,0,55.87,60.92Z" fill="#62645b" stroke="#e5e5d9" stroke-linejoin="round" stroke-width="2"/><path d="M5.61,54.84a45,45,0,0,0,12.91-37,22,22,0,0,1,4.08-.37,22.55,22.55,0,1,1-17,37.36Z" fill="#62645b" stroke="#e5e5d9" stroke-linejoin="round" stroke-width="2"/><path d="M36.79,34A22.54,22.54,0,0,1,5.61,54.84a45,45,0,0,0,12.91-37,22,22,0,0,1,4.08-.37,22.52,22.52,0,0,1,8.63,1.71A22.39,22.39,0,0,1,36.79,34Z" fill="#62645b" stroke="#e5e5d9" stroke-linejoin="round" stroke-width="2"/><path d="M25,42.74a3.68,3.68,0,1,1-.29-1.44A3.63,3.63,0,0,1,25,42.74Z" fill="#62645b" stroke="#e5e5d9" stroke-linejoin="round" stroke-width="2"/><path d="M.05,40a21.82,21.82,0,0,1,1.27-8.81,22.18,22.18,0,0,1,4.79-7.68,22.84,22.84,0,0,1,7.5-5.21,22.88,22.88,0,0,1,18,0,22.9,22.9,0,0,1,7.5,5.21,22.48,22.48,0,0,1,4.79,7.68A21.81,21.81,0,0,1,45.14,40,23.46,23.46,0,0,0,38,24.63a22.34,22.34,0,0,0-30.79,0A23.46,23.46,0,0,0,.05,40Z" fill="#e5e5d9"/><path d="M12.52,0a39.22,39.22,0,0,1,6.1,13.65,42.25,42.25,0,0,1,.81,15.08,42.54,42.54,0,0,1-4.52,14.4,39,39,0,0,1-9.3,11.71,53.33,53.33,0,0,0,7.9-12.39,48.87,48.87,0,0,0,3.94-14A48.38,48.38,0,0,0,17.1,14,53.34,53.34,0,0,0,12.52,0Z" fill="#e5e5d9"/><path d="M47.65,82.21A27,27,0,0,0,61.56,86.6a27.22,27.22,0,0,1,25.15,18.69c18.26-10.05,18.56-34.84,3-46.07-16.18-12-42.71-1.86-43,22.33Z" fill="#62645b" stroke="#e5e5d9" stroke-linejoin="round" stroke-width="2"/><path d="M99.36,90.57a26.86,26.86,0,0,1-12.65,14.72A27.22,27.22,0,0,0,61.56,86.6a27,27,0,0,1-13.91-4.39C59.85,57.15,96,63.74,99.36,90.57Z" fill="#62645b" stroke="#e5e5d9" stroke-linejoin="round" stroke-width="2"/></g></g></svg>